<svg xmlns="http://www.w3.org/2000/svg" xmlns:xlink="http://www.w3.org/1999/xlink" viewBox="0 0 639.96 471.97">
  <defs>
    <style>
      .cls-1 {
        fill: url(#linear-gradient);
      }

      .cls-2 {
        fill: #fff;
      }

      .cls-3, .cls-4 {
        fill: none;
        stroke: #fff;
        stroke-miterlimit: 10;
      }

      .cls-3 {
        stroke-width: 1.5px;
      }

      .cls-4 {
        opacity: 0.51;
      }
    </style>
    <linearGradient id="linear-gradient" x1="10.22" y1="284.05" x2="637.16" y2="186.78" gradientUnits="userSpaceOnUse">
      <stop offset="0.01" stop-color="#02498b"/>
      <stop offset="0.26" stop-color="#024c90"/>
      <stop offset="0.58" stop-color="#0254a0"/>
      <stop offset="0.93" stop-color="#0262b9"/>
      <stop offset="1" stop-color="#0265bf"/>
    </linearGradient>
  </defs>
  <title>tile4_2</title>
  <g id="Layer_2" data-name="Layer 2">
    <g id="Layer_1-2" data-name="Layer 1">
      <g>
        <rect class="cls-1" width="639.96" height="471.97"/>
        <path class="cls-2" d="M64.56,160.68c0-2.43,0-4.86,0-7.29a1,1,0,0,0-.71-1.1,6.48,6.48,0,0,1-4.23-6.19c-.11-7.11-2.59-13.47-6.06-19.5-2.52-4.37-5.23-8.64-7.92-12.91a42.05,42.05,0,0,1-6.82-25A42.65,42.65,0,0,1,84.46,47.93a42.53,42.53,0,0,1,38.41,32.91c2.63,11.76.58,22.69-5.77,32.89-3,4.76-5.94,9.51-8.71,14.38a38.49,38.49,0,0,0-5,14.21c-.16,1.27-.2,2.55-.28,3.83A6.64,6.64,0,0,1,99,152.28a1.06,1.06,0,0,0-.76,1.16c0,4.43,0,8.86,0,13.29A9.83,9.83,0,0,1,95,174.44c-2,1.9-4.11,3.78-6,5.84-3.6,3.95-11.6,3.91-15.15,0-2-2.2-4.29-4.16-6.39-6.27a12.25,12.25,0,0,1-1.78-2.33,8.7,8.7,0,0,1-1.11-4.63C64.57,164.95,64.56,162.81,64.56,160.68ZM90.29,147c2.08,0,4,0,5.88,0,.84,0,1.11-.53,1.12-1.3a42,42,0,0,1,4.4-17.39c2.93-6.26,6.86-11.92,10.44-17.79,7.69-12.61,8.21-25.54,1-38.42a36.65,36.65,0,0,0-63.69,36.27c2.23,3.93,4.77,7.69,7.12,11.55,4.89,8,8.89,16.36,9,26,0,.74.48,1,1.16,1h5.81c0-.56,0-15.78,0-23,0-.68.21-1.35.28-2a3.11,3.11,0,0,0,0-1.38q-5.5-13.83-11.09-27.63a4.93,4.93,0,0,0-1.31-1.73c-1-.89-1.27-2-.57-2.93A2,2,0,0,1,62.69,88a6.38,6.38,0,0,0,7.37,0,1.91,1.91,0,0,1,2.69.06c4.49,3.7,12.82,3.67,17.27,0a1.92,1.92,0,0,1,2.69-.1,6.46,6.46,0,0,0,7.46,0,2.11,2.11,0,0,1,1.53-.42,3,3,0,0,1,1.54,1.3,1.73,1.73,0,0,1-.59,2.11c-.47.43-1.09.83-1.31,1.38q-5.75,14.16-11.39,28.35a2.1,2.1,0,0,0,0,1,17.4,17.4,0,0,1,.36,2.21c0,7.25,0,14.5,0,21.76Zm-5.1-25.44c0,.38,0,.73,0,1.08q0,6.89,0,13.78c0,.36.07.8-.11,1.05a1.51,1.51,0,0,1-1,.65c-.27,0-.6-.48-.77-.81s0-.58,0-.87q0-11.47,0-22.94c0-2,0-3.94,0-5.91,0-.27-.28-.74-.45-.76-1-.07-2.07,0-3.21,0,0,.53,0,.91,0,1.3q0,14.18,0,28.36c0,.3.09.64,0,.87s-.49.76-.79.8a1.32,1.32,0,0,1-1-.58,2,2,0,0,1-.13-1q0-6.94,0-13.88c0-.35,0-.69,0-1.11-.44.09-.72.17-1,.22-1.94.32-2.15.57-2.15,2.53,0,7.19,0,22.31,0,22.68H88.35c0-.42,0-19.35,0-23.19a1.72,1.72,0,0,0-1.3-1.94A16.44,16.44,0,0,0,85.19,121.52Zm6.16-29.69c-1.73,3.68-3.4,7.23-5,10.8-.09.2.14.63.32.87a2,2,0,0,1-.48,3,7.52,7.52,0,0,1-1,.4c0,3.83,0,7.6,0,11.37a1.43,1.43,0,0,0,1.11,1.46,13.33,13.33,0,0,0,1.83.26L99,92.8A11.53,11.53,0,0,1,91.35,91.83ZM63.83,93l10.83,27c.42-.07.73-.14,1.05-.19,1.55-.21,1.88-.58,1.88-2.16q0-2.61,0-5.22c0-1.87,0-3.73,0-5.57-2.13-.8-2.39-1.73-1.17-3.64a1.11,1.11,0,0,0-.06-.88q-2.32-5-4.69-10a2,2,0,0,0-.25-.36,30.27,30.27,0,0,1-3.68.92A32.56,32.56,0,0,1,63.83,93Zm4.64,71.6c0,1,0,1.94,0,2.88,0,.77.26,1,1,1,4.82,0,20.75,0,23.9,0,.42,0,.9.08.9-.58,0-1.07,0-2.14,0-3.27Zm0-7.86H94.23v-3.8H68.51Zm25.77,2.06H68.47v3.76H94.28ZM74.36,93.48c1.48,3.16,2.85,6.1,4.25,9,.1.2.53.33.81.34,1.28,0,2.56,0,3.83,0a1,1,0,0,0,1.11-.7c1.2-2.62,2.44-5.22,3.66-7.83.1-.22.16-.45.29-.81A20.39,20.39,0,0,1,74.36,93.48Zm17,78.94H71.52c.28.33.45.55.64.75.94.92,1.92,1.79,2.81,2.75a2.4,2.4,0,0,0,2,.78c2.72,0,5.45-.09,8.17,0a3.74,3.74,0,0,0,3.25-1.34C89.25,174.39,90.24,173.5,91.32,172.42Z"/>
        <g>
          <path class="cls-2" d="M125.48,269.64a.5.5,0,0,1,.53-.53h6.71a.5.5,0,0,1,.53.53v34.87a.5.5,0,0,1-.53.53H126a.5.5,0,0,1-.53-.53Z"/>
          <path class="cls-2" d="M140.11,269.64a.5.5,0,0,1,.53-.53H147a1,1,0,0,1,.9.53l12.68,22.61h.26V269.64a.5.5,0,0,1,.53-.53h6a.5.5,0,0,1,.53.53v34.87a.5.5,0,0,1-.53.53H161a.93.93,0,0,1-.9-.53L147.4,281.95h-.26v22.56a.5.5,0,0,1-.53.53h-6a.5.5,0,0,1-.53-.53Z"/>
          <path class="cls-2" d="M173.75,287.07c0-5.55.21-7.4,1-9.72,1.9-5.86,6.5-8.82,12.78-8.82,6.08,0,10.51,3,12.52,8a.41.41,0,0,1-.26.63L194,279.73a.5.5,0,0,1-.74-.26c-1-2.32-2.69-4.07-5.71-4.07a5.27,5.27,0,0,0-5.39,4c-.42,1.32-.58,2.59-.58,7.71s.16,6.39.58,7.71a5.27,5.27,0,0,0,5.39,4c3,0,4.7-1.74,5.71-4.07a.5.5,0,0,1,.74-.26L199.8,297a.41.41,0,0,1,.26.63c-2,5-6.44,8-12.52,8-6.29,0-10.88-3-12.78-8.82C174,294.47,173.75,292.62,173.75,287.07Z"/>
          <path class="cls-2" d="M214.74,269.64a.68.68,0,0,1,.69-.53h6.66a.69.69,0,0,1,.69.53l12.15,34.87c.11.32,0,.53-.37.53h-6.87a.64.64,0,0,1-.69-.53l-2.06-6.29H212.37l-2,6.29a.64.64,0,0,1-.69.53h-6.92c-.37,0-.48-.21-.37-.53Zm8.08,22L218.76,279h-.16l-4.07,12.57Z"/>
          <path class="cls-2" d="M239.09,269.64a.5.5,0,0,1,.53-.53H246a1,1,0,0,1,.9.53l12.68,22.61h.26V269.64a.5.5,0,0,1,.53-.53h6a.5.5,0,0,1,.53.53v34.87a.5.5,0,0,1-.53.53H260a.93.93,0,0,1-.9-.53l-12.73-22.56h-.26v22.56a.5.5,0,0,1-.53.53h-6a.5.5,0,0,1-.53-.53Z"/>
          <path class="cls-2" d="M273.69,269.64a.5.5,0,0,1,.53-.53h13.37c6.29,0,10.67,2.69,12.41,8.08.63,2,1,4,1,9.88s-.32,7.87-1,9.88c-1.74,5.39-6.13,8.08-12.41,8.08H274.22a.5.5,0,0,1-.53-.53Zm8.08,28.47h4.07c3.59,0,5.76-1.06,6.66-4,.37-1.06.58-2.43.58-7.08s-.21-6-.58-7.08c-.9-2.91-3.06-4-6.66-4h-4.07a.28.28,0,0,0-.32.32V297.8A.28.28,0,0,0,281.77,298.11Z"/>
          <path class="cls-2" d="M307,269.64a.5.5,0,0,1,.53-.53h23a.5.5,0,0,1,.53.53v5.65a.5.5,0,0,1-.53.53H315.05a.28.28,0,0,0-.32.32v7.13a.28.28,0,0,0,.32.32h12.89a.5.5,0,0,1,.53.53v5.6a.5.5,0,0,1-.53.53H315.05a.28.28,0,0,0-.32.32V298a.28.28,0,0,0,.32.32h15.48a.5.5,0,0,1,.53.53v5.65a.5.5,0,0,1-.53.53h-23a.5.5,0,0,1-.53-.53Z"/>
          <path class="cls-2" d="M335.07,300.7a.65.65,0,0,1-.05-.9l4-4.6a.53.53,0,0,1,.79-.05,15.25,15.25,0,0,0,9.4,3.7c3.75,0,5.86-1.74,5.86-4.28,0-2.11-1.27-3.43-5.55-4l-1.9-.26c-7.29-1-11.36-4.44-11.36-10.78,0-6.6,5-11,12.73-11a20.32,20.32,0,0,1,12.2,3.75c.32.21.37.42.11.79l-3.22,4.81a.53.53,0,0,1-.74.16,14.85,14.85,0,0,0-8.35-2.75c-3.17,0-4.81,1.64-4.81,3.91,0,2.06,1.48,3.38,5.6,4l1.9.26c7.4,1,11.3,4.38,11.3,10.88s-4.81,11.3-14.1,11.3C343.31,305.61,337.87,303.4,335.07,300.7Z"/>
          <path class="cls-2" d="M367.29,287.07c0-5.55.21-7.4,1-9.72,1.9-5.86,6.5-8.82,12.78-8.82,6.08,0,10.51,3,12.52,8a.41.41,0,0,1-.26.63l-5.76,2.59a.5.5,0,0,1-.74-.26c-1-2.32-2.69-4.07-5.71-4.07a5.27,5.27,0,0,0-5.39,4c-.42,1.32-.58,2.59-.58,7.71s.16,6.39.58,7.71a5.27,5.27,0,0,0,5.39,4c3,0,4.7-1.74,5.71-4.07a.5.5,0,0,1,.74-.26l5.76,2.59a.41.41,0,0,1,.26.63c-2,5-6.44,8-12.52,8-6.29,0-10.88-3-12.78-8.82C367.5,294.47,367.29,292.62,367.29,287.07Z"/>
          <path class="cls-2" d="M398.61,269.64a.5.5,0,0,1,.53-.53h23a.5.5,0,0,1,.53.53v5.65a.5.5,0,0,1-.53.53H406.69a.28.28,0,0,0-.32.32v7.13a.28.28,0,0,0,.32.32h12.89a.5.5,0,0,1,.53.53v5.6a.5.5,0,0,1-.53.53H406.69a.28.28,0,0,0-.32.32V298a.28.28,0,0,0,.32.32h15.48a.5.5,0,0,1,.53.53v5.65a.5.5,0,0,1-.53.53h-23a.5.5,0,0,1-.53-.53Z"/>
          <path class="cls-2" d="M428.46,269.64a.5.5,0,0,1,.53-.53h6.34a1,1,0,0,1,.9.53l12.68,22.61h.26V269.64a.5.5,0,0,1,.53-.53h6a.5.5,0,0,1,.53.53v34.87a.5.5,0,0,1-.53.53h-6.29a.93.93,0,0,1-.9-.53l-12.73-22.56h-.26v22.56a.5.5,0,0,1-.53.53h-6a.5.5,0,0,1-.53-.53Z"/>
          <path class="cls-2" d="M471,305a.5.5,0,0,1-.53-.53V276.35a.28.28,0,0,0-.32-.32H461a.5.5,0,0,1-.53-.53v-5.86a.5.5,0,0,1,.53-.53h26.57a.5.5,0,0,1,.53.53v5.86a.5.5,0,0,1-.53.53h-9.09a.28.28,0,0,0-.32.32v28.16a.5.5,0,0,1-.53.53Z"/>
        </g>
        <g>
          <path class="cls-2" d="M133.78,348.77a4.39,4.39,0,0,1-1.86,1.81,6.27,6.27,0,0,1-3,.65,5.46,5.46,0,0,1-4-1.38,5,5,0,0,1-1.39-3.71v-9.82h2.79V346a3.49,3.49,0,0,0,.64,2.3,2.45,2.45,0,0,0,2,.76,2.47,2.47,0,0,0,2-.76,3.49,3.49,0,0,0,.64-2.3v-9.68h2.81v9.82A5.44,5.44,0,0,1,133.78,348.77Z"/>
          <path class="cls-2" d="M146.43,341a7.78,7.78,0,0,1,1,4.33,8.51,8.51,0,0,1-.52,3.07,4.67,4.67,0,0,1-1.52,2.1,3.82,3.82,0,0,1-2.38.76,3.49,3.49,0,0,1-2.81-1.23v5.22l-2.7.3V339.74h2.37l.15,1.37a4.16,4.16,0,0,1,1.49-1.27,3.9,3.9,0,0,1,1.74-.42A3.53,3.53,0,0,1,146.43,341Zm-1.81,4.35a6.06,6.06,0,0,0-.54-3,1.77,1.77,0,0,0-1.62-.9,2.1,2.1,0,0,0-1.24.41,3.66,3.66,0,0,0-1,1.11v5a2.38,2.38,0,0,0,2,1.16Q144.63,349.17,144.63,345.32Z"/>
          <path class="cls-2" d="M160.49,351a5.33,5.33,0,0,1-1.49.21,3.32,3.32,0,0,1-2.5-.94,3.85,3.85,0,0,1-.86-2.71v-5.9h-1.75v-1.94h1.75v-2.47l2.7-.32v2.79h2.6l-.27,1.94h-2.32v5.83a1.93,1.93,0,0,0,.29,1.18,1.08,1.08,0,0,0,.9.36,2.58,2.58,0,0,0,1.33-.42l1,1.75A4.31,4.31,0,0,1,160.49,351Z"/>
          <path class="cls-2" d="M171.54,341a6.32,6.32,0,0,1,1.38,4.32,7.16,7.16,0,0,1-.63,3.1,4.81,4.81,0,0,1-1.82,2.08,5.2,5.2,0,0,1-2.81.74,4.9,4.9,0,0,1-3.87-1.57,6.32,6.32,0,0,1-1.39-4.34,7.11,7.11,0,0,1,.63-3.08,4.8,4.8,0,0,1,1.83-2.07,5.24,5.24,0,0,1,2.82-.74A4.87,4.87,0,0,1,171.54,341Zm-6.29,4.32a5.55,5.55,0,0,0,.6,2.93,2.2,2.2,0,0,0,3.61,0,5.55,5.55,0,0,0,.6-2.92,5.49,5.49,0,0,0-.6-2.91,2,2,0,0,0-1.79-.94Q165.25,341.48,165.25,345.32Z"/>
          <path class="cls-2" d="M188.95,338.35a9.67,9.67,0,0,1,1.3,5.47,9.76,9.76,0,0,1-1.3,5.5,4.72,4.72,0,0,1-7.58,0,9.76,9.76,0,0,1-1.3-5.5,9.67,9.67,0,0,1,1.3-5.47,4.73,4.73,0,0,1,7.58,0Zm-5.55,1.36a10.9,10.9,0,0,0-.55,4.11,11.06,11.06,0,0,0,.55,4.14,1.87,1.87,0,0,0,3.51,0,11.08,11.08,0,0,0,.55-4.15,10.91,10.91,0,0,0-.55-4.12,1.88,1.88,0,0,0-3.51,0Z"/>
          <path class="cls-2" d="M195,348.31a1.7,1.7,0,0,1,0,2.42,1.67,1.67,0,0,1-1.23.51,1.61,1.61,0,0,1-1.19-.51,1.74,1.74,0,0,1,0-2.42,1.62,1.62,0,0,1,1.21-.5A1.69,1.69,0,0,1,195,348.31Z"/>
          <path class="cls-2" d="M205.67,337.94a5.94,5.94,0,0,1,1.29,4,11.22,11.22,0,0,1-.87,4.74,6.76,6.76,0,0,1-2.66,2.95,16.39,16.39,0,0,1-4.75,1.8l-.57-1.92a11,11,0,0,0,4.25-1.91,4.75,4.75,0,0,0,1.71-3.22,3.63,3.63,0,0,1-3,1.5,3.81,3.81,0,0,1-2-.56,3.86,3.86,0,0,1-1.45-1.62,5.41,5.41,0,0,1-.53-2.45,4.84,4.84,0,0,1,.66-2.55,4.45,4.45,0,0,1,1.79-1.68,5.32,5.32,0,0,1,2.5-.59A4.62,4.62,0,0,1,205.67,337.94Zm-1.48,4.51a6.53,6.53,0,0,0-.5-3.07,1.82,1.82,0,0,0-1.72-.92,2,2,0,0,0-1.65.72,3.94,3.94,0,0,0,0,4.1,1.84,1.84,0,0,0,1.47.65A2.85,2.85,0,0,0,204.19,342.45Z"/>
          <path class="cls-2" d="M218,354.18a6.51,6.51,0,0,1-3.76,1.34l-.27-2a6.77,6.77,0,0,0,1.76-.48,2.84,2.84,0,0,0,1.07-.81,5.45,5.45,0,0,0,.74-1.35h-.93l-3.55-11.18H216l2.43,9.38,2.54-9.38h2.79L220.1,351A6.87,6.87,0,0,1,218,354.18Z"/>
          <path class="cls-2" d="M234.17,346.17h-7a3.66,3.66,0,0,0,.86,2.32,2.58,2.58,0,0,0,1.89.7,4,4,0,0,0,1.39-.24,6.51,6.51,0,0,0,1.39-.75l1.12,1.54a6.43,6.43,0,0,1-4.14,1.5,5,5,0,0,1-3.94-1.56,6.21,6.21,0,0,1-1.38-4.27,7.65,7.65,0,0,1,.59-3.07,4.88,4.88,0,0,1,1.71-2.13,5.09,5.09,0,0,1,6.3.72,6.14,6.14,0,0,1,1.29,4.15Q234.23,345.28,234.17,346.17Zm-2.62-1.88q0-2.94-2.18-2.94a1.85,1.85,0,0,0-1.55.73,4.35,4.35,0,0,0-.67,2.33h4.39Z"/>
          <path class="cls-2" d="M245.19,348.92a1.28,1.28,0,0,0,.64.48l-.57,1.8a3.55,3.55,0,0,1-1.55-.45,2.31,2.31,0,0,1-.92-1.17,3.58,3.58,0,0,1-1.43,1.26,4.35,4.35,0,0,1-1.91.41,3.62,3.62,0,0,1-2.64-1,3.33,3.33,0,0,1-1-2.49,3.23,3.23,0,0,1,1.32-2.78,6.33,6.33,0,0,1,3.77-1h1.39v-.63a1.93,1.93,0,0,0-.5-1.51,2.4,2.4,0,0,0-1.6-.43,9.44,9.44,0,0,0-3,.59l-.63-1.84a11.29,11.29,0,0,1,4.06-.8q4.29,0,4.29,3.85V348A1.79,1.79,0,0,0,245.19,348.92Zm-2.86-1v-2.26h-1.12q-2.62,0-2.62,1.94a1.79,1.79,0,0,0,.4,1.25,1.51,1.51,0,0,0,1.18.44A2.39,2.39,0,0,0,242.33,347.9Z"/>
          <path class="cls-2" d="M254.9,339.59l-.46,2.62a4.1,4.1,0,0,0-1-.13,1.9,1.9,0,0,0-1.56.71A5.46,5.46,0,0,0,251,345v5.94h-2.7V339.74h2.35l.25,2.2a4,4,0,0,1,1.16-1.85,2.64,2.64,0,0,1,1.75-.64A4,4,0,0,1,254.9,339.59Z"/>
          <path class="cls-2" d="M268.5,339.59l-.46,2.62a4.1,4.1,0,0,0-1-.13,1.9,1.9,0,0,0-1.56.71,5.46,5.46,0,0,0-.91,2.19v5.94h-2.7V339.74h2.35l.25,2.2a4,4,0,0,1,1.16-1.85,2.64,2.64,0,0,1,1.75-.64A4,4,0,0,1,268.5,339.59Z"/>
          <path class="cls-2" d="M278.23,348.92a1.28,1.28,0,0,0,.64.48l-.57,1.8a3.55,3.55,0,0,1-1.55-.45,2.31,2.31,0,0,1-.92-1.17,3.58,3.58,0,0,1-1.43,1.26,4.35,4.35,0,0,1-1.91.41,3.62,3.62,0,0,1-2.64-1,3.33,3.33,0,0,1-1-2.49,3.23,3.23,0,0,1,1.32-2.78,6.33,6.33,0,0,1,3.77-1h1.39v-.63a1.93,1.93,0,0,0-.5-1.51,2.4,2.4,0,0,0-1.6-.43,9.44,9.44,0,0,0-3,.59l-.63-1.84a11.29,11.29,0,0,1,4.06-.8q4.29,0,4.29,3.85V348A1.79,1.79,0,0,0,278.23,348.92Zm-2.86-1v-2.26h-1.12q-2.62,0-2.62,1.94a1.79,1.79,0,0,0,.4,1.25,1.51,1.51,0,0,0,1.18.44A2.39,2.39,0,0,0,275.37,347.9Z"/>
          <path class="cls-2" d="M286.39,351a5.33,5.33,0,0,1-1.49.21,3.32,3.32,0,0,1-2.5-.94,3.85,3.85,0,0,1-.86-2.71v-5.9h-1.75v-1.94h1.75v-2.47l2.7-.32v2.79h2.6l-.27,1.94h-2.32v5.83a1.93,1.93,0,0,0,.29,1.18,1.08,1.08,0,0,0,.9.36,2.58,2.58,0,0,0,1.33-.42l1,1.75A4.31,4.31,0,0,1,286.39,351Z"/>
          <path class="cls-2" d="M298.13,346.17h-7a3.66,3.66,0,0,0,.86,2.32,2.58,2.58,0,0,0,1.89.7,4,4,0,0,0,1.39-.24,6.51,6.51,0,0,0,1.39-.75l1.12,1.54a6.43,6.43,0,0,1-4.14,1.5,5,5,0,0,1-3.94-1.56,6.21,6.21,0,0,1-1.38-4.27,7.65,7.65,0,0,1,.59-3.07,4.88,4.88,0,0,1,1.71-2.13,5.09,5.09,0,0,1,6.3.72,6.14,6.14,0,0,1,1.29,4.15Q298.19,345.28,298.13,346.17Zm-2.62-1.88q0-2.94-2.18-2.94a1.85,1.85,0,0,0-1.55.73,4.35,4.35,0,0,0-.67,2.33h4.39Z"/>
          <path class="cls-2" d="M310.09,350.92H307.7l-.19-1.42a3.94,3.94,0,0,1-1.33,1.27,3.65,3.65,0,0,1-1.86.46,3.6,3.6,0,0,1-3.15-1.58,7.45,7.45,0,0,1-1.1-4.31,8.06,8.06,0,0,1,.55-3.07,4.74,4.74,0,0,1,1.57-2.09,4,4,0,0,1,2.42-.75,3.72,3.72,0,0,1,2.77,1.2V335l2.71.3Zm-3.74-2.08a3.6,3.6,0,0,0,1-1.09v-5.11a3.53,3.53,0,0,0-1-.89,2.22,2.22,0,0,0-1.14-.3,2,2,0,0,0-1.72,1,5.41,5.41,0,0,0-.62,2.91,6,6,0,0,0,.55,3,1.77,1.77,0,0,0,1.61.9A2.32,2.32,0,0,0,306.35,348.84Z"/>
          <path class="cls-2" d="M321.37,348.86a.56.56,0,0,0,.49.2,2,2,0,0,0,.63-.11l.57,1.9a4.93,4.93,0,0,1-1.92.38,2.52,2.52,0,0,1-1.94-.73,3,3,0,0,1-.68-2.12V335.26l2.7-.3v13.23A1.14,1.14,0,0,0,321.37,348.86Z"/>
          <path class="cls-2" d="M327.42,334.56a1.6,1.6,0,0,1,.47,1.17,1.56,1.56,0,0,1-.47,1.16,1.69,1.69,0,0,1-1.24.46,1.66,1.66,0,0,1-1.21-.46,1.56,1.56,0,0,1-.48-1.16,1.59,1.59,0,0,1,.48-1.17,1.64,1.64,0,0,1,1.21-.48A1.67,1.67,0,0,1,327.42,334.56Zm-2.57,16.36V339.74h2.7v11.18Z"/>
          <path class="cls-2" d="M334.18,337.39a1.67,1.67,0,0,0-.35,1.17v1.18h2.68l-.3,1.94h-2.39v9.23h-2.71v-9.23h-1.82v-1.94h1.82v-1.23a3.39,3.39,0,0,1,1-2.57,4,4,0,0,1,2.91-1,6.83,6.83,0,0,1,2.89.66l-.78,1.82a4.32,4.32,0,0,0-1.84-.42A1.53,1.53,0,0,0,334.18,337.39Z"/>
          <path class="cls-2" d="M347,346.17h-7a3.66,3.66,0,0,0,.86,2.32,2.58,2.58,0,0,0,1.89.7,4,4,0,0,0,1.39-.24,6.51,6.51,0,0,0,1.39-.75l1.12,1.54a6.43,6.43,0,0,1-4.14,1.5,5,5,0,0,1-3.94-1.56,6.21,6.21,0,0,1-1.38-4.27,7.65,7.65,0,0,1,.59-3.07,4.88,4.88,0,0,1,1.71-2.13,5.09,5.09,0,0,1,6.3.72,6.14,6.14,0,0,1,1.29,4.15Q347.1,345.28,347,346.17Zm-2.62-1.88q0-2.94-2.18-2.94a1.85,1.85,0,0,0-1.55.73,4.35,4.35,0,0,0-.67,2.33h4.39Z"/>
          <path class="cls-2" d="M356.14,342.24l-2,1.44-1.52-2.75-1.5,2.75-2-1.42,2.13-2.3-3.08-.59.74-2.24,2.85,1.31-.4-3.17h2.45l-.4,3.19,2.83-1.35.76,2.26L354,340Z"/>
          <path class="cls-2" d="M134.87,386.84l-.38-6.11q-.19-3.19-.19-5v-.91l-2.66,10.48H129l-2.83-10.5q.06,1,.06,2,0,1.61-.15,4l-.36,6H123l1.16-14.6h3.59l2.6,10.23,2.45-10.23h3.63l1.14,14.6Z"/>
          <path class="cls-2" d="M148.76,376.92a6.32,6.32,0,0,1,1.38,4.32,7.16,7.16,0,0,1-.63,3.1,4.81,4.81,0,0,1-1.82,2.08,5.2,5.2,0,0,1-2.81.74,4.9,4.9,0,0,1-3.87-1.57,6.32,6.32,0,0,1-1.39-4.34,7.11,7.11,0,0,1,.63-3.08,4.8,4.8,0,0,1,1.83-2.07,5.24,5.24,0,0,1,2.82-.74A4.87,4.87,0,0,1,148.76,376.92Zm-6.29,4.32a5.55,5.55,0,0,0,.6,2.93,2.2,2.2,0,0,0,3.61,0,5.55,5.55,0,0,0,.6-2.92,5.49,5.49,0,0,0-.6-2.91,2,2,0,0,0-1.79-.94Q142.47,377.39,142.47,381.24Z"/>
          <path class="cls-2" d="M160.18,376.68l-1.06,1.63a4.87,4.87,0,0,0-2.75-1,2.31,2.31,0,0,0-1.3.31.94.94,0,0,0-.46.81,1,1,0,0,0,.19.63,1.73,1.73,0,0,0,.69.48,11.39,11.39,0,0,0,1.47.5,6.46,6.46,0,0,1,2.69,1.29,2.88,2.88,0,0,1,.88,2.24,3,3,0,0,1-1.35,2.61,5.74,5.74,0,0,1-3.36.94,7.11,7.11,0,0,1-2.5-.42,6.06,6.06,0,0,1-2-1.16l1.37-1.54a4.7,4.7,0,0,0,3,1.12,2.63,2.63,0,0,0,1.46-.36,1.09,1.09,0,0,0,.55-1,1.36,1.36,0,0,0-.2-.79,1.71,1.71,0,0,0-.72-.52,13.19,13.19,0,0,0-1.62-.55,5.4,5.4,0,0,1-2.51-1.3,2.88,2.88,0,0,1-.8-2.08,2.76,2.76,0,0,1,.54-1.67,3.57,3.57,0,0,1,1.52-1.16,5.65,5.65,0,0,1,2.25-.42A6.29,6.29,0,0,1,160.18,376.68Z"/>
          <path class="cls-2" d="M167.82,386.94a5.33,5.33,0,0,1-1.49.21,3.32,3.32,0,0,1-2.5-.94,3.85,3.85,0,0,1-.86-2.71v-5.9h-1.75v-1.94H163v-2.47l2.7-.32v2.79h2.6L168,377.6h-2.32v5.83a1.93,1.93,0,0,0,.29,1.18,1.08,1.08,0,0,0,.9.36,2.58,2.58,0,0,0,1.33-.42l1,1.75A4.31,4.31,0,0,1,167.82,386.94Z"/>
          <path class="cls-2" d="M173.41,384.78a.56.56,0,0,0,.49.2,2,2,0,0,0,.63-.11l.57,1.9a4.93,4.93,0,0,1-1.92.38,2.52,2.52,0,0,1-1.94-.73,3,3,0,0,1-.68-2.12V371.18l2.7-.3v13.23A1.14,1.14,0,0,0,173.41,384.78Z"/>
          <path class="cls-2" d="M180.25,390.1a6.51,6.51,0,0,1-3.76,1.34l-.27-2A6.77,6.77,0,0,0,178,389a2.84,2.84,0,0,0,1.07-.81,5.45,5.45,0,0,0,.74-1.35h-.93l-3.55-11.18h2.87l2.43,9.38,2.54-9.38h2.79l-3.63,11.22A6.87,6.87,0,0,1,180.25,390.1Z"/>
          <path class="cls-2" d="M201.77,376.89a7.78,7.78,0,0,1,1,4.33,8.51,8.51,0,0,1-.52,3.07,4.67,4.67,0,0,1-1.52,2.1,3.82,3.82,0,0,1-2.38.76,3.49,3.49,0,0,1-2.81-1.23v5.22l-2.7.3V375.66h2.37l.15,1.37a4.16,4.16,0,0,1,1.49-1.27,3.9,3.9,0,0,1,1.74-.42A3.53,3.53,0,0,1,201.77,376.89ZM200,381.24a6.06,6.06,0,0,0-.54-3,1.77,1.77,0,0,0-1.62-.9,2.1,2.1,0,0,0-1.24.41,3.66,3.66,0,0,0-1,1.11v5a2.38,2.38,0,0,0,2,1.16Q200,385.08,200,381.24Z"/>
          <path class="cls-2" d="M213.74,376.25a3.52,3.52,0,0,1,.85,2.49v8.09h-2.71v-7.67a2.15,2.15,0,0,0-.35-1.39,1.28,1.28,0,0,0-1-.4,2,2,0,0,0-1.25.43,5,5,0,0,0-1.1,1.24v7.8h-2.7V371.2l2.7-.27V377a4,4,0,0,1,3.25-1.67A3,3,0,0,1,213.74,376.25Z"/>
          <path class="cls-2" d="M226.19,384.84a1.28,1.28,0,0,0,.64.48l-.57,1.8a3.55,3.55,0,0,1-1.55-.45,2.31,2.31,0,0,1-.92-1.17,3.58,3.58,0,0,1-1.43,1.26,4.35,4.35,0,0,1-1.91.41,3.62,3.62,0,0,1-2.64-1,3.33,3.33,0,0,1-1-2.49,3.23,3.23,0,0,1,1.32-2.78,6.33,6.33,0,0,1,3.77-1h1.39v-.63a1.93,1.93,0,0,0-.5-1.51,2.4,2.4,0,0,0-1.6-.43,9.44,9.44,0,0,0-3,.59l-.63-1.84a11.29,11.29,0,0,1,4.06-.8q4.29,0,4.29,3.85v4.69A1.79,1.79,0,0,0,226.19,384.84Zm-2.86-1v-2.26h-1.12q-2.62,0-2.62,1.94a1.79,1.79,0,0,0,.4,1.25,1.51,1.51,0,0,0,1.18.44A2.39,2.39,0,0,0,223.33,383.82Z"/>
          <path class="cls-2" d="M236.77,376.68l-1.06,1.63a4.87,4.87,0,0,0-2.75-1,2.31,2.31,0,0,0-1.3.31.94.94,0,0,0-.46.81,1,1,0,0,0,.19.63,1.73,1.73,0,0,0,.69.48,11.39,11.39,0,0,0,1.47.5,6.46,6.46,0,0,1,2.69,1.29,2.88,2.88,0,0,1,.88,2.24,3,3,0,0,1-1.35,2.61,5.74,5.74,0,0,1-3.36.94,7.11,7.11,0,0,1-2.5-.42,6.06,6.06,0,0,1-2-1.16l1.37-1.54a4.7,4.7,0,0,0,3,1.12,2.63,2.63,0,0,0,1.46-.36,1.09,1.09,0,0,0,.55-1,1.36,1.36,0,0,0-.2-.79,1.71,1.71,0,0,0-.72-.52,13.19,13.19,0,0,0-1.62-.55,5.4,5.4,0,0,1-2.51-1.3,2.88,2.88,0,0,1-.8-2.08,2.76,2.76,0,0,1,.54-1.67,3.57,3.57,0,0,1,1.52-1.16,5.65,5.65,0,0,1,2.25-.42A6.29,6.29,0,0,1,236.77,376.68Z"/>
          <path class="cls-2" d="M248.43,382.08h-7a3.66,3.66,0,0,0,.86,2.32,2.58,2.58,0,0,0,1.89.7,4,4,0,0,0,1.39-.24,6.51,6.51,0,0,0,1.39-.75l1.12,1.54a6.43,6.43,0,0,1-4.14,1.5,5,5,0,0,1-3.94-1.56,6.21,6.21,0,0,1-1.38-4.27,7.65,7.65,0,0,1,.59-3.07,4.88,4.88,0,0,1,1.71-2.13,5.09,5.09,0,0,1,6.3.72A6.14,6.14,0,0,1,248.5,381Q248.5,381.2,248.43,382.08Zm-2.62-1.88q0-2.94-2.18-2.94a1.85,1.85,0,0,0-1.55.73,4.35,4.35,0,0,0-.67,2.33h4.39Z"/>
          <path class="cls-2" d="M260.39,386.84H258l-.19-1.42a3.94,3.94,0,0,1-1.33,1.27,3.65,3.65,0,0,1-1.86.46,3.6,3.6,0,0,1-3.15-1.58,7.45,7.45,0,0,1-1.1-4.31,8.06,8.06,0,0,1,.55-3.07,4.74,4.74,0,0,1,1.57-2.09,4,4,0,0,1,2.42-.75,3.72,3.72,0,0,1,2.77,1.2v-5.66l2.71.3Zm-3.74-2.08a3.6,3.6,0,0,0,1-1.09v-5.11a3.53,3.53,0,0,0-1-.89,2.22,2.22,0,0,0-1.14-.3,2,2,0,0,0-1.72,1,5.41,5.41,0,0,0-.62,2.91,6,6,0,0,0,.55,3,1.77,1.77,0,0,0,1.61.9A2.32,2.32,0,0,0,256.65,384.76Z"/>
          <path class="cls-2" d="M277.35,376.92a6.32,6.32,0,0,1,1.38,4.32,7.16,7.16,0,0,1-.63,3.1,4.81,4.81,0,0,1-1.82,2.08,5.2,5.2,0,0,1-2.81.74,4.9,4.9,0,0,1-3.87-1.57,6.32,6.32,0,0,1-1.39-4.34,7.11,7.11,0,0,1,.63-3.08,4.8,4.8,0,0,1,1.83-2.07,5.24,5.24,0,0,1,2.82-.74A4.87,4.87,0,0,1,277.35,376.92Zm-6.29,4.32a5.55,5.55,0,0,0,.6,2.93,2.2,2.2,0,0,0,3.61,0,5.55,5.55,0,0,0,.6-2.92,5.49,5.49,0,0,0-.6-2.91,2,2,0,0,0-1.79-.94Q271.06,377.39,271.06,381.24Z"/>
          <path class="cls-2" d="M287.86,386.84l-.15-1.56a4.14,4.14,0,0,1-1.45,1.42,4,4,0,0,1-2,.46,2.93,2.93,0,0,1-2.31-.92,3.71,3.71,0,0,1-.81-2.55v-8h2.7v7.69a2.17,2.17,0,0,0,.33,1.35,1.27,1.27,0,0,0,1,.4,2.73,2.73,0,0,0,2.26-1.58v-7.86h2.71v11.18Z"/>
          <path class="cls-2" d="M298.54,386.94a5.33,5.33,0,0,1-1.49.21,3.32,3.32,0,0,1-2.5-.94,3.85,3.85,0,0,1-.86-2.71v-5.9h-1.75v-1.94h1.75v-2.47l2.7-.32v2.79H299l-.27,1.94h-2.32v5.83a1.93,1.93,0,0,0,.29,1.18,1.08,1.08,0,0,0,.9.36,2.58,2.58,0,0,0,1.33-.42l1,1.75A4.31,4.31,0,0,1,298.54,386.94Z"/>
          <path class="cls-2" d="M303.5,384.22a1.64,1.64,0,0,1,.5,1.23,2.88,2.88,0,0,1-.13.82,9.21,9.21,0,0,1-.42,1.08l-1.37,3.13h-1.65l.87-3.63a1.6,1.6,0,0,1-.72-1.42,1.66,1.66,0,0,1,1.69-1.69A1.7,1.7,0,0,1,303.5,384.22Z"/>
          <path class="cls-2" d="M320.84,382.08h-7a3.66,3.66,0,0,0,.86,2.32,2.58,2.58,0,0,0,1.89.7,4,4,0,0,0,1.39-.24,6.51,6.51,0,0,0,1.39-.75l1.12,1.54a6.43,6.43,0,0,1-4.14,1.5,5,5,0,0,1-3.94-1.56,6.21,6.21,0,0,1-1.38-4.27,7.65,7.65,0,0,1,.59-3.07,4.88,4.88,0,0,1,1.71-2.13,5.09,5.09,0,0,1,6.3.72A6.14,6.14,0,0,1,320.9,381Q320.9,381.2,320.84,382.08Zm-2.62-1.88q0-2.94-2.18-2.94a1.85,1.85,0,0,0-1.55.73,4.35,4.35,0,0,0-.67,2.33h4.39Z"/>
          <path class="cls-2" d="M326.76,382.4l-2.28,4.44h-3l3.72-5.9-3.34-5.28H325l1.9,3.8,1.88-3.8h2.94l-3.23,5.2,3.74,6h-3.13Z"/>
          <path class="cls-2" d="M339.8,375.66a5.28,5.28,0,0,1,1.66,1l-1.23,1.65a4.29,4.29,0,0,0-1.08-.62,3.24,3.24,0,0,0-1.16-.2q-2.51,0-2.51,3.82a4.67,4.67,0,0,0,.65,2.8A2.2,2.2,0,0,0,338,385a2.93,2.93,0,0,0,1.11-.2,5,5,0,0,0,1.11-.67l1.25,1.77a5.57,5.57,0,0,1-3.61,1.29,5.33,5.33,0,0,1-2.79-.71,4.64,4.64,0,0,1-1.82-2,7,7,0,0,1-.63-3.08,7.37,7.37,0,0,1,.63-3.14,4.86,4.86,0,0,1,1.82-2.11,5.06,5.06,0,0,1,2.77-.75A5.79,5.79,0,0,1,339.8,375.66Z"/>
          <path class="cls-2" d="M352.32,382.08h-7a3.66,3.66,0,0,0,.86,2.32,2.58,2.58,0,0,0,1.89.7,4,4,0,0,0,1.39-.24,6.51,6.51,0,0,0,1.39-.75l1.12,1.54a6.43,6.43,0,0,1-4.14,1.5,5,5,0,0,1-3.94-1.56,6.21,6.21,0,0,1-1.38-4.27,7.65,7.65,0,0,1,.59-3.07,4.88,4.88,0,0,1,1.71-2.13,5.09,5.09,0,0,1,6.3.72,6.14,6.14,0,0,1,1.29,4.15Q352.39,381.2,352.32,382.08Zm-2.62-1.88q0-2.94-2.18-2.94A1.85,1.85,0,0,0,346,378a4.35,4.35,0,0,0-.67,2.33h4.39Z"/>
          <path class="cls-2" d="M363.78,376.89a7.78,7.78,0,0,1,1,4.33,8.51,8.51,0,0,1-.52,3.07,4.67,4.67,0,0,1-1.52,2.1,3.82,3.82,0,0,1-2.38.76,3.49,3.49,0,0,1-2.81-1.23v5.22l-2.7.3V375.66h2.37l.15,1.37a4.16,4.16,0,0,1,1.49-1.27,3.9,3.9,0,0,1,1.74-.42A3.53,3.53,0,0,1,363.78,376.89ZM362,381.24a6.06,6.06,0,0,0-.54-3,1.77,1.77,0,0,0-1.62-.9,2.1,2.1,0,0,0-1.24.41,3.66,3.66,0,0,0-1,1.11v5a2.38,2.38,0,0,0,2,1.16Q362,385.08,362,381.24Z"/>
          <path class="cls-2" d="M372.55,386.94a5.33,5.33,0,0,1-1.49.21,3.32,3.32,0,0,1-2.5-.94,3.85,3.85,0,0,1-.86-2.71v-5.9H366v-1.94h1.75v-2.47l2.7-.32v2.79H373l-.27,1.94h-2.32v5.83a1.93,1.93,0,0,0,.29,1.18,1.08,1.08,0,0,0,.9.36,2.58,2.58,0,0,0,1.33-.42l1,1.75A4.31,4.31,0,0,1,372.55,386.94Z"/>
          <path class="cls-2" d="M384,373.31a1.67,1.67,0,0,0-.35,1.17v1.18h2.68l-.3,1.94H383.7v9.23H381V377.6h-1.82v-1.94H381v-1.23a3.39,3.39,0,0,1,1-2.57,4,4,0,0,1,2.91-1,6.83,6.83,0,0,1,2.89.66l-.78,1.82a4.32,4.32,0,0,0-1.84-.42A1.53,1.53,0,0,0,384,373.31Z"/>
          <path class="cls-2" d="M396.22,376.92a6.32,6.32,0,0,1,1.38,4.32,7.16,7.16,0,0,1-.63,3.1,4.81,4.81,0,0,1-1.82,2.08,5.2,5.2,0,0,1-2.81.74,4.9,4.9,0,0,1-3.87-1.57,6.32,6.32,0,0,1-1.39-4.34,7.11,7.11,0,0,1,.63-3.08,4.8,4.8,0,0,1,1.83-2.07,5.24,5.24,0,0,1,2.82-.74A4.87,4.87,0,0,1,396.22,376.92Zm-6.29,4.32a5.55,5.55,0,0,0,.6,2.93,2.2,2.2,0,0,0,3.61,0,5.55,5.55,0,0,0,.6-2.92,5.49,5.49,0,0,0-.6-2.91,2,2,0,0,0-1.79-.94Q389.93,377.39,389.93,381.24Z"/>
          <path class="cls-2" d="M406.77,375.51l-.46,2.62a4.1,4.1,0,0,0-1-.13,1.9,1.9,0,0,0-1.56.71,5.46,5.46,0,0,0-.91,2.19v5.94h-2.7V375.66h2.35l.25,2.2A4,4,0,0,1,403.9,376a2.64,2.64,0,0,1,1.75-.64A4,4,0,0,1,406.77,375.51Z"/>
          <path class="cls-2" d="M131.17,402l-1.06,1.63a4.87,4.87,0,0,0-2.75-1,2.31,2.31,0,0,0-1.3.31.94.94,0,0,0-.46.81,1,1,0,0,0,.19.63,1.73,1.73,0,0,0,.69.48,11.39,11.39,0,0,0,1.47.5,6.46,6.46,0,0,1,2.69,1.29,2.88,2.88,0,0,1,.88,2.24,3,3,0,0,1-1.35,2.61,5.74,5.74,0,0,1-3.36.94,7.11,7.11,0,0,1-2.5-.42,6.06,6.06,0,0,1-2-1.16l1.37-1.54a4.7,4.7,0,0,0,3,1.12,2.63,2.63,0,0,0,1.46-.36,1.09,1.09,0,0,0,.55-1,1.36,1.36,0,0,0-.2-.79,1.71,1.71,0,0,0-.72-.52,13.19,13.19,0,0,0-1.62-.55,5.4,5.4,0,0,1-2.51-1.3,2.88,2.88,0,0,1-.8-2.08,2.76,2.76,0,0,1,.54-1.67,3.57,3.57,0,0,1,1.52-1.16,5.65,5.65,0,0,1,2.25-.42A6.29,6.29,0,0,1,131.17,402Z"/>
          <path class="cls-2" d="M142.63,402.24a7.78,7.78,0,0,1,1,4.33,8.51,8.51,0,0,1-.52,3.07,4.67,4.67,0,0,1-1.52,2.1,3.82,3.82,0,0,1-2.38.76,3.49,3.49,0,0,1-2.81-1.23v5.22l-2.7.3V401h2.37l.15,1.37a4.16,4.16,0,0,1,1.49-1.27,3.9,3.9,0,0,1,1.74-.42A3.53,3.53,0,0,1,142.63,402.24Zm-1.81,4.35a6.06,6.06,0,0,0-.54-3,1.77,1.77,0,0,0-1.62-.9,2.1,2.1,0,0,0-1.24.41,3.66,3.66,0,0,0-1,1.11v5a2.38,2.38,0,0,0,2,1.16Q140.83,410.44,140.83,406.59Z"/>
          <path class="cls-2" d="M155.43,407.44h-7a3.66,3.66,0,0,0,.86,2.32,2.58,2.58,0,0,0,1.89.7,4,4,0,0,0,1.39-.24,6.51,6.51,0,0,0,1.39-.75l1.12,1.54a6.43,6.43,0,0,1-4.14,1.5,5,5,0,0,1-3.94-1.56,6.21,6.21,0,0,1-1.38-4.27,7.65,7.65,0,0,1,.59-3.07,4.88,4.88,0,0,1,1.71-2.13,5.09,5.09,0,0,1,6.3.72,6.14,6.14,0,0,1,1.29,4.15Q155.49,406.55,155.43,407.44Zm-2.62-1.88q0-2.94-2.18-2.94a1.85,1.85,0,0,0-1.55.73,4.35,4.35,0,0,0-.67,2.33h4.39Z"/>
          <path class="cls-2" d="M164.46,401a5.28,5.28,0,0,1,1.66,1l-1.23,1.65a4.29,4.29,0,0,0-1.08-.62,3.24,3.24,0,0,0-1.16-.2q-2.51,0-2.51,3.82a4.67,4.67,0,0,0,.65,2.8,2.2,2.2,0,0,0,1.86.86,2.93,2.93,0,0,0,1.11-.2,5,5,0,0,0,1.11-.67l1.25,1.77a5.57,5.57,0,0,1-3.61,1.29,5.33,5.33,0,0,1-2.79-.71,4.64,4.64,0,0,1-1.82-2,7,7,0,0,1-.63-3.08,7.37,7.37,0,0,1,.63-3.14,4.86,4.86,0,0,1,1.82-2.11,5.06,5.06,0,0,1,2.77-.75A5.79,5.79,0,0,1,164.46,401Z"/>
          <path class="cls-2" d="M170.65,395.83a1.6,1.6,0,0,1,.47,1.17,1.56,1.56,0,0,1-.47,1.16,1.69,1.69,0,0,1-1.24.46,1.66,1.66,0,0,1-1.21-.46,1.56,1.56,0,0,1-.48-1.16,1.59,1.59,0,0,1,.48-1.17,1.64,1.64,0,0,1,1.21-.48A1.67,1.67,0,0,1,170.65,395.83Zm-2.57,16.36V401h2.7v11.18Z"/>
          <path class="cls-2" d="M182.5,410.2a1.28,1.28,0,0,0,.64.48l-.57,1.8A3.55,3.55,0,0,1,181,412a2.31,2.31,0,0,1-.92-1.17,3.58,3.58,0,0,1-1.43,1.26,4.35,4.35,0,0,1-1.91.41,3.62,3.62,0,0,1-2.64-1,3.33,3.33,0,0,1-1-2.49,3.23,3.23,0,0,1,1.32-2.78,6.33,6.33,0,0,1,3.77-1h1.39v-.63a1.93,1.93,0,0,0-.5-1.51,2.4,2.4,0,0,0-1.6-.43,9.44,9.44,0,0,0-3,.59L174,401.5a11.29,11.29,0,0,1,4.06-.8q4.29,0,4.29,3.85v4.69A1.79,1.79,0,0,0,182.5,410.2Zm-2.86-1v-2.26h-1.12q-2.62,0-2.62,1.94a1.79,1.79,0,0,0,.4,1.25,1.51,1.51,0,0,0,1.18.44A2.39,2.39,0,0,0,179.64,409.17Z"/>
          <path class="cls-2" d="M188.32,410.13a.56.56,0,0,0,.49.2,2,2,0,0,0,.63-.11l.57,1.9a4.93,4.93,0,0,1-1.92.38,2.52,2.52,0,0,1-1.94-.73,3,3,0,0,1-.68-2.12V396.54l2.7-.3v13.23A1.14,1.14,0,0,0,188.32,410.13Z"/>
          <path class="cls-2" d="M196.89,412.3a5.33,5.33,0,0,1-1.49.21,3.32,3.32,0,0,1-2.5-.94,3.85,3.85,0,0,1-.86-2.71V403h-1.75V401H192v-2.47l2.7-.32V401h2.6l-.27,1.94h-2.32v5.83A1.93,1.93,0,0,0,195,410a1.08,1.08,0,0,0,.9.36,2.58,2.58,0,0,0,1.33-.42l1,1.75A4.31,4.31,0,0,1,196.89,412.3Z"/>
          <path class="cls-2" d="M203.09,415.46a6.51,6.51,0,0,1-3.76,1.34l-.27-2a6.77,6.77,0,0,0,1.76-.48,2.84,2.84,0,0,0,1.07-.81,5.45,5.45,0,0,0,.74-1.35h-.93L198.15,401H201l2.43,9.38L206,401h2.79l-3.63,11.22A6.87,6.87,0,0,1,203.09,415.46Z"/>
          <path class="cls-2" d="M224.54,402.24a7.43,7.43,0,0,1,1.1,4.35,8.2,8.2,0,0,1-.54,3.07,4.78,4.78,0,0,1-1.53,2.09,3.78,3.78,0,0,1-2.34.75,3.62,3.62,0,0,1-1.66-.38,3.87,3.87,0,0,1-1.3-1.08l-.17,1.14h-2.39V396.54l2.7-.3v6a3.94,3.94,0,0,1,1.33-1.15,3.62,3.62,0,0,1,1.71-.41A3.57,3.57,0,0,1,224.54,402.24Zm-2.35,7.3a5.52,5.52,0,0,0,.61-2.95,5.76,5.76,0,0,0-.57-3,1.81,1.81,0,0,0-1.61-.88,2.64,2.64,0,0,0-2.22,1.52v4.94a3.15,3.15,0,0,0,.93,1,2.12,2.12,0,0,0,1.16.34A1.92,1.92,0,0,0,222.19,409.54Z"/>
          <path class="cls-2" d="M234.89,412.19l-.15-1.56a4.14,4.14,0,0,1-1.45,1.42,4,4,0,0,1-2,.46,2.93,2.93,0,0,1-2.31-.92,3.71,3.71,0,0,1-.81-2.55v-8h2.7v7.69a2.17,2.17,0,0,0,.33,1.35,1.27,1.27,0,0,0,1,.4,2.73,2.73,0,0,0,2.26-1.58V401h2.71v11.18Z"/>
          <path class="cls-2" d="M243.24,410.13a.56.56,0,0,0,.49.2,2,2,0,0,0,.63-.11l.57,1.9a4.93,4.93,0,0,1-1.92.38,2.52,2.52,0,0,1-1.94-.73,3,3,0,0,1-.68-2.12V396.54l2.7-.3v13.23A1.14,1.14,0,0,0,243.24,410.13Z"/>
          <path class="cls-2" d="M255.55,402.24a7.43,7.43,0,0,1,1.1,4.35,8.2,8.2,0,0,1-.54,3.07,4.78,4.78,0,0,1-1.53,2.09,3.78,3.78,0,0,1-2.34.75,3.62,3.62,0,0,1-1.66-.38,3.87,3.87,0,0,1-1.3-1.08l-.17,1.14h-2.39V396.54l2.7-.3v6a3.94,3.94,0,0,1,1.33-1.15,3.62,3.62,0,0,1,1.71-.41A3.57,3.57,0,0,1,255.55,402.24Zm-2.35,7.3a5.52,5.52,0,0,0,.61-2.95,5.76,5.76,0,0,0-.57-3,1.81,1.81,0,0,0-1.61-.88,2.64,2.64,0,0,0-2.22,1.52v4.94a3.15,3.15,0,0,0,.93,1,2.12,2.12,0,0,0,1.16.34A1.92,1.92,0,0,0,253.21,409.54Z"/>
          <path class="cls-2" d="M266.82,402l-1.06,1.63a4.87,4.87,0,0,0-2.75-1,2.31,2.31,0,0,0-1.3.31.94.94,0,0,0-.46.81,1,1,0,0,0,.19.63,1.73,1.73,0,0,0,.69.48,11.39,11.39,0,0,0,1.47.5,6.46,6.46,0,0,1,2.69,1.29,2.88,2.88,0,0,1,.88,2.24,3,3,0,0,1-1.35,2.61,5.74,5.74,0,0,1-3.36.94,7.11,7.11,0,0,1-2.5-.42,6.06,6.06,0,0,1-2-1.16l1.37-1.54a4.7,4.7,0,0,0,3,1.12,2.63,2.63,0,0,0,1.46-.36,1.09,1.09,0,0,0,.55-1,1.36,1.36,0,0,0-.2-.79,1.71,1.71,0,0,0-.72-.52,13.19,13.19,0,0,0-1.62-.55,5.4,5.4,0,0,1-2.51-1.3,2.88,2.88,0,0,1-.8-2.08,2.76,2.76,0,0,1,.54-1.67,3.57,3.57,0,0,1,1.52-1.16,5.65,5.65,0,0,1,2.25-.42A6.29,6.29,0,0,1,266.82,402Z"/>
          <path class="cls-2" d="M277.4,410.13a.56.56,0,0,0,.49.2,2,2,0,0,0,.63-.11l.57,1.9a4.93,4.93,0,0,1-1.92.38,2.52,2.52,0,0,1-1.94-.73,3,3,0,0,1-.68-2.12V396.54l2.7-.3v13.23A1.14,1.14,0,0,0,277.4,410.13Z"/>
          <path class="cls-2" d="M283.45,395.83a1.6,1.6,0,0,1,.47,1.17,1.56,1.56,0,0,1-.47,1.16,1.69,1.69,0,0,1-1.24.46,1.66,1.66,0,0,1-1.21-.46,1.56,1.56,0,0,1-.48-1.16,1.59,1.59,0,0,1,.48-1.17,1.64,1.64,0,0,1,1.21-.48A1.67,1.67,0,0,1,283.45,395.83Zm-2.57,16.36V401h2.7v11.18Z"/>
          <path class="cls-2" d="M286.84,412.19V396.54l2.7-.3v16Zm9.76,0H293.5l-3.85-6.11,3.74-5.07h2.85l-3.72,4.92Z"/>
          <path class="cls-2" d="M306.94,407.44h-7a3.66,3.66,0,0,0,.86,2.32,2.58,2.58,0,0,0,1.89.7,4,4,0,0,0,1.39-.24,6.51,6.51,0,0,0,1.39-.75l1.12,1.54a6.43,6.43,0,0,1-4.14,1.5,5,5,0,0,1-3.94-1.56,6.21,6.21,0,0,1-1.38-4.27,7.65,7.65,0,0,1,.59-3.07,4.88,4.88,0,0,1,1.71-2.13,5.09,5.09,0,0,1,6.3.72,6.14,6.14,0,0,1,1.29,4.15Q307,406.55,306.94,407.44Zm-2.62-1.88q0-2.94-2.18-2.94a1.85,1.85,0,0,0-1.55.73,4.35,4.35,0,0,0-.67,2.33h4.39Z"/>
          <path class="cls-2" d="M321.25,401a5.28,5.28,0,0,1,1.66,1l-1.23,1.65a4.29,4.29,0,0,0-1.08-.62,3.24,3.24,0,0,0-1.16-.2q-2.51,0-2.51,3.82a4.67,4.67,0,0,0,.65,2.8,2.2,2.2,0,0,0,1.86.86,2.93,2.93,0,0,0,1.11-.2,5,5,0,0,0,1.11-.67l1.25,1.77a5.57,5.57,0,0,1-3.61,1.29,5.33,5.33,0,0,1-2.79-.71,4.64,4.64,0,0,1-1.82-2,7,7,0,0,1-.63-3.08,7.37,7.37,0,0,1,.63-3.14,4.86,4.86,0,0,1,1.82-2.11,5.06,5.06,0,0,1,2.77-.75A5.79,5.79,0,0,1,321.25,401Z"/>
          <path class="cls-2" d="M333.34,410.2a1.28,1.28,0,0,0,.64.48l-.57,1.8a3.55,3.55,0,0,1-1.55-.45,2.31,2.31,0,0,1-.92-1.17,3.58,3.58,0,0,1-1.43,1.26,4.35,4.35,0,0,1-1.91.41,3.62,3.62,0,0,1-2.64-1,3.33,3.33,0,0,1-1-2.49,3.23,3.23,0,0,1,1.32-2.78,6.33,6.33,0,0,1,3.77-1h1.39v-.63a1.93,1.93,0,0,0-.5-1.51,2.4,2.4,0,0,0-1.6-.43,9.44,9.44,0,0,0-3,.59l-.63-1.84a11.29,11.29,0,0,1,4.06-.8q4.29,0,4.29,3.85v4.69A1.79,1.79,0,0,0,333.34,410.2Zm-2.86-1v-2.26h-1.12q-2.62,0-2.62,1.94a1.79,1.79,0,0,0,.4,1.25,1.51,1.51,0,0,0,1.18.44A2.39,2.39,0,0,0,330.47,409.17Z"/>
          <path class="cls-2" d="M344.71,401.6a3.54,3.54,0,0,1,.83,2.5v8.09h-2.71v-7.67a2.15,2.15,0,0,0-.35-1.39,1.28,1.28,0,0,0-1-.4,2,2,0,0,0-1.26.43,4.93,4.93,0,0,0-1.09,1.26v7.78h-2.7V401h2.35l.21,1.48a4.18,4.18,0,0,1,3.4-1.8A3,3,0,0,1,344.71,401.6Z"/>
          <path class="cls-2" d="M358.09,412.19H355.7l-.19-1.42a3.94,3.94,0,0,1-1.33,1.27,3.65,3.65,0,0,1-1.86.46,3.6,3.6,0,0,1-3.15-1.58,7.45,7.45,0,0,1-1.1-4.31,8.06,8.06,0,0,1,.55-3.07,4.74,4.74,0,0,1,1.57-2.09,4,4,0,0,1,2.42-.75,3.72,3.72,0,0,1,2.77,1.2v-5.66l2.71.3Zm-3.74-2.08a3.6,3.6,0,0,0,1-1.09v-5.11a3.53,3.53,0,0,0-1-.89,2.22,2.22,0,0,0-1.14-.3,2,2,0,0,0-1.72,1,5.41,5.41,0,0,0-.62,2.91,6,6,0,0,0,.55,3,1.77,1.77,0,0,0,1.61.9A2.32,2.32,0,0,0,354.35,410.11Z"/>
          <path class="cls-2" d="M370.24,407.44h-7a3.66,3.66,0,0,0,.86,2.32,2.58,2.58,0,0,0,1.89.7,4,4,0,0,0,1.39-.24,6.51,6.51,0,0,0,1.39-.75l1.12,1.54a6.43,6.43,0,0,1-4.14,1.5,5,5,0,0,1-3.94-1.56,6.21,6.21,0,0,1-1.38-4.27,7.65,7.65,0,0,1,.59-3.07,4.88,4.88,0,0,1,1.71-2.13,5.09,5.09,0,0,1,6.3.72,6.14,6.14,0,0,1,1.29,4.15Q370.3,406.55,370.24,407.44Zm-2.62-1.88q0-2.94-2.18-2.94a1.85,1.85,0,0,0-1.55.73,4.35,4.35,0,0,0-.67,2.33h4.39Z"/>
          <path class="cls-2" d="M375.54,410.13a.56.56,0,0,0,.49.2,2,2,0,0,0,.63-.11l.57,1.9a4.93,4.93,0,0,1-1.92.38,2.52,2.52,0,0,1-1.94-.73,3,3,0,0,1-.68-2.12V396.54l2.7-.3v13.23A1.14,1.14,0,0,0,375.54,410.13Z"/>
          <path class="cls-2" d="M387.49,410.2a1.28,1.28,0,0,0,.64.48l-.57,1.8A3.55,3.55,0,0,1,386,412a2.31,2.31,0,0,1-.92-1.17,3.58,3.58,0,0,1-1.43,1.26,4.35,4.35,0,0,1-1.91.41,3.62,3.62,0,0,1-2.64-1,3.33,3.33,0,0,1-1-2.49,3.23,3.23,0,0,1,1.32-2.78,6.33,6.33,0,0,1,3.77-1h1.39v-.63a1.93,1.93,0,0,0-.5-1.51,2.4,2.4,0,0,0-1.6-.43,9.44,9.44,0,0,0-3,.59l-.63-1.84a11.29,11.29,0,0,1,4.06-.8q4.29,0,4.29,3.85v4.69A1.79,1.79,0,0,0,387.49,410.2Zm-2.86-1v-2.26h-1.12q-2.62,0-2.62,1.94a1.79,1.79,0,0,0,.4,1.25,1.51,1.51,0,0,0,1.18.44A2.39,2.39,0,0,0,384.63,409.17Z"/>
          <path class="cls-2" d="M399.4,402.24a7.43,7.43,0,0,1,1.1,4.35,8.2,8.2,0,0,1-.54,3.07,4.78,4.78,0,0,1-1.53,2.09,3.78,3.78,0,0,1-2.34.75,3.62,3.62,0,0,1-1.66-.38,3.87,3.87,0,0,1-1.3-1.08l-.17,1.14h-2.39V396.54l2.7-.3v6a3.94,3.94,0,0,1,1.33-1.15,3.62,3.62,0,0,1,1.71-.41A3.57,3.57,0,0,1,399.4,402.24Zm-2.35,7.3a5.52,5.52,0,0,0,.61-2.95,5.76,5.76,0,0,0-.57-3,1.81,1.81,0,0,0-1.61-.88,2.64,2.64,0,0,0-2.22,1.52v4.94a3.15,3.15,0,0,0,.93,1,2.12,2.12,0,0,0,1.16.34A1.92,1.92,0,0,0,397.05,409.54Z"/>
          <path class="cls-2" d="M409.79,400.87l-.46,2.62a4.1,4.1,0,0,0-1-.13,1.9,1.9,0,0,0-1.56.71,5.46,5.46,0,0,0-.91,2.19v5.94h-2.7V401h2.35l.25,2.2a4,4,0,0,1,1.16-1.85,2.64,2.64,0,0,1,1.75-.64A4,4,0,0,1,409.79,400.87Z"/>
          <path class="cls-2" d="M419.52,410.2a1.28,1.28,0,0,0,.64.48l-.57,1.8A3.55,3.55,0,0,1,418,412a2.31,2.31,0,0,1-.92-1.17,3.58,3.58,0,0,1-1.43,1.26,4.35,4.35,0,0,1-1.91.41,3.62,3.62,0,0,1-2.64-1,3.33,3.33,0,0,1-1-2.49,3.23,3.23,0,0,1,1.32-2.78,6.33,6.33,0,0,1,3.77-1h1.39v-.63a1.93,1.93,0,0,0-.5-1.51,2.4,2.4,0,0,0-1.6-.43,9.44,9.44,0,0,0-3,.59L411,401.5a11.29,11.29,0,0,1,4.06-.8q4.29,0,4.29,3.85v4.69A1.79,1.79,0,0,0,419.52,410.2Zm-2.86-1v-2.26h-1.12q-2.62,0-2.62,1.94a1.79,1.79,0,0,0,.4,1.25,1.51,1.51,0,0,0,1.18.44A2.39,2.39,0,0,0,416.66,409.17Z"/>
          <path class="cls-2" d="M430.1,402,429,403.66a4.87,4.87,0,0,0-2.75-1,2.31,2.31,0,0,0-1.3.31.94.94,0,0,0-.46.81,1,1,0,0,0,.19.63,1.73,1.73,0,0,0,.69.48,11.39,11.39,0,0,0,1.47.5,6.46,6.46,0,0,1,2.69,1.29,2.88,2.88,0,0,1,.88,2.24,3,3,0,0,1-1.35,2.61,5.74,5.74,0,0,1-3.36.94,7.11,7.11,0,0,1-2.5-.42,6.06,6.06,0,0,1-2-1.16l1.37-1.54a4.7,4.7,0,0,0,3,1.12,2.63,2.63,0,0,0,1.46-.36,1.09,1.09,0,0,0,.55-1,1.36,1.36,0,0,0-.2-.79,1.71,1.71,0,0,0-.72-.52,13.19,13.19,0,0,0-1.62-.55,5.4,5.4,0,0,1-2.51-1.3,2.88,2.88,0,0,1-.8-2.08,2.76,2.76,0,0,1,.54-1.67,3.57,3.57,0,0,1,1.52-1.16,5.65,5.65,0,0,1,2.25-.42A6.29,6.29,0,0,1,430.1,402Z"/>
        </g>
        <g>
          <g>
            <path class="cls-2" d="M341.4,120.58a.21.21,0,0,1,0-.29l1.2-1.39a.17.17,0,0,1,.27,0,5.89,5.89,0,0,0,3.58,1.39c1.57,0,2.48-.79,2.48-1.9,0-.95-.58-1.57-2.4-1.82l-.7-.1c-2.53-.35-4-1.57-4-3.75,0-2.38,1.74-4,4.45-4a7.23,7.23,0,0,1,4.26,1.32.17.17,0,0,1,0,.27l-.93,1.43a.19.19,0,0,1-.27.06,5.56,5.56,0,0,0-3.15-1c-1.34,0-2.07.73-2.07,1.76s.64,1.53,2.42,1.78l.7.1c2.53.35,3.93,1.55,3.93,3.81s-1.68,4.08-5,4.08A7.42,7.42,0,0,1,341.4,120.58Z"/>
            <path class="cls-2" d="M353.46,109.15a.18.18,0,0,1,.19-.19h1.9a.18.18,0,0,1,.19.19v5.18a.1.1,0,0,0,.12.12h5a.1.1,0,0,0,.12-.12v-5.18a.18.18,0,0,1,.19-.19h1.9a.18.18,0,0,1,.19.19v12.77a.18.18,0,0,1-.19.19h-1.9a.18.18,0,0,1-.19-.19v-5.3a.1.1,0,0,0-.12-.12h-5a.1.1,0,0,0-.12.12v5.3a.18.18,0,0,1-.19.19h-1.9a.18.18,0,0,1-.19-.19Z"/>
            <path class="cls-2" d="M366.13,119.15a10.64,10.64,0,0,1-.35-3.62,10.63,10.63,0,0,1,.35-3.62,5,5,0,0,1,9.31,0,10.63,10.63,0,0,1,.35,3.62,10.64,10.64,0,0,1-.35,3.62,5,5,0,0,1-9.31,0Zm7.1-.6a10.5,10.5,0,0,0,.23-3,10.4,10.4,0,0,0-.23-3,2.6,2.6,0,0,0-4.89,0,10.4,10.4,0,0,0-.23,3,10.5,10.5,0,0,0,.23,3,2.6,2.6,0,0,0,4.89,0Z"/>
            <path class="cls-2" d="M378.5,122.11a.18.18,0,0,1-.19-.19V109.15a.18.18,0,0,1,.19-.19h4.93a4.1,4.1,0,1,1,0,8.18H380.7a.1.1,0,0,0-.12.12v4.66a.18.18,0,0,1-.19.19Zm7-9.07a2,2,0,0,0-2.19-2H380.7a.1.1,0,0,0-.12.12v3.83a.1.1,0,0,0,.12.12h2.59A2,2,0,0,0,385.48,113Z"/>
            <path class="cls-2" d="M394.44,109.15a.18.18,0,0,1,.19-.19h1.78a.34.34,0,0,1,.33.19l5.36,9.07h.08v-9.07a.18.18,0,0,1,.19-.19h1.68a.18.18,0,0,1,.19.19v12.77a.18.18,0,0,1-.19.19h-1.76a.34.34,0,0,1-.33-.19l-5.38-9.05h-.08v9.05a.18.18,0,0,1-.19.19h-1.68a.18.18,0,0,1-.19-.19Z"/>
            <path class="cls-2" d="M407.11,119.15a10.64,10.64,0,0,1-.35-3.62,10.63,10.63,0,0,1,.35-3.62,5,5,0,0,1,9.31,0,10.66,10.66,0,0,1,.35,3.62,10.67,10.67,0,0,1-.35,3.62,5,5,0,0,1-9.31,0Zm7.1-.6a10.5,10.5,0,0,0,.23-3,10.4,10.4,0,0,0-.23-3,2.6,2.6,0,0,0-4.89,0,10.4,10.4,0,0,0-.23,3,10.5,10.5,0,0,0,.23,3,2.6,2.6,0,0,0,4.89,0Z"/>
            <path class="cls-2" d="M428.49,122.11a.25.25,0,0,1-.23-.19l-2.52-9h0l-2.53,9a.25.25,0,0,1-.23.19h-1.45a.25.25,0,0,1-.23-.19L418,109.15c0-.12,0-.19.15-.19H420a.22.22,0,0,1,.23.19l2.09,8.86h0l2.46-8.86A.25.25,0,0,1,425,109h1.35c.14,0,.19.08.23.19l2.51,8.86h0l2-8.86a.21.21,0,0,1,.23-.19h1.8c.14,0,.17.08.15.19l-3.21,12.77a.23.23,0,0,1-.23.19Z"/>
          </g>
          <polygon class="cls-3" points="443.42 135.02 327.55 135.02 327.55 96.04 443.42 96.04 464.45 115.53 443.42 135.02"/>
        </g>
        <line class="cls-4" x1="186.33" y1="35.95" x2="186.33" y2="195.11"/>
      </g>
    </g>
  </g>
</svg>
