<svg xmlns="http://www.w3.org/2000/svg" viewBox="0 0 639.86 214.73">
  <defs>
    <style>
      .cls-1 {
        fill: #0071bc;
      }

      .cls-2 {
        fill: #fff;
      }

      .cls-3, .cls-4 {
        fill: none;
        stroke: #fff;
        stroke-miterlimit: 10;
      }

      .cls-3 {
        stroke-width: 1.5px;
      }

      .cls-4 {
        opacity: 0.51;
      }
    </style>
  </defs>
  <title>tile2b</title>
  <g id="Layer_2" data-name="Layer 2">
    <g id="Layer_1-2" data-name="Layer 1">
      <g>
        <rect class="cls-1" width="639.86" height="214.73"/>
        <g>
          <path class="cls-2" d="M55.08,135c0-5.58.21-7.44,1-9.78,1.91-5.9,6.54-8.88,12.87-8.88,6.11,0,10.58,3,12.6,8a.41.41,0,0,1-.27.64l-5.79,2.6a.51.51,0,0,1-.74-.27c-1-2.34-2.71-4.09-5.74-4.09a5.3,5.3,0,0,0-5.42,4c-.43,1.33-.58,2.6-.58,7.76s.16,6.43.58,7.76a5.3,5.3,0,0,0,5.42,4c3,0,4.73-1.75,5.74-4.09a.51.51,0,0,1,.74-.27l5.79,2.6a.41.41,0,0,1,.27.64c-2,5.05-6.49,8-12.6,8-6.33,0-11-3-12.87-8.88C55.29,142.45,55.08,140.59,55.08,135Z"/>
          <path class="cls-2" d="M86.6,117.46a.5.5,0,0,1,.53-.53h23.18a.5.5,0,0,1,.53.53v5.69a.5.5,0,0,1-.53.53H94.73a.28.28,0,0,0-.32.32v7.6a.28.28,0,0,0,.32.32h13a.5.5,0,0,1,.53.53v5.64a.5.5,0,0,1-.53.53h-13a.28.28,0,0,0-.32.32v13.61a.5.5,0,0,1-.53.53H87.13a.5.5,0,0,1-.53-.53Z"/>
          <path class="cls-2" d="M116.21,117.46a.5.5,0,0,1,.53-.53h6.75a.5.5,0,0,1,.53.53V145.8a.28.28,0,0,0,.32.32h15.95a.5.5,0,0,1,.53.53v5.9a.5.5,0,0,1-.53.53H116.74a.5.5,0,0,1-.53-.53Z"/>
        </g>
        <g>
          <g>
            <path class="cls-2" d="M273.88,147.47a.21.21,0,0,1,0-.29l1.2-1.39a.17.17,0,0,1,.27,0,5.89,5.89,0,0,0,3.58,1.39c1.57,0,2.48-.79,2.48-1.9,0-.95-.58-1.57-2.4-1.82l-.7-.1c-2.53-.35-4-1.57-4-3.75,0-2.38,1.74-4,4.45-4a7.23,7.23,0,0,1,4.26,1.32.17.17,0,0,1,0,.27l-.93,1.43a.19.19,0,0,1-.27.06,5.56,5.56,0,0,0-3.15-1c-1.33,0-2.07.73-2.07,1.76s.64,1.53,2.42,1.78l.7.1c2.53.35,3.93,1.55,3.93,3.81s-1.68,4.08-5,4.08A7.42,7.42,0,0,1,273.88,147.47Z"/>
            <path class="cls-2" d="M285.93,136a.18.18,0,0,1,.19-.19H288a.18.18,0,0,1,.19.19v5.18a.1.1,0,0,0,.12.12h5a.1.1,0,0,0,.12-.12V136a.18.18,0,0,1,.19-.19h1.9a.18.18,0,0,1,.19.19V148.8a.18.18,0,0,1-.19.19h-1.9a.18.18,0,0,1-.19-.19v-5.3a.1.1,0,0,0-.12-.12h-5a.1.1,0,0,0-.12.12v5.3a.18.18,0,0,1-.19.19h-1.9a.18.18,0,0,1-.19-.19Z"/>
            <path class="cls-2" d="M298.6,146a10.64,10.64,0,0,1-.35-3.62,10.63,10.63,0,0,1,.35-3.62,5,5,0,0,1,9.3,0,10.63,10.63,0,0,1,.35,3.62,10.64,10.64,0,0,1-.35,3.62,5,5,0,0,1-9.3,0Zm7.1-.6a10.5,10.5,0,0,0,.23-3,10.39,10.39,0,0,0-.23-3,2.6,2.6,0,0,0-4.89,0,10.39,10.39,0,0,0-.23,3,10.5,10.5,0,0,0,.23,3,2.6,2.6,0,0,0,4.89,0Z"/>
            <path class="cls-2" d="M311,149a.18.18,0,0,1-.19-.19V136a.18.18,0,0,1,.19-.19h4.93a4.1,4.1,0,1,1,0,8.18h-2.73a.1.1,0,0,0-.12.12v4.66a.18.18,0,0,1-.19.19Zm7-9.07a2,2,0,0,0-2.19-2h-2.59a.1.1,0,0,0-.12.12v3.83a.1.1,0,0,0,.12.12h2.59A2,2,0,0,0,317.95,139.93Z"/>
            <path class="cls-2" d="M326.9,136a.18.18,0,0,1,.19-.19h1.78a.34.34,0,0,1,.33.19l5.36,9.07h.08V136a.18.18,0,0,1,.19-.19h1.68a.18.18,0,0,1,.19.19V148.8a.18.18,0,0,1-.19.19h-1.76a.34.34,0,0,1-.33-.19L329,139.75H329v9.05a.18.18,0,0,1-.19.19H327.1a.18.18,0,0,1-.19-.19Z"/>
            <path class="cls-2" d="M339.57,146a10.64,10.64,0,0,1-.35-3.62,10.63,10.63,0,0,1,.35-3.62,5,5,0,0,1,9.3,0,10.66,10.66,0,0,1,.35,3.62,10.66,10.66,0,0,1-.35,3.62,5,5,0,0,1-9.3,0Zm7.1-.6a10.5,10.5,0,0,0,.23-3,10.39,10.39,0,0,0-.23-3,2.6,2.6,0,0,0-4.89,0,10.39,10.39,0,0,0-.23,3,10.5,10.5,0,0,0,.23,3,2.6,2.6,0,0,0,4.89,0Z"/>
            <path class="cls-2" d="M360.95,149a.25.25,0,0,1-.23-.19l-2.52-9h0l-2.53,9a.25.25,0,0,1-.23.19h-1.45a.25.25,0,0,1-.23-.19L350.48,136c0-.12,0-.19.15-.19h1.82a.22.22,0,0,1,.23.19l2.09,8.86h0l2.46-8.86a.24.24,0,0,1,.23-.19h1.35c.14,0,.19.08.23.19l2.51,8.86h0l2-8.86a.21.21,0,0,1,.23-.19h1.8c.14,0,.17.08.15.19l-3.21,12.77a.23.23,0,0,1-.23.19Z"/>
          </g>
          <polygon class="cls-3" points="375.88 161.91 260.03 161.91 260.03 122.93 375.88 122.93 396.91 142.42 375.88 161.91"/>
        </g>
        <line class="cls-4" x1="193.66" y1="21.91" x2="193.66" y2="181.05"/>
        <g>
          <path class="cls-2" d="M103.67,70h5a2.79,2.79,0,0,1,.56,0,.74.74,0,0,1,.64.73c0,2.7-.55,5.2-2.74,7.06-.6.51-1.23,1-1.78,1.53a3.13,3.13,0,0,0-1,2.39c0,2.4,0,4.8,0,7.19a4.21,4.21,0,0,1-1.32,3.2c-1,.92-1.94,1.8-2.84,2.77a5,5,0,0,1-6.58,0c-1-1-2-1.95-3-2.93a3.9,3.9,0,0,1-1.18-2.86c0-2.4,0-4.8,0-7.19a3.64,3.64,0,0,0-1.25-2.89,9,9,0,0,0-1-.84,7.38,7.38,0,0,1-3.07-5.12,16,16,0,0,1-.18-2c0-.79.3-1.1,1.1-1.11h5.17a6.53,6.53,0,0,0-.71-2.53,7.8,7.8,0,0,0-5-4.14c-.61-.18-1.22-.37-1.83-.58a2.65,2.65,0,0,1-1.29-3.7,2.8,2.8,0,0,1,1.57-1.24l8-2.44,14.18-4.26,4-1.16a2.63,2.63,0,1,1,1.51,5L92.15,60.6l-1,.31c0,.06,1.73,1.91,1.85,2.07a13,13,0,0,1,2.65,6.81c0,.06,0,.11,0,.2h2.67c.05-.38.09-.77.16-1.15a13,13,0,0,1,9.59-10.6,12.26,12.26,0,0,1,1.81-.46,2.6,2.6,0,0,1,1.3,5c-.78.3-1.61.48-2.4.78a7.73,7.73,0,0,0-5.11,6.11,1,1,0,0,0,0,.17S103.66,69.92,103.67,70ZM85.88,71.79a1.72,1.72,0,0,0,0,.27,6,6,0,0,0,2.4,4.72A7.48,7.48,0,0,1,91,79.93a.53.53,0,0,0,.41.2c.81,0,8.22,0,11.11,0,.16,0,.41-.07.46-.18a7.54,7.54,0,0,1,2.77-3.17,5.37,5.37,0,0,0,2.09-3.06c.16-.62.24-1.26.35-1.92ZM91.3,87h11.37V85.37H91.3Zm0-4.27v1.69h11.37V82.76Zm11.4,5.2H91.28c0,.42,0,.82,0,1.2s.11.49.49.49c2.42,0,4.85,0,7.27,0,1.09,0,2.18,0,3.27,0,.31,0,.41-.1.4-.4S102.71,88.41,102.71,88Zm-10,3.44c.51.55,1,1.13,1.55,1.68a.82.82,0,0,0,.53.21c1.44,0,2.88,0,4.31,0,.13,0,.3,0,.37-.06.59-.61,1.16-1.24,1.7-1.83Z"/>
          <path class="cls-2" d="M83.9,55.07a2.62,2.62,0,0,1-2.64-2,2.56,2.56,0,0,1,1.6-3c1.23-.44,2.48-.83,3.73-1.2,3.09-.92,6.18-1.82,9.27-2.74l13.29-4a2.66,2.66,0,0,1,3.45,1.44,2.59,2.59,0,0,1-1.65,3.5c-2.27.71-4.55,1.38-6.83,2.07L92.79,52.54c-2.52.76-5,1.51-7.55,2.26C84.74,54.94,84.22,55,83.9,55.07Z"/>
          <path class="cls-2" d="M103.57,39.44a2.58,2.58,0,0,1-1.88,2.5c-3.76,1.14-7.52,2.26-11.29,3.39-1.89.57-3.77,1.15-5.66,1.7a2.63,2.63,0,1,1-1.64-5q3.39-1,6.79-2a.62.62,0,0,0,.54-.7A2.45,2.45,0,0,1,92.11,37a13.18,13.18,0,0,1,9.77,0A2.59,2.59,0,0,1,103.57,39.44Z"/>
        </g>
        <g>
          <path class="cls-2" d="M263.28,61.46,262.59,64H260.4L263.84,53h2.61L269.87,64h-2.24l-.69-2.56Zm1.82-6.88-1.41,5.28h2.83Z"/>
          <path class="cls-2" d="M272,64l-2.8-8.46h2.22l1.81,6.82,1.86-6.82h2.11L274.45,64Z"/>
          <path class="cls-2" d="M285.2,60.42h-5.31a2.77,2.77,0,0,0,.65,1.76,2,2,0,0,0,1.43.53,3,3,0,0,0,1.06-.18,4.91,4.91,0,0,0,1.06-.57l.85,1.17a4.88,4.88,0,0,1-3.14,1.14,3.77,3.77,0,0,1-3-1.18,4.7,4.7,0,0,1-1-3.23,5.79,5.79,0,0,1,.45-2.33,3.7,3.7,0,0,1,1.3-1.62,3.86,3.86,0,0,1,4.77.54,4.66,4.66,0,0,1,1,3.14Q285.25,59.75,285.2,60.42Zm-2-1.42q0-2.22-1.65-2.22a1.4,1.4,0,0,0-1.18.55,3.28,3.28,0,0,0-.5,1.77h3.33Z"/>
          <path class="cls-2" d="M292.16,55.45l-.35,2a3.12,3.12,0,0,0-.75-.1,1.44,1.44,0,0,0-1.18.54,4.13,4.13,0,0,0-.69,1.66V64h-2V55.56h1.78l.19,1.66a3,3,0,0,1,.88-1.4,2,2,0,0,1,1.33-.49A3,3,0,0,1,292.16,55.45Z"/>
          <path class="cls-2" d="M299.52,62.51a1,1,0,0,0,.49.36l-.43,1.36a2.7,2.7,0,0,1-1.18-.34,1.75,1.75,0,0,1-.7-.89,2.72,2.72,0,0,1-1.08,1,3.3,3.3,0,0,1-1.45.31,2.74,2.74,0,0,1-2-.72,2.53,2.53,0,0,1-.74-1.89,2.44,2.44,0,0,1,1-2.1,4.8,4.8,0,0,1,2.86-.73h1.06v-.48A1.46,1.46,0,0,0,297,57.2a1.82,1.82,0,0,0-1.21-.33,7.16,7.16,0,0,0-2.24.45l-.48-1.39a8.55,8.55,0,0,1,3.07-.61q3.25,0,3.25,2.91v3.55A1.36,1.36,0,0,0,299.52,62.51Zm-2.17-.78V60h-.85q-2,0-2,1.47a1.35,1.35,0,0,0,.3.94,1.14,1.14,0,0,0,.9.34A1.81,1.81,0,0,0,297.36,61.73Z"/>
          <path class="cls-2" d="M306.76,56.3a2.8,2.8,0,0,1,1.16.87,2.17,2.17,0,0,1,.38,1.3,2.68,2.68,0,0,1-.41,1.47,2.77,2.77,0,0,1-1.18,1,4.2,4.2,0,0,1-1.82.37,3.54,3.54,0,0,1-1-.13.73.73,0,0,0-.35.62q0,.59,1,.59h1.3a4,4,0,0,1,1.62.3,2.48,2.48,0,0,1,1.08.86,2.12,2.12,0,0,1,.38,1.24,2.25,2.25,0,0,1-1.09,2,5.74,5.74,0,0,1-3.14.71,7,7,0,0,1-2.31-.3,2.21,2.21,0,0,1-1.19-.88,2.79,2.79,0,0,1-.35-1.47h1.84a1.27,1.27,0,0,0,.17.7,1,1,0,0,0,.61.38,4.79,4.79,0,0,0,1.27.13,3.41,3.41,0,0,0,1.65-.29.92.92,0,0,0,.48-.83.86.86,0,0,0-.37-.74,1.82,1.82,0,0,0-1.07-.26h-1.28a3,3,0,0,1-1.81-.46,1.41,1.41,0,0,1-.61-1.17,1.59,1.59,0,0,1,.26-.86,2.25,2.25,0,0,1,.73-.7,2.78,2.78,0,0,1-1.13-1,2.62,2.62,0,0,1-.36-1.4,2.87,2.87,0,0,1,.45-1.6,3,3,0,0,1,1.24-1.06,4.2,4.2,0,0,1,1.82-.38,7.58,7.58,0,0,0,2.17-.2,9.11,9.11,0,0,0,1.78-.74l.51,1.63A7.83,7.83,0,0,1,306.76,56.3Zm-3.06.86a1.7,1.7,0,0,0-.39,1.18,1.76,1.76,0,0,0,.4,1.22,1.62,1.62,0,0,0,2.22,0,1.82,1.82,0,0,0,.38-1.24q0-1.6-1.54-1.6A1.37,1.37,0,0,0,303.7,57.15Z"/>
          <path class="cls-2" d="M317.1,60.42h-5.31a2.77,2.77,0,0,0,.65,1.76,2,2,0,0,0,1.43.53,3,3,0,0,0,1.06-.18A4.91,4.91,0,0,0,316,62l.85,1.17a4.88,4.88,0,0,1-3.14,1.14,3.77,3.77,0,0,1-3-1.18,4.7,4.7,0,0,1-1-3.23,5.79,5.79,0,0,1,.45-2.33,3.7,3.7,0,0,1,1.3-1.62,3.86,3.86,0,0,1,4.77.54,4.66,4.66,0,0,1,1,3.14Q317.15,59.75,317.1,60.42Zm-2-1.42q0-2.22-1.65-2.22a1.4,1.4,0,0,0-1.18.55,3.28,3.28,0,0,0-.5,1.77h3.33Z"/>
          <path class="cls-2" d="M328.91,54.19a4.5,4.5,0,0,1,1,3,8.49,8.49,0,0,1-.66,3.59,5.12,5.12,0,0,1-2,2.23,12.43,12.43,0,0,1-3.6,1.36L323.18,63a8.37,8.37,0,0,0,3.22-1.45,3.6,3.6,0,0,0,1.3-2.44,2.75,2.75,0,0,1-2.3,1.14,2.89,2.89,0,0,1-1.53-.42,2.92,2.92,0,0,1-1.1-1.22,4.1,4.1,0,0,1-.4-1.86,3.67,3.67,0,0,1,.5-1.93,3.38,3.38,0,0,1,1.35-1.27,4,4,0,0,1,1.9-.45A3.5,3.5,0,0,1,328.91,54.19Zm-1.12,3.42a5,5,0,0,0-.38-2.33,1.38,1.38,0,0,0-1.3-.7,1.53,1.53,0,0,0-1.25.54,2.38,2.38,0,0,0-.45,1.55,2.35,2.35,0,0,0,.42,1.55,1.39,1.39,0,0,0,1.11.5A2.16,2.16,0,0,0,327.79,57.61Z"/>
          <path class="cls-2" d="M336.17,58.2v1.63h-4.83V58.2Z"/>
          <path class="cls-2" d="M339.85,64v-8.7l-2.4,1.46-.9-1.38,3.5-2.14h1.81V64Z"/>
          <path class="cls-2" d="M347.05,64v-8.7l-2.4,1.46-.9-1.38,3.5-2.14h1.81V64Z"/>
          <path class="cls-2" d="M358.37,66.5a4.94,4.94,0,0,1-2.85,1L355.31,66a5.12,5.12,0,0,0,1.34-.36,2.17,2.17,0,0,0,.81-.62,4.14,4.14,0,0,0,.56-1h-.7l-2.69-8.46h2.18l1.84,7.1,1.92-7.1h2.11l-2.75,8.5A5.2,5.2,0,0,1,358.37,66.5Z"/>
          <path class="cls-2" d="M370.57,60.42h-5.31a2.77,2.77,0,0,0,.65,1.76,2,2,0,0,0,1.43.53,3,3,0,0,0,1.06-.18,4.91,4.91,0,0,0,1.06-.57l.85,1.17a4.88,4.88,0,0,1-3.14,1.14,3.77,3.77,0,0,1-3-1.18,4.7,4.7,0,0,1-1-3.23,5.79,5.79,0,0,1,.45-2.33,3.7,3.7,0,0,1,1.3-1.62,3.86,3.86,0,0,1,4.77.54,4.66,4.66,0,0,1,1,3.14Q370.62,59.75,370.57,60.42Zm-2-1.42q0-2.22-1.65-2.22a1.4,1.4,0,0,0-1.18.55,3.28,3.28,0,0,0-.5,1.77h3.33Z"/>
          <path class="cls-2" d="M378.92,62.51a1,1,0,0,0,.49.36L379,64.23a2.7,2.7,0,0,1-1.18-.34,1.75,1.75,0,0,1-.7-.89A2.72,2.72,0,0,1,376,64a3.3,3.3,0,0,1-1.45.31,2.74,2.74,0,0,1-2-.72,2.53,2.53,0,0,1-.74-1.89,2.44,2.44,0,0,1,1-2.1,4.8,4.8,0,0,1,2.86-.73h1.06v-.48a1.46,1.46,0,0,0-.38-1.14,1.82,1.82,0,0,0-1.21-.33,7.16,7.16,0,0,0-2.24.45l-.48-1.39a8.55,8.55,0,0,1,3.07-.61q3.25,0,3.25,2.91v3.55A1.36,1.36,0,0,0,378.92,62.51Zm-2.17-.78V60h-.85q-2,0-2,1.47a1.35,1.35,0,0,0,.3.94,1.14,1.14,0,0,0,.9.34A1.81,1.81,0,0,0,376.75,61.73Z"/>
          <path class="cls-2" d="M386.27,55.45l-.35,2a3.12,3.12,0,0,0-.75-.1,1.44,1.44,0,0,0-1.18.54,4.13,4.13,0,0,0-.69,1.66V64h-2V55.56H383l.19,1.66a3,3,0,0,1,.88-1.4,2,2,0,0,1,1.33-.49A3,3,0,0,1,386.27,55.45Z"/>
          <path class="cls-2" d="M396.57,55.45l-.35,2a3.12,3.12,0,0,0-.75-.1,1.44,1.44,0,0,0-1.18.54,4.13,4.13,0,0,0-.69,1.66V64h-2V55.56h1.78l.19,1.66a3,3,0,0,1,.88-1.4,2,2,0,0,1,1.33-.49A3,3,0,0,1,396.57,55.45Z"/>
          <path class="cls-2" d="M403.94,62.51a1,1,0,0,0,.49.36L404,64.23a2.7,2.7,0,0,1-1.18-.34,1.75,1.75,0,0,1-.7-.89A2.72,2.72,0,0,1,401,64a3.3,3.3,0,0,1-1.45.31,2.74,2.74,0,0,1-2-.72,2.53,2.53,0,0,1-.74-1.89,2.44,2.44,0,0,1,1-2.1,4.8,4.8,0,0,1,2.86-.73h1.06v-.48a1.46,1.46,0,0,0-.38-1.14,1.82,1.82,0,0,0-1.21-.33,7.16,7.16,0,0,0-2.24.45l-.48-1.39a8.55,8.55,0,0,1,3.07-.61q3.25,0,3.25,2.91v3.55A1.36,1.36,0,0,0,403.94,62.51Zm-2.17-.78V60h-.85q-2,0-2,1.47a1.35,1.35,0,0,0,.3.94,1.14,1.14,0,0,0,.9.34A1.81,1.81,0,0,0,401.77,61.73Z"/>
          <path class="cls-2" d="M410.12,64.1a4,4,0,0,1-1.13.16,2.51,2.51,0,0,1-1.9-.71,2.92,2.92,0,0,1-.65-2.06V57h-1.33V55.56h1.33V53.69l2-.24v2.11h2L410.25,57h-1.76v4.42a1.46,1.46,0,0,0,.22.9.82.82,0,0,0,.68.27,2,2,0,0,0,1-.32l.72,1.33A3.28,3.28,0,0,1,410.12,64.1Z"/>
          <path class="cls-2" d="M419,60.42h-5.31a2.77,2.77,0,0,0,.65,1.76,2,2,0,0,0,1.43.53,3,3,0,0,0,1.06-.18,4.91,4.91,0,0,0,1.06-.57l.85,1.17a4.88,4.88,0,0,1-3.14,1.14,3.77,3.77,0,0,1-3-1.18,4.7,4.7,0,0,1-1-3.23,5.79,5.79,0,0,1,.45-2.33,3.7,3.7,0,0,1,1.3-1.62,3.86,3.86,0,0,1,4.77.54,4.66,4.66,0,0,1,1,3.14Q419.05,59.75,419,60.42ZM417,59q0-2.22-1.65-2.22a1.4,1.4,0,0,0-1.18.55,3.28,3.28,0,0,0-.5,1.77H417Z"/>
          <path class="cls-2" d="M428.06,64h-1.81L426.11,63a3,3,0,0,1-1,1,2.76,2.76,0,0,1-1.41.35,2.73,2.73,0,0,1-2.38-1.2,5.64,5.64,0,0,1-.83-3.26,6.1,6.1,0,0,1,.42-2.33,3.59,3.59,0,0,1,1.19-1.58,3,3,0,0,1,1.83-.57,2.82,2.82,0,0,1,2.1.91V51.94l2,.22Zm-2.83-1.58a2.72,2.72,0,0,0,.78-.82V57.75a2.66,2.66,0,0,0-.74-.67,1.68,1.68,0,0,0-.86-.22,1.48,1.48,0,0,0-1.3.73,4.09,4.09,0,0,0-.47,2.2,4.51,4.51,0,0,0,.42,2.25,1.34,1.34,0,0,0,1.22.68A1.75,1.75,0,0,0,425.23,62.45Z"/>
          <path class="cls-2" d="M436.6,62.46a.43.43,0,0,0,.37.15,1.53,1.53,0,0,0,.48-.08l.43,1.44a3.72,3.72,0,0,1-1.46.29,1.91,1.91,0,0,1-1.47-.55,2.28,2.28,0,0,1-.51-1.61V52.17l2-.22V62A.87.87,0,0,0,436.6,62.46Z"/>
          <path class="cls-2" d="M441.19,51.63a1.21,1.21,0,0,1,.36.89,1.18,1.18,0,0,1-.36.88,1.28,1.28,0,0,1-.94.35,1.26,1.26,0,0,1-.92-.35,1.18,1.18,0,0,1-.36-.88,1.21,1.21,0,0,1,.36-.89,1.24,1.24,0,0,1,.92-.36A1.27,1.27,0,0,1,441.19,51.63ZM439.25,64V55.56h2V64Z"/>
          <path class="cls-2" d="M446.31,53.77a1.27,1.27,0,0,0-.26.89v.9h2L447.85,57H446v7h-2V57h-1.38V55.56H444v-.93a2.57,2.57,0,0,1,.78-1.94,3.05,3.05,0,0,1,2.2-.74,5.18,5.18,0,0,1,2.19.5l-.59,1.38a3.28,3.28,0,0,0-1.39-.32A1.16,1.16,0,0,0,446.31,53.77Z"/>
          <path class="cls-2" d="M456,60.42h-5.31a2.77,2.77,0,0,0,.65,1.76,2,2,0,0,0,1.43.53,3,3,0,0,0,1.06-.18,4.91,4.91,0,0,0,1.06-.57l.85,1.17a4.88,4.88,0,0,1-3.14,1.14,3.77,3.77,0,0,1-3-1.18,4.7,4.7,0,0,1-1-3.23,5.79,5.79,0,0,1,.45-2.33,3.7,3.7,0,0,1,1.3-1.62,3.86,3.86,0,0,1,4.77.54,4.66,4.66,0,0,1,1,3.14Q456.09,59.75,456,60.42Zm-2-1.42q0-2.22-1.65-2.22a1.4,1.4,0,0,0-1.18.55,3.28,3.28,0,0,0-.5,1.77h3.33Z"/>
          <path class="cls-2" d="M462.94,57.45l-1.49,1.09-1.15-2.08-1.14,2.08-1.49-1.07,1.62-1.74L457,55.27l.56-1.7,2.16,1-.3-2.4h1.86l-.3,2.42,2.14-1,.58,1.71-2.34.45Z"/>
          <path class="cls-2" d="M267,82.83a5.16,5.16,0,0,1,1.62,1l-1.07,1.22a4.1,4.1,0,0,0-1.17-.73,3.48,3.48,0,0,0-1.28-.23,2.05,2.05,0,0,0-1.24.34,1.13,1.13,0,0,0-.47,1,1.2,1.2,0,0,0,.18.69,1.7,1.7,0,0,0,.66.51,9.62,9.62,0,0,0,1.42.53,6.47,6.47,0,0,1,2.46,1.27,2.87,2.87,0,0,1,.82,2.22,3.13,3.13,0,0,1-.5,1.76A3.34,3.34,0,0,1,267,93.6a5.35,5.35,0,0,1-2.24.43,6,6,0,0,1-2.26-.41,5.28,5.28,0,0,1-1.72-1.11l1.12-1.25a4,4,0,0,0,2.82,1.14,2.34,2.34,0,0,0,1.47-.43,1.45,1.45,0,0,0,.56-1.22,1.49,1.49,0,0,0-.19-.79,1.67,1.67,0,0,0-.66-.56,8,8,0,0,0-1.34-.52A6.29,6.29,0,0,1,262,87.56a2.95,2.95,0,0,1-.3-3.62A3.15,3.15,0,0,1,263,82.88a4.7,4.7,0,0,1,1.94-.38A5.58,5.58,0,0,1,267,82.83Z"/>
          <path class="cls-2" d="M277.08,92.27a1,1,0,0,0,.49.36L277.13,94a2.7,2.7,0,0,1-1.18-.34,1.75,1.75,0,0,1-.7-.89,2.72,2.72,0,0,1-1.08,1,3.3,3.3,0,0,1-1.45.31,2.73,2.73,0,0,1-2-.72,2.52,2.52,0,0,1-.74-1.89,2.45,2.45,0,0,1,1-2.1,4.81,4.81,0,0,1,2.86-.73h1.06v-.48a1.46,1.46,0,0,0-.38-1.14,1.82,1.82,0,0,0-1.21-.33,7.13,7.13,0,0,0-2.24.45l-.48-1.39a8.55,8.55,0,0,1,3.07-.61q3.25,0,3.25,2.91v3.55A1.35,1.35,0,0,0,277.08,92.27Zm-2.17-.78V89.79h-.85q-2,0-2,1.47a1.36,1.36,0,0,0,.3.94,1.15,1.15,0,0,0,.9.34A1.81,1.81,0,0,0,274.91,91.5Z"/>
          <path class="cls-2" d="M280.78,93.79,278,85.32h2.22L282,92.14l1.86-6.82H286l-2.75,8.46Z"/>
          <path class="cls-2" d="M294,90.19h-5.31a2.77,2.77,0,0,0,.65,1.76,2,2,0,0,0,1.43.53,3,3,0,0,0,1.06-.18,5,5,0,0,0,1.06-.57l.85,1.17A4.87,4.87,0,0,1,290.57,94a3.77,3.77,0,0,1-3-1.18,4.7,4.7,0,0,1-1-3.23,5.79,5.79,0,0,1,.45-2.33,3.69,3.69,0,0,1,1.3-1.62,3.86,3.86,0,0,1,4.77.54,4.65,4.65,0,0,1,1,3.14Q294,89.52,294,90.19Zm-2-1.42q0-2.22-1.65-2.22a1.4,1.4,0,0,0-1.18.55,3.28,3.28,0,0,0-.5,1.77H292Z"/>
          <path class="cls-2" d="M304.91,93.79l-.11-1.18a3.12,3.12,0,0,1-1.1,1.07,3,3,0,0,1-1.5.35,2.22,2.22,0,0,1-1.75-.7,2.81,2.81,0,0,1-.62-1.93V85.32h2v5.82a1.63,1.63,0,0,0,.25,1,1,1,0,0,0,.79.3,2.07,2.07,0,0,0,1.71-1.2v-6h2v8.46Z"/>
          <path class="cls-2" d="M315.89,86.25a5.89,5.89,0,0,1,.78,3.28,6.44,6.44,0,0,1-.39,2.33,3.54,3.54,0,0,1-1.15,1.59,2.9,2.9,0,0,1-1.8.58,2.64,2.64,0,0,1-2.13-.93v4l-2,.22v-12h1.79l.11,1a3.15,3.15,0,0,1,1.13-1,3,3,0,0,1,1.32-.32A2.67,2.67,0,0,1,315.89,86.25Zm-1.37,3.3a4.6,4.6,0,0,0-.41-2.25,1.34,1.34,0,0,0-1.22-.68,1.59,1.59,0,0,0-.94.31,2.76,2.76,0,0,0-.76.84v3.81a1.8,1.8,0,0,0,1.55.88Q314.53,92.46,314.53,89.55Z"/>
          <path class="cls-2" d="M326.54,93.87a4,4,0,0,1-1.13.16,2.51,2.51,0,0,1-1.9-.71,2.92,2.92,0,0,1-.65-2.06V86.8h-1.33V85.32h1.33V83.45l2-.24v2.11h2l-.21,1.47h-1.76v4.42a1.45,1.45,0,0,0,.22.9.82.82,0,0,0,.68.27,2,2,0,0,0,1-.32l.72,1.33A3.26,3.26,0,0,1,326.54,93.87Z"/>
          <path class="cls-2" d="M334.9,86.27a4.79,4.79,0,0,1,1,3.27,5.42,5.42,0,0,1-.48,2.34,3.63,3.63,0,0,1-1.38,1.58A3.94,3.94,0,0,1,332,94,3.71,3.71,0,0,1,329,92.84,4.79,4.79,0,0,1,328,89.55a5.37,5.37,0,0,1,.48-2.34,3.64,3.64,0,0,1,1.38-1.57,4,4,0,0,1,2.14-.56A3.69,3.69,0,0,1,334.9,86.27Zm-4.76,3.27a4.21,4.21,0,0,0,.46,2.22,1.67,1.67,0,0,0,2.74,0,4.21,4.21,0,0,0,.46-2.21,4.17,4.17,0,0,0-.46-2.2,1.5,1.5,0,0,0-1.35-.71Q330.14,86.64,330.14,89.55Z"/>
          <path class="cls-2" d="M343.6,94l-1.87-.61,3.74-8.78h-4.54V83h6.66v1.44Z"/>
          <path class="cls-2" d="M350.94,84.54v2.67a3.61,3.61,0,0,1,1.63-.4,3.08,3.08,0,0,1,1.6.42,2.82,2.82,0,0,1,1.1,1.2,4.11,4.11,0,0,1,.39,1.86,3.79,3.79,0,0,1-.5,2,3.4,3.4,0,0,1-1.41,1.32,4.53,4.53,0,0,1-2.11.47,4.36,4.36,0,0,1-1.9-.39,4.83,4.83,0,0,1-1.5-1.13l1.18-1.1a2.75,2.75,0,0,0,2.16,1,1.86,1.86,0,0,0,1.43-.56,2.26,2.26,0,0,0,.52-1.6q0-2-1.73-2a2.6,2.6,0,0,0-.69.09,3.92,3.92,0,0,0-.7.28H349V83h6.24L355,84.54Z"/>
          <path class="cls-2" d="M361,83.17a2.5,2.5,0,0,1,1,1,3.19,3.19,0,0,1,0,2.94,2.5,2.5,0,0,1-1,1,2.83,2.83,0,0,1-1.39.34,2.79,2.79,0,0,1-1.38-.34,2.52,2.52,0,0,1-1-1,3.19,3.19,0,0,1,0-2.94,2.52,2.52,0,0,1,1-1,2.79,2.79,0,0,1,1.38-.34A2.83,2.83,0,0,1,361,83.17Zm-2.28,1.36a2.39,2.39,0,0,0,0,2.18,1,1,0,0,0,.89.43q1.15,0,1.15-1.52t-1.15-1.52A1,1,0,0,0,358.69,84.53ZM360,94.36l-1.31-.85,7.41-11.18,1.33.85Zm7.87-5.59a2.44,2.44,0,0,1,1,1,3.25,3.25,0,0,1,0,2.94,2.43,2.43,0,0,1-1,1,3,3,0,0,1-2.78,0,2.48,2.48,0,0,1-1-1,3.19,3.19,0,0,1,0-2.94,2.49,2.49,0,0,1,1-1,3,3,0,0,1,2.78,0Zm-2.28,1.36a2.39,2.39,0,0,0,0,2.18,1,1,0,0,0,.89.43q1.15,0,1.15-1.52t-1.15-1.52A1,1,0,0,0,365.57,90.13Z"/>
          <path class="cls-2" d="M381.41,92.27a1,1,0,0,0,.49.36L381.47,94a2.7,2.7,0,0,1-1.18-.34,1.75,1.75,0,0,1-.7-.89,2.72,2.72,0,0,1-1.08,1,3.3,3.3,0,0,1-1.45.31,2.73,2.73,0,0,1-2-.72,2.52,2.52,0,0,1-.74-1.89,2.45,2.45,0,0,1,1-2.1,4.81,4.81,0,0,1,2.86-.73h1.06v-.48a1.46,1.46,0,0,0-.38-1.14,1.82,1.82,0,0,0-1.21-.33,7.13,7.13,0,0,0-2.24.45l-.48-1.39a8.55,8.55,0,0,1,3.07-.61q3.25,0,3.25,2.91v3.55A1.35,1.35,0,0,0,381.41,92.27Zm-2.17-.78V89.79h-.85q-2,0-2,1.47a1.36,1.36,0,0,0,.3.94,1.15,1.15,0,0,0,.9.34A1.81,1.81,0,0,0,379.25,91.5Z"/>
          <path class="cls-2" d="M390.29,96.26a4.94,4.94,0,0,1-2.85,1l-.21-1.49a5.16,5.16,0,0,0,1.34-.36,2.16,2.16,0,0,0,.81-.62,4.15,4.15,0,0,0,.56-1h-.7l-2.69-8.46h2.18l1.84,7.1,1.92-7.1h2.11l-2.75,8.5A5.2,5.2,0,0,1,390.29,96.26Z"/>
          <path class="cls-2" d="M402.5,90.19h-5.31a2.77,2.77,0,0,0,.65,1.76,2,2,0,0,0,1.43.53,3,3,0,0,0,1.06-.18,5,5,0,0,0,1.06-.57l.85,1.17A4.87,4.87,0,0,1,399.09,94a3.77,3.77,0,0,1-3-1.18,4.7,4.7,0,0,1-1-3.23,5.79,5.79,0,0,1,.45-2.33,3.69,3.69,0,0,1,1.3-1.62,3.86,3.86,0,0,1,4.77.54,4.65,4.65,0,0,1,1,3.14Q402.54,89.52,402.5,90.19Zm-2-1.42q0-2.22-1.65-2.22a1.4,1.4,0,0,0-1.18.55,3.28,3.28,0,0,0-.5,1.77h3.33Z"/>
          <path class="cls-2" d="M410.84,92.27a1,1,0,0,0,.49.36L410.9,94a2.7,2.7,0,0,1-1.18-.34,1.75,1.75,0,0,1-.7-.89,2.72,2.72,0,0,1-1.08,1,3.3,3.3,0,0,1-1.45.31,2.73,2.73,0,0,1-2-.72,2.52,2.52,0,0,1-.74-1.89,2.45,2.45,0,0,1,1-2.1,4.81,4.81,0,0,1,2.86-.73h1.06v-.48A1.46,1.46,0,0,0,408.3,87a1.82,1.82,0,0,0-1.21-.33,7.13,7.13,0,0,0-2.24.45l-.48-1.39a8.55,8.55,0,0,1,3.07-.61q3.25,0,3.25,2.91v3.55A1.35,1.35,0,0,0,410.84,92.27Zm-2.17-.78V89.79h-.85q-2,0-2,1.47a1.36,1.36,0,0,0,.3.94,1.15,1.15,0,0,0,.9.34A1.81,1.81,0,0,0,408.67,91.5Z"/>
          <path class="cls-2" d="M418.19,85.21l-.35,2a3.07,3.07,0,0,0-.75-.1,1.44,1.44,0,0,0-1.18.54,4.12,4.12,0,0,0-.69,1.66v4.5h-2V85.32h1.78l.19,1.66a3,3,0,0,1,.88-1.4,2,2,0,0,1,1.33-.49A3,3,0,0,1,418.19,85.21Z"/>
          <path class="cls-2" d="M425.41,81.4a1.21,1.21,0,0,1,.36.89,1.18,1.18,0,0,1-.36.88,1.28,1.28,0,0,1-.94.35,1.26,1.26,0,0,1-.92-.35,1.18,1.18,0,0,1-.36-.88,1.21,1.21,0,0,1,.36-.89,1.25,1.25,0,0,1,.92-.36A1.27,1.27,0,0,1,425.41,81.4Zm-1.94,12.39V85.32h2v8.46Z"/>
          <path class="cls-2" d="M434.26,85.76a2.68,2.68,0,0,1,.63,1.9v6.13h-2V88a1.63,1.63,0,0,0-.26-1.06,1,1,0,0,0-.78-.3,1.52,1.52,0,0,0-1,.33,3.74,3.74,0,0,0-.82,1v5.89h-2V85.32h1.78l.16,1.12a3.16,3.16,0,0,1,2.58-1.36A2.29,2.29,0,0,1,434.26,85.76Z"/>
          <path class="cls-2" d="M448.18,90.19h-5.31a2.77,2.77,0,0,0,.65,1.76,2,2,0,0,0,1.43.53,3,3,0,0,0,1.06-.18,5,5,0,0,0,1.06-.57l.85,1.17A4.87,4.87,0,0,1,444.77,94a3.77,3.77,0,0,1-3-1.18,4.7,4.7,0,0,1-1-3.23,5.79,5.79,0,0,1,.45-2.33,3.69,3.69,0,0,1,1.3-1.62,3.86,3.86,0,0,1,4.77.54,4.65,4.65,0,0,1,1,3.14Q448.22,89.52,448.18,90.19Zm-2-1.42q0-2.22-1.65-2.22a1.4,1.4,0,0,0-1.18.55,3.28,3.28,0,0,0-.5,1.77h3.33Z"/>
          <path class="cls-2" d="M456.39,85.76a2.68,2.68,0,0,1,.63,1.9v6.13h-2V88a1.63,1.63,0,0,0-.26-1.06,1,1,0,0,0-.78-.3,1.52,1.52,0,0,0-1,.33,3.74,3.74,0,0,0-.82,1v5.89h-2V85.32h1.78l.16,1.12a3.16,3.16,0,0,1,2.58-1.36A2.29,2.29,0,0,1,456.39,85.76Z"/>
          <path class="cls-2" d="M466.3,90.19H461a2.77,2.77,0,0,0,.65,1.76,2,2,0,0,0,1.43.53,3,3,0,0,0,1.06-.18,5,5,0,0,0,1.06-.57l.85,1.17A4.87,4.87,0,0,1,462.89,94a3.77,3.77,0,0,1-3-1.18,4.7,4.7,0,0,1-1-3.23,5.79,5.79,0,0,1,.45-2.33,3.69,3.69,0,0,1,1.3-1.62,3.86,3.86,0,0,1,4.77.54,4.65,4.65,0,0,1,1,3.14Q466.35,89.52,466.3,90.19Zm-2-1.42q0-2.22-1.65-2.22a1.4,1.4,0,0,0-1.18.55,3.28,3.28,0,0,0-.5,1.77h3.33Z"/>
          <path class="cls-2" d="M473.26,85.21l-.35,2a3.07,3.07,0,0,0-.75-.1,1.44,1.44,0,0,0-1.18.54,4.12,4.12,0,0,0-.69,1.66v4.5h-2V85.32H470l.19,1.66a3,3,0,0,1,.88-1.4,2,2,0,0,1,1.33-.49A3,3,0,0,1,473.26,85.21Z"/>
          <path class="cls-2" d="M479.45,86.06a2.81,2.81,0,0,1,1.16.87,2.17,2.17,0,0,1,.38,1.3,2.68,2.68,0,0,1-.41,1.47,2.77,2.77,0,0,1-1.18,1,4.2,4.2,0,0,1-1.82.37,3.58,3.58,0,0,1-1-.13.73.73,0,0,0-.35.62q0,.59,1,.59h1.3a4,4,0,0,1,1.62.3,2.49,2.49,0,0,1,1.08.86,2.12,2.12,0,0,1,.38,1.24,2.25,2.25,0,0,1-1.09,2,5.74,5.74,0,0,1-3.14.71,7,7,0,0,1-2.31-.3,2.21,2.21,0,0,1-1.19-.88,2.79,2.79,0,0,1-.35-1.47h1.84a1.27,1.27,0,0,0,.17.7,1,1,0,0,0,.61.38,4.83,4.83,0,0,0,1.27.13,3.41,3.41,0,0,0,1.65-.29.92.92,0,0,0,.48-.83.86.86,0,0,0-.37-.74,1.83,1.83,0,0,0-1.07-.26h-1.28a3,3,0,0,1-1.81-.46,1.41,1.41,0,0,1-.61-1.17,1.59,1.59,0,0,1,.26-.86,2.25,2.25,0,0,1,.73-.7,2.78,2.78,0,0,1-1.13-1,2.61,2.61,0,0,1-.36-1.4,2.87,2.87,0,0,1,.45-1.6,3,3,0,0,1,1.24-1.06,4.19,4.19,0,0,1,1.82-.38,7.54,7.54,0,0,0,2.17-.2,9,9,0,0,0,1.78-.74l.51,1.63A7.8,7.8,0,0,1,479.45,86.06Zm-3.06.86a1.7,1.7,0,0,0-.39,1.18,1.76,1.76,0,0,0,.4,1.22,1.61,1.61,0,0,0,2.22,0,1.82,1.82,0,0,0,.38-1.24q0-1.6-1.54-1.6A1.37,1.37,0,0,0,476.39,86.92Z"/>
          <path class="cls-2" d="M485.68,96.26a4.94,4.94,0,0,1-2.85,1l-.21-1.49a5.16,5.16,0,0,0,1.34-.36,2.16,2.16,0,0,0,.81-.62,4.15,4.15,0,0,0,.56-1h-.7l-2.69-8.46h2.18l1.84,7.1,1.92-7.1H490l-2.75,8.5A5.2,5.2,0,0,1,485.68,96.26Z"/>
          <path class="cls-2" d="M500.13,85.32a4,4,0,0,1,1.26.75l-.93,1.25a3.25,3.25,0,0,0-.82-.47,2.48,2.48,0,0,0-.88-.15q-1.9,0-1.9,2.9a3.53,3.53,0,0,0,.5,2.12,1.67,1.67,0,0,0,1.41.65,2.22,2.22,0,0,0,.84-.15,3.83,3.83,0,0,0,.84-.5l.94,1.34a4.22,4.22,0,0,1-2.74,1,4,4,0,0,1-2.11-.54A3.52,3.52,0,0,1,495.17,92a5.31,5.31,0,0,1-.48-2.34,5.57,5.57,0,0,1,.48-2.38,3.68,3.68,0,0,1,1.38-1.6,3.84,3.84,0,0,1,2.1-.57A4.38,4.38,0,0,1,500.13,85.32Z"/>
          <path class="cls-2" d="M509.09,86.27a4.79,4.79,0,0,1,1,3.27,5.42,5.42,0,0,1-.48,2.34,3.63,3.63,0,0,1-1.38,1.58,3.94,3.94,0,0,1-2.13.56,3.71,3.71,0,0,1-2.93-1.19,4.79,4.79,0,0,1-1.06-3.29,5.37,5.37,0,0,1,.48-2.34A3.64,3.64,0,0,1,504,85.64a4,4,0,0,1,2.14-.56A3.69,3.69,0,0,1,509.09,86.27Zm-4.76,3.27a4.21,4.21,0,0,0,.46,2.22,1.67,1.67,0,0,0,2.74,0,4.21,4.21,0,0,0,.46-2.21,4.17,4.17,0,0,0-.46-2.2,1.5,1.5,0,0,0-1.35-.71Q504.33,86.64,504.33,89.55Z"/>
          <path class="cls-2" d="M517.74,86.09l-.8,1.23a3.69,3.69,0,0,0-2.08-.72,1.76,1.76,0,0,0-1,.23.71.71,0,0,0-.34.62.78.78,0,0,0,.14.48,1.32,1.32,0,0,0,.52.36,8.6,8.6,0,0,0,1.11.38,4.87,4.87,0,0,1,2,1,2.18,2.18,0,0,1,.66,1.7,2.27,2.27,0,0,1-1,2,4.35,4.35,0,0,1-2.54.71,5.39,5.39,0,0,1-1.9-.32,4.62,4.62,0,0,1-1.48-.88l1-1.17a3.56,3.56,0,0,0,2.27.85,2,2,0,0,0,1.1-.27.83.83,0,0,0,.42-.72,1,1,0,0,0-.15-.6,1.3,1.3,0,0,0-.54-.39,10.16,10.16,0,0,0-1.22-.42,4.09,4.09,0,0,1-1.9-1,2.18,2.18,0,0,1-.61-1.58,2.09,2.09,0,0,1,.41-1.26A2.7,2.7,0,0,1,513,85.4a4.27,4.27,0,0,1,1.7-.32A4.76,4.76,0,0,1,517.74,86.09Z"/>
          <path class="cls-2" d="M523.53,93.87a4,4,0,0,1-1.13.16,2.51,2.51,0,0,1-1.9-.71,2.92,2.92,0,0,1-.65-2.06V86.8h-1.33V85.32h1.33V83.45l2-.24v2.11h2l-.21,1.47H521.9v4.42a1.45,1.45,0,0,0,.22.9.82.82,0,0,0,.68.27,2,2,0,0,0,1-.32l.72,1.33A3.26,3.26,0,0,1,523.53,93.87Z"/>
          <path class="cls-2" d="M531.36,86.09l-.8,1.23a3.69,3.69,0,0,0-2.08-.72,1.76,1.76,0,0,0-1,.23.71.71,0,0,0-.34.62.78.78,0,0,0,.14.48,1.32,1.32,0,0,0,.52.36,8.6,8.6,0,0,0,1.11.38,4.87,4.87,0,0,1,2,1,2.18,2.18,0,0,1,.66,1.7,2.27,2.27,0,0,1-1,2,4.35,4.35,0,0,1-2.54.71,5.39,5.39,0,0,1-1.9-.32,4.62,4.62,0,0,1-1.48-.88l1-1.17a3.56,3.56,0,0,0,2.27.85,2,2,0,0,0,1.1-.27.83.83,0,0,0,.42-.72,1,1,0,0,0-.15-.6,1.3,1.3,0,0,0-.54-.39,10.16,10.16,0,0,0-1.22-.42,4.09,4.09,0,0,1-1.9-1,2.18,2.18,0,0,1-.61-1.58,2.09,2.09,0,0,1,.41-1.26,2.7,2.7,0,0,1,1.15-.88,4.27,4.27,0,0,1,1.7-.32A4.76,4.76,0,0,1,531.36,86.09Z"/>
          <path class="cls-2" d="M538.26,87.21l-1.49,1.09-1.15-2.08-1.14,2.08L533,87.23l1.62-1.74L532.27,85l.56-1.7,2.16,1-.3-2.4h1.86l-.3,2.42,2.14-1L539,85l-2.34.45Z"/>
          <path class="cls-2" d="M545.36,87.21l-1.49,1.09-1.15-2.08-1.14,2.08-1.49-1.07,1.62-1.74L539.37,85l.56-1.7,2.16,1-.3-2.4h1.86l-.3,2.42,2.14-1,.58,1.71-2.34.45Z"/>
        </g>
      </g>
    </g>
  </g>
</svg>
