<svg xmlns="http://www.w3.org/2000/svg" viewBox="0 0 639.86 214.73">
  <defs>
    <style>
      .cls-1 {
        fill: #0071bc;
      }

      .cls-2 {
        fill: #fff;
      }

      .cls-3, .cls-4 {
        fill: none;
        stroke: #fff;
        stroke-miterlimit: 10;
      }

      .cls-3 {
        stroke-width: 1.5px;
      }

      .cls-4 {
        opacity: 0.51;
      }
    </style>
  </defs>
  <title>1b</title>
  <g id="Layer_2" data-name="Layer 2">
    <g id="Layer_1-2" data-name="Layer 1">
      <g>
        <rect class="cls-1" width="639.86" height="214.73"/>
        <g>
          <path class="cls-2" d="M56,117.46a.5.5,0,0,1,.53-.53h6.75a.5.5,0,0,1,.53.53V145.8a.28.28,0,0,0,.32.32H80.12a.5.5,0,0,1,.53.53v5.9a.5.5,0,0,1-.53.53H56.57a.5.5,0,0,1-.53-.53Z"/>
          <path class="cls-2" d="M85.27,117.46a.5.5,0,0,1,.53-.53H109a.5.5,0,0,1,.53.53v5.69a.5.5,0,0,1-.53.53H93.4a.28.28,0,0,0-.32.32v7.18a.28.28,0,0,0,.32.32h13a.5.5,0,0,1,.53.53v5.63a.5.5,0,0,1-.53.53h-13a.28.28,0,0,0-.32.32V146a.28.28,0,0,0,.32.32H109a.5.5,0,0,1,.53.53v5.69a.5.5,0,0,1-.53.53H85.8a.5.5,0,0,1-.53-.53Z"/>
          <path class="cls-2" d="M115.3,117.46a.5.5,0,0,1,.53-.53h13.45c6.33,0,10.74,2.71,12.49,8.13.64,2,1,4,1,9.94s-.32,7.92-1,9.94c-1.75,5.42-6.17,8.13-12.49,8.13H115.83a.5.5,0,0,1-.53-.53Zm8.13,28.65h4.09c3.62,0,5.79-1.06,6.7-4,.37-1.06.58-2.45.58-7.12s-.21-6.06-.58-7.12c-.9-2.92-3.08-4-6.7-4h-4.09a.28.28,0,0,0-.32.32V145.8A.28.28,0,0,0,123.44,146.12Z"/>
        </g>
        <g>
          <path class="cls-2" d="M262.71,62.92,262,65.48h-2.19l3.44-11.06h2.61l3.42,11.06h-2.24l-.69-2.56ZM264.53,56l-1.41,5.28H266Z"/>
          <path class="cls-2" d="M271.43,65.48,268.63,57h2.22l1.81,6.82L274.52,57h2.11l-2.75,8.46Z"/>
          <path class="cls-2" d="M284.63,61.88h-5.31a2.78,2.78,0,0,0,.65,1.76,2,2,0,0,0,1.43.53,3,3,0,0,0,1.06-.18,4.94,4.94,0,0,0,1.06-.57l.85,1.17a4.87,4.87,0,0,1-3.14,1.14,3.77,3.77,0,0,1-3-1.18,4.71,4.71,0,0,1-1-3.23,5.79,5.79,0,0,1,.45-2.33,3.69,3.69,0,0,1,1.3-1.62,3.86,3.86,0,0,1,4.77.54,4.65,4.65,0,0,1,1,3.14C284.68,61.15,284.66,61.43,284.63,61.88Zm-2-1.42q0-2.22-1.65-2.22a1.4,1.4,0,0,0-1.18.55,3.3,3.3,0,0,0-.5,1.77h3.33Z"/>
          <path class="cls-2" d="M291.59,56.9l-.35,2a3.09,3.09,0,0,0-.75-.1,1.44,1.44,0,0,0-1.18.54,4.14,4.14,0,0,0-.69,1.66v4.5h-2V57h1.78l.19,1.66a3,3,0,0,1,.88-1.4,2,2,0,0,1,1.33-.49A3,3,0,0,1,291.59,56.9Z"/>
          <path class="cls-2" d="M299,64a1,1,0,0,0,.49.36L299,65.69a2.69,2.69,0,0,1-1.18-.34,1.75,1.75,0,0,1-.7-.89,2.71,2.71,0,0,1-1.08,1,3.29,3.29,0,0,1-1.45.31,2.73,2.73,0,0,1-2-.72,2.52,2.52,0,0,1-.74-1.89,2.44,2.44,0,0,1,1-2.1,4.8,4.8,0,0,1,2.86-.73h1.06V59.8a1.46,1.46,0,0,0-.38-1.14,1.82,1.82,0,0,0-1.21-.33,7.15,7.15,0,0,0-2.24.45l-.48-1.39a8.55,8.55,0,0,1,3.07-.61q3.25,0,3.25,2.91v3.55A1.35,1.35,0,0,0,299,64Zm-2.17-.78V61.48h-.85q-2,0-2,1.47a1.36,1.36,0,0,0,.3.94,1.14,1.14,0,0,0,.9.34A1.81,1.81,0,0,0,296.79,63.19Z"/>
          <path class="cls-2" d="M306.2,57.75a2.83,2.83,0,0,1,1.16.87,2.17,2.17,0,0,1,.38,1.3,2.67,2.67,0,0,1-.41,1.47,2.76,2.76,0,0,1-1.18,1,4.2,4.2,0,0,1-1.82.37,3.56,3.56,0,0,1-1-.13.73.73,0,0,0-.35.62q0,.59,1,.59h1.3a4,4,0,0,1,1.62.3A2.49,2.49,0,0,1,308,65a2.12,2.12,0,0,1,.38,1.24,2.25,2.25,0,0,1-1.09,2,5.74,5.74,0,0,1-3.14.71,7,7,0,0,1-2.31-.3,2.21,2.21,0,0,1-1.19-.88,2.79,2.79,0,0,1-.35-1.47h1.84a1.28,1.28,0,0,0,.17.7,1,1,0,0,0,.61.38,4.82,4.82,0,0,0,1.27.13,3.4,3.4,0,0,0,1.65-.29.92.92,0,0,0,.48-.83.86.86,0,0,0-.37-.74,1.83,1.83,0,0,0-1.07-.26h-1.28a3,3,0,0,1-1.81-.46,1.41,1.41,0,0,1-.61-1.17,1.59,1.59,0,0,1,.26-.86,2.26,2.26,0,0,1,.73-.7,2.79,2.79,0,0,1-1.13-1,2.61,2.61,0,0,1-.36-1.4,2.87,2.87,0,0,1,.45-1.6,3,3,0,0,1,1.24-1.06,4.18,4.18,0,0,1,1.82-.38,7.57,7.57,0,0,0,2.17-.2,9.07,9.07,0,0,0,1.78-.74l.51,1.63A7.82,7.82,0,0,1,306.2,57.75Zm-3.06.86a1.7,1.7,0,0,0-.39,1.18,1.76,1.76,0,0,0,.4,1.22,1.62,1.62,0,0,0,2.22,0,1.83,1.83,0,0,0,.38-1.24q0-1.6-1.54-1.6A1.37,1.37,0,0,0,303.13,58.61Z"/>
          <path class="cls-2" d="M316.53,61.88h-5.31a2.77,2.77,0,0,0,.65,1.76,2,2,0,0,0,1.43.53,3,3,0,0,0,1.06-.18,4.91,4.91,0,0,0,1.06-.57l.85,1.17a4.87,4.87,0,0,1-3.13,1.14,3.77,3.77,0,0,1-3-1.18,4.7,4.7,0,0,1-1-3.23,5.79,5.79,0,0,1,.45-2.33,3.7,3.7,0,0,1,1.29-1.62,3.86,3.86,0,0,1,4.77.54,4.65,4.65,0,0,1,1,3.14Q316.58,61.21,316.53,61.88Zm-2-1.42q0-2.22-1.65-2.22a1.4,1.4,0,0,0-1.18.55,3.28,3.28,0,0,0-.5,1.77h3.33Z"/>
          <path class="cls-2" d="M324.9,65.48v-8.7l-2.4,1.46-.9-1.38,3.5-2.14h1.81V65.48Z"/>
          <path class="cls-2" d="M334,54.92a2.85,2.85,0,0,1,1.62,2.62,4.1,4.1,0,0,1-.39,1.75,8,8,0,0,1-1.3,1.86q-.91,1-2.67,2.7h4.61l-.22,1.62H329V64q2-2.08,2.94-3.08a9.31,9.31,0,0,0,1.26-1.71,3.13,3.13,0,0,0,.38-1.48A1.45,1.45,0,0,0,332,56.13a2.17,2.17,0,0,0-1.09.26,3.81,3.81,0,0,0-1,.87l-1.26-1a4.22,4.22,0,0,1,3.49-1.76A4.13,4.13,0,0,1,334,54.92Z"/>
          <path class="cls-2" d="M342.21,59.65v1.63h-4.83V59.65Z"/>
          <path class="cls-2" d="M348.31,54.92a2.85,2.85,0,0,1,1.62,2.62,4.1,4.1,0,0,1-.39,1.75,8,8,0,0,1-1.3,1.86q-.91,1-2.67,2.7h4.61L350,65.48h-6.7V64q2-2.08,2.94-3.08a9.31,9.31,0,0,0,1.26-1.71,3.13,3.13,0,0,0,.38-1.48,1.45,1.45,0,0,0-1.55-1.57,2.17,2.17,0,0,0-1.09.26,3.81,3.81,0,0,0-1,.87l-1.26-1a4.22,4.22,0,0,1,3.49-1.76A4.13,4.13,0,0,1,348.31,54.92Z"/>
          <path class="cls-2" d="M356.38,54.89a2.7,2.7,0,0,1,1.17,1,2.54,2.54,0,0,1,.39,1.38,2.4,2.4,0,0,1-.56,1.62,3,3,0,0,1-1.54.9,2.79,2.79,0,0,1,1.76.77,2.48,2.48,0,0,1,.69,1.86,3.1,3.1,0,0,1-.47,1.68,3.28,3.28,0,0,1-1.35,1.19,4.6,4.6,0,0,1-2.08.44,4.28,4.28,0,0,1-3.49-1.55l1.17-1.1a3.2,3.2,0,0,0,1,.8,2.75,2.75,0,0,0,1.18.26,1.94,1.94,0,0,0,1.38-.49,1.72,1.72,0,0,0,.52-1.32,1.63,1.63,0,0,0-.49-1.33,2.24,2.24,0,0,0-1.45-.4h-.85l.24-1.46h.58a1.79,1.79,0,0,0,1.26-.43,1.54,1.54,0,0,0,.47-1.2,1.29,1.29,0,0,0-.43-1,1.69,1.69,0,0,0-1.15-.38,2.72,2.72,0,0,0-1.14.23,3.83,3.83,0,0,0-1,.71l-1-1.14a4.76,4.76,0,0,1,3.38-1.38A4.28,4.28,0,0,1,356.38,54.89Z"/>
          <path class="cls-2" d="M366.75,68a4.93,4.93,0,0,1-2.85,1l-.21-1.49a5.14,5.14,0,0,0,1.34-.36,2.17,2.17,0,0,0,.81-.62,4.15,4.15,0,0,0,.56-1h-.7L363,57h2.18l1.84,7.1,1.92-7.1h2.11l-2.75,8.5A5.2,5.2,0,0,1,366.75,68Z"/>
          <path class="cls-2" d="M379,61.88h-5.31a2.78,2.78,0,0,0,.65,1.76,2,2,0,0,0,1.43.53,3,3,0,0,0,1.06-.18,4.94,4.94,0,0,0,1.06-.57l.85,1.17a4.87,4.87,0,0,1-3.14,1.14,3.77,3.77,0,0,1-3-1.18,4.71,4.71,0,0,1-1-3.23A5.79,5.79,0,0,1,372,59a3.69,3.69,0,0,1,1.3-1.62,3.86,3.86,0,0,1,4.77.54A4.65,4.65,0,0,1,379,61C379,61.15,379,61.43,379,61.88Zm-2-1.42q0-2.22-1.65-2.22a1.4,1.4,0,0,0-1.18.55,3.3,3.3,0,0,0-.5,1.77H377Z"/>
          <path class="cls-2" d="M387.31,64a1,1,0,0,0,.49.36l-.43,1.36a2.69,2.69,0,0,1-1.18-.34,1.74,1.74,0,0,1-.7-.89,2.72,2.72,0,0,1-1.08,1,3.3,3.3,0,0,1-1.45.31,2.74,2.74,0,0,1-2-.72,2.52,2.52,0,0,1-.74-1.89,2.44,2.44,0,0,1,1-2.1,4.8,4.8,0,0,1,2.86-.73h1.06V59.8a1.46,1.46,0,0,0-.38-1.14,1.82,1.82,0,0,0-1.21-.33,7.14,7.14,0,0,0-2.24.45l-.48-1.39a8.55,8.55,0,0,1,3.07-.61q3.25,0,3.25,2.91v3.55A1.35,1.35,0,0,0,387.31,64Zm-2.17-.78V61.48h-.85q-2,0-2,1.47a1.35,1.35,0,0,0,.3.94,1.15,1.15,0,0,0,.9.34A1.81,1.81,0,0,0,385.14,63.19Z"/>
          <path class="cls-2" d="M394.66,56.9l-.35,2a3.09,3.09,0,0,0-.75-.1,1.44,1.44,0,0,0-1.18.54,4.14,4.14,0,0,0-.69,1.66v4.5h-2V57h1.78l.19,1.66a3,3,0,0,1,.88-1.4,2,2,0,0,1,1.33-.49A3,3,0,0,1,394.66,56.9Z"/>
          <path class="cls-2" d="M405,56.9l-.35,2a3.09,3.09,0,0,0-.75-.1,1.44,1.44,0,0,0-1.18.54A4.14,4.14,0,0,0,402,61v4.5h-2V57h1.78l.19,1.66a3,3,0,0,1,.88-1.4,2,2,0,0,1,1.33-.49A3,3,0,0,1,405,56.9Z"/>
          <path class="cls-2" d="M412.33,64a1,1,0,0,0,.49.36l-.43,1.36a2.7,2.7,0,0,1-1.18-.34,1.75,1.75,0,0,1-.7-.89,2.72,2.72,0,0,1-1.08,1,3.3,3.3,0,0,1-1.45.31,2.74,2.74,0,0,1-2-.72,2.52,2.52,0,0,1-.74-1.89,2.44,2.44,0,0,1,1-2.1,4.8,4.8,0,0,1,2.86-.73h1.06V59.8a1.46,1.46,0,0,0-.38-1.14,1.82,1.82,0,0,0-1.21-.33,7.14,7.14,0,0,0-2.24.45l-.48-1.39a8.55,8.55,0,0,1,3.07-.61q3.25,0,3.25,2.91v3.55A1.35,1.35,0,0,0,412.33,64Zm-2.17-.78V61.48h-.85q-2,0-2,1.47a1.36,1.36,0,0,0,.3.94,1.15,1.15,0,0,0,.9.34A1.81,1.81,0,0,0,410.16,63.19Z"/>
          <path class="cls-2" d="M418.51,65.56a4,4,0,0,1-1.13.16,2.51,2.51,0,0,1-1.9-.71,2.91,2.91,0,0,1-.65-2.06V58.49h-1.33V57h1.33V55.14l2-.24V57h2l-.21,1.47h-1.76V62.9a1.45,1.45,0,0,0,.22.9.81.81,0,0,0,.68.27,2,2,0,0,0,1-.32l.72,1.33A3.28,3.28,0,0,1,418.51,65.56Z"/>
          <path class="cls-2" d="M427.39,61.88h-5.31a2.77,2.77,0,0,0,.65,1.76,2,2,0,0,0,1.43.53,3,3,0,0,0,1.06-.18,4.91,4.91,0,0,0,1.06-.57l.85,1.17A4.87,4.87,0,0,1,424,65.72a3.77,3.77,0,0,1-3-1.18,4.7,4.7,0,0,1-1-3.23A5.79,5.79,0,0,1,420.4,59a3.7,3.7,0,0,1,1.29-1.62,3.86,3.86,0,0,1,4.77.54,4.65,4.65,0,0,1,1,3.14Q427.44,61.21,427.39,61.88Zm-2-1.42q0-2.22-1.65-2.22a1.4,1.4,0,0,0-1.18.55,3.28,3.28,0,0,0-.5,1.77h3.33Z"/>
          <path class="cls-2" d="M436.45,65.48h-1.81l-.14-1.07a3,3,0,0,1-1,1,2.76,2.76,0,0,1-1.41.35,2.72,2.72,0,0,1-2.38-1.2,5.64,5.64,0,0,1-.83-3.26,6.1,6.1,0,0,1,.42-2.33,3.59,3.59,0,0,1,1.19-1.58,3,3,0,0,1,1.83-.57,2.81,2.81,0,0,1,2.1.91V53.4l2,.22Zm-2.83-1.58a2.71,2.71,0,0,0,.78-.82V59.21a2.66,2.66,0,0,0-.74-.67,1.68,1.68,0,0,0-.86-.22,1.48,1.48,0,0,0-1.3.73,4.1,4.1,0,0,0-.47,2.2,4.5,4.5,0,0,0,.42,2.25,1.34,1.34,0,0,0,1.21.68A1.75,1.75,0,0,0,433.62,63.9Z"/>
          <path class="cls-2" d="M445,63.92a.43.43,0,0,0,.37.15,1.51,1.51,0,0,0,.48-.08l.43,1.44a3.73,3.73,0,0,1-1.46.29,1.91,1.91,0,0,1-1.47-.55,2.28,2.28,0,0,1-.51-1.61V53.62l2-.22v10A.87.87,0,0,0,445,63.92Z"/>
          <path class="cls-2" d="M449.58,53.09a1.21,1.21,0,0,1,.36.89,1.18,1.18,0,0,1-.36.88,1.28,1.28,0,0,1-.94.35,1.26,1.26,0,0,1-.92-.35,1.18,1.18,0,0,1-.36-.88,1.21,1.21,0,0,1,.36-.89,1.25,1.25,0,0,1,.92-.36A1.27,1.27,0,0,1,449.58,53.09Zm-1.94,12.39V57h2v8.46Z"/>
          <path class="cls-2" d="M454.7,55.23a1.26,1.26,0,0,0-.26.89V57h2l-.22,1.47h-1.81v7h-2v-7H451V57h1.38v-.93a2.57,2.57,0,0,1,.78-1.94,3.05,3.05,0,0,1,2.2-.74,5.18,5.18,0,0,1,2.19.5L457,55.27a3.27,3.27,0,0,0-1.39-.32A1.16,1.16,0,0,0,454.7,55.23Z"/>
          <path class="cls-2" d="M464.43,61.88h-5.31a2.78,2.78,0,0,0,.65,1.76,2,2,0,0,0,1.43.53,3,3,0,0,0,1.06-.18,4.94,4.94,0,0,0,1.06-.57l.85,1.17A4.87,4.87,0,0,1,461,65.72a3.77,3.77,0,0,1-3-1.18,4.71,4.71,0,0,1-1-3.23,5.79,5.79,0,0,1,.45-2.33,3.69,3.69,0,0,1,1.3-1.62,3.86,3.86,0,0,1,4.77.54,4.65,4.65,0,0,1,1,3.14C464.48,61.15,464.47,61.43,464.43,61.88Zm-2-1.42q0-2.22-1.65-2.22a1.4,1.4,0,0,0-1.18.55,3.3,3.3,0,0,0-.5,1.77h3.33Z"/>
          <path class="cls-2" d="M471.33,58.9,469.84,60l-1.15-2.08L467.55,60l-1.49-1.07,1.62-1.74-2.34-.45.56-1.7,2.16,1-.3-2.4h1.86l-.3,2.42,2.14-1,.58,1.71-2.34.45Z"/>
          <path class="cls-2" d="M266.42,82.17a5.16,5.16,0,0,1,1.62,1L267,84.41a4.11,4.11,0,0,0-1.17-.73,3.49,3.49,0,0,0-1.28-.23,2.06,2.06,0,0,0-1.24.34,1.13,1.13,0,0,0-.47,1,1.2,1.2,0,0,0,.18.69,1.7,1.7,0,0,0,.66.51,9.63,9.63,0,0,0,1.42.53,6.47,6.47,0,0,1,2.46,1.27,2.86,2.86,0,0,1,.82,2.22,3.13,3.13,0,0,1-.5,1.76,3.34,3.34,0,0,1-1.45,1.2,5.35,5.35,0,0,1-2.24.43A5.94,5.94,0,0,1,261.9,93a5.28,5.28,0,0,1-1.72-1.11l1.12-1.25a4,4,0,0,0,2.82,1.14,2.34,2.34,0,0,0,1.47-.43,1.45,1.45,0,0,0,.56-1.22,1.48,1.48,0,0,0-.19-.79,1.65,1.65,0,0,0-.66-.56,8.06,8.06,0,0,0-1.34-.52,6.29,6.29,0,0,1-2.54-1.31,2.69,2.69,0,0,1-.78-2,2.72,2.72,0,0,1,.48-1.6,3.17,3.17,0,0,1,1.34-1.07,4.7,4.7,0,0,1,1.94-.38A5.59,5.59,0,0,1,266.42,82.17Z"/>
          <path class="cls-2" d="M276.51,91.62A1,1,0,0,0,277,92l-.43,1.36a2.69,2.69,0,0,1-1.18-.34,1.75,1.75,0,0,1-.7-.89,2.71,2.71,0,0,1-1.08,1,3.29,3.29,0,0,1-1.45.31,2.73,2.73,0,0,1-2-.72,2.52,2.52,0,0,1-.74-1.89,2.44,2.44,0,0,1,1-2.1,4.8,4.8,0,0,1,2.86-.73h1.06v-.48a1.46,1.46,0,0,0-.38-1.14,1.82,1.82,0,0,0-1.21-.33,7.15,7.15,0,0,0-2.24.45L270,85a8.55,8.55,0,0,1,3.07-.61q3.25,0,3.25,2.91v3.55A1.35,1.35,0,0,0,276.51,91.62Zm-2.17-.78V89.13h-.85q-2,0-2,1.47a1.36,1.36,0,0,0,.3.94,1.14,1.14,0,0,0,.9.34A1.81,1.81,0,0,0,274.34,90.84Z"/>
          <path class="cls-2" d="M280.21,93.13l-2.8-8.46h2.22l1.81,6.82,1.86-6.82h2.11l-2.75,8.46Z"/>
          <path class="cls-2" d="M293.41,89.53H288.1a2.77,2.77,0,0,0,.65,1.76,2,2,0,0,0,1.43.53,3,3,0,0,0,1.06-.18,4.93,4.93,0,0,0,1.05-.57l.85,1.17A4.87,4.87,0,0,1,290,93.37a3.78,3.78,0,0,1-3-1.18A4.7,4.7,0,0,1,286,89a5.79,5.79,0,0,1,.45-2.33,3.7,3.7,0,0,1,1.3-1.62,3.86,3.86,0,0,1,4.77.54,4.65,4.65,0,0,1,1,3.14Q293.46,88.86,293.41,89.53Zm-2-1.42q0-2.22-1.65-2.22a1.4,1.4,0,0,0-1.18.55,3.28,3.28,0,0,0-.5,1.77h3.33Z"/>
          <path class="cls-2" d="M304.34,93.13l-.11-1.18a3.12,3.12,0,0,1-1.1,1.07,3,3,0,0,1-1.5.35,2.22,2.22,0,0,1-1.75-.7,2.81,2.81,0,0,1-.62-1.93V84.67h2v5.82a1.64,1.64,0,0,0,.25,1,1,1,0,0,0,.79.3,2.07,2.07,0,0,0,1.71-1.2v-6h2v8.46Z"/>
          <path class="cls-2" d="M315.32,85.6a5.9,5.9,0,0,1,.78,3.28,6.43,6.43,0,0,1-.39,2.33,3.54,3.54,0,0,1-1.15,1.59,2.89,2.89,0,0,1-1.8.58,2.64,2.64,0,0,1-2.13-.93v4l-2,.22v-12h1.79l.11,1a3.15,3.15,0,0,1,1.13-1,3,3,0,0,1,1.32-.32A2.67,2.67,0,0,1,315.32,85.6ZM314,88.89a4.58,4.58,0,0,0-.41-2.25,1.33,1.33,0,0,0-1.22-.68,1.59,1.59,0,0,0-.94.31,2.77,2.77,0,0,0-.76.84v3.81a1.8,1.8,0,0,0,1.55.88Q314,91.8,314,88.89Z"/>
          <path class="cls-2" d="M326,93.21a4,4,0,0,1-1.13.16,2.51,2.51,0,0,1-1.9-.71,2.91,2.91,0,0,1-.65-2.06V86.14H321V84.67h1.33V82.8l2-.24v2.11h2l-.21,1.47h-1.76v4.42a1.45,1.45,0,0,0,.22.9.82.82,0,0,0,.68.27,2,2,0,0,0,1-.32l.72,1.33A3.27,3.27,0,0,1,326,93.21Z"/>
          <path class="cls-2" d="M334.33,85.62a4.78,4.78,0,0,1,1,3.27,5.42,5.42,0,0,1-.48,2.34,3.64,3.64,0,0,1-1.38,1.58,3.93,3.93,0,0,1-2.13.56,3.71,3.71,0,0,1-2.93-1.19,4.78,4.78,0,0,1-1.06-3.29,5.37,5.37,0,0,1,.48-2.34A3.64,3.64,0,0,1,329.27,85a4,4,0,0,1,2.14-.56A3.68,3.68,0,0,1,334.33,85.62Zm-4.76,3.27a4.2,4.2,0,0,0,.46,2.22,1.66,1.66,0,0,0,2.74,0,4.21,4.21,0,0,0,.46-2.21,4.17,4.17,0,0,0-.46-2.2,1.5,1.5,0,0,0-1.35-.71Q329.57,86,329.57,88.89Z"/>
          <path class="cls-2" d="M348.56,90.24a2.72,2.72,0,0,1-.5,1.59,3.37,3.37,0,0,1-1.4,1.13,5,5,0,0,1-2.1.42A4.87,4.87,0,0,1,342.5,93a3.26,3.26,0,0,1-1.36-1.11,2.75,2.75,0,0,1-.48-1.58,2.87,2.87,0,0,1,2-2.72A2.79,2.79,0,0,1,341.09,85a2.48,2.48,0,0,1,.47-1.5,3,3,0,0,1,1.28-1,4.48,4.48,0,0,1,1.77-.34,4.75,4.75,0,0,1,1.78.32,2.91,2.91,0,0,1,1.27.94,2.4,2.4,0,0,1,.47,1.49,2.73,2.73,0,0,1-1.78,2.43A3.14,3.14,0,0,1,348.56,90.24ZM346,91.4a1.5,1.5,0,0,0,.5-1.17,1.55,1.55,0,0,0-.43-1.16,4.43,4.43,0,0,0-1.54-.82l-.48-.16a2.22,2.22,0,0,0-1.31,2.11,1.51,1.51,0,0,0,.51,1.21,2,2,0,0,0,1.38.44A2,2,0,0,0,346,91.4ZM343.48,84a1.55,1.55,0,0,0,0,2.07,3.41,3.41,0,0,0,1.23.68l.32.11a2.54,2.54,0,0,0,.88-.82,2,2,0,0,0,.26-1,1.35,1.35,0,0,0-.4-1,1.59,1.59,0,0,0-1.14-.38A1.62,1.62,0,0,0,343.48,84Z"/>
          <path class="cls-2" d="M356.59,83.61a7.33,7.33,0,0,1,1,4.14,7.4,7.4,0,0,1-1,4.17,3.57,3.57,0,0,1-5.74,0,7.39,7.39,0,0,1-1-4.17,7.32,7.32,0,0,1,1-4.14,3.58,3.58,0,0,1,5.74,0Zm-4.2,1a8.25,8.25,0,0,0-.42,3.11,8.37,8.37,0,0,0,.42,3.14,1.42,1.42,0,0,0,2.66,0,8.37,8.37,0,0,0,.42-3.14,8.24,8.24,0,0,0-.42-3.12,1.42,1.42,0,0,0-2.66,0Z"/>
          <path class="cls-2" d="M363,82.52a2.49,2.49,0,0,1,1,1,3.19,3.19,0,0,1,0,2.94,2.49,2.49,0,0,1-1,1,2.83,2.83,0,0,1-1.39.34,2.79,2.79,0,0,1-1.38-.34,2.5,2.5,0,0,1-1-1,3.19,3.19,0,0,1,0-2.94,2.51,2.51,0,0,1,1-1,2.79,2.79,0,0,1,1.38-.34A2.84,2.84,0,0,1,363,82.52Zm-2.28,1.36a2.39,2.39,0,0,0,0,2.18,1,1,0,0,0,.89.43q1.15,0,1.15-1.52t-1.15-1.52A1,1,0,0,0,360.73,83.88ZM362,93.71l-1.31-.85,7.41-11.18,1.33.85Zm7.87-5.59a2.45,2.45,0,0,1,1,1,3.26,3.26,0,0,1,0,2.94,2.44,2.44,0,0,1-1,1,3,3,0,0,1-2.78,0,2.49,2.49,0,0,1-1-1,3.19,3.19,0,0,1,0-2.94,2.5,2.5,0,0,1,1-1,3,3,0,0,1,2.78,0Zm-2.28,1.36a2.38,2.38,0,0,0,0,2.18,1,1,0,0,0,.89.43q1.15,0,1.15-1.52t-1.15-1.52A1,1,0,0,0,367.61,89.48Z"/>
          <path class="cls-2" d="M383.45,91.62a1,1,0,0,0,.49.36l-.43,1.36a2.7,2.7,0,0,1-1.18-.34,1.75,1.75,0,0,1-.7-.89,2.72,2.72,0,0,1-1.08,1,3.3,3.3,0,0,1-1.45.31,2.74,2.74,0,0,1-2-.72,2.52,2.52,0,0,1-.74-1.89,2.44,2.44,0,0,1,1-2.1,4.8,4.8,0,0,1,2.86-.73h1.06v-.48a1.46,1.46,0,0,0-.38-1.14A1.82,1.82,0,0,0,379.7,86a7.14,7.14,0,0,0-2.24.45L377,85a8.55,8.55,0,0,1,3.07-.61q3.25,0,3.25,2.91v3.55A1.35,1.35,0,0,0,383.45,91.62Zm-2.17-.78V89.13h-.85q-2,0-2,1.47a1.36,1.36,0,0,0,.3.94,1.15,1.15,0,0,0,.9.34A1.81,1.81,0,0,0,381.28,90.84Z"/>
          <path class="cls-2" d="M392.32,95.61a4.93,4.93,0,0,1-2.85,1l-.21-1.49a5.14,5.14,0,0,0,1.34-.36,2.17,2.17,0,0,0,.81-.62,4.15,4.15,0,0,0,.56-1h-.7l-2.69-8.46h2.18l1.84,7.1,1.92-7.1h2.11l-2.75,8.5A5.2,5.2,0,0,1,392.32,95.61Z"/>
          <path class="cls-2" d="M404.53,89.53h-5.31a2.78,2.78,0,0,0,.65,1.76,2,2,0,0,0,1.43.53,3,3,0,0,0,1.06-.18,4.94,4.94,0,0,0,1.06-.57l.85,1.17a4.87,4.87,0,0,1-3.14,1.14,3.77,3.77,0,0,1-3-1.18,4.71,4.71,0,0,1-1-3.23,5.79,5.79,0,0,1,.45-2.33,3.69,3.69,0,0,1,1.3-1.62,3.86,3.86,0,0,1,4.77.54,4.65,4.65,0,0,1,1,3.14C404.58,88.81,404.56,89.09,404.53,89.53Zm-2-1.42q0-2.22-1.65-2.22a1.4,1.4,0,0,0-1.18.55,3.3,3.3,0,0,0-.5,1.77h3.33Z"/>
          <path class="cls-2" d="M412.87,91.62a1,1,0,0,0,.49.36l-.43,1.36a2.69,2.69,0,0,1-1.18-.34,1.74,1.74,0,0,1-.7-.89,2.72,2.72,0,0,1-1.08,1,3.3,3.3,0,0,1-1.45.31,2.74,2.74,0,0,1-2-.72,2.52,2.52,0,0,1-.74-1.89,2.44,2.44,0,0,1,1-2.1,4.8,4.8,0,0,1,2.86-.73h1.06v-.48a1.46,1.46,0,0,0-.38-1.14,1.82,1.82,0,0,0-1.21-.33,7.14,7.14,0,0,0-2.24.45L406.4,85a8.55,8.55,0,0,1,3.07-.61q3.25,0,3.25,2.91v3.55A1.35,1.35,0,0,0,412.87,91.62Zm-2.17-.78V89.13h-.85q-2,0-2,1.47a1.35,1.35,0,0,0,.3.94,1.15,1.15,0,0,0,.9.34A1.81,1.81,0,0,0,410.71,90.84Z"/>
          <path class="cls-2" d="M420.23,84.56l-.35,2a3.09,3.09,0,0,0-.75-.1,1.44,1.44,0,0,0-1.18.54,4.14,4.14,0,0,0-.69,1.66v4.5h-2V84.67H417l.19,1.66a3,3,0,0,1,.88-1.4,2,2,0,0,1,1.33-.49A3,3,0,0,1,420.23,84.56Z"/>
          <path class="cls-2" d="M427.45,80.74a1.21,1.21,0,0,1,.36.89,1.18,1.18,0,0,1-.36.88,1.28,1.28,0,0,1-.94.35,1.26,1.26,0,0,1-.92-.35,1.18,1.18,0,0,1-.36-.88,1.21,1.21,0,0,1,.36-.89,1.25,1.25,0,0,1,.92-.36A1.26,1.26,0,0,1,427.45,80.74Zm-1.94,12.39V84.67h2v8.46Z"/>
          <path class="cls-2" d="M436.3,85.11a2.68,2.68,0,0,1,.63,1.9v6.13h-2V87.32a1.63,1.63,0,0,0-.26-1.06,1,1,0,0,0-.78-.3,1.52,1.52,0,0,0-1,.33,3.75,3.75,0,0,0-.82,1v5.89h-2V84.67h1.78l.16,1.12a3.16,3.16,0,0,1,2.58-1.36A2.3,2.3,0,0,1,436.3,85.11Z"/>
          <path class="cls-2" d="M450.21,89.53H444.9a2.78,2.78,0,0,0,.65,1.76,2,2,0,0,0,1.43.53,3,3,0,0,0,1.06-.18,4.94,4.94,0,0,0,1.06-.57l.85,1.17a4.87,4.87,0,0,1-3.14,1.14,3.77,3.77,0,0,1-3-1.18,4.71,4.71,0,0,1-1-3.23,5.79,5.79,0,0,1,.45-2.33,3.69,3.69,0,0,1,1.3-1.62,3.86,3.86,0,0,1,4.77.54,4.65,4.65,0,0,1,1,3.14C450.26,88.81,450.24,89.09,450.21,89.53Zm-2-1.42q0-2.22-1.65-2.22a1.4,1.4,0,0,0-1.18.55,3.3,3.3,0,0,0-.5,1.77h3.33Z"/>
          <path class="cls-2" d="M458.43,85.11a2.68,2.68,0,0,1,.63,1.9v6.13h-2V87.32a1.63,1.63,0,0,0-.26-1.06A1,1,0,0,0,456,86a1.52,1.52,0,0,0-1,.33,3.73,3.73,0,0,0-.82,1v5.89h-2V84.67h1.78l.16,1.12a3.16,3.16,0,0,1,2.58-1.36A2.3,2.3,0,0,1,458.43,85.11Z"/>
          <path class="cls-2" d="M468.34,89.53H463a2.77,2.77,0,0,0,.65,1.76,2,2,0,0,0,1.43.53,3,3,0,0,0,1.06-.18,4.93,4.93,0,0,0,1.05-.57l.85,1.17a4.87,4.87,0,0,1-3.14,1.14,3.78,3.78,0,0,1-3-1.18,4.7,4.7,0,0,1-1-3.23,5.79,5.79,0,0,1,.45-2.33,3.7,3.7,0,0,1,1.3-1.62,3.86,3.86,0,0,1,4.77.54,4.65,4.65,0,0,1,1,3.14Q468.39,88.86,468.34,89.53Zm-2-1.42q0-2.22-1.65-2.22a1.4,1.4,0,0,0-1.18.55,3.28,3.28,0,0,0-.5,1.77h3.33Z"/>
          <path class="cls-2" d="M475.3,84.56l-.35,2a3.09,3.09,0,0,0-.75-.1A1.44,1.44,0,0,0,473,87a4.14,4.14,0,0,0-.69,1.66v4.5h-2V84.67H472l.19,1.66a3,3,0,0,1,.88-1.4,2,2,0,0,1,1.33-.49A3,3,0,0,1,475.3,84.56Z"/>
          <path class="cls-2" d="M481.49,85.4a2.81,2.81,0,0,1,1.16.87,2.17,2.17,0,0,1,.38,1.3,2.68,2.68,0,0,1-.41,1.47,2.76,2.76,0,0,1-1.18,1,4.2,4.2,0,0,1-1.82.37,3.55,3.55,0,0,1-1-.13.73.73,0,0,0-.35.62q0,.59,1,.59h1.3a4,4,0,0,1,1.62.3,2.49,2.49,0,0,1,1.08.86,2.12,2.12,0,0,1,.38,1.24,2.25,2.25,0,0,1-1.09,2,5.74,5.74,0,0,1-3.14.71,7,7,0,0,1-2.31-.3,2.21,2.21,0,0,1-1.19-.88,2.79,2.79,0,0,1-.35-1.47h1.84a1.27,1.27,0,0,0,.17.7,1,1,0,0,0,.61.38,4.81,4.81,0,0,0,1.27.13,3.41,3.41,0,0,0,1.65-.29.92.92,0,0,0,.48-.83.86.86,0,0,0-.37-.74,1.83,1.83,0,0,0-1.07-.26h-1.28a3,3,0,0,1-1.81-.46,1.41,1.41,0,0,1-.61-1.17,1.59,1.59,0,0,1,.26-.86,2.27,2.27,0,0,1,.73-.7,2.8,2.8,0,0,1-1.13-1,2.62,2.62,0,0,1-.36-1.4,2.87,2.87,0,0,1,.45-1.6,3,3,0,0,1,1.24-1.06,4.19,4.19,0,0,1,1.82-.38,7.56,7.56,0,0,0,2.17-.2,9.08,9.08,0,0,0,1.79-.74l.51,1.63A7.83,7.83,0,0,1,481.49,85.4Zm-3.06.86a1.7,1.7,0,0,0-.39,1.18,1.75,1.75,0,0,0,.4,1.22,1.61,1.61,0,0,0,2.22,0,1.83,1.83,0,0,0,.38-1.24q0-1.6-1.54-1.6A1.37,1.37,0,0,0,478.43,86.26Z"/>
          <path class="cls-2" d="M487.71,95.61a4.93,4.93,0,0,1-2.85,1l-.21-1.49a5.15,5.15,0,0,0,1.34-.36,2.17,2.17,0,0,0,.81-.62,4.12,4.12,0,0,0,.56-1h-.7L484,84.67h2.18l1.84,7.1,1.92-7.1H492l-2.75,8.5A5.2,5.2,0,0,1,487.71,95.61Z"/>
          <path class="cls-2" d="M502.17,84.67a4,4,0,0,1,1.26.75l-.93,1.25a3.25,3.25,0,0,0-.82-.47,2.46,2.46,0,0,0-.88-.15q-1.9,0-1.9,2.9a3.54,3.54,0,0,0,.5,2.12,1.67,1.67,0,0,0,1.41.65,2.22,2.22,0,0,0,.84-.15,3.77,3.77,0,0,0,.84-.5l.94,1.34a4.22,4.22,0,0,1-2.74,1,4,4,0,0,1-2.11-.54,3.51,3.51,0,0,1-1.37-1.53,5.3,5.3,0,0,1-.48-2.34,5.57,5.57,0,0,1,.48-2.38,3.67,3.67,0,0,1,1.38-1.6,3.84,3.84,0,0,1,2.1-.57A4.38,4.38,0,0,1,502.17,84.67Z"/>
          <path class="cls-2" d="M511.13,85.62a4.79,4.79,0,0,1,1,3.27,5.42,5.42,0,0,1-.48,2.34,3.64,3.64,0,0,1-1.38,1.58,3.94,3.94,0,0,1-2.13.56,3.71,3.71,0,0,1-2.93-1.19,4.78,4.78,0,0,1-1.06-3.29,5.39,5.39,0,0,1,.48-2.34A3.63,3.63,0,0,1,506.07,85a4,4,0,0,1,2.14-.56A3.69,3.69,0,0,1,511.13,85.62Zm-4.76,3.27a4.21,4.21,0,0,0,.46,2.22,1.67,1.67,0,0,0,2.74,0,4.2,4.2,0,0,0,.46-2.21,4.16,4.16,0,0,0-.46-2.2,1.5,1.5,0,0,0-1.35-.71Q506.37,86,506.37,88.89Z"/>
          <path class="cls-2" d="M519.78,85.44l-.8,1.23a3.68,3.68,0,0,0-2.08-.72,1.76,1.76,0,0,0-1,.23.71.71,0,0,0-.34.62.78.78,0,0,0,.14.48,1.31,1.31,0,0,0,.52.36,8.58,8.58,0,0,0,1.11.38,4.88,4.88,0,0,1,2,1,2.18,2.18,0,0,1,.66,1.7,2.28,2.28,0,0,1-1,2,4.35,4.35,0,0,1-2.54.71,5.37,5.37,0,0,1-1.9-.32,4.59,4.59,0,0,1-1.48-.88l1-1.17a3.56,3.56,0,0,0,2.27.85,2,2,0,0,0,1.1-.27.83.83,0,0,0,.42-.72,1,1,0,0,0-.15-.6,1.31,1.31,0,0,0-.54-.39,10.1,10.1,0,0,0-1.22-.42,4.08,4.08,0,0,1-1.9-1,2.18,2.18,0,0,1-.61-1.58,2.09,2.09,0,0,1,.41-1.26,2.71,2.71,0,0,1,1.15-.88,4.27,4.27,0,0,1,1.7-.32A4.76,4.76,0,0,1,519.78,85.44Z"/>
          <path class="cls-2" d="M525.56,93.21a4,4,0,0,1-1.13.16,2.51,2.51,0,0,1-1.9-.71,2.92,2.92,0,0,1-.65-2.06V86.14h-1.33V84.67h1.33V82.8l2-.24v2.11h2l-.21,1.47h-1.76v4.42a1.46,1.46,0,0,0,.22.9.81.81,0,0,0,.68.27,2,2,0,0,0,1-.32l.72,1.33A3.27,3.27,0,0,1,525.56,93.21Z"/>
          <path class="cls-2" d="M533.39,85.44l-.8,1.23a3.69,3.69,0,0,0-2.08-.72,1.76,1.76,0,0,0-1,.23.71.71,0,0,0-.34.62.77.77,0,0,0,.14.48,1.3,1.3,0,0,0,.52.36A8.55,8.55,0,0,0,531,88a4.89,4.89,0,0,1,2,1,2.19,2.19,0,0,1,.66,1.7,2.27,2.27,0,0,1-1,2,4.35,4.35,0,0,1-2.54.71,5.38,5.38,0,0,1-1.9-.32,4.59,4.59,0,0,1-1.48-.88l1-1.17a3.56,3.56,0,0,0,2.27.85,2,2,0,0,0,1.1-.27.83.83,0,0,0,.42-.72,1,1,0,0,0-.15-.6,1.3,1.3,0,0,0-.54-.39,10.13,10.13,0,0,0-1.22-.42,4.09,4.09,0,0,1-1.9-1,2.18,2.18,0,0,1-.61-1.58,2.1,2.1,0,0,1,.41-1.26,2.7,2.7,0,0,1,1.15-.88,4.28,4.28,0,0,1,1.7-.32A4.76,4.76,0,0,1,533.39,85.44Z"/>
          <path class="cls-2" d="M540.29,86.56l-1.49,1.09-1.15-2.08-1.14,2.08L535,86.57l1.62-1.74-2.34-.45.56-1.7,2.16,1-.3-2.4h1.86l-.3,2.42,2.14-1,.58,1.71-2.34.45Z"/>
          <path class="cls-2" d="M547.39,86.56l-1.49,1.09-1.15-2.08-1.14,2.08-1.49-1.07,1.62-1.74-2.34-.45.56-1.7,2.16,1-.3-2.4h1.86l-.3,2.42,2.14-1,.58,1.71-2.34.45Z"/>
        </g>
        <g>
          <g>
            <path class="cls-2" d="M273.88,147.47a.21.21,0,0,1,0-.29l1.2-1.39a.17.17,0,0,1,.27,0,5.89,5.89,0,0,0,3.58,1.39c1.57,0,2.48-.79,2.48-1.9,0-.95-.58-1.57-2.4-1.82l-.7-.1c-2.53-.35-4-1.57-4-3.75,0-2.38,1.74-4,4.45-4a7.23,7.23,0,0,1,4.26,1.32.17.17,0,0,1,0,.27l-.93,1.43a.19.19,0,0,1-.27.06,5.56,5.56,0,0,0-3.15-1c-1.33,0-2.07.73-2.07,1.76s.64,1.53,2.42,1.78l.7.1c2.53.35,3.93,1.55,3.93,3.81s-1.68,4.08-5,4.08A7.42,7.42,0,0,1,273.88,147.47Z"/>
            <path class="cls-2" d="M285.93,136a.18.18,0,0,1,.19-.19H288a.18.18,0,0,1,.19.19v5.18a.1.1,0,0,0,.12.12h5a.1.1,0,0,0,.12-.12V136a.18.18,0,0,1,.19-.19h1.9a.18.18,0,0,1,.19.19V148.8a.18.18,0,0,1-.19.19h-1.9a.18.18,0,0,1-.19-.19v-5.3a.1.1,0,0,0-.12-.12h-5a.1.1,0,0,0-.12.12v5.3a.18.18,0,0,1-.19.19h-1.9a.18.18,0,0,1-.19-.19Z"/>
            <path class="cls-2" d="M298.6,146a10.64,10.64,0,0,1-.35-3.62,10.63,10.63,0,0,1,.35-3.62,5,5,0,0,1,9.3,0,10.63,10.63,0,0,1,.35,3.62,10.64,10.64,0,0,1-.35,3.62,5,5,0,0,1-9.3,0Zm7.1-.6a10.5,10.5,0,0,0,.23-3,10.39,10.39,0,0,0-.23-3,2.6,2.6,0,0,0-4.89,0,10.39,10.39,0,0,0-.23,3,10.5,10.5,0,0,0,.23,3,2.6,2.6,0,0,0,4.89,0Z"/>
            <path class="cls-2" d="M311,149a.18.18,0,0,1-.19-.19V136a.18.18,0,0,1,.19-.19h4.93a4.1,4.1,0,1,1,0,8.18h-2.73a.1.1,0,0,0-.12.12v4.66a.18.18,0,0,1-.19.19Zm7-9.07a2,2,0,0,0-2.19-2h-2.59a.1.1,0,0,0-.12.12v3.83a.1.1,0,0,0,.12.12h2.59A2,2,0,0,0,317.95,139.93Z"/>
            <path class="cls-2" d="M326.9,136a.18.18,0,0,1,.19-.19h1.78a.34.34,0,0,1,.33.19l5.36,9.07h.08V136a.18.18,0,0,1,.19-.19h1.68a.18.18,0,0,1,.19.19V148.8a.18.18,0,0,1-.19.19h-1.76a.34.34,0,0,1-.33-.19L329,139.75H329v9.05a.18.18,0,0,1-.19.19H327.1a.18.18,0,0,1-.19-.19Z"/>
            <path class="cls-2" d="M339.57,146a10.64,10.64,0,0,1-.35-3.62,10.63,10.63,0,0,1,.35-3.62,5,5,0,0,1,9.3,0,10.66,10.66,0,0,1,.35,3.62,10.66,10.66,0,0,1-.35,3.62,5,5,0,0,1-9.3,0Zm7.1-.6a10.5,10.5,0,0,0,.23-3,10.39,10.39,0,0,0-.23-3,2.6,2.6,0,0,0-4.89,0,10.39,10.39,0,0,0-.23,3,10.5,10.5,0,0,0,.23,3,2.6,2.6,0,0,0,4.89,0Z"/>
            <path class="cls-2" d="M360.95,149a.25.25,0,0,1-.23-.19l-2.52-9h0l-2.53,9a.25.25,0,0,1-.23.19h-1.45a.25.25,0,0,1-.23-.19L350.48,136c0-.12,0-.19.15-.19h1.82a.22.22,0,0,1,.23.19l2.09,8.86h0l2.46-8.86a.24.24,0,0,1,.23-.19h1.35c.14,0,.19.08.23.19l2.51,8.86h0l2-8.86a.21.21,0,0,1,.23-.19h1.8c.14,0,.17.08.15.19l-3.21,12.77a.23.23,0,0,1-.23.19Z"/>
          </g>
          <polygon class="cls-3" points="375.88 161.91 260.03 161.91 260.03 122.93 375.88 122.93 396.91 142.42 375.88 161.91"/>
        </g>
        <line class="cls-4" x1="193.66" y1="21.91" x2="193.66" y2="181.05"/>
        <path class="cls-2" d="M90,86.11c0-1.09,0-2.18,0-3.27a.41.41,0,0,0-.3-.44,2.94,2.94,0,0,1-1.89-2.83A15.85,15.85,0,0,0,85.66,72c-1.25-2.26-2.6-4.46-4-6.64a19.27,19.27,0,0,1-3.09-11,18.77,18.77,0,0,1,11.8-16.85,18.3,18.3,0,0,1,19.1,3,18,18,0,0,1,6.66,12.18A19.14,19.14,0,0,1,113,65.78c-1.45,2.25-2.81,4.58-4.08,6.94A15.23,15.23,0,0,0,107,79.77a2.79,2.79,0,0,1-1.81,2.6.52.52,0,0,0-.36.58c0,2,0,4,0,6a4.19,4.19,0,0,1-1.39,3.21c-.92.87-1.86,1.72-2.71,2.65a5,5,0,0,1-6.74,0c-.86-.94-1.82-1.79-2.74-2.68A4.08,4.08,0,0,1,90,89c0-1,0-1.92,0-2.88Zm23.59-32.44a15.84,15.84,0,0,0-8.41-12.93,15.61,15.61,0,0,0-16.87.86,15.78,15.78,0,0,0-7.06,12.07ZM99.13,80c0-.1,0-.17,0-.25s0-.35,0-.52a53.28,53.28,0,0,1,1.13-10.11,76.09,76.09,0,0,0,1.8-10.63c0-.72.07-1.44.11-2.16H98.31V80ZM92.65,56.32a1.13,1.13,0,0,0,0,.21c.12,1.53.14,3.08.38,4.6.38,2.43.9,4.85,1.38,7.26a55.92,55.92,0,0,1,1.27,10.79c0,.27,0,.54.05.82h.83V56.32Zm-5.69,0a1.06,1.06,0,0,0,0,.19,22.68,22.68,0,0,0,1.54,7c.86,2.11,1.75,4.2,2.57,6.32A27.69,27.69,0,0,1,92.86,77c.09.82.12,1.65.16,2.47,0,.58,0,.6.63.59l.23,0c0-.9,0-1.77,0-2.63A66,66,0,0,0,92.3,66.87,51.76,51.76,0,0,1,91,58.63c0-.77-.09-1.53-.14-2.31ZM101,80c.8.13.79.1.85-.7.1-1.31.18-2.64.4-3.93a39,39,0,0,1,2.84-8.7,29.76,29.76,0,0,0,2.64-8.2c.08-.7.15-1.4.22-2.11H104c0,.3-.05.57-.06.85a41.8,41.8,0,0,1-.86,7.25A83.45,83.45,0,0,0,101,77.21C101,78.13,101,79.05,101,80Zm8.77-23.66c-.23,1.46-.4,2.87-.67,4.27a31.48,31.48,0,0,1-2.24,6.34,39,39,0,0,0-3,9.07c-.21,1.31-.28,2.64-.41,4,.76.12,1,0,1-.48a17.16,17.16,0,0,1,2.08-7.93c1.3-2.44,2.75-4.81,4.2-7.17a18.19,18.19,0,0,0,2.56-5.91c.14-.7.23-1.41.35-2.15ZM91.3,80a22.77,22.77,0,0,0-.9-6.6,57.81,57.81,0,0,0-2.81-7.44,26.59,26.59,0,0,1-2.1-6.79c-.13-.93-.23-1.86-.34-2.81H81.27a3.25,3.25,0,0,0,0,.33,16.71,16.71,0,0,0,2.38,6.94c1.53,2.51,3.1,5,4.51,7.59a17.62,17.62,0,0,1,2.25,8.1C90.42,80,90.55,80.08,91.3,80Zm11.83,2.69H91.75v1.67h11.38Zm0,2.59H91.71v1.68h11.42Zm0,2.58H91.75v1.66h11.37Zm-1.39,3.46H93.15c.56.59,1.12,1.2,1.7,1.78a.55.55,0,0,0,.36.09h4.44a.56.56,0,0,0,.36-.09C100.59,92.51,101.15,91.91,101.73,91.3Z"/>
      </g>
    </g>
  </g>
</svg>
