<svg xmlns="http://www.w3.org/2000/svg" xmlns:xlink="http://www.w3.org/1999/xlink" viewBox="0 0 639.96 471.97">
  <defs>
    <style>
      .cls-1 {
        fill: url(#linear-gradient);
      }

      .cls-2 {
        fill: #fff;
      }

      .cls-3, .cls-4 {
        fill: none;
        stroke: #fff;
        stroke-miterlimit: 10;
      }

      .cls-3 {
        stroke-width: 1.5px;
      }

      .cls-4 {
        opacity: 0.51;
      }
    </style>
    <linearGradient id="linear-gradient" x1="21.35" y1="307.89" x2="635.68" y2="159.98" gradientUnits="userSpaceOnUse">
      <stop offset="0.01" stop-color="#02498b"/>
      <stop offset="0.26" stop-color="#024c90"/>
      <stop offset="0.58" stop-color="#0254a0"/>
      <stop offset="0.93" stop-color="#0262b9"/>
      <stop offset="1" stop-color="#0265bf"/>
    </linearGradient>
  </defs>
  <title>tile2_2</title>
  <g id="Layer_2" data-name="Layer 2">
    <g id="Layer_1-2" data-name="Layer 1">
      <g>
        <rect class="cls-1" width="639.96" height="471.97"/>
        <g>
          <path class="cls-2" d="M96.48,307.91h11.38a6.3,6.3,0,0,1,1.27.11,1.68,1.68,0,0,1,1.45,1.65c0,6.11-1.24,11.74-6.18,15.93-1.35,1.14-2.77,2.22-4,3.45a7.07,7.07,0,0,0-2.17,5.4c.07,5.41,0,10.83,0,16.25a9.51,9.51,0,0,1-3,7.23c-2.15,2.08-4.38,4.07-6.42,6.25-3.5,3.75-11.37,3.74-14.86,0-2.15-2.29-4.51-4.39-6.75-6.61a8.81,8.81,0,0,1-2.67-6.46c0-5.42-.1-10.83,0-16.25a8.22,8.22,0,0,0-2.82-6.53,20.22,20.22,0,0,0-2.26-1.89c-4.06-2.81-6.14-6.81-6.93-11.56a36.07,36.07,0,0,1-.4-4.5c-.07-1.79.67-2.49,2.49-2.5H66.36a14.74,14.74,0,0,0-1.61-5.72,17.61,17.61,0,0,0-11.22-9.34c-1.38-.41-2.76-.83-4.12-1.3-2.92-1-4.81-5.35-2.91-8.35a6.33,6.33,0,0,1,3.55-2.8c6-1.83,12.06-3.69,18.1-5.51q16-4.83,32-9.62c3-.89,6-1.75,8.95-2.62A5.94,5.94,0,1,1,112.53,274L70.46,286.62l-2.32.7c.08.14,3.91,4.32,4.19,4.68a29.41,29.41,0,0,1,6,15.37c0,.13,0,.26.06.46h6c.12-.86.19-1.73.36-2.59,2.42-12.31,9.68-20.27,21.65-23.93a27.68,27.68,0,0,1,4.08-1.05,5.87,5.87,0,0,1,2.93,11.26c-1.77.68-3.64,1.09-5.41,1.76a17.45,17.45,0,0,0-11.54,13.81,2.28,2.28,0,0,0,0,.39C96.44,307.58,96.46,307.67,96.48,307.91Zm-40.18,4a3.88,3.88,0,0,0-.05.62c.36,4.29,1.77,8,5.42,10.66a16.9,16.9,0,0,1,6.19,7.1,1.19,1.19,0,0,0,.92.44c1.84,0,18.56,0,25.09,0,.36,0,.93-.17,1-.41,1.28-3.1,3.63-5.27,6.26-7.17a12.13,12.13,0,0,0,4.72-6.92c.37-1.39.53-2.84.8-4.32ZM68.54,346.3H94.22v-3.76H68.54Zm0-9.65v3.81H94.23v-3.81ZM94.3,348.39H68.49c0,1,0,1.84,0,2.72s.25,1.11,1.12,1.11c5.48,0,11,0,16.43,0,2.46,0,4.92,0,7.38,0,.7,0,.94-.24.91-.91C94.28,350.36,94.3,349.41,94.3,348.39Zm-22.47,7.77c1.14,1.25,2.29,2.55,3.51,3.79a1.85,1.85,0,0,0,1.19.46c3.25,0,6.49,0,9.74,0,.29,0,.68,0,.84-.14,1.33-1.38,2.61-2.8,3.83-4.12Z"/>
          <path class="cls-2" d="M51.82,274.14a5.93,5.93,0,0,1-6-4.61,5.78,5.78,0,0,1,3.61-6.75c2.77-1,5.6-1.87,8.42-2.72,7-2.09,14-4.11,20.94-6.19q15-4.47,30-9c3.49-1,6.56.25,7.78,3.25A5.86,5.86,0,0,1,112.9,256c-5.12,1.6-10.28,3.12-15.42,4.67L71.9,268.4c-5.68,1.71-11.36,3.42-17.05,5.09C53.73,273.83,52.55,274,51.82,274.14Z"/>
          <path class="cls-2" d="M96.25,238.82A5.83,5.83,0,0,1,92,244.46c-8.49,2.58-17,5.11-25.49,7.66-4.26,1.28-8.52,2.59-12.79,3.84-4,1.17-7.37-1-8-5A5.93,5.93,0,0,1,50,244.7q7.66-2.33,15.34-4.58a1.41,1.41,0,0,0,1.23-1.58,5.54,5.54,0,0,1,3.77-5.27,29.75,29.75,0,0,1,22.07,0A5.85,5.85,0,0,1,96.25,238.82Z"/>
        </g>
        <g>
          <path class="cls-2" d="M60.29,71.45c0-8,.3-10.65,1.45-14,2.74-8.44,9.36-12.7,18.41-12.7,8.75,0,15.14,4.26,18,11.49a.59.59,0,0,1-.38.91L89.5,60.88a.73.73,0,0,1-1.07-.38c-1.45-3.35-3.88-5.86-8.21-5.86a7.59,7.59,0,0,0-7.76,5.7c-.61,1.9-.84,3.73-.84,11.11s.23,9.2.84,11.11a7.59,7.59,0,0,0,7.76,5.71c4.34,0,6.77-2.51,8.21-5.86A.73.73,0,0,1,89.5,82l8.29,3.73a.59.59,0,0,1,.38.91c-2.89,7.23-9.28,11.49-18,11.49-9.05,0-15.67-4.26-18.41-12.7C60.59,82.1,60.29,79.44,60.29,71.45Z"/>
          <path class="cls-2" d="M105.4,46.35a.72.72,0,0,1,.76-.76h33.16a.72.72,0,0,1,.76.76v8.14a.72.72,0,0,1-.76.76H117a.4.4,0,0,0-.46.46V66.59A.4.4,0,0,0,117,67h18.56a.72.72,0,0,1,.76.76v8.06a.72.72,0,0,1-.76.76H117a.4.4,0,0,0-.46.46V96.56a.72.72,0,0,1-.76.76h-9.66a.72.72,0,0,1-.76-.76Z"/>
          <path class="cls-2" d="M147.76,46.35a.72.72,0,0,1,.76-.76h9.66a.72.72,0,0,1,.76.76V86.9a.4.4,0,0,0,.46.46h22.82a.72.72,0,0,1,.76.76v8.44a.72.72,0,0,1-.76.76h-33.7a.72.72,0,0,1-.76-.76Z"/>
        </g>
        <g>
          <path class="cls-2" d="M259.28,271.62l-.91,3.38h-2.89L260,260.4h3.44L268,275h-3l-.91-3.38Zm2.41-9.09-1.86,7h3.74Z"/>
          <path class="cls-2" d="M270.8,275l-3.7-11.18H270l2.39,9,2.45-9h2.79L274,275Z"/>
          <path class="cls-2" d="M288.23,270.25h-7a3.66,3.66,0,0,0,.86,2.32,2.58,2.58,0,0,0,1.89.7,4,4,0,0,0,1.39-.24,6.51,6.51,0,0,0,1.39-.75l1.12,1.54a6.43,6.43,0,0,1-4.14,1.5,5,5,0,0,1-3.94-1.56,6.21,6.21,0,0,1-1.38-4.27,7.65,7.65,0,0,1,.59-3.07,4.88,4.88,0,0,1,1.71-2.13,5.09,5.09,0,0,1,6.3.72,6.14,6.14,0,0,1,1.29,4.15Q288.29,269.36,288.23,270.25Zm-2.62-1.88q0-2.94-2.18-2.94a1.85,1.85,0,0,0-1.55.73,4.35,4.35,0,0,0-.67,2.33h4.39Z"/>
          <path class="cls-2" d="M297.42,263.68,297,266.3a4.1,4.1,0,0,0-1-.13,1.9,1.9,0,0,0-1.56.71,5.46,5.46,0,0,0-.91,2.19V275h-2.7V263.82h2.35l.25,2.2a4,4,0,0,1,1.16-1.85,2.64,2.64,0,0,1,1.75-.64A4,4,0,0,1,297.42,263.68Z"/>
          <path class="cls-2" d="M307.15,273a1.28,1.28,0,0,0,.64.48l-.57,1.8a3.55,3.55,0,0,1-1.55-.45,2.31,2.31,0,0,1-.92-1.17,3.58,3.58,0,0,1-1.43,1.26,4.35,4.35,0,0,1-1.91.41,3.62,3.62,0,0,1-2.64-1,3.33,3.33,0,0,1-1-2.49,3.23,3.23,0,0,1,1.32-2.78,6.33,6.33,0,0,1,3.77-1h1.39v-.63a1.93,1.93,0,0,0-.5-1.51,2.4,2.4,0,0,0-1.6-.43,9.44,9.44,0,0,0-3,.59l-.63-1.84a11.29,11.29,0,0,1,4.06-.8q4.29,0,4.29,3.85V272A1.79,1.79,0,0,0,307.15,273Zm-2.86-1v-2.26h-1.12q-2.62,0-2.62,1.94a1.79,1.79,0,0,0,.4,1.25,1.51,1.51,0,0,0,1.18.44A2.39,2.39,0,0,0,304.29,272Z"/>
          <path class="cls-2" d="M316.71,264.8a3.71,3.71,0,0,1,1.53,1.15,2.87,2.87,0,0,1,.5,1.72,3.54,3.54,0,0,1-.54,1.94,3.64,3.64,0,0,1-1.56,1.33,5.54,5.54,0,0,1-2.4.49,4.69,4.69,0,0,1-1.33-.17,1,1,0,0,0-.46.82q0,.78,1.35.78h1.71a5.32,5.32,0,0,1,2.14.4,3.29,3.29,0,0,1,1.43,1.13,2.8,2.8,0,0,1,.51,1.64,3,3,0,0,1-1.44,2.63,7.58,7.58,0,0,1-4.14.94,9.28,9.28,0,0,1-3.05-.4,2.91,2.91,0,0,1-1.57-1.16,3.67,3.67,0,0,1-.46-1.94h2.43a1.68,1.68,0,0,0,.22.93,1.37,1.37,0,0,0,.8.51,6.38,6.38,0,0,0,1.68.17,4.5,4.5,0,0,0,2.18-.38,1.21,1.21,0,0,0,.63-1.1,1.14,1.14,0,0,0-.49-1,2.41,2.41,0,0,0-1.42-.35h-1.69a3.9,3.9,0,0,1-2.39-.61,1.87,1.87,0,0,1-.8-1.54,2.1,2.1,0,0,1,.35-1.14,3,3,0,0,1,1-.93,3.68,3.68,0,0,1-1.49-1.3,3.45,3.45,0,0,1-.48-1.85,3.78,3.78,0,0,1,.59-2.11,3.9,3.9,0,0,1,1.64-1.41,5.54,5.54,0,0,1,2.4-.5,10,10,0,0,0,2.86-.26,11.94,11.94,0,0,0,2.36-1l.68,2.16A10.32,10.32,0,0,1,316.71,264.8Zm-4,1.13a2.25,2.25,0,0,0-.52,1.55,2.32,2.32,0,0,0,.53,1.61,2.13,2.13,0,0,0,2.94,0,2.41,2.41,0,0,0,.51-1.64q0-2.11-2-2.11A1.81,1.81,0,0,0,312.66,265.93Z"/>
          <path class="cls-2" d="M330.36,270.25h-7a3.66,3.66,0,0,0,.86,2.32,2.58,2.58,0,0,0,1.89.7,4,4,0,0,0,1.39-.24,6.51,6.51,0,0,0,1.39-.75l1.12,1.54a6.43,6.43,0,0,1-4.14,1.5,5,5,0,0,1-3.94-1.56,6.21,6.21,0,0,1-1.38-4.27,7.65,7.65,0,0,1,.59-3.07,4.88,4.88,0,0,1,1.71-2.13,5.09,5.09,0,0,1,6.3.72,6.14,6.14,0,0,1,1.29,4.15Q330.42,269.36,330.36,270.25Zm-2.62-1.88q0-2.94-2.18-2.94a1.85,1.85,0,0,0-1.55.73,4.35,4.35,0,0,0-.67,2.33h4.39Z"/>
          <path class="cls-2" d="M346,262a5.94,5.94,0,0,1,1.29,4,11.22,11.22,0,0,1-.87,4.74,6.76,6.76,0,0,1-2.66,2.95,16.39,16.39,0,0,1-4.75,1.8l-.57-1.92a11,11,0,0,0,4.25-1.91,4.75,4.75,0,0,0,1.71-3.22,3.63,3.63,0,0,1-3,1.5,3.81,3.81,0,0,1-2-.56,3.86,3.86,0,0,1-1.45-1.62,5.41,5.41,0,0,1-.53-2.45,4.84,4.84,0,0,1,.66-2.55,4.45,4.45,0,0,1,1.79-1.68,5.32,5.32,0,0,1,2.5-.59A4.62,4.62,0,0,1,346,262Zm-1.48,4.51a6.53,6.53,0,0,0-.5-3.07,1.82,1.82,0,0,0-1.72-.92,2,2,0,0,0-1.65.72,3.94,3.94,0,0,0,0,4.1A1.84,1.84,0,0,0,342,268,2.85,2.85,0,0,0,344.47,266.53Z"/>
          <path class="cls-2" d="M355.54,267.31v2.16h-6.38v-2.16Z"/>
          <path class="cls-2" d="M360.4,275V263.51l-3.17,1.92-1.18-1.82,4.63-2.83h2.39V275Z"/>
          <path class="cls-2" d="M369.91,275V263.51l-3.17,1.92-1.18-1.82,4.63-2.83h2.39V275Z"/>
          <path class="cls-2" d="M384.85,278.27a6.51,6.51,0,0,1-3.76,1.34l-.27-2a6.77,6.77,0,0,0,1.76-.48,2.84,2.84,0,0,0,1.07-.81,5.45,5.45,0,0,0,.74-1.35h-.93l-3.55-11.18h2.87l2.43,9.38,2.54-9.38h2.79L386.9,275A6.87,6.87,0,0,1,384.85,278.27Z"/>
          <path class="cls-2" d="M401,270.25h-7a3.66,3.66,0,0,0,.86,2.32,2.58,2.58,0,0,0,1.89.7,4,4,0,0,0,1.39-.24,6.51,6.51,0,0,0,1.39-.75l1.12,1.54a6.43,6.43,0,0,1-4.14,1.5,5,5,0,0,1-3.94-1.56,6.21,6.21,0,0,1-1.38-4.27,7.65,7.65,0,0,1,.59-3.07,4.88,4.88,0,0,1,1.71-2.13,5.09,5.09,0,0,1,6.3.72,6.14,6.14,0,0,1,1.29,4.15Q401,269.36,401,270.25Zm-2.62-1.88q0-2.94-2.18-2.94a1.85,1.85,0,0,0-1.55.73,4.35,4.35,0,0,0-.67,2.33h4.39Z"/>
          <path class="cls-2" d="M412,273a1.28,1.28,0,0,0,.64.48l-.57,1.8a3.55,3.55,0,0,1-1.55-.45,2.31,2.31,0,0,1-.92-1.17,3.58,3.58,0,0,1-1.43,1.26,4.35,4.35,0,0,1-1.91.41,3.62,3.62,0,0,1-2.64-1,3.33,3.33,0,0,1-1-2.49A3.23,3.23,0,0,1,404,269.1a6.33,6.33,0,0,1,3.77-1h1.39v-.63a1.93,1.93,0,0,0-.5-1.51,2.4,2.4,0,0,0-1.6-.43,9.44,9.44,0,0,0-3,.59l-.63-1.84a11.29,11.29,0,0,1,4.06-.8q4.29,0,4.29,3.85V272A1.79,1.79,0,0,0,412,273Zm-2.86-1v-2.26H408q-2.62,0-2.62,1.94a1.79,1.79,0,0,0,.4,1.25,1.51,1.51,0,0,0,1.18.44A2.39,2.39,0,0,0,409.13,272Z"/>
          <path class="cls-2" d="M421.7,263.68l-.46,2.62a4.1,4.1,0,0,0-1-.13,1.9,1.9,0,0,0-1.56.71,5.46,5.46,0,0,0-.91,2.19V275h-2.7V263.82h2.35l.25,2.2a4,4,0,0,1,1.16-1.85,2.64,2.64,0,0,1,1.75-.64A4,4,0,0,1,421.7,263.68Z"/>
          <path class="cls-2" d="M435.3,263.68l-.46,2.62a4.1,4.1,0,0,0-1-.13,1.9,1.9,0,0,0-1.56.71,5.46,5.46,0,0,0-.91,2.19V275h-2.7V263.82H431l.25,2.2a4,4,0,0,1,1.16-1.85,2.64,2.64,0,0,1,1.75-.64A4,4,0,0,1,435.3,263.68Z"/>
          <path class="cls-2" d="M445,273a1.28,1.28,0,0,0,.64.48l-.57,1.8a3.55,3.55,0,0,1-1.55-.45,2.31,2.31,0,0,1-.92-1.17,3.58,3.58,0,0,1-1.43,1.26,4.35,4.35,0,0,1-1.91.41,3.62,3.62,0,0,1-2.64-1,3.33,3.33,0,0,1-1-2.49A3.23,3.23,0,0,1,437,269.1a6.33,6.33,0,0,1,3.77-1h1.39v-.63a1.93,1.93,0,0,0-.5-1.51,2.4,2.4,0,0,0-1.6-.43,9.44,9.44,0,0,0-3,.59l-.63-1.84a11.29,11.29,0,0,1,4.06-.8q4.29,0,4.29,3.85V272A1.79,1.79,0,0,0,445,273Zm-2.86-1v-2.26h-1.12q-2.62,0-2.62,1.94a1.79,1.79,0,0,0,.4,1.25,1.51,1.51,0,0,0,1.18.44A2.39,2.39,0,0,0,442.17,272Z"/>
          <path class="cls-2" d="M453.19,275.11a5.33,5.33,0,0,1-1.49.21,3.32,3.32,0,0,1-2.5-.94,3.85,3.85,0,0,1-.86-2.71v-5.9h-1.75v-1.94h1.75v-2.47L451,261v2.79h2.6l-.27,1.94H451v5.83a1.93,1.93,0,0,0,.29,1.18,1.08,1.08,0,0,0,.9.36,2.58,2.58,0,0,0,1.33-.42l1,1.75A4.31,4.31,0,0,1,453.19,275.11Z"/>
          <path class="cls-2" d="M464.93,270.25h-7a3.66,3.66,0,0,0,.86,2.32,2.58,2.58,0,0,0,1.89.7,4,4,0,0,0,1.39-.24,6.51,6.51,0,0,0,1.39-.75l1.12,1.54a6.43,6.43,0,0,1-4.14,1.5,5,5,0,0,1-3.94-1.56,6.21,6.21,0,0,1-1.38-4.27,7.65,7.65,0,0,1,.59-3.07,4.88,4.88,0,0,1,1.71-2.13,5.09,5.09,0,0,1,6.3.72,6.14,6.14,0,0,1,1.29,4.15Q465,269.36,464.93,270.25Zm-2.62-1.88q0-2.94-2.18-2.94a1.85,1.85,0,0,0-1.55.73,4.35,4.35,0,0,0-.67,2.33h4.39Z"/>
          <path class="cls-2" d="M476.89,275H474.5l-.19-1.42a3.94,3.94,0,0,1-1.33,1.27,3.65,3.65,0,0,1-1.86.46,3.6,3.6,0,0,1-3.15-1.58,7.45,7.45,0,0,1-1.1-4.31,8.06,8.06,0,0,1,.55-3.07,4.74,4.74,0,0,1,1.57-2.09,4,4,0,0,1,2.42-.75,3.72,3.72,0,0,1,2.77,1.2V259l2.71.3Zm-3.74-2.08a3.6,3.6,0,0,0,1-1.09v-5.11a3.53,3.53,0,0,0-1-.89,2.22,2.22,0,0,0-1.14-.3,2,2,0,0,0-1.72,1,5.41,5.41,0,0,0-.62,2.91,6,6,0,0,0,.55,3,1.77,1.77,0,0,0,1.61.9A2.32,2.32,0,0,0,473.15,272.92Z"/>
          <path class="cls-2" d="M488.17,272.94a.56.56,0,0,0,.49.2,2,2,0,0,0,.63-.11l.57,1.9a4.93,4.93,0,0,1-1.92.38,2.52,2.52,0,0,1-1.94-.73,3,3,0,0,1-.68-2.12V259.34l2.7-.3v13.23A1.14,1.14,0,0,0,488.17,272.94Z"/>
          <path class="cls-2" d="M494.22,258.64a1.6,1.6,0,0,1,.47,1.17,1.56,1.56,0,0,1-.47,1.16,1.69,1.69,0,0,1-1.24.46,1.66,1.66,0,0,1-1.21-.46,1.56,1.56,0,0,1-.48-1.16,1.59,1.59,0,0,1,.48-1.17,1.64,1.64,0,0,1,1.21-.48A1.67,1.67,0,0,1,494.22,258.64ZM491.65,275V263.82h2.7V275Z"/>
          <path class="cls-2" d="M501,261.47a1.67,1.67,0,0,0-.35,1.17v1.18h2.68l-.3,1.94h-2.39V275h-2.71v-9.23h-1.82v-1.94h1.82V262.6a3.39,3.39,0,0,1,1-2.57,4,4,0,0,1,2.91-1,6.83,6.83,0,0,1,2.89.66l-.78,1.82a4.32,4.32,0,0,0-1.84-.42A1.53,1.53,0,0,0,501,261.47Z"/>
          <path class="cls-2" d="M513.84,270.25h-7a3.66,3.66,0,0,0,.86,2.32,2.58,2.58,0,0,0,1.89.7A4,4,0,0,0,511,273a6.51,6.51,0,0,0,1.39-.75l1.12,1.54a6.43,6.43,0,0,1-4.14,1.5,5,5,0,0,1-3.94-1.56,6.21,6.21,0,0,1-1.38-4.27,7.65,7.65,0,0,1,.59-3.07,4.88,4.88,0,0,1,1.71-2.13,5.09,5.09,0,0,1,6.3.72,6.14,6.14,0,0,1,1.29,4.15Q513.9,269.36,513.84,270.25Zm-2.62-1.88q0-2.94-2.18-2.94a1.85,1.85,0,0,0-1.55.73,4.35,4.35,0,0,0-.67,2.33h4.39Z"/>
          <path class="cls-2" d="M522.95,266.32l-2,1.44L519.46,265l-1.5,2.75-2-1.42,2.13-2.3-3.08-.59.74-2.24,2.85,1.31-.4-3.17h2.45l-.4,3.19,2.83-1.35.76,2.26-3.08.59Z"/>
          <path class="cls-2" d="M264.19,296.45a6.82,6.82,0,0,1,2.13,1.35l-1.42,1.61a5.42,5.42,0,0,0-1.54-1,4.6,4.6,0,0,0-1.69-.31,2.72,2.72,0,0,0-1.64.45,1.49,1.49,0,0,0-.62,1.28,1.59,1.59,0,0,0,.24.91,2.24,2.24,0,0,0,.88.68,12.75,12.75,0,0,0,1.88.7,8.54,8.54,0,0,1,3.24,1.68,3.79,3.79,0,0,1,1.09,2.93,4.14,4.14,0,0,1-.67,2.32,4.41,4.41,0,0,1-1.91,1.58,7.06,7.06,0,0,1-3,.57,7.85,7.85,0,0,1-3-.54,7,7,0,0,1-2.27-1.47l1.48-1.65a5.28,5.28,0,0,0,3.72,1.5,3.1,3.1,0,0,0,1.94-.57,1.91,1.91,0,0,0,.74-1.61,2,2,0,0,0-.25-1,2.2,2.2,0,0,0-.87-.74,10.58,10.58,0,0,0-1.77-.69,8.32,8.32,0,0,1-3.36-1.73,3.56,3.56,0,0,1-1-2.66,3.6,3.6,0,0,1,.63-2.11,4.17,4.17,0,0,1,1.76-1.42,6.21,6.21,0,0,1,2.57-.51A7.39,7.39,0,0,1,264.19,296.45Z"/>
          <path class="cls-2" d="M277.51,308.92a1.28,1.28,0,0,0,.64.48l-.57,1.8a3.55,3.55,0,0,1-1.55-.45,2.31,2.31,0,0,1-.92-1.17,3.58,3.58,0,0,1-1.43,1.26,4.35,4.35,0,0,1-1.91.41,3.62,3.62,0,0,1-2.64-1,3.33,3.33,0,0,1-1-2.49,3.23,3.23,0,0,1,1.32-2.78,6.33,6.33,0,0,1,3.77-1h1.39v-.63a1.93,1.93,0,0,0-.5-1.51,2.4,2.4,0,0,0-1.6-.43,9.44,9.44,0,0,0-3,.59l-.63-1.84a11.29,11.29,0,0,1,4.06-.8q4.29,0,4.29,3.85V308A1.79,1.79,0,0,0,277.51,308.92Zm-2.86-1v-2.26h-1.12q-2.62,0-2.62,1.94a1.79,1.79,0,0,0,.4,1.25,1.51,1.51,0,0,0,1.18.44A2.39,2.39,0,0,0,274.64,307.9Z"/>
          <path class="cls-2" d="M282.4,310.92l-3.7-11.18h2.94l2.39,9,2.45-9h2.79l-3.63,11.18Z"/>
          <path class="cls-2" d="M299.83,306.17h-7a3.66,3.66,0,0,0,.86,2.32,2.58,2.58,0,0,0,1.89.7,4,4,0,0,0,1.39-.24,6.51,6.51,0,0,0,1.39-.75l1.12,1.54a6.43,6.43,0,0,1-4.14,1.5,5,5,0,0,1-3.94-1.56,6.21,6.21,0,0,1-1.38-4.27,7.65,7.65,0,0,1,.59-3.07,4.88,4.88,0,0,1,1.71-2.13,5.09,5.09,0,0,1,6.3.72,6.14,6.14,0,0,1,1.29,4.15Q299.89,305.28,299.83,306.17Zm-2.62-1.88q0-2.94-2.18-2.94a1.85,1.85,0,0,0-1.55.73,4.35,4.35,0,0,0-.67,2.33h4.39Z"/>
          <path class="cls-2" d="M314.26,310.92l-.15-1.56a4.14,4.14,0,0,1-1.45,1.42,4,4,0,0,1-2,.46,2.93,2.93,0,0,1-2.31-.92,3.71,3.71,0,0,1-.81-2.55v-8h2.7v7.69a2.17,2.17,0,0,0,.33,1.35,1.27,1.27,0,0,0,1,.4,2.73,2.73,0,0,0,2.26-1.58v-7.86h2.71v11.18Z"/>
          <path class="cls-2" d="M328.76,301a7.78,7.78,0,0,1,1,4.33,8.51,8.51,0,0,1-.52,3.07,4.67,4.67,0,0,1-1.52,2.1,3.82,3.82,0,0,1-2.38.76,3.49,3.49,0,0,1-2.81-1.23v5.22l-2.7.3V299.74h2.37l.15,1.37a4.16,4.16,0,0,1,1.49-1.27,3.9,3.9,0,0,1,1.74-.42A3.53,3.53,0,0,1,328.76,301ZM327,305.32a6.06,6.06,0,0,0-.54-3,1.77,1.77,0,0,0-1.62-.9,2.1,2.1,0,0,0-1.24.41,3.66,3.66,0,0,0-1,1.11v5a2.38,2.38,0,0,0,2,1.16Q327,309.17,327,305.32Z"/>
          <path class="cls-2" d="M342.82,311a5.33,5.33,0,0,1-1.49.21,3.32,3.32,0,0,1-2.5-.94,3.85,3.85,0,0,1-.86-2.71v-5.9h-1.75v-1.94H338v-2.47l2.7-.32v2.79h2.6l-.27,1.94h-2.32v5.83a1.93,1.93,0,0,0,.29,1.18,1.08,1.08,0,0,0,.9.36,2.58,2.58,0,0,0,1.33-.42l1,1.75A4.31,4.31,0,0,1,342.82,311Z"/>
          <path class="cls-2" d="M353.87,301a6.32,6.32,0,0,1,1.38,4.32,7.16,7.16,0,0,1-.63,3.1,4.81,4.81,0,0,1-1.82,2.08,5.2,5.2,0,0,1-2.81.74,4.9,4.9,0,0,1-3.87-1.57,6.32,6.32,0,0,1-1.39-4.34,7.11,7.11,0,0,1,.63-3.08,4.8,4.8,0,0,1,1.83-2.07,5.24,5.24,0,0,1,2.82-.74A4.87,4.87,0,0,1,353.87,301Zm-6.29,4.32a5.55,5.55,0,0,0,.6,2.93,2.2,2.2,0,0,0,3.61,0,5.55,5.55,0,0,0,.6-2.92,5.49,5.49,0,0,0-.6-2.91,2,2,0,0,0-1.79-.94Q347.58,301.48,347.58,305.32Z"/>
          <path class="cls-2" d="M365.35,311.19l-2.47-.8,4.94-11.6h-6V296.7h8.79v1.9Z"/>
          <path class="cls-2" d="M375,298.71v3.53a4.77,4.77,0,0,1,2.16-.53,4.07,4.07,0,0,1,2.11.55,3.72,3.72,0,0,1,1.45,1.58,5.41,5.41,0,0,1,.52,2.45,5,5,0,0,1-.65,2.58,4.5,4.5,0,0,1-1.86,1.74,6,6,0,0,1-2.79.62,5.77,5.77,0,0,1-2.5-.52,6.38,6.38,0,0,1-2-1.49l1.56-1.46a3.64,3.64,0,0,0,2.85,1.37,2.45,2.45,0,0,0,1.89-.74,3,3,0,0,0,.69-2.11q0-2.64-2.28-2.64a3.41,3.41,0,0,0-.91.12,5.2,5.2,0,0,0-.93.37h-1.92V296.7h8.24l-.32,2Z"/>
          <path class="cls-2" d="M388.29,296.9a3.29,3.29,0,0,1,1.3,1.3,4.21,4.21,0,0,1,0,3.89,3.29,3.29,0,0,1-1.3,1.3,3.75,3.75,0,0,1-1.84.45,3.68,3.68,0,0,1-1.83-.45,3.32,3.32,0,0,1-1.29-1.3,4.22,4.22,0,0,1,0-3.89,3.32,3.32,0,0,1,1.29-1.3,3.68,3.68,0,0,1,1.83-.45A3.75,3.75,0,0,1,388.29,296.9Zm-3,1.8a3.16,3.16,0,0,0,0,2.88,1.26,1.26,0,0,0,1.17.57q1.52,0,1.52-2t-1.52-2A1.27,1.27,0,0,0,385.28,298.7Zm1.7,13-1.73-1.12L395,295.79l1.75,1.12Zm10.4-7.38a3.22,3.22,0,0,1,1.29,1.3,4.3,4.3,0,0,1,0,3.89,3.22,3.22,0,0,1-1.29,1.3,3.95,3.95,0,0,1-3.68,0,3.29,3.29,0,0,1-1.3-1.3,4.21,4.21,0,0,1,0-3.89,3.3,3.3,0,0,1,1.3-1.3,3.95,3.95,0,0,1,3.68,0Zm-3,1.8a3.16,3.16,0,0,0,0,2.88,1.26,1.26,0,0,0,1.17.57q1.52,0,1.52-2t-1.52-2A1.27,1.27,0,0,0,394.37,306.09Z"/>
          <path class="cls-2" d="M415.29,308.92a1.28,1.28,0,0,0,.64.48l-.57,1.8a3.55,3.55,0,0,1-1.55-.45,2.31,2.31,0,0,1-.92-1.17,3.58,3.58,0,0,1-1.43,1.26,4.35,4.35,0,0,1-1.91.41,3.62,3.62,0,0,1-2.64-1,3.33,3.33,0,0,1-1-2.49,3.23,3.23,0,0,1,1.32-2.78,6.33,6.33,0,0,1,3.77-1h1.39v-.63a1.93,1.93,0,0,0-.5-1.51,2.4,2.4,0,0,0-1.6-.43,9.44,9.44,0,0,0-3,.59l-.63-1.84a11.29,11.29,0,0,1,4.06-.8q4.29,0,4.29,3.85V308A1.79,1.79,0,0,0,415.29,308.92Zm-2.86-1v-2.26H411.3q-2.62,0-2.62,1.94a1.79,1.79,0,0,0,.4,1.25,1.51,1.51,0,0,0,1.18.44A2.39,2.39,0,0,0,412.42,307.9Z"/>
          <path class="cls-2" d="M427,314.18a6.51,6.51,0,0,1-3.76,1.34l-.27-2a6.77,6.77,0,0,0,1.76-.48,2.84,2.84,0,0,0,1.07-.81,5.45,5.45,0,0,0,.74-1.35h-.93l-3.55-11.18h2.87l2.43,9.38,2.54-9.38h2.79L429.05,311A6.87,6.87,0,0,1,427,314.18Z"/>
          <path class="cls-2" d="M443.12,306.17h-7a3.66,3.66,0,0,0,.86,2.32,2.58,2.58,0,0,0,1.89.7,4,4,0,0,0,1.39-.24,6.51,6.51,0,0,0,1.39-.75l1.12,1.54a6.43,6.43,0,0,1-4.14,1.5,5,5,0,0,1-3.94-1.56,6.21,6.21,0,0,1-1.38-4.27,7.65,7.65,0,0,1,.59-3.07,4.88,4.88,0,0,1,1.71-2.13,5.09,5.09,0,0,1,6.3.72,6.14,6.14,0,0,1,1.29,4.15Q443.19,305.28,443.12,306.17Zm-2.62-1.88q0-2.94-2.18-2.94a1.85,1.85,0,0,0-1.55.73,4.35,4.35,0,0,0-.67,2.33h4.39Z"/>
          <path class="cls-2" d="M454.14,308.92a1.28,1.28,0,0,0,.64.48l-.57,1.8a3.55,3.55,0,0,1-1.55-.45,2.31,2.31,0,0,1-.92-1.17,3.58,3.58,0,0,1-1.43,1.26,4.35,4.35,0,0,1-1.91.41,3.62,3.62,0,0,1-2.64-1,3.33,3.33,0,0,1-1-2.49,3.23,3.23,0,0,1,1.32-2.78,6.33,6.33,0,0,1,3.77-1h1.39v-.63a1.93,1.93,0,0,0-.5-1.51,2.4,2.4,0,0,0-1.6-.43,9.44,9.44,0,0,0-3,.59l-.63-1.84a11.29,11.29,0,0,1,4.06-.8q4.29,0,4.29,3.85V308A1.79,1.79,0,0,0,454.14,308.92Zm-2.86-1v-2.26h-1.12q-2.62,0-2.62,1.94a1.79,1.79,0,0,0,.4,1.25,1.51,1.51,0,0,0,1.18.44A2.39,2.39,0,0,0,451.28,307.9Z"/>
          <path class="cls-2" d="M463.85,299.6l-.46,2.62a4.1,4.1,0,0,0-1-.13,1.9,1.9,0,0,0-1.56.71,5.46,5.46,0,0,0-.91,2.19v5.94h-2.7V299.74h2.35l.25,2.2a4,4,0,0,1,1.16-1.85,2.64,2.64,0,0,1,1.75-.64A4,4,0,0,1,463.85,299.6Z"/>
          <path class="cls-2" d="M473.39,294.56a1.6,1.6,0,0,1,.47,1.17,1.56,1.56,0,0,1-.47,1.16,1.69,1.69,0,0,1-1.24.46,1.66,1.66,0,0,1-1.21-.46,1.56,1.56,0,0,1-.48-1.16,1.59,1.59,0,0,1,.48-1.17,1.64,1.64,0,0,1,1.21-.48A1.67,1.67,0,0,1,473.39,294.56Zm-2.57,16.36V299.74h2.7v11.18Z"/>
          <path class="cls-2" d="M485.07,300.32a3.54,3.54,0,0,1,.83,2.5v8.09H483.2v-7.67a2.15,2.15,0,0,0-.35-1.39,1.28,1.28,0,0,0-1-.4,2,2,0,0,0-1.26.43,4.93,4.93,0,0,0-1.09,1.26v7.78h-2.7V299.74h2.35l.21,1.48a4.18,4.18,0,0,1,3.4-1.8A3,3,0,0,1,485.07,300.32Z"/>
          <path class="cls-2" d="M266.32,331.52h-7a3.66,3.66,0,0,0,.86,2.32,2.58,2.58,0,0,0,1.89.7,4,4,0,0,0,1.39-.24,6.51,6.51,0,0,0,1.39-.75l1.12,1.54a6.43,6.43,0,0,1-4.14,1.5,5,5,0,0,1-3.94-1.56,6.21,6.21,0,0,1-1.38-4.27,7.65,7.65,0,0,1,.59-3.07,4.88,4.88,0,0,1,1.71-2.13,5.09,5.09,0,0,1,6.3.72,6.14,6.14,0,0,1,1.29,4.15Q266.38,330.63,266.32,331.52Zm-2.62-1.88q0-2.94-2.18-2.94a1.85,1.85,0,0,0-1.55.73,4.35,4.35,0,0,0-.67,2.33h4.39Z"/>
          <path class="cls-2" d="M277.17,325.68a3.54,3.54,0,0,1,.83,2.5v8.09H275.3V328.6a2.15,2.15,0,0,0-.35-1.39,1.28,1.28,0,0,0-1-.4,2,2,0,0,0-1.26.43,4.93,4.93,0,0,0-1.09,1.26v7.78h-2.7V325.1h2.35l.21,1.48a4.18,4.18,0,0,1,3.4-1.8A3,3,0,0,1,277.17,325.68Z"/>
          <path class="cls-2" d="M290.26,331.52h-7a3.66,3.66,0,0,0,.86,2.32,2.58,2.58,0,0,0,1.89.7,4,4,0,0,0,1.39-.24,6.51,6.51,0,0,0,1.39-.75l1.12,1.54a6.43,6.43,0,0,1-4.14,1.5,5,5,0,0,1-3.94-1.56,6.21,6.21,0,0,1-1.38-4.27,7.65,7.65,0,0,1,.59-3.07,4.88,4.88,0,0,1,1.71-2.13,5.09,5.09,0,0,1,6.3.72,6.14,6.14,0,0,1,1.29,4.15Q290.32,330.63,290.26,331.52Zm-2.62-1.88q0-2.94-2.18-2.94a1.85,1.85,0,0,0-1.55.73,4.35,4.35,0,0,0-.67,2.33h4.39Z"/>
          <path class="cls-2" d="M299.45,324.95l-.46,2.62a4.1,4.1,0,0,0-1-.13,1.9,1.9,0,0,0-1.56.71,5.46,5.46,0,0,0-.91,2.19v5.94h-2.7V325.1h2.35l.25,2.2a4,4,0,0,1,1.16-1.85,2.64,2.64,0,0,1,1.75-.64A4,4,0,0,1,299.45,324.95Z"/>
          <path class="cls-2" d="M307.63,326.07a3.71,3.71,0,0,1,1.53,1.15,2.87,2.87,0,0,1,.5,1.72,3.54,3.54,0,0,1-.54,1.94,3.64,3.64,0,0,1-1.56,1.33,5.54,5.54,0,0,1-2.4.49,4.69,4.69,0,0,1-1.33-.17,1,1,0,0,0-.46.82q0,.78,1.35.78h1.71a5.32,5.32,0,0,1,2.14.4,3.29,3.29,0,0,1,1.43,1.13,2.8,2.8,0,0,1,.51,1.64,3,3,0,0,1-1.44,2.63,7.58,7.58,0,0,1-4.14.94,9.28,9.28,0,0,1-3.05-.4,2.91,2.91,0,0,1-1.57-1.16,3.67,3.67,0,0,1-.46-1.94h2.43a1.68,1.68,0,0,0,.22.93,1.37,1.37,0,0,0,.8.51A6.38,6.38,0,0,0,305,339a4.5,4.5,0,0,0,2.18-.38,1.21,1.21,0,0,0,.63-1.1,1.14,1.14,0,0,0-.49-1,2.41,2.41,0,0,0-1.42-.35h-1.69a3.9,3.9,0,0,1-2.39-.61A1.87,1.87,0,0,1,301,334a2.1,2.1,0,0,1,.35-1.14,3,3,0,0,1,1-.93,3.68,3.68,0,0,1-1.49-1.3,3.45,3.45,0,0,1-.48-1.85,3.78,3.78,0,0,1,.59-2.11,3.9,3.9,0,0,1,1.64-1.41,5.54,5.54,0,0,1,2.4-.5,10,10,0,0,0,2.86-.26,11.94,11.94,0,0,0,2.36-1l.68,2.16A10.32,10.32,0,0,1,307.63,326.07Zm-4,1.13a2.25,2.25,0,0,0-.52,1.55,2.32,2.32,0,0,0,.53,1.61,2.13,2.13,0,0,0,2.94,0,2.41,2.41,0,0,0,.51-1.64q0-2.11-2-2.11A1.81,1.81,0,0,0,303.58,327.2Z"/>
          <path class="cls-2" d="M315.84,339.54a6.51,6.51,0,0,1-3.76,1.34l-.27-2a6.77,6.77,0,0,0,1.76-.48,2.84,2.84,0,0,0,1.07-.81,5.45,5.45,0,0,0,.74-1.35h-.93L310.9,325.1h2.87l2.43,9.38,2.54-9.38h2.79l-3.63,11.22A6.87,6.87,0,0,1,315.84,339.54Z"/>
          <path class="cls-2" d="M334.93,325.1a5.28,5.28,0,0,1,1.66,1l-1.23,1.65a4.29,4.29,0,0,0-1.08-.62,3.24,3.24,0,0,0-1.16-.2q-2.51,0-2.51,3.82a4.67,4.67,0,0,0,.65,2.8,2.2,2.2,0,0,0,1.86.86,2.93,2.93,0,0,0,1.11-.2,5,5,0,0,0,1.11-.67l1.25,1.77a5.57,5.57,0,0,1-3.61,1.29,5.33,5.33,0,0,1-2.79-.71,4.64,4.64,0,0,1-1.82-2,7,7,0,0,1-.63-3.08,7.37,7.37,0,0,1,.63-3.14,4.86,4.86,0,0,1,1.82-2.11,5.06,5.06,0,0,1,2.77-.75A5.79,5.79,0,0,1,334.93,325.1Z"/>
          <path class="cls-2" d="M346.77,326.35a6.32,6.32,0,0,1,1.38,4.32,7.16,7.16,0,0,1-.63,3.1,4.81,4.81,0,0,1-1.82,2.08,5.2,5.2,0,0,1-2.81.74A4.9,4.9,0,0,1,339,335a6.32,6.32,0,0,1-1.39-4.34,7.11,7.11,0,0,1,.63-3.08,4.8,4.8,0,0,1,1.83-2.07,5.24,5.24,0,0,1,2.82-.74A4.87,4.87,0,0,1,346.77,326.35Zm-6.29,4.32a5.55,5.55,0,0,0,.6,2.93,2.2,2.2,0,0,0,3.61,0,5.55,5.55,0,0,0,.6-2.92,5.49,5.49,0,0,0-.6-2.91,2,2,0,0,0-1.79-.94Q340.48,326.83,340.48,330.67Z"/>
          <path class="cls-2" d="M358.19,326.11l-1.06,1.63a4.87,4.87,0,0,0-2.75-1,2.31,2.31,0,0,0-1.3.31.94.94,0,0,0-.46.81,1,1,0,0,0,.19.63,1.73,1.73,0,0,0,.69.48,11.39,11.39,0,0,0,1.47.5,6.46,6.46,0,0,1,2.69,1.29,2.88,2.88,0,0,1,.88,2.24,3,3,0,0,1-1.35,2.61,5.74,5.74,0,0,1-3.36.94,7.11,7.11,0,0,1-2.5-.42,6.06,6.06,0,0,1-2-1.16l1.37-1.54a4.7,4.7,0,0,0,3,1.12,2.63,2.63,0,0,0,1.46-.36,1.09,1.09,0,0,0,.55-1,1.36,1.36,0,0,0-.2-.79,1.71,1.71,0,0,0-.72-.52,13.19,13.19,0,0,0-1.62-.55,5.4,5.4,0,0,1-2.51-1.3,2.88,2.88,0,0,1-.8-2.08,2.76,2.76,0,0,1,.54-1.67A3.57,3.57,0,0,1,352,325.2a5.65,5.65,0,0,1,2.25-.42A6.29,6.29,0,0,1,358.19,326.11Z"/>
          <path class="cls-2" d="M365.82,336.38a5.33,5.33,0,0,1-1.49.21,3.32,3.32,0,0,1-2.5-.94,3.85,3.85,0,0,1-.86-2.71V327h-1.75V325.1H361v-2.47l2.7-.32v2.79h2.6L366,327h-2.32v5.83a1.93,1.93,0,0,0,.29,1.18,1.08,1.08,0,0,0,.9.36,2.58,2.58,0,0,0,1.33-.42l1,1.75A4.31,4.31,0,0,1,365.82,336.38Z"/>
          <path class="cls-2" d="M376.17,326.11l-1.06,1.63a4.87,4.87,0,0,0-2.75-1,2.31,2.31,0,0,0-1.3.31.94.94,0,0,0-.46.81,1,1,0,0,0,.19.63,1.73,1.73,0,0,0,.69.48,11.39,11.39,0,0,0,1.47.5,6.46,6.46,0,0,1,2.69,1.29,2.88,2.88,0,0,1,.88,2.24,3,3,0,0,1-1.35,2.61,5.74,5.74,0,0,1-3.36.94,7.11,7.11,0,0,1-2.5-.42,6.06,6.06,0,0,1-2-1.16l1.37-1.54a4.7,4.7,0,0,0,3,1.12,2.63,2.63,0,0,0,1.46-.36,1.09,1.09,0,0,0,.55-1,1.36,1.36,0,0,0-.2-.79,1.71,1.71,0,0,0-.72-.52,13.19,13.19,0,0,0-1.62-.55,5.4,5.4,0,0,1-2.51-1.3,2.88,2.88,0,0,1-.8-2.08,2.76,2.76,0,0,1,.54-1.67,3.57,3.57,0,0,1,1.52-1.16,5.65,5.65,0,0,1,2.25-.42A6.29,6.29,0,0,1,376.17,326.11Z"/>
          <path class="cls-2" d="M385.27,327.59l-2,1.44-1.52-2.75-1.5,2.75-2-1.42,2.13-2.3-3.08-.59.74-2.24,2.85,1.31-.4-3.17H383l-.4,3.19,2.83-1.35.76,2.26-3.08.59Z"/>
          <path class="cls-2" d="M394.65,327.59l-2,1.44-1.52-2.75-1.5,2.75-2-1.42,2.13-2.3-3.08-.59.74-2.24,2.85,1.31-.4-3.17h2.45l-.4,3.19,2.83-1.35.76,2.26-3.08.59Z"/>
        </g>
        <g>
          <g>
            <path class="cls-2" d="M439.28,79.47a.21.21,0,0,1,0-.29l1.2-1.39a.17.17,0,0,1,.27,0,5.89,5.89,0,0,0,3.58,1.39c1.57,0,2.48-.79,2.48-1.9,0-.95-.58-1.57-2.4-1.82l-.7-.1c-2.53-.35-4-1.57-4-3.75,0-2.38,1.74-4,4.45-4a7.23,7.23,0,0,1,4.26,1.32.17.17,0,0,1,0,.27l-.93,1.43a.19.19,0,0,1-.27.06,5.56,5.56,0,0,0-3.15-1c-1.34,0-2.07.73-2.07,1.76s.64,1.53,2.42,1.78l.7.1c2.53.35,3.93,1.55,3.93,3.81s-1.68,4.08-5,4.08A7.42,7.42,0,0,1,439.28,79.47Z"/>
            <path class="cls-2" d="M451.34,68a.18.18,0,0,1,.19-.19h1.9a.18.18,0,0,1,.19.19v5.18a.1.1,0,0,0,.12.12h5a.1.1,0,0,0,.12-.12V68a.18.18,0,0,1,.19-.19H461a.18.18,0,0,1,.19.19V80.81A.18.18,0,0,1,461,81h-1.9a.18.18,0,0,1-.19-.19v-5.3a.1.1,0,0,0-.12-.12h-5a.1.1,0,0,0-.12.12v5.3a.18.18,0,0,1-.19.19h-1.9a.18.18,0,0,1-.19-.19Z"/>
            <path class="cls-2" d="M464,78a10.64,10.64,0,0,1-.35-3.62A10.63,10.63,0,0,1,464,70.8a5,5,0,0,1,9.31,0,10.63,10.63,0,0,1,.35,3.62,10.64,10.64,0,0,1-.35,3.62A5,5,0,0,1,464,78Zm7.1-.6a10.5,10.5,0,0,0,.23-3,10.4,10.4,0,0,0-.23-3,2.6,2.6,0,0,0-4.89,0,10.4,10.4,0,0,0-.23,3,10.5,10.5,0,0,0,.23,3,2.6,2.6,0,0,0,4.89,0Z"/>
            <path class="cls-2" d="M476.37,81a.18.18,0,0,1-.19-.19V68a.18.18,0,0,1,.19-.19h4.93a4.1,4.1,0,1,1,0,8.18h-2.73a.1.1,0,0,0-.12.12v4.66a.18.18,0,0,1-.19.19Zm7-9.07a2,2,0,0,0-2.19-2h-2.59a.1.1,0,0,0-.12.12v3.83a.1.1,0,0,0,.12.12h2.59A2,2,0,0,0,483.36,71.93Z"/>
            <path class="cls-2" d="M492.32,68a.18.18,0,0,1,.19-.19h1.78a.34.34,0,0,1,.33.19L500,77.11h.08V68a.18.18,0,0,1,.19-.19h1.68a.18.18,0,0,1,.19.19V80.81a.18.18,0,0,1-.19.19h-1.76a.34.34,0,0,1-.33-.19l-5.38-9.05h-.08v9.05a.18.18,0,0,1-.19.19h-1.68a.18.18,0,0,1-.19-.19Z"/>
            <path class="cls-2" d="M505,78a10.64,10.64,0,0,1-.35-3.62A10.63,10.63,0,0,1,505,70.8a5,5,0,0,1,9.31,0,10.66,10.66,0,0,1,.35,3.62A10.67,10.67,0,0,1,514.3,78,5,5,0,0,1,505,78Zm7.1-.6a10.5,10.5,0,0,0,.23-3,10.4,10.4,0,0,0-.23-3,2.6,2.6,0,0,0-4.89,0,10.4,10.4,0,0,0-.23,3,10.5,10.5,0,0,0,.23,3,2.6,2.6,0,0,0,4.89,0Z"/>
            <path class="cls-2" d="M526.37,81a.25.25,0,0,1-.23-.19l-2.52-9h0l-2.53,9a.25.25,0,0,1-.23.19h-1.45a.25.25,0,0,1-.23-.19L515.9,68c0-.12,0-.19.15-.19h1.82a.22.22,0,0,1,.23.19l2.09,8.86h0L522.69,68a.25.25,0,0,1,.23-.19h1.35c.14,0,.19.08.23.19L527,76.9h0l2-8.86a.21.21,0,0,1,.23-.19h1.8c.14,0,.17.08.15.19l-3.21,12.77a.23.23,0,0,1-.23.19Z"/>
          </g>
          <polygon class="cls-3" points="541.3 93.91 425.43 93.91 425.43 54.93 541.3 54.93 562.33 74.42 541.3 93.91"/>
        </g>
        <line class="cls-4" x1="186.33" y1="226.95" x2="186.33" y2="386.12"/>
      </g>
    </g>
  </g>
</svg>
