<svg xmlns="http://www.w3.org/2000/svg" viewBox="0 0 639.86 214.73">
  <defs>
    <style>
      .cls-1 {
        fill: #0071bc;
      }

      .cls-2 {
        fill: #fff;
      }

      .cls-3, .cls-4 {
        fill: none;
        stroke: #fff;
        stroke-miterlimit: 10;
      }

      .cls-3 {
        stroke-width: 1.5px;
      }

      .cls-4 {
        opacity: 0.51;
      }
    </style>
  </defs>
  <title>tile3b</title>
  <g id="Layer_2" data-name="Layer 2">
    <g id="Layer_1-2" data-name="Layer 1">
      <g>
        <rect class="cls-1" width="639.86" height="214.73"/>
        <g>
          <path class="cls-2" d="M44.89,133a.28.28,0,0,1,.3-.3H49a.28.28,0,0,1,.3.3v7.65a.16.16,0,0,0,.18.18h6.66a.16.16,0,0,0,.18-.18V133a.28.28,0,0,1,.3-.3h3.81a.28.28,0,0,1,.3.3v19.8a.28.28,0,0,1-.3.3H56.62a.28.28,0,0,1-.3-.3v-7.86a.16.16,0,0,0-.18-.18H49.48a.16.16,0,0,0-.18.18v7.86a.28.28,0,0,1-.3.3H45.19a.28.28,0,0,1-.3-.3Z"/>
          <path class="cls-2" d="M73.09,153.08a.28.28,0,0,1-.3-.3v-1h0a4.74,4.74,0,0,1-4,1.59c-2.58,0-4.83-1.35-4.83-4.44s2.43-4.68,6-4.68h2.58a.16.16,0,0,0,.18-.18v-.54c0-1.35-.66-2-3-2a5.41,5.41,0,0,0-3.24.93.24.24,0,0,1-.39-.06l-1.35-2.37a.29.29,0,0,1,.09-.42,9.2,9.2,0,0,1,5.4-1.44c4.74,0,6.45,1.62,6.45,5.25v9.3a.28.28,0,0,1-.3.3Zm-.36-4.83v-1a.16.16,0,0,0-.18-.18h-2c-1.77,0-2.58.51-2.58,1.65s.72,1.53,2.1,1.53C71.83,150.26,72.73,149.6,72.73,148.25Z"/>
          <path class="cls-2" d="M84.85,153.26c-3.21,0-4.5-1.41-4.5-4.62V133a.28.28,0,0,1,.3-.3h3.6a.28.28,0,0,1,.3.3v15.33c0,1,.39,1.38,1.26,1.38h.63a.28.28,0,0,1,.3.3v3a.28.28,0,0,1-.3.3Z"/>
          <path class="cls-2" d="M89.29,149.33a13.09,13.09,0,0,1,0-7c.84-2.64,3.24-4.08,6.3-4.08s5.46,1.44,6.3,4.08a13.06,13.06,0,0,1,0,7c-.84,2.64-3.24,4.08-6.3,4.08S90.13,152,89.29,149.33Zm8.55-1a11.63,11.63,0,0,0,0-5,2.4,2.4,0,0,0-4.5,0,11.59,11.59,0,0,0,0,5,2.4,2.4,0,0,0,4.5,0Z"/>
          <path class="cls-2" d="M105.22,156.62a.3.3,0,0,1,0-.45l2.13-2.16a.28.28,0,0,1,.45,0,4.36,4.36,0,0,0,3,1.26c2,0,2.91-1.08,2.91-3.21v-1.23h0a4.11,4.11,0,0,1-3.72,1.68,4.75,4.75,0,0,1-4.86-3.51,11.43,11.43,0,0,1-.48-3.63,11.31,11.31,0,0,1,.48-3.63,4.75,4.75,0,0,1,4.86-3.51,4.11,4.11,0,0,1,3.72,1.68h0v-1.05a.28.28,0,0,1,.3-.3h3.6a.28.28,0,0,1,.3.3v12.66c0,4.86-2.46,7.29-7.23,7.29A7.62,7.62,0,0,1,105.22,156.62Zm8.25-9.21a7.82,7.82,0,0,0,0-4.08,2,2,0,0,0-2.16-1.56,2.08,2.08,0,0,0-2.16,1.56,8.78,8.78,0,0,0,0,4.08A2.08,2.08,0,0,0,111.3,149,2,2,0,0,0,113.47,147.41Z"/>
          <path class="cls-2" d="M121.51,149.27a10.45,10.45,0,0,1-.51-3.45,10.64,10.64,0,0,1,.48-3.48c.84-2.61,3.15-4.11,6.24-4.11s5.43,1.53,6.27,4.08a13.93,13.93,0,0,1,.48,4.47.29.29,0,0,1-.33.3h-8.79a.16.16,0,0,0-.18.18,3.19,3.19,0,0,0,.18.81,2.85,2.85,0,0,0,3,1.92,4.67,4.67,0,0,0,3.33-1.29c.15-.12.3-.15.42,0l2,1.86a.27.27,0,0,1,0,.42,8.29,8.29,0,0,1-6.18,2.43C124.63,153.41,122.35,151.88,121.51,149.27Zm8.64-5a.16.16,0,0,0,.18-.18,3.61,3.61,0,0,0-.15-1.08,2.65,2.65,0,0,0-4.86,0,3.61,3.61,0,0,0-.15,1.08.16.16,0,0,0,.18.18Z"/>
          <path class="cls-2" d="M146.55,153.08a.28.28,0,0,1-.3-.3v-8.34c0-1.59-.75-2.64-2.25-2.64s-2.28,1-2.28,2.64v8.34a.28.28,0,0,1-.3.3h-3.6a.28.28,0,0,1-.3-.3V138.86a.28.28,0,0,1,.3-.3h3.6a.28.28,0,0,1,.3.3v1h0a4.46,4.46,0,0,1,3.75-1.65c3.21,0,4.95,2.22,4.95,5.4v9.15a.28.28,0,0,1-.3.3Z"/>
        </g>
        <g>
          <g>
            <path class="cls-2" d="M273.88,147.47a.21.21,0,0,1,0-.29l1.2-1.39a.17.17,0,0,1,.27,0,5.89,5.89,0,0,0,3.58,1.39c1.57,0,2.48-.79,2.48-1.9,0-.95-.58-1.57-2.4-1.82l-.7-.1c-2.53-.35-4-1.57-4-3.75,0-2.38,1.74-4,4.45-4a7.23,7.23,0,0,1,4.26,1.32.17.17,0,0,1,0,.27l-.93,1.43a.19.19,0,0,1-.27.06,5.56,5.56,0,0,0-3.15-1c-1.33,0-2.07.73-2.07,1.76s.64,1.53,2.42,1.78l.7.1c2.53.35,3.93,1.55,3.93,3.81s-1.68,4.08-5,4.08A7.42,7.42,0,0,1,273.88,147.47Z"/>
            <path class="cls-2" d="M285.93,136a.18.18,0,0,1,.19-.19H288a.18.18,0,0,1,.19.19v5.18a.1.1,0,0,0,.12.12h5a.1.1,0,0,0,.12-.12V136a.18.18,0,0,1,.19-.19h1.9a.18.18,0,0,1,.19.19V148.8a.18.18,0,0,1-.19.19h-1.9a.18.18,0,0,1-.19-.19v-5.3a.1.1,0,0,0-.12-.12h-5a.1.1,0,0,0-.12.12v5.3a.18.18,0,0,1-.19.19h-1.9a.18.18,0,0,1-.19-.19Z"/>
            <path class="cls-2" d="M298.6,146a10.64,10.64,0,0,1-.35-3.62,10.63,10.63,0,0,1,.35-3.62,5,5,0,0,1,9.3,0,10.63,10.63,0,0,1,.35,3.62,10.64,10.64,0,0,1-.35,3.62,5,5,0,0,1-9.3,0Zm7.1-.6a10.5,10.5,0,0,0,.23-3,10.39,10.39,0,0,0-.23-3,2.6,2.6,0,0,0-4.89,0,10.39,10.39,0,0,0-.23,3,10.5,10.5,0,0,0,.23,3,2.6,2.6,0,0,0,4.89,0Z"/>
            <path class="cls-2" d="M311,149a.18.18,0,0,1-.19-.19V136a.18.18,0,0,1,.19-.19h4.93a4.1,4.1,0,1,1,0,8.18h-2.73a.1.1,0,0,0-.12.12v4.66a.18.18,0,0,1-.19.19Zm7-9.07a2,2,0,0,0-2.19-2h-2.59a.1.1,0,0,0-.12.12v3.83a.1.1,0,0,0,.12.12h2.59A2,2,0,0,0,317.95,139.93Z"/>
            <path class="cls-2" d="M326.9,136a.18.18,0,0,1,.19-.19h1.78a.34.34,0,0,1,.33.19l5.36,9.07h.08V136a.18.18,0,0,1,.19-.19h1.68a.18.18,0,0,1,.19.19V148.8a.18.18,0,0,1-.19.19h-1.76a.34.34,0,0,1-.33-.19L329,139.75H329v9.05a.18.18,0,0,1-.19.19H327.1a.18.18,0,0,1-.19-.19Z"/>
            <path class="cls-2" d="M339.57,146a10.64,10.64,0,0,1-.35-3.62,10.63,10.63,0,0,1,.35-3.62,5,5,0,0,1,9.3,0,10.66,10.66,0,0,1,.35,3.62,10.66,10.66,0,0,1-.35,3.62,5,5,0,0,1-9.3,0Zm7.1-.6a10.5,10.5,0,0,0,.23-3,10.39,10.39,0,0,0-.23-3,2.6,2.6,0,0,0-4.89,0,10.39,10.39,0,0,0-.23,3,10.5,10.5,0,0,0,.23,3,2.6,2.6,0,0,0,4.89,0Z"/>
            <path class="cls-2" d="M360.95,149a.25.25,0,0,1-.23-.19l-2.52-9h0l-2.53,9a.25.25,0,0,1-.23.19h-1.45a.25.25,0,0,1-.23-.19L350.48,136c0-.12,0-.19.15-.19h1.82a.22.22,0,0,1,.23.19l2.09,8.86h0l2.46-8.86a.24.24,0,0,1,.23-.19h1.35c.14,0,.19.08.23.19l2.51,8.86h0l2-8.86a.21.21,0,0,1,.23-.19h1.8c.14,0,.17.08.15.19l-3.21,12.77a.23.23,0,0,1-.23.19Z"/>
          </g>
          <polygon class="cls-3" points="375.88 161.91 260.03 161.91 260.03 122.93 375.88 122.93 396.91 142.42 375.88 161.91"/>
        </g>
        <line class="cls-4" x1="193.66" y1="21.91" x2="193.66" y2="181.05"/>
        <g>
          <path class="cls-2" d="M96.71,36.14c9.33,0,16.95,5.87,19,14.23a18.66,18.66,0,0,1-2.38,14.79c-1.4,2.27-2.82,4.54-4.13,6.86a16.08,16.08,0,0,0-2,5.89c-.07.55-.11,1.1-.13,1.65a3,3,0,0,1-1.85,2.81.5.5,0,0,0-.34.55c0,2,0,4,0,6a4.05,4.05,0,0,1-1.26,3c-1,1-2,1.93-3,2.92a5,5,0,0,1-6.37,0c-1-1-2-2-3.05-3A4,4,0,0,1,90,89c0-2,0-4,0-6a.59.59,0,0,0-.4-.65,2.85,2.85,0,0,1-1.79-2.71,16.52,16.52,0,0,0-2.32-7.94c-1.24-2.2-2.59-4.34-3.93-6.47a18.88,18.88,0,0,1,10.7-28.38A18.49,18.49,0,0,1,96.71,36.14ZM101.35,80c.91,0,1.77,0,2.62,0,.34,0,.47-.23.47-.56a17.5,17.5,0,0,1,2.23-8.24c1.37-2.52,2.9-5,4.41-7.4A16.25,16.25,0,1,0,82.88,62.2c.93,1.85,2.14,3.55,3.23,5.32,2.28,3.7,4.24,7.51,4.31,12,0,.16.25.46.39.47.88,0,1.76,0,2.68,0,0-.22,0-.4,0-.57,0-2.31,0-4.62,0-6.93A2.68,2.68,0,0,1,95.06,70a.49.49,0,0,0,.25-.34c0-.83,0-1.66,0-2.48a.39.39,0,0,0-.18-.29A2.87,2.87,0,0,1,93.48,64c0-3.4,0-6.8,0-10.2a7,7,0,0,1,.05-1.09,2.46,2.46,0,0,1,1.85-2.14,3.82,3.82,0,0,0,1.53-.78.72.72,0,0,1,1,0,3.29,3.29,0,0,0,1.11.63,2.72,2.72,0,0,1,2.29,2.78q0,5.56,0,11.11a2.68,2.68,0,0,1-1.54,2.5.58.58,0,0,0-.27.41c0,.78,0,1.57,0,2.35a.53.53,0,0,0,.23.39,2.7,2.7,0,0,1,1.58,2.6c0,1,0,1.92,0,2.88C101.36,76.94,101.35,78.45,101.35,80Zm-7,0h6.1a.44.44,0,0,0,0-.11c0-2.52,0-5.05,0-7.57a1.77,1.77,0,0,0-1.87-1.73c-.71,0-1.42,0-2.13,0a2,2,0,0,0-2.15,2.15c0,2.26,0,4.53,0,6.79C94.34,79.67,94.34,79.82,94.34,80Zm6.12-19.09a3.35,3.35,0,0,0,0-.35c0-.62,0-1.25,0-1.87,0-1.79,0-3.57,0-5.36a1.89,1.89,0,0,0-2.09-2.08H96.54a1.93,1.93,0,0,0-2.2,2.18q0,3.51,0,7c0,.15,0,.31,0,.46H95.7s0-.07,0-.1c0-1.2,0-2.41,0-3.61,0-.1-.17-.23-.29-.28a.88.88,0,0,1-.58-.89.78.78,0,0,1,.75-.77,14.25,14.25,0,0,1,1.43,0c.72,0,1.45,0,2.17,0A.77.77,0,0,1,100,56a.79.79,0,0,1-.57.87c-.3.07-.32.23-.32.46,0,.86,0,1.71,0,2.57,0,.33,0,.65,0,1Zm-1.39.9c0,.3,0,.56,0,.82,0,.57,0,1.13,0,1.7a.62.62,0,0,1-.36.43c-.26.08-.43-.11-.45-.39s0-.29,0-.43q0-1.06,0-2.11H96.63c0,.63,0,1.24,0,1.85a2.63,2.63,0,0,1,0,.77.57.57,0,0,1-.42.31c-.12,0-.27-.2-.36-.34s0-.23,0-.34c0-.75,0-1.5,0-2.24H94.36c0,.92,0,1.81,0,2.68a1.78,1.78,0,0,0,1.75,1.68c.87,0,1.74,0,2.61,0a1.68,1.68,0,0,0,1.68-1.38c.1-1,0-2,0-3Zm4.06,22.55c0-.45,0-.86,0-1.26s-.12-.48-.49-.48c-3.49,0-7,0-10.46,0a1.11,1.11,0,0,0-.3,0c-.07,0-.17.1-.17.15,0,.52,0,1,0,1.56ZM91.71,87.8c0,.45,0,.82,0,1.2s.1.55.53.54c2.42,0,4.85,0,7.27,0,1.07,0,2.15,0,3.22,0,.31,0,.42-.1.41-.4a5.35,5.35,0,0,1,0-.87c0-.4-.12-.48-.49-.48-3.48,0-7,0-10.45,0Zm11.4-2.53H91.74v1.66h11.38Zm-1.37,6h-8.6c.5.52,1,1,1.46,1.55a1,1,0,0,0,.8.33c1.2,0,2.41,0,3.61,0a1.69,1.69,0,0,0,1.51-.62C100.89,92.14,101.32,91.75,101.75,91.31ZM96.67,57V60.9h1.51V57ZM97.8,68.39h0c0-.33,0-.67,0-1s-.13-.35-.39-.36-.38.09-.37.37q0,1,0,1.91c0,.3.08.4.39.41s.38-.15.37-.43S97.8,68.69,97.8,68.39Z"/>
          <path class="cls-2" d="M99.08,75.31c0,.86,0,1.71,0,2.57a.93.93,0,0,1,0,.43.58.58,0,0,1-.36.29.6.6,0,0,1-.4-.24.66.66,0,0,1-.06-.38q0-2.61,0-5.22c0-.1,0-.2,0-.3,0-.29.15-.47.46-.45s.38.23.38.49q0,1.2,0,2.39,0,.22,0,.44Z"/>
          <path class="cls-2" d="M96.63,75.35c0,.87,0,1.74,0,2.61a.72.72,0,0,1-.07.42.6.6,0,0,1-.42.22c-.12,0-.25-.16-.33-.28a.68.68,0,0,1,0-.34q0-2.7,0-5.4c0-.43.19-.65.5-.58s.35.31.35.57q0,1.39,0,2.79Z"/>
        </g>
        <g>
          <path class="cls-2" d="M269.78,63a3.52,3.52,0,0,1-1.49,1.45,5,5,0,0,1-2.37.52,4.37,4.37,0,0,1-3.21-1.11,4,4,0,0,1-1.12-3V53h2.23v7.74a2.8,2.8,0,0,0,.52,1.84,2,2,0,0,0,1.58.61,2,2,0,0,0,1.6-.61,2.8,2.8,0,0,0,.52-1.84V53h2.25v7.86A4.35,4.35,0,0,1,269.78,63Z"/>
          <path class="cls-2" d="M279.9,56.74a6.24,6.24,0,0,1,.82,3.47,6.8,6.8,0,0,1-.41,2.46,3.74,3.74,0,0,1-1.22,1.68,3.06,3.06,0,0,1-1.9.61,2.79,2.79,0,0,1-2.25-1v4.18l-2.16.24V55.76h1.89l.12,1.1a3.34,3.34,0,0,1,1.19-1,3.12,3.12,0,0,1,1.39-.34A2.82,2.82,0,0,1,279.9,56.74Zm-1.45,3.48a4.86,4.86,0,0,0-.43-2.38,1.41,1.41,0,0,0-1.29-.72,1.68,1.68,0,0,0-1,.33,2.93,2.93,0,0,0-.8.89v4a1.9,1.9,0,0,0,1.64.93Q278.46,63.3,278.46,60.23Z"/>
          <path class="cls-2" d="M291.14,64.79A4.25,4.25,0,0,1,290,65a2.66,2.66,0,0,1-2-.75,3.09,3.09,0,0,1-.68-2.17V57.32h-1.4V55.76h1.4v-2l2.16-.25v2.23h2.08l-.22,1.56h-1.86V62a1.53,1.53,0,0,0,.23.95.86.86,0,0,0,.72.29,2.07,2.07,0,0,0,1.07-.34l.76,1.4A3.45,3.45,0,0,1,291.14,64.79Z"/>
          <path class="cls-2" d="M300,56.77a5.06,5.06,0,0,1,1.11,3.46,5.74,5.74,0,0,1-.51,2.48,3.85,3.85,0,0,1-1.45,1.67,4.16,4.16,0,0,1-2.25.59,3.92,3.92,0,0,1-3.09-1.26,5.06,5.06,0,0,1-1.12-3.47,5.67,5.67,0,0,1,.51-2.47,3.84,3.84,0,0,1,1.46-1.66,4.2,4.2,0,0,1,2.26-.59A3.9,3.9,0,0,1,300,56.77Zm-5,3.46a4.44,4.44,0,0,0,.48,2.34,1.76,1.76,0,0,0,2.89,0,4.44,4.44,0,0,0,.48-2.33,4.39,4.39,0,0,0-.48-2.32,1.59,1.59,0,0,0-1.43-.75Q295,57.15,295,60.23Z"/>
          <path class="cls-2" d="M309.92,64.71v-9.2L307.38,57l-.95-1.45,3.7-2.27h1.91V64.71Z"/>
          <path class="cls-2" d="M321.87,67.32a5.21,5.21,0,0,1-3,1.07l-.22-1.57a5.42,5.42,0,0,0,1.41-.38,2.28,2.28,0,0,0,.85-.65,4.38,4.38,0,0,0,.59-1.08h-.74l-2.84-8.94h2.3l1.94,7.51,2-7.51h2.23l-2.91,9A5.49,5.49,0,0,1,321.87,67.32Z"/>
          <path class="cls-2" d="M334.77,60.9h-5.61a2.93,2.93,0,0,0,.68,1.86,2.07,2.07,0,0,0,1.51.56,3.18,3.18,0,0,0,1.12-.19,5.22,5.22,0,0,0,1.12-.6l.9,1.23a5.15,5.15,0,0,1-3.31,1.2A4,4,0,0,1,328,63.71a5,5,0,0,1-1.11-3.42,6.11,6.11,0,0,1,.47-2.46,3.9,3.9,0,0,1,1.37-1.71,4.08,4.08,0,0,1,5,.58,4.92,4.92,0,0,1,1,3.32C334.82,60.14,334.81,60.43,334.77,60.9Zm-2.1-1.5q0-2.35-1.74-2.35a1.48,1.48,0,0,0-1.24.58,3.47,3.47,0,0,0-.53,1.87h3.52Z"/>
          <path class="cls-2" d="M343.59,63.11a1,1,0,0,0,.52.38l-.46,1.44a2.84,2.84,0,0,1-1.24-.36,1.85,1.85,0,0,1-.74-.94,2.86,2.86,0,0,1-1.14,1A3.48,3.48,0,0,1,339,65a2.89,2.89,0,0,1-2.11-.76,2.66,2.66,0,0,1-.78-2A2.58,2.58,0,0,1,337.17,60a5.07,5.07,0,0,1,3-.77h1.12v-.51a1.54,1.54,0,0,0-.4-1.21,1.92,1.92,0,0,0-1.28-.35,7.55,7.55,0,0,0-2.37.47l-.51-1.47a9,9,0,0,1,3.25-.64q3.43,0,3.43,3.08v3.75A1.43,1.43,0,0,0,343.59,63.11Zm-2.29-.82V60.48h-.9q-2.1,0-2.1,1.56a1.44,1.44,0,0,0,.32,1,1.21,1.21,0,0,0,.95.35A1.91,1.91,0,0,0,341.3,62.29Z"/>
          <path class="cls-2" d="M351.36,55.65l-.37,2.1a3.28,3.28,0,0,0-.79-.1,1.52,1.52,0,0,0-1.25.57,4.39,4.39,0,0,0-.73,1.75v4.75H346V55.76h1.88l.2,1.76a3.22,3.22,0,0,1,.93-1.48,2.11,2.11,0,0,1,1.4-.52A3.19,3.19,0,0,1,351.36,55.65Z"/>
          <path class="cls-2" d="M362.25,55.65l-.37,2.1a3.29,3.29,0,0,0-.79-.1,1.52,1.52,0,0,0-1.25.57A4.36,4.36,0,0,0,359.1,60v4.75h-2.16V55.76h1.88l.2,1.76a3.21,3.21,0,0,1,.93-1.48,2.1,2.1,0,0,1,1.4-.52A3.19,3.19,0,0,1,362.25,55.65Z"/>
          <path class="cls-2" d="M370,63.11a1,1,0,0,0,.52.38l-.46,1.44a2.84,2.84,0,0,1-1.24-.36,1.85,1.85,0,0,1-.74-.94,2.86,2.86,0,0,1-1.14,1,3.48,3.48,0,0,1-1.53.33,2.89,2.89,0,0,1-2.11-.76,2.66,2.66,0,0,1-.78-2A2.58,2.58,0,0,1,363.61,60a5.07,5.07,0,0,1,3-.77h1.12v-.51a1.54,1.54,0,0,0-.4-1.21,1.92,1.92,0,0,0-1.28-.35,7.55,7.55,0,0,0-2.37.47l-.51-1.47a9,9,0,0,1,3.25-.64q3.43,0,3.43,3.08v3.75A1.43,1.43,0,0,0,370,63.11Zm-2.29-.82V60.48h-.9q-2.1,0-2.1,1.56a1.44,1.44,0,0,0,.32,1,1.21,1.21,0,0,0,.95.35A1.91,1.91,0,0,0,367.74,62.29Z"/>
          <path class="cls-2" d="M376.56,64.79a4.25,4.25,0,0,1-1.19.17,2.66,2.66,0,0,1-2-.75,3.09,3.09,0,0,1-.68-2.17V57.32h-1.4V55.76h1.4v-2l2.16-.25v2.23h2.08l-.22,1.56h-1.86V62a1.53,1.53,0,0,0,.23.95.86.86,0,0,0,.72.29,2.07,2.07,0,0,0,1.07-.34l.76,1.4A3.45,3.45,0,0,1,376.56,64.79Z"/>
          <path class="cls-2" d="M385.95,60.9h-5.61a2.93,2.93,0,0,0,.68,1.86,2.06,2.06,0,0,0,1.51.56,3.18,3.18,0,0,0,1.12-.19,5.21,5.21,0,0,0,1.12-.6l.9,1.23a5.15,5.15,0,0,1-3.31,1.2,4,4,0,0,1-3.15-1.25,5,5,0,0,1-1.11-3.42,6.12,6.12,0,0,1,.47-2.46,3.9,3.9,0,0,1,1.37-1.71,4.08,4.08,0,0,1,5,.58A4.92,4.92,0,0,1,386,60C386,60.14,386,60.43,385.95,60.9Zm-2.1-1.5q0-2.35-1.74-2.35a1.48,1.48,0,0,0-1.24.58,3.48,3.48,0,0,0-.53,1.87h3.52Z"/>
          <path class="cls-2" d="M395.52,64.71h-1.91l-.15-1.13a3.15,3.15,0,0,1-1.06,1,2.92,2.92,0,0,1-1.49.37,2.88,2.88,0,0,1-2.52-1.27,6,6,0,0,1-.88-3.45,6.45,6.45,0,0,1,.44-2.46,3.79,3.79,0,0,1,1.26-1.67,3.19,3.19,0,0,1,1.94-.6,3,3,0,0,1,2.21,1V51.94l2.16.24Zm-3-1.67a2.88,2.88,0,0,0,.83-.87V58.08a2.82,2.82,0,0,0-.78-.71,1.77,1.77,0,0,0-.91-.24,1.56,1.56,0,0,0-1.38.77,4.34,4.34,0,0,0-.5,2.32,4.77,4.77,0,0,0,.44,2.38,1.41,1.41,0,0,0,1.29.72A1.85,1.85,0,0,0,392.53,63Z"/>
          <path class="cls-2" d="M404.4,51.61a1.27,1.27,0,0,1,.38.94,1.25,1.25,0,0,1-.38.93,1.35,1.35,0,0,1-1,.37,1.33,1.33,0,0,1-1-.37,1.25,1.25,0,0,1-.38-.93,1.27,1.27,0,0,1,.38-.94,1.32,1.32,0,0,1,1-.38A1.34,1.34,0,0,1,404.4,51.61Zm-2.05,13.09V55.76h2.16v8.94Z"/>
          <path class="cls-2" d="M413.75,56.23a2.83,2.83,0,0,1,.67,2v6.48h-2.16V58.57a1.71,1.71,0,0,0-.28-1.12,1,1,0,0,0-.82-.32,1.6,1.6,0,0,0-1,.35,4,4,0,0,0-.87,1v6.22h-2.16V55.76H409l.17,1.18a3.34,3.34,0,0,1,2.72-1.44A2.42,2.42,0,0,1,413.75,56.23Z"/>
          <path class="cls-2" d="M423.36,63.06a.45.45,0,0,0,.39.16,1.59,1.59,0,0,0,.51-.08l.46,1.52a3.94,3.94,0,0,1-1.54.3,2,2,0,0,1-1.56-.58,2.42,2.42,0,0,1-.54-1.7V52.18l2.16-.24V62.53A.92.92,0,0,0,423.36,63.06Z"/>
          <path class="cls-2" d="M428.21,51.61a1.27,1.27,0,0,1,.38.94,1.25,1.25,0,0,1-.38.93,1.35,1.35,0,0,1-1,.37,1.33,1.33,0,0,1-1-.37,1.25,1.25,0,0,1-.38-.93,1.27,1.27,0,0,1,.38-.94,1.32,1.32,0,0,1,1-.38A1.34,1.34,0,0,1,428.21,51.61Zm-2.05,13.09V55.76h2.16v8.94Z"/>
          <path class="cls-2" d="M433.62,53.88a1.34,1.34,0,0,0-.28.94v.95h2.15l-.24,1.56h-1.91v7.39h-2.16V57.32h-1.45V55.76h1.45v-1a2.71,2.71,0,0,1,.82-2.05,3.23,3.23,0,0,1,2.33-.79,5.47,5.47,0,0,1,2.32.52L436,53.92a3.45,3.45,0,0,0-1.47-.34A1.23,1.23,0,0,0,433.62,53.88Z"/>
          <path class="cls-2" d="M443.91,60.9h-5.61a2.93,2.93,0,0,0,.68,1.86,2.07,2.07,0,0,0,1.51.56,3.18,3.18,0,0,0,1.12-.19,5.22,5.22,0,0,0,1.12-.6l.9,1.23A5.15,5.15,0,0,1,440.3,65a4,4,0,0,1-3.15-1.25A5,5,0,0,1,436,60.3a6.11,6.11,0,0,1,.47-2.46,3.9,3.9,0,0,1,1.37-1.71,4.08,4.08,0,0,1,5,.58A4.92,4.92,0,0,1,444,60C444,60.14,443.94,60.43,443.91,60.9Zm-2.1-1.5q0-2.35-1.74-2.35a1.48,1.48,0,0,0-1.24.58,3.47,3.47,0,0,0-.53,1.87h3.52Z"/>
          <path class="cls-2" d="M451.19,57.76l-1.57,1.15-1.22-2.2-1.2,2.2-1.57-1.13,1.71-1.84-2.47-.47.59-1.79,2.28,1-.32-2.54h2l-.32,2.55,2.27-1.08.61,1.81-2.47.47Z"/>
          <path class="cls-2" d="M267.26,81.87A5.46,5.46,0,0,1,269,83l-1.13,1.29a4.32,4.32,0,0,0-1.23-.77,3.67,3.67,0,0,0-1.35-.25,2.17,2.17,0,0,0-1.31.36,1.19,1.19,0,0,0-.5,1,1.28,1.28,0,0,0,.19.73,1.82,1.82,0,0,0,.7.54,10.29,10.29,0,0,0,1.5.56,6.84,6.84,0,0,1,2.6,1.34,3,3,0,0,1,.87,2.34,3.31,3.31,0,0,1-.53,1.86,3.53,3.53,0,0,1-1.53,1.27,5.64,5.64,0,0,1-2.37.46,6.28,6.28,0,0,1-2.39-.43,5.58,5.58,0,0,1-1.82-1.17l1.18-1.32a4.23,4.23,0,0,0,3,1.2,2.48,2.48,0,0,0,1.55-.46,1.53,1.53,0,0,0,.59-1.29,1.57,1.57,0,0,0-.2-.84,1.76,1.76,0,0,0-.69-.59,8.47,8.47,0,0,0-1.42-.55A6.66,6.66,0,0,1,262,86.87a2.85,2.85,0,0,1-.83-2.13,2.88,2.88,0,0,1,.51-1.69,3.34,3.34,0,0,1,1.41-1.13,5,5,0,0,1,2.05-.41A5.92,5.92,0,0,1,267.26,81.87Z"/>
          <path class="cls-2" d="M277.92,91.85a1,1,0,0,0,.52.38L278,93.67a2.84,2.84,0,0,1-1.24-.36,1.85,1.85,0,0,1-.74-.94,2.86,2.86,0,0,1-1.14,1,3.48,3.48,0,0,1-1.53.33,2.89,2.89,0,0,1-2.11-.76,2.66,2.66,0,0,1-.78-2,2.58,2.58,0,0,1,1.06-2.22,5.07,5.07,0,0,1,3-.77h1.12v-.51a1.54,1.54,0,0,0-.4-1.21,1.92,1.92,0,0,0-1.28-.35,7.55,7.55,0,0,0-2.37.47l-.51-1.47a9,9,0,0,1,3.25-.64q3.43,0,3.43,3.08v3.75A1.43,1.43,0,0,0,277.92,91.85ZM275.63,91V89.22h-.9q-2.1,0-2.1,1.56a1.44,1.44,0,0,0,.32,1,1.21,1.21,0,0,0,.95.35A1.91,1.91,0,0,0,275.63,91Z"/>
          <path class="cls-2" d="M281.84,93.45l-3-8.94h2.35l1.91,7.2,2-7.2h2.23l-2.91,8.94Z"/>
          <path class="cls-2" d="M295.79,89.65h-5.61a2.93,2.93,0,0,0,.69,1.86,2.06,2.06,0,0,0,1.51.56,3.18,3.18,0,0,0,1.12-.19,5.19,5.19,0,0,0,1.12-.6l.9,1.23a5.15,5.15,0,0,1-3.31,1.2A4,4,0,0,1,289,92.45,5,5,0,0,1,287.92,89a6.14,6.14,0,0,1,.47-2.46,3.91,3.91,0,0,1,1.37-1.71,4.08,4.08,0,0,1,5,.58,4.92,4.92,0,0,1,1,3.32Q295.84,88.94,295.79,89.65Zm-2.1-1.5q0-2.35-1.74-2.35a1.48,1.48,0,0,0-1.24.58,3.48,3.48,0,0,0-.53,1.87h3.52Z"/>
          <path class="cls-2" d="M307.33,93.45l-.12-1.25a3.32,3.32,0,0,1-1.16,1.13,3.2,3.2,0,0,1-1.58.37,2.34,2.34,0,0,1-1.85-.74,3,3,0,0,1-.65-2V84.51h2.16v6.15a1.73,1.73,0,0,0,.26,1.08,1,1,0,0,0,.84.32A2.18,2.18,0,0,0,307,90.8V84.51h2.16v8.94Z"/>
          <path class="cls-2" d="M318.94,85.49a6.23,6.23,0,0,1,.82,3.47,6.82,6.82,0,0,1-.41,2.46,3.75,3.75,0,0,1-1.22,1.68,3.06,3.06,0,0,1-1.9.61,2.79,2.79,0,0,1-2.25-1V96.9l-2.16.24V84.51h1.89l.12,1.1a3.33,3.33,0,0,1,1.19-1,3.12,3.12,0,0,1,1.39-.34A2.82,2.82,0,0,1,318.94,85.49ZM317.49,89a4.86,4.86,0,0,0-.43-2.38,1.41,1.41,0,0,0-1.29-.72,1.68,1.68,0,0,0-1,.33,3,3,0,0,0-.8.89v4a1.9,1.9,0,0,0,1.64.93Q317.49,92,317.49,89Z"/>
          <path class="cls-2" d="M330.18,93.53a4.26,4.26,0,0,1-1.19.17,2.66,2.66,0,0,1-2-.75,3.09,3.09,0,0,1-.68-2.17V86.06h-1.4V84.51h1.4v-2l2.16-.25v2.23h2.08l-.22,1.56h-1.86v4.67a1.53,1.53,0,0,0,.23.95.86.86,0,0,0,.72.29,2.06,2.06,0,0,0,1.07-.34l.76,1.4A3.45,3.45,0,0,1,330.18,93.53Z"/>
          <path class="cls-2" d="M339,85.51A5.06,5.06,0,0,1,340.13,89a5.74,5.74,0,0,1-.51,2.48,3.85,3.85,0,0,1-1.45,1.67,4.16,4.16,0,0,1-2.25.59,3.92,3.92,0,0,1-3.09-1.26A5.06,5.06,0,0,1,331.71,89a5.67,5.67,0,0,1,.51-2.47,3.83,3.83,0,0,1,1.46-1.66,4.2,4.2,0,0,1,2.26-.59A3.9,3.9,0,0,1,339,85.51ZM334,89a4.45,4.45,0,0,0,.48,2.34,1.76,1.76,0,0,0,2.89,0,4.45,4.45,0,0,0,.48-2.33,4.4,4.4,0,0,0-.48-2.32,1.59,1.59,0,0,0-1.43-.75Q334,85.89,334,89Z"/>
          <path class="cls-2" d="M351,82.29a3,3,0,0,1,1.72,2.77,4.34,4.34,0,0,1-.41,1.85,8.52,8.52,0,0,1-1.38,2q-1,1.08-2.82,2.86H353l-.24,1.71h-7.08V91.86q2.17-2.2,3.1-3.25a9.88,9.88,0,0,0,1.34-1.81,3.32,3.32,0,0,0,.4-1.56,1.53,1.53,0,0,0-1.64-1.66,2.28,2.28,0,0,0-1.15.28,4,4,0,0,0-1,.92l-1.34-1A4.46,4.46,0,0,1,349,81.87,4.36,4.36,0,0,1,351,82.29Z"/>
          <path class="cls-2" d="M356.82,83.68V86.5a3.82,3.82,0,0,1,1.72-.42,3.26,3.26,0,0,1,1.69.44,3,3,0,0,1,1.16,1.27,4.34,4.34,0,0,1,.41,2,4,4,0,0,1-.52,2.06,3.6,3.6,0,0,1-1.49,1.4,4.79,4.79,0,0,1-2.23.5,4.62,4.62,0,0,1-2-.41A5.1,5.1,0,0,1,354,92.1l1.25-1.17a2.91,2.91,0,0,0,2.28,1.1,2,2,0,0,0,1.51-.59,2.39,2.39,0,0,0,.55-1.69q0-2.11-1.83-2.11a2.75,2.75,0,0,0-.73.09,4.15,4.15,0,0,0-.74.3h-1.54v-6h6.59l-.25,1.61Z"/>
          <path class="cls-2" d="M367.42,82.23a2.63,2.63,0,0,1,1,1,3.37,3.37,0,0,1,0,3.11,2.63,2.63,0,0,1-1,1,3,3,0,0,1-1.47.36,2.94,2.94,0,0,1-1.46-.36,2.65,2.65,0,0,1-1-1,3.37,3.37,0,0,1,0-3.11,2.66,2.66,0,0,1,1-1,3,3,0,0,1,1.46-.36A3,3,0,0,1,367.42,82.23ZM365,83.67A2.52,2.52,0,0,0,365,86a1,1,0,0,0,.94.46q1.22,0,1.22-1.61t-1.22-1.61A1,1,0,0,0,365,83.67Zm1.36,10.39-1.39-.9,7.83-11.82,1.4.9Zm8.32-5.91a2.58,2.58,0,0,1,1,1,3.43,3.43,0,0,1,0,3.11,2.58,2.58,0,0,1-1,1,3.16,3.16,0,0,1-2.94,0,2.63,2.63,0,0,1-1-1,3.37,3.37,0,0,1,0-3.11,2.63,2.63,0,0,1,1-1,3.15,3.15,0,0,1,2.94,0Zm-2.41,1.44a2.52,2.52,0,0,0,0,2.31,1,1,0,0,0,.94.46q1.22,0,1.22-1.61t-1.22-1.61A1,1,0,0,0,372.28,89.59Z"/>
          <path class="cls-2" d="M389,91.85a1,1,0,0,0,.52.38l-.46,1.44a2.84,2.84,0,0,1-1.24-.36,1.85,1.85,0,0,1-.74-.94,2.88,2.88,0,0,1-1.14,1,3.49,3.49,0,0,1-1.53.33,2.89,2.89,0,0,1-2.11-.76,2.67,2.67,0,0,1-.78-2,2.58,2.58,0,0,1,1.06-2.22,5.07,5.07,0,0,1,3-.77h1.12v-.51a1.54,1.54,0,0,0-.4-1.21,1.92,1.92,0,0,0-1.28-.35,7.56,7.56,0,0,0-2.37.47l-.51-1.47a9,9,0,0,1,3.25-.64q3.43,0,3.43,3.08v3.75A1.43,1.43,0,0,0,389,91.85ZM386.73,91V89.22h-.9q-2.1,0-2.1,1.56a1.43,1.43,0,0,0,.32,1,1.21,1.21,0,0,0,.95.35A1.91,1.91,0,0,0,386.73,91Z"/>
          <path class="cls-2" d="M398.39,96.06a5.21,5.21,0,0,1-3,1.07l-.22-1.57a5.42,5.42,0,0,0,1.41-.38,2.29,2.29,0,0,0,.85-.65,4.44,4.44,0,0,0,.59-1.08h-.74l-2.84-8.94h2.3L398.68,92l2-7.51h2.23l-2.91,9A5.5,5.5,0,0,1,398.39,96.06Z"/>
          <path class="cls-2" d="M411.29,89.65h-5.61a2.93,2.93,0,0,0,.68,1.86,2.06,2.06,0,0,0,1.51.56,3.18,3.18,0,0,0,1.12-.19,5.21,5.21,0,0,0,1.12-.6l.9,1.23a5.15,5.15,0,0,1-3.31,1.2,4,4,0,0,1-3.15-1.25A5,5,0,0,1,403.43,89a6.12,6.12,0,0,1,.47-2.46,3.9,3.9,0,0,1,1.37-1.71,4.08,4.08,0,0,1,5,.58,4.92,4.92,0,0,1,1,3.32C411.34,88.88,411.33,89.17,411.29,89.65Zm-2.1-1.5q0-2.35-1.74-2.35a1.48,1.48,0,0,0-1.24.58,3.48,3.48,0,0,0-.53,1.87h3.52Z"/>
          <path class="cls-2" d="M420.11,91.85a1,1,0,0,0,.52.38l-.46,1.44a2.85,2.85,0,0,1-1.24-.36,1.85,1.85,0,0,1-.73-.94,2.87,2.87,0,0,1-1.14,1,3.48,3.48,0,0,1-1.53.33,2.89,2.89,0,0,1-2.11-.76,2.67,2.67,0,0,1-.78-2,2.58,2.58,0,0,1,1.06-2.22,5.07,5.07,0,0,1,3-.77h1.12v-.51a1.55,1.55,0,0,0-.4-1.21,1.93,1.93,0,0,0-1.28-.35,7.56,7.56,0,0,0-2.37.47l-.51-1.47a9,9,0,0,1,3.25-.64q3.43,0,3.43,3.08v3.75A1.43,1.43,0,0,0,420.11,91.85ZM417.82,91V89.22h-.9q-2.1,0-2.1,1.56a1.44,1.44,0,0,0,.32,1,1.21,1.21,0,0,0,.95.35A1.91,1.91,0,0,0,417.82,91Z"/>
          <path class="cls-2" d="M427.88,84.39l-.37,2.1a3.27,3.27,0,0,0-.79-.1,1.52,1.52,0,0,0-1.25.57,4.38,4.38,0,0,0-.73,1.75v4.75h-2.16V84.51h1.88l.2,1.76a3.23,3.23,0,0,1,.93-1.48,2.11,2.11,0,0,1,1.4-.52A3.2,3.2,0,0,1,427.88,84.39Z"/>
          <path class="cls-2" d="M435.51,80.36a1.27,1.27,0,0,1,.38.94,1.25,1.25,0,0,1-.38.93,1.36,1.36,0,0,1-1,.37,1.33,1.33,0,0,1-1-.37,1.25,1.25,0,0,1-.38-.93,1.27,1.27,0,0,1,.38-.94,1.31,1.31,0,0,1,1-.38A1.34,1.34,0,0,1,435.51,80.36Zm-2.05,13.09V84.51h2.16v8.94Z"/>
          <path class="cls-2" d="M444.86,85a2.84,2.84,0,0,1,.67,2v6.48h-2.16V87.31a1.72,1.72,0,0,0-.28-1.12,1,1,0,0,0-.82-.32,1.61,1.61,0,0,0-1,.35,4,4,0,0,0-.87,1v6.22h-2.16V84.51h1.88l.17,1.18A3.34,3.34,0,0,1,443,84.25,2.43,2.43,0,0,1,444.86,85Z"/>
          <path class="cls-2" d="M459.56,89.65h-5.61a2.93,2.93,0,0,0,.69,1.86,2.06,2.06,0,0,0,1.51.56,3.18,3.18,0,0,0,1.12-.19,5.19,5.19,0,0,0,1.12-.6l.9,1.23A5.15,5.15,0,0,1,456,93.7a4,4,0,0,1-3.15-1.25A5,5,0,0,1,451.7,89a6.14,6.14,0,0,1,.47-2.46,3.91,3.91,0,0,1,1.37-1.71,4.08,4.08,0,0,1,5,.58,4.92,4.92,0,0,1,1,3.32Q459.61,88.94,459.56,89.65Zm-2.1-1.5q0-2.35-1.74-2.35a1.48,1.48,0,0,0-1.24.58,3.48,3.48,0,0,0-.53,1.87h3.52Z"/>
          <path class="cls-2" d="M468.24,85a2.83,2.83,0,0,1,.67,2v6.48h-2.16V87.31a1.71,1.71,0,0,0-.28-1.12,1,1,0,0,0-.82-.32,1.6,1.6,0,0,0-1,.35,4,4,0,0,0-.87,1v6.22h-2.16V84.51h1.88l.17,1.18a3.34,3.34,0,0,1,2.72-1.44A2.42,2.42,0,0,1,468.24,85Z"/>
          <path class="cls-2" d="M478.72,89.65H473.1a2.93,2.93,0,0,0,.68,1.86,2.07,2.07,0,0,0,1.51.56,3.18,3.18,0,0,0,1.12-.19,5.22,5.22,0,0,0,1.12-.6l.9,1.23a5.15,5.15,0,0,1-3.31,1.2A4,4,0,0,1,472,92.45,5,5,0,0,1,470.85,89a6.11,6.11,0,0,1,.47-2.46,3.9,3.9,0,0,1,1.37-1.71,4.08,4.08,0,0,1,5,.58,4.92,4.92,0,0,1,1,3.32C478.77,88.88,478.75,89.17,478.72,89.65Zm-2.1-1.5q0-2.35-1.74-2.35a1.48,1.48,0,0,0-1.24.58,3.47,3.47,0,0,0-.53,1.87h3.52Z"/>
          <path class="cls-2" d="M486.07,84.39l-.37,2.1a3.29,3.29,0,0,0-.79-.1,1.52,1.52,0,0,0-1.25.57,4.38,4.38,0,0,0-.73,1.75v4.75h-2.16V84.51h1.88l.2,1.76a3.2,3.2,0,0,1,.93-1.48,2.11,2.11,0,0,1,1.4-.52A3.18,3.18,0,0,1,486.07,84.39Z"/>
          <path class="cls-2" d="M492.61,85.28a3,3,0,0,1,1.23.92,2.3,2.3,0,0,1,.4,1.38,2.82,2.82,0,0,1-.43,1.56,2.92,2.92,0,0,1-1.25,1.07,4.44,4.44,0,0,1-1.92.39,3.76,3.76,0,0,1-1.06-.14.77.77,0,0,0-.37.66q0,.63,1.08.63h1.37a4.25,4.25,0,0,1,1.71.32,2.63,2.63,0,0,1,1.14.9,2.24,2.24,0,0,1,.41,1.31,2.38,2.38,0,0,1-1.15,2.1,6.07,6.07,0,0,1-3.31.75,7.43,7.43,0,0,1-2.44-.32,2.34,2.34,0,0,1-1.26-.93,2.94,2.94,0,0,1-.37-1.56h1.94a1.35,1.35,0,0,0,.18.74,1.1,1.1,0,0,0,.64.41,5.09,5.09,0,0,0,1.34.14,3.61,3.61,0,0,0,1.74-.3,1,1,0,0,0,.51-.88.91.91,0,0,0-.39-.79,1.93,1.93,0,0,0-1.13-.28h-1.35a3.12,3.12,0,0,1-1.91-.49,1.49,1.49,0,0,1-.64-1.23,1.68,1.68,0,0,1,.28-.91,2.36,2.36,0,0,1,.77-.74,3,3,0,0,1-1.19-1,2.77,2.77,0,0,1-.38-1.48,3,3,0,0,1,.47-1.69,3.12,3.12,0,0,1,1.31-1.12,4.42,4.42,0,0,1,1.92-.4,8,8,0,0,0,2.29-.21,9.57,9.57,0,0,0,1.89-.79L495.2,85A8.27,8.27,0,0,1,492.61,85.28Zm-3.24.9a1.8,1.8,0,0,0-.41,1.24,1.85,1.85,0,0,0,.42,1.29,1.71,1.71,0,0,0,2.35,0,1.93,1.93,0,0,0,.41-1.31q0-1.69-1.62-1.69A1.45,1.45,0,0,0,489.38,86.19Z"/>
          <path class="cls-2" d="M499.19,96.06a5.21,5.21,0,0,1-3,1.07L496,95.56a5.44,5.44,0,0,0,1.41-.38,2.28,2.28,0,0,0,.85-.65,4.38,4.38,0,0,0,.59-1.08h-.74l-2.84-8.94h2.3L499.48,92l2-7.51h2.23l-2.91,9A5.5,5.5,0,0,1,499.19,96.06Z"/>
          <path class="cls-2" d="M514.47,84.51a4.23,4.23,0,0,1,1.33.79l-1,1.32a3.44,3.44,0,0,0-.86-.5A2.6,2.6,0,0,0,513,86q-2,0-2,3.06a3.74,3.74,0,0,0,.52,2.24,1.76,1.76,0,0,0,1.49.68,2.34,2.34,0,0,0,.89-.16,4,4,0,0,0,.89-.53l1,1.42a4.46,4.46,0,0,1-2.89,1,4.26,4.26,0,0,1-2.23-.57,3.71,3.71,0,0,1-1.45-1.61,5.6,5.6,0,0,1-.51-2.47,5.88,5.88,0,0,1,.51-2.51,3.88,3.88,0,0,1,1.45-1.69,4,4,0,0,1,2.21-.6A4.62,4.62,0,0,1,514.47,84.51Z"/>
          <path class="cls-2" d="M523.93,85.51A5.06,5.06,0,0,1,525,89a5.74,5.74,0,0,1-.51,2.48,3.85,3.85,0,0,1-1.45,1.67,4.16,4.16,0,0,1-2.25.59,3.92,3.92,0,0,1-3.09-1.26A5.06,5.06,0,0,1,516.62,89a5.67,5.67,0,0,1,.51-2.47,3.83,3.83,0,0,1,1.46-1.66,4.2,4.2,0,0,1,2.26-.59A3.9,3.9,0,0,1,523.93,85.51Zm-5,3.46a4.45,4.45,0,0,0,.48,2.34,1.76,1.76,0,0,0,2.89,0,4.45,4.45,0,0,0,.48-2.33,4.4,4.4,0,0,0-.48-2.32,1.59,1.59,0,0,0-1.43-.75Q518.9,85.89,518.9,89Z"/>
          <path class="cls-2" d="M533.07,85.32l-.84,1.3a3.9,3.9,0,0,0-2.2-.76,1.86,1.86,0,0,0-1,.25.75.75,0,0,0-.36.65.82.82,0,0,0,.15.51,1.38,1.38,0,0,0,.55.38,9.22,9.22,0,0,0,1.18.4,5.16,5.16,0,0,1,2.16,1,2.31,2.31,0,0,1,.7,1.79A2.41,2.41,0,0,1,532.28,93a4.61,4.61,0,0,1-2.69.75,5.69,5.69,0,0,1-2-.34,4.86,4.86,0,0,1-1.56-.93l1.1-1.23a3.76,3.76,0,0,0,2.4.9,2.1,2.1,0,0,0,1.17-.29.87.87,0,0,0,.44-.76,1.08,1.08,0,0,0-.16-.63,1.38,1.38,0,0,0-.58-.41,10.7,10.7,0,0,0-1.29-.44,4.32,4.32,0,0,1-2-1,2.31,2.31,0,0,1-.64-1.67,2.21,2.21,0,0,1,.43-1.34,2.86,2.86,0,0,1,1.22-.93,4.53,4.53,0,0,1,1.8-.34A5,5,0,0,1,533.07,85.32Z"/>
          <path class="cls-2" d="M539.18,93.53a4.26,4.26,0,0,1-1.19.17,2.65,2.65,0,0,1-2-.75,3.08,3.08,0,0,1-.69-2.17V86.06h-1.4V84.51h1.4v-2l2.16-.25v2.23h2.08l-.22,1.56h-1.86v4.67a1.53,1.53,0,0,0,.23.95.86.86,0,0,0,.72.29,2.06,2.06,0,0,0,1.07-.34l.76,1.4A3.46,3.46,0,0,1,539.18,93.53Z"/>
          <path class="cls-2" d="M547.46,85.32l-.84,1.3a3.9,3.9,0,0,0-2.2-.76,1.85,1.85,0,0,0-1,.25.75.75,0,0,0-.36.65.83.83,0,0,0,.15.51,1.38,1.38,0,0,0,.55.38,9.2,9.2,0,0,0,1.17.4,5.15,5.15,0,0,1,2.16,1,2.3,2.3,0,0,1,.7,1.79A2.4,2.4,0,0,1,546.67,93a4.6,4.6,0,0,1-2.69.75,5.7,5.7,0,0,1-2-.34,4.87,4.87,0,0,1-1.56-.93l1.1-1.23a3.76,3.76,0,0,0,2.4.9,2.1,2.1,0,0,0,1.17-.29.87.87,0,0,0,.44-.76,1.08,1.08,0,0,0-.16-.63,1.37,1.37,0,0,0-.58-.41,10.62,10.62,0,0,0-1.29-.44,4.31,4.31,0,0,1-2-1,2.31,2.31,0,0,1-.64-1.67,2.21,2.21,0,0,1,.43-1.34,2.86,2.86,0,0,1,1.22-.93,4.53,4.53,0,0,1,1.8-.34A5,5,0,0,1,547.46,85.32Z"/>
          <path class="cls-2" d="M554.75,86.5l-1.57,1.15L552,85.45l-1.2,2.2-1.57-1.13,1.71-1.84-2.47-.47.59-1.79,2.28,1L551,80.92h2l-.32,2.55,2.27-1.08.61,1.81-2.47.47Z"/>
          <path class="cls-2" d="M562.25,86.5l-1.57,1.15-1.22-2.2-1.2,2.2-1.57-1.13,1.71-1.84-2.47-.47.59-1.79,2.28,1-.32-2.54h2l-.32,2.55,2.27-1.08L563,84.2l-2.47.47Z"/>
        </g>
      </g>
    </g>
  </g>
</svg>
