<svg xmlns="http://www.w3.org/2000/svg" xmlns:xlink="http://www.w3.org/1999/xlink" viewBox="0 0 639.86 471.89">
  <defs>
    <style>
      .cls-1 {
        fill: url(#linear-gradient);
      }

      .cls-2 {
        fill: #fff;
      }

      .cls-3, .cls-4 {
        fill: none;
        stroke: #fff;
        stroke-miterlimit: 10;
      }

      .cls-3 {
        stroke-width: 1.5px;
      }

      .cls-4 {
        opacity: 0.51;
      }
    </style>
    <linearGradient id="linear-gradient" x1="15.98" y1="192.95" x2="693.9" y2="288.85" gradientUnits="userSpaceOnUse">
      <stop offset="0" stop-color="#0265bf"/>
      <stop offset="0.07" stop-color="#0262b9"/>
      <stop offset="0.42" stop-color="#0254a0"/>
      <stop offset="0.74" stop-color="#024c90"/>
      <stop offset="0.99" stop-color="#02498b"/>
    </linearGradient>
  </defs>
  <title>tile1_2</title>
  <g id="Layer_2" data-name="Layer 2">
    <g id="Layer_1-2" data-name="Layer 1">
      <g>
        <rect class="cls-1" width="639.86" height="471.89"/>
        <path class="cls-2" d="M112.35,344.23c0-2.46,0-4.92,0-7.38a.92.92,0,0,0-.69-1,6.65,6.65,0,0,1-4.26-6.38,35.8,35.8,0,0,0-4.85-17c-2.83-5.1-5.88-10.07-9-15a43.53,43.53,0,0,1-7-24.88C87,256,97.74,240.4,113.24,234.5s30.14-3.72,43.12,6.77a40.59,40.59,0,0,1,15,27.51c1.33,10.74-1.35,20.48-7.18,29.53-3.28,5.09-6.34,10.33-9.21,15.66a34.39,34.39,0,0,0-4.13,15.93,6.31,6.31,0,0,1-4.09,5.87,1.18,1.18,0,0,0-.82,1.31c0,4.49,0,9,0,13.48a9.45,9.45,0,0,1-3.13,7.26c-2.07,2-4.19,3.88-6.12,6-3.6,3.92-11.63,3.92-15.23,0-1.94-2.13-4.11-4-6.19-6a9.2,9.2,0,0,1-3-7c0-2.16,0-4.33,0-6.5ZM165.63,271a35.78,35.78,0,0,0-19-29.2c-13-6.81-25.91-6.18-38.1,1.94C98.94,250.1,93.81,259.4,92.59,271ZM133,330.42c0-.23.09-.39.1-.55,0-.39.07-.79.07-1.18a120.34,120.34,0,0,1,2.56-22.83c1.55-8,3.65-15.84,4.07-24,.08-1.62.16-3.24.24-4.88h-8.89v53.44Zm-14.63-53.47a2.55,2.55,0,0,0-.07.48c.27,3.46.32,7,.86,10.38.87,5.49,2,10.94,3.12,16.4a126.28,126.28,0,0,1,2.88,24.37c0,.61.08,1.22.12,1.85h1.88V276.95Zm-12.86,0a2.4,2.4,0,0,0-.05.43,51.21,51.21,0,0,0,3.49,15.85c1.94,4.76,4,9.48,5.81,14.28a62.53,62.53,0,0,1,4.09,16c.19,1.85.27,3.72.37,5.59.07,1.31.09,1.36,1.43,1.33a3.83,3.83,0,0,0,.51-.08c0-2,.09-4,0-5.94a149,149,0,0,0-3.57-23.67,116.9,116.9,0,0,1-2.92-18.61c-.09-1.73-.2-3.45-.31-5.21Zm31.69,53.41c1.8.28,1.78.22,1.92-1.58.23-3,.41-6,.91-8.88,1.17-6.85,3.69-13.3,6.41-19.65,2.56-6,5.2-12,6-18.53.18-1.58.33-3.15.5-4.76H144c-.05.68-.12,1.3-.14,1.92a94.4,94.4,0,0,1-1.94,16.37c-2,9.55-4.19,19.07-4.69,28.86C137.11,326.2,137.21,328.29,137.21,330.38ZM157,277c-.51,3.3-.91,6.49-1.51,9.64-1,5-3.09,9.65-5.07,14.32-2.82,6.64-5.55,13.32-6.69,20.49-.47,3-.63,6-.93,8.93,1.72.27,2.2,0,2.21-1.09a38.75,38.75,0,0,1,4.69-17.9c2.94-5.52,6.21-10.86,9.49-16.18A41.09,41.09,0,0,0,165,281.8c.32-1.58.53-3.18.8-4.85Zm-41.7,53.42a51.42,51.42,0,0,0-2-14.9,130.55,130.55,0,0,0-6.33-16.81,60,60,0,0,1-4.74-15.34c-.3-2.1-.51-4.21-.77-6.35H92.65a7.33,7.33,0,0,0,0,.75A37.74,37.74,0,0,0,98,293.39c3.46,5.68,7,11.32,10.19,17.15a39.78,39.78,0,0,1,5.07,18.3C113.33,330.38,113.62,330.62,115.31,330.37ZM142,336.46h-25.7v3.77H142Zm0,5.85H116.25l0,3.8H142Zm0,5.83H116.34v3.76H142ZM138.87,356H119.49c1.27,1.34,2.53,2.7,3.83,4a1.25,1.25,0,0,0,.81.21q5,0,10,0a1.27,1.27,0,0,0,.82-.2C136.29,358.67,137.56,357.32,138.87,356Z"/>
        <g>
          <path class="cls-2" d="M70.52,46.36a.72.72,0,0,1,.76-.76h9.66a.72.72,0,0,1,.76.76V86.89a.4.4,0,0,0,.46.46H105a.72.72,0,0,1,.76.76v8.44a.72.72,0,0,1-.76.76H71.28a.72.72,0,0,1-.76-.76Z"/>
          <path class="cls-2" d="M112.35,46.36a.72.72,0,0,1,.76-.76h33.16a.72.72,0,0,1,.76.76V54.5a.72.72,0,0,1-.76.76H124a.4.4,0,0,0-.46.46V66a.4.4,0,0,0,.46.46h18.56a.72.72,0,0,1,.76.76v8.06a.72.72,0,0,1-.76.76H124a.4.4,0,0,0-.46.46V87.2a.4.4,0,0,0,.46.46h22.28a.72.72,0,0,1,.76.76v8.14a.72.72,0,0,1-.76.76H113.11a.72.72,0,0,1-.76-.76Z"/>
          <path class="cls-2" d="M155.32,46.36a.72.72,0,0,1,.76-.76h19.24c9,0,15.36,3.88,17.87,11.64.91,2.89,1.37,5.78,1.37,14.22s-.46,11.33-1.37,14.22c-2.51,7.76-8.82,11.64-17.87,11.64H156.08a.72.72,0,0,1-.76-.76Zm11.64,41h5.86c5.17,0,8.29-1.52,9.58-5.7.53-1.52.84-3.5.84-10.19s-.3-8.67-.84-10.19c-1.29-4.18-4.41-5.7-9.58-5.7H167a.4.4,0,0,0-.46.46V86.89A.4.4,0,0,0,167,87.35Z"/>
        </g>
        <g>
          <path class="cls-2" d="M293.71,270.44l-.91,3.38h-2.89l4.54-14.6h3.44l4.52,14.6h-3l-.91-3.38Zm2.41-9.08-1.86,7H298Z"/>
          <path class="cls-2" d="M305.22,273.81l-3.7-11.18h2.94l2.39,9,2.45-9h2.79l-3.63,11.18Z"/>
          <path class="cls-2" d="M322.65,269.06h-7a3.66,3.66,0,0,0,.86,2.32,2.58,2.58,0,0,0,1.89.7,4,4,0,0,0,1.39-.24,6.51,6.51,0,0,0,1.39-.75l1.12,1.54a6.43,6.43,0,0,1-4.14,1.5,5,5,0,0,1-3.94-1.56,6.21,6.21,0,0,1-1.38-4.27,7.64,7.64,0,0,1,.59-3.07,4.87,4.87,0,0,1,1.71-2.13,5.09,5.09,0,0,1,6.3.72,6.14,6.14,0,0,1,1.29,4.15Q322.71,268.18,322.65,269.06ZM320,267.18q0-2.94-2.18-2.94a1.85,1.85,0,0,0-1.55.73,4.34,4.34,0,0,0-.67,2.33H320Z"/>
          <path class="cls-2" d="M331.84,262.49l-.46,2.62a4.08,4.08,0,0,0-1-.13,1.9,1.9,0,0,0-1.56.71,5.47,5.47,0,0,0-.91,2.19v5.94h-2.7V262.64h2.35l.25,2.2A4,4,0,0,1,329,263a2.63,2.63,0,0,1,1.75-.64A4,4,0,0,1,331.84,262.49Z"/>
          <path class="cls-2" d="M341.57,271.82a1.28,1.28,0,0,0,.64.48l-.57,1.8a3.54,3.54,0,0,1-1.55-.45,2.31,2.31,0,0,1-.92-1.17,3.58,3.58,0,0,1-1.43,1.26,4.35,4.35,0,0,1-1.91.41,3.61,3.61,0,0,1-2.64-1,3.33,3.33,0,0,1-1-2.49,3.22,3.22,0,0,1,1.32-2.78,6.33,6.33,0,0,1,3.77-1h1.39v-.63a1.93,1.93,0,0,0-.5-1.51,2.4,2.4,0,0,0-1.6-.43,9.43,9.43,0,0,0-3,.59l-.63-1.84a11.3,11.3,0,0,1,4.06-.8q4.29,0,4.29,3.84v4.69A1.79,1.79,0,0,0,341.57,271.82Zm-2.86-1v-2.26h-1.12q-2.62,0-2.62,1.94a1.79,1.79,0,0,0,.4,1.25,1.51,1.51,0,0,0,1.18.44A2.39,2.39,0,0,0,338.71,270.79Z"/>
          <path class="cls-2" d="M351.13,263.61a3.71,3.71,0,0,1,1.53,1.15,2.87,2.87,0,0,1,.5,1.72,3.54,3.54,0,0,1-.54,1.94,3.65,3.65,0,0,1-1.56,1.33,5.54,5.54,0,0,1-2.4.49,4.7,4.7,0,0,1-1.33-.17,1,1,0,0,0-.46.82q0,.78,1.35.78h1.71a5.33,5.33,0,0,1,2.14.4,3.3,3.3,0,0,1,1.43,1.13,2.8,2.8,0,0,1,.51,1.64,3,3,0,0,1-1.44,2.63,7.57,7.57,0,0,1-4.14.94,9.28,9.28,0,0,1-3.05-.4,2.92,2.92,0,0,1-1.57-1.16,3.67,3.67,0,0,1-.46-1.94h2.43a1.68,1.68,0,0,0,.22.93,1.37,1.37,0,0,0,.8.51,6.38,6.38,0,0,0,1.68.17,4.5,4.5,0,0,0,2.18-.38,1.21,1.21,0,0,0,.63-1.1,1.14,1.14,0,0,0-.49-1,2.41,2.41,0,0,0-1.42-.35h-1.69a3.89,3.89,0,0,1-2.39-.61,1.87,1.87,0,0,1-.8-1.54,2.1,2.1,0,0,1,.35-1.14,3,3,0,0,1,1-.93,3.69,3.69,0,0,1-1.49-1.3,3.45,3.45,0,0,1-.48-1.85,3.78,3.78,0,0,1,.59-2.11,3.9,3.9,0,0,1,1.64-1.4,5.53,5.53,0,0,1,2.4-.5,10,10,0,0,0,2.86-.26,11.94,11.94,0,0,0,2.36-1l.68,2.15A10.33,10.33,0,0,1,351.13,263.61Zm-4,1.13a2.25,2.25,0,0,0-.52,1.55,2.32,2.32,0,0,0,.53,1.61,2.13,2.13,0,0,0,2.94,0,2.41,2.41,0,0,0,.51-1.64q0-2.11-2-2.11A1.81,1.81,0,0,0,347.08,264.74Z"/>
          <path class="cls-2" d="M364.77,269.06h-7a3.66,3.66,0,0,0,.86,2.32,2.58,2.58,0,0,0,1.89.7,4,4,0,0,0,1.39-.24,6.51,6.51,0,0,0,1.39-.75l1.12,1.54a6.43,6.43,0,0,1-4.14,1.5,5,5,0,0,1-3.94-1.56A6.21,6.21,0,0,1,355,268.3a7.64,7.64,0,0,1,.59-3.07,4.87,4.87,0,0,1,1.71-2.13,5.09,5.09,0,0,1,6.3.72,6.14,6.14,0,0,1,1.29,4.15Q364.84,268.18,364.77,269.06Zm-2.62-1.88q0-2.94-2.18-2.94a1.85,1.85,0,0,0-1.55.73,4.34,4.34,0,0,0-.67,2.33h4.39Z"/>
          <path class="cls-2" d="M375.82,273.81V262.32l-3.17,1.92-1.18-1.82,4.63-2.83h2.39v14.22Z"/>
          <path class="cls-2" d="M387.9,259.87a3.76,3.76,0,0,1,2.14,3.46,5.4,5.4,0,0,1-.52,2.31,10.61,10.61,0,0,1-1.72,2.46q-1.2,1.35-3.53,3.57h6.08l-.3,2.13h-8.85v-2q2.7-2.75,3.88-4.07a12.25,12.25,0,0,0,1.67-2.26,4.14,4.14,0,0,0,.5-2,1.91,1.91,0,0,0-2-2.07,2.85,2.85,0,0,0-1.44.35,5,5,0,0,0-1.29,1.15l-1.67-1.31a5.57,5.57,0,0,1,4.61-2.32A5.45,5.45,0,0,1,387.9,259.87Z"/>
          <path class="cls-2" d="M398.68,266.13v2.15H392.3v-2.15Z"/>
          <path class="cls-2" d="M406.74,259.87a3.76,3.76,0,0,1,2.14,3.46,5.4,5.4,0,0,1-.52,2.31,10.61,10.61,0,0,1-1.72,2.46q-1.2,1.35-3.53,3.57h6.08l-.3,2.13h-8.85v-2q2.7-2.75,3.88-4.07a12.25,12.25,0,0,0,1.67-2.26,4.14,4.14,0,0,0,.5-2,1.91,1.91,0,0,0-2-2.07,2.85,2.85,0,0,0-1.44.35,5,5,0,0,0-1.29,1.15l-1.67-1.31a5.57,5.57,0,0,1,4.61-2.32A5.45,5.45,0,0,1,406.74,259.87Z"/>
          <path class="cls-2" d="M417.39,259.83a3.56,3.56,0,0,1,1.54,1.31,3.34,3.34,0,0,1,.52,1.82,3.16,3.16,0,0,1-.74,2.14,3.9,3.9,0,0,1-2,1.19,3.68,3.68,0,0,1,2.32,1,3.27,3.27,0,0,1,.91,2.45,4.09,4.09,0,0,1-.62,2.22,4.34,4.34,0,0,1-1.79,1.57,6.07,6.07,0,0,1-2.75.58,5.65,5.65,0,0,1-4.61-2l1.54-1.46a4.21,4.21,0,0,0,1.35,1.06,3.62,3.62,0,0,0,1.56.34,2.56,2.56,0,0,0,1.83-.64,2.27,2.27,0,0,0,.69-1.74,2.15,2.15,0,0,0-.64-1.75,3,3,0,0,0-1.91-.53h-1.12l.32-1.92h.76a2.36,2.36,0,0,0,1.66-.57,2,2,0,0,0,.62-1.58,1.71,1.71,0,0,0-.57-1.36,2.23,2.23,0,0,0-1.52-.5,3.6,3.6,0,0,0-1.5.31,5,5,0,0,0-1.35.94l-1.37-1.5a6.29,6.29,0,0,1,4.46-1.82A5.65,5.65,0,0,1,417.39,259.83Z"/>
          <path class="cls-2" d="M431.08,277.08a6.52,6.52,0,0,1-3.76,1.34l-.27-2a6.79,6.79,0,0,0,1.76-.48,2.86,2.86,0,0,0,1.07-.81,5.44,5.44,0,0,0,.74-1.35h-.93l-3.55-11.18H429l2.43,9.38,2.53-9.38h2.79l-3.63,11.22A6.86,6.86,0,0,1,431.08,277.08Z"/>
          <path class="cls-2" d="M447.2,269.06h-7a3.66,3.66,0,0,0,.86,2.32,2.58,2.58,0,0,0,1.89.7,4,4,0,0,0,1.39-.24,6.51,6.51,0,0,0,1.39-.75l1.12,1.54a6.43,6.43,0,0,1-4.14,1.5,5,5,0,0,1-3.94-1.56,6.21,6.21,0,0,1-1.38-4.27,7.64,7.64,0,0,1,.59-3.07,4.87,4.87,0,0,1,1.71-2.13,5.09,5.09,0,0,1,6.3.72,6.14,6.14,0,0,1,1.29,4.15Q447.27,268.18,447.2,269.06Zm-2.62-1.88q0-2.94-2.18-2.94a1.85,1.85,0,0,0-1.55.73,4.34,4.34,0,0,0-.67,2.33h4.39Z"/>
          <path class="cls-2" d="M458.22,271.82a1.28,1.28,0,0,0,.64.48l-.57,1.8a3.54,3.54,0,0,1-1.55-.45,2.31,2.31,0,0,1-.92-1.17,3.58,3.58,0,0,1-1.43,1.26,4.35,4.35,0,0,1-1.91.41,3.61,3.61,0,0,1-2.64-1,3.33,3.33,0,0,1-1-2.49,3.22,3.22,0,0,1,1.32-2.78,6.33,6.33,0,0,1,3.77-1h1.39v-.63a1.93,1.93,0,0,0-.5-1.51,2.4,2.4,0,0,0-1.6-.43,9.43,9.43,0,0,0-3,.59l-.63-1.84a11.3,11.3,0,0,1,4.06-.8q4.29,0,4.29,3.84v4.69A1.79,1.79,0,0,0,458.22,271.82Zm-2.86-1v-2.26h-1.12q-2.62,0-2.62,1.94a1.79,1.79,0,0,0,.4,1.25,1.51,1.51,0,0,0,1.18.44A2.39,2.39,0,0,0,455.36,270.79Z"/>
          <path class="cls-2" d="M467.93,262.49l-.46,2.62a4.08,4.08,0,0,0-1-.13,1.9,1.9,0,0,0-1.56.71,5.47,5.47,0,0,0-.91,2.19v5.94h-2.7V262.64h2.35l.25,2.2a4,4,0,0,1,1.16-1.85,2.63,2.63,0,0,1,1.75-.64A4,4,0,0,1,467.93,262.49Z"/>
          <path class="cls-2" d="M481.53,262.49l-.46,2.62a4.08,4.08,0,0,0-1-.13,1.9,1.9,0,0,0-1.56.71,5.47,5.47,0,0,0-.91,2.19v5.94h-2.7V262.64h2.35l.25,2.2a4,4,0,0,1,1.16-1.85,2.63,2.63,0,0,1,1.75-.64A4,4,0,0,1,481.53,262.49Z"/>
          <path class="cls-2" d="M491.26,271.82a1.28,1.28,0,0,0,.64.48l-.57,1.8a3.54,3.54,0,0,1-1.55-.45,2.31,2.31,0,0,1-.92-1.17,3.58,3.58,0,0,1-1.43,1.26,4.35,4.35,0,0,1-1.91.41,3.61,3.61,0,0,1-2.64-1,3.33,3.33,0,0,1-1-2.49,3.22,3.22,0,0,1,1.32-2.78,6.33,6.33,0,0,1,3.77-1h1.39v-.63a1.93,1.93,0,0,0-.5-1.51,2.4,2.4,0,0,0-1.6-.43,9.43,9.43,0,0,0-3,.59l-.63-1.84a11.3,11.3,0,0,1,4.06-.8q4.29,0,4.29,3.84v4.69A1.79,1.79,0,0,0,491.26,271.82Zm-2.86-1v-2.26h-1.12q-2.62,0-2.62,1.94a1.79,1.79,0,0,0,.4,1.25,1.51,1.51,0,0,0,1.18.44A2.39,2.39,0,0,0,488.4,270.79Z"/>
          <path class="cls-2" d="M499.41,273.92a5.33,5.33,0,0,1-1.49.21,3.32,3.32,0,0,1-2.5-.94,3.85,3.85,0,0,1-.86-2.71v-5.89h-1.75v-1.94h1.75v-2.47l2.7-.32v2.79h2.6l-.27,1.94h-2.32v5.83a1.92,1.92,0,0,0,.29,1.18,1.08,1.08,0,0,0,.9.36,2.57,2.57,0,0,0,1.33-.42l1,1.75A4.31,4.31,0,0,1,499.41,273.92Z"/>
          <path class="cls-2" d="M511.15,269.06h-7a3.66,3.66,0,0,0,.86,2.32,2.58,2.58,0,0,0,1.89.7,4,4,0,0,0,1.39-.24,6.51,6.51,0,0,0,1.39-.75l1.12,1.54a6.43,6.43,0,0,1-4.14,1.5,5,5,0,0,1-3.94-1.56,6.21,6.21,0,0,1-1.38-4.27,7.64,7.64,0,0,1,.59-3.07,4.87,4.87,0,0,1,1.71-2.13,5.09,5.09,0,0,1,6.3.72,6.14,6.14,0,0,1,1.29,4.15Q511.21,268.18,511.15,269.06Zm-2.62-1.88q0-2.94-2.18-2.94a1.85,1.85,0,0,0-1.55.73,4.34,4.34,0,0,0-.67,2.33h4.39Z"/>
          <path class="cls-2" d="M523.1,273.81h-2.39l-.19-1.42a3.94,3.94,0,0,1-1.33,1.27,3.65,3.65,0,0,1-1.86.46,3.6,3.6,0,0,1-3.15-1.58,7.45,7.45,0,0,1-1.1-4.31,8.05,8.05,0,0,1,.55-3.07,4.74,4.74,0,0,1,1.57-2.09,4,4,0,0,1,2.42-.75,3.72,3.72,0,0,1,2.77,1.2v-5.66l2.7.3Zm-3.74-2.08a3.59,3.59,0,0,0,1-1.09v-5.11a3.54,3.54,0,0,0-1-.89,2.23,2.23,0,0,0-1.14-.3,2,2,0,0,0-1.72,1,5.41,5.41,0,0,0-.62,2.9,6,6,0,0,0,.55,3,1.77,1.77,0,0,0,1.61.9A2.32,2.32,0,0,0,519.36,271.73Z"/>
          <path class="cls-2" d="M534.39,271.76a.56.56,0,0,0,.49.2,2,2,0,0,0,.63-.11l.57,1.9a4.93,4.93,0,0,1-1.92.38,2.52,2.52,0,0,1-1.94-.73,3,3,0,0,1-.68-2.12V258.16l2.7-.3v13.22A1.15,1.15,0,0,0,534.39,271.76Z"/>
          <path class="cls-2" d="M540.44,257.45a1.59,1.59,0,0,1,.48,1.17,1.56,1.56,0,0,1-.48,1.16,1.69,1.69,0,0,1-1.24.46,1.67,1.67,0,0,1-1.21-.46,1.56,1.56,0,0,1-.48-1.16,1.59,1.59,0,0,1,.48-1.17,1.64,1.64,0,0,1,1.21-.48A1.67,1.67,0,0,1,540.44,257.45Zm-2.57,16.36V262.64h2.7v11.18Z"/>
          <path class="cls-2" d="M547.2,260.28a1.67,1.67,0,0,0-.35,1.17v1.18h2.68l-.3,1.94h-2.39v9.23h-2.7v-9.23h-1.82v-1.94h1.82v-1.23a3.39,3.39,0,0,1,1-2.57,4,4,0,0,1,2.9-1,6.83,6.83,0,0,1,2.89.65l-.78,1.82a4.32,4.32,0,0,0-1.84-.42A1.53,1.53,0,0,0,547.2,260.28Z"/>
          <path class="cls-2" d="M560.05,269.06h-7a3.66,3.66,0,0,0,.86,2.32,2.58,2.58,0,0,0,1.89.7,4,4,0,0,0,1.39-.24,6.51,6.51,0,0,0,1.39-.75l1.12,1.54a6.43,6.43,0,0,1-4.14,1.5,5,5,0,0,1-3.94-1.56,6.21,6.21,0,0,1-1.38-4.27,7.64,7.64,0,0,1,.59-3.07,4.87,4.87,0,0,1,1.71-2.13,5.09,5.09,0,0,1,6.3.72,6.14,6.14,0,0,1,1.29,4.15Q560.11,268.18,560.05,269.06Zm-2.62-1.88q0-2.94-2.18-2.94a1.85,1.85,0,0,0-1.55.73,4.34,4.34,0,0,0-.67,2.33h4.39Z"/>
          <path class="cls-2" d="M569.16,265.13l-2,1.44-1.52-2.75-1.5,2.75-2-1.42,2.13-2.3-3.08-.59L562,260l2.85,1.31-.4-3.17h2.45l-.4,3.19,2.83-1.35.76,2.26-3.08.59Z"/>
          <path class="cls-2" d="M298.61,295.26a6.82,6.82,0,0,1,2.13,1.35l-1.42,1.61a5.4,5.4,0,0,0-1.54-1,4.59,4.59,0,0,0-1.69-.31,2.72,2.72,0,0,0-1.64.45,1.49,1.49,0,0,0-.62,1.28,1.58,1.58,0,0,0,.24.91,2.25,2.25,0,0,0,.88.68,12.84,12.84,0,0,0,1.88.7,8.54,8.54,0,0,1,3.24,1.68,3.78,3.78,0,0,1,1.09,2.93,4.14,4.14,0,0,1-.67,2.32,4.42,4.42,0,0,1-1.91,1.58,7.06,7.06,0,0,1-3,.57,7.86,7.86,0,0,1-3-.54,7,7,0,0,1-2.27-1.47l1.48-1.65a5.28,5.28,0,0,0,3.72,1.5,3.1,3.1,0,0,0,1.94-.57,1.91,1.91,0,0,0,.74-1.61,2,2,0,0,0-.25-1,2.2,2.2,0,0,0-.87-.74,10.6,10.6,0,0,0-1.77-.69,8.32,8.32,0,0,1-3.36-1.73,3.56,3.56,0,0,1-1-2.66,3.6,3.6,0,0,1,.63-2.11,4.17,4.17,0,0,1,1.76-1.42,6.21,6.21,0,0,1,2.57-.51A7.38,7.38,0,0,1,298.61,295.26Z"/>
          <path class="cls-2" d="M311.93,307.73a1.28,1.28,0,0,0,.64.48L312,310a3.54,3.54,0,0,1-1.55-.45,2.31,2.31,0,0,1-.92-1.17,3.58,3.58,0,0,1-1.43,1.26,4.35,4.35,0,0,1-1.91.41,3.61,3.61,0,0,1-2.64-1,3.33,3.33,0,0,1-1-2.49,3.22,3.22,0,0,1,1.32-2.78,6.33,6.33,0,0,1,3.77-1h1.39v-.63a1.93,1.93,0,0,0-.5-1.51,2.4,2.4,0,0,0-1.6-.43,9.43,9.43,0,0,0-3,.59l-.63-1.84a11.3,11.3,0,0,1,4.06-.8q4.29,0,4.29,3.84v4.69A1.79,1.79,0,0,0,311.93,307.73Zm-2.86-1v-2.26h-1.12q-2.62,0-2.62,1.94a1.79,1.79,0,0,0,.4,1.25,1.51,1.51,0,0,0,1.18.44A2.39,2.39,0,0,0,309.07,306.71Z"/>
          <path class="cls-2" d="M316.82,309.73l-3.7-11.18h2.94l2.39,9,2.45-9h2.79l-3.63,11.18Z"/>
          <path class="cls-2" d="M334.25,305h-7a3.66,3.66,0,0,0,.86,2.32,2.58,2.58,0,0,0,1.89.7,4,4,0,0,0,1.39-.24,6.51,6.51,0,0,0,1.39-.75l1.12,1.54a6.43,6.43,0,0,1-4.14,1.5,5,5,0,0,1-3.94-1.56,6.21,6.21,0,0,1-1.38-4.27,7.64,7.64,0,0,1,.59-3.07,4.87,4.87,0,0,1,1.71-2.13,5.09,5.09,0,0,1,6.3.72,6.14,6.14,0,0,1,1.29,4.15Q334.31,304.09,334.25,305Zm-2.62-1.88q0-2.94-2.18-2.94a1.85,1.85,0,0,0-1.55.73,4.34,4.34,0,0,0-.67,2.33h4.39Z"/>
          <path class="cls-2" d="M348.68,309.73l-.15-1.56a4.13,4.13,0,0,1-1.45,1.42,4,4,0,0,1-2,.46,2.92,2.92,0,0,1-2.31-.92,3.71,3.71,0,0,1-.81-2.55v-8h2.7v7.69a2.16,2.16,0,0,0,.33,1.35,1.27,1.27,0,0,0,1,.4,2.73,2.73,0,0,0,2.26-1.58v-7.86H351v11.18Z"/>
          <path class="cls-2" d="M363.18,299.78a7.78,7.78,0,0,1,1,4.33,8.49,8.49,0,0,1-.52,3.07,4.67,4.67,0,0,1-1.52,2.1,3.82,3.82,0,0,1-2.38.76,3.49,3.49,0,0,1-2.81-1.23V314l-2.7.3V298.55h2.37l.15,1.37a4.16,4.16,0,0,1,1.49-1.27,3.9,3.9,0,0,1,1.74-.42A3.53,3.53,0,0,1,363.18,299.78Zm-1.81,4.35a6.07,6.07,0,0,0-.54-3,1.76,1.76,0,0,0-1.62-.9,2.1,2.1,0,0,0-1.24.41,3.66,3.66,0,0,0-1,1.11v5a2.37,2.37,0,0,0,2,1.16Q361.37,308,361.37,304.13Z"/>
          <path class="cls-2" d="M377.23,309.83a5.33,5.33,0,0,1-1.49.21,3.32,3.32,0,0,1-2.5-.94,3.85,3.85,0,0,1-.86-2.71V300.5h-1.75v-1.94h1.75v-2.47l2.7-.32v2.79h2.6l-.27,1.94h-2.32v5.83a1.92,1.92,0,0,0,.29,1.18,1.08,1.08,0,0,0,.9.36,2.57,2.57,0,0,0,1.33-.42l1,1.75A4.31,4.31,0,0,1,377.23,309.83Z"/>
          <path class="cls-2" d="M388.28,299.81a6.32,6.32,0,0,1,1.38,4.32,7.17,7.17,0,0,1-.63,3.09,4.81,4.81,0,0,1-1.82,2.08,5.19,5.19,0,0,1-2.81.74,4.9,4.9,0,0,1-3.87-1.57,6.32,6.32,0,0,1-1.39-4.34,7.1,7.1,0,0,1,.63-3.08A4.8,4.8,0,0,1,381.6,299a5.24,5.24,0,0,1,2.82-.74A4.86,4.86,0,0,1,388.28,299.81ZM382,304.13a5.55,5.55,0,0,0,.6,2.93,2.2,2.2,0,0,0,3.61,0,5.56,5.56,0,0,0,.6-2.92,5.5,5.5,0,0,0-.6-2.9,2,2,0,0,0-1.79-.94Q382,300.28,382,304.13Z"/>
          <path class="cls-2" d="M407.07,305.9a3.59,3.59,0,0,1-.65,2.1,4.46,4.46,0,0,1-1.85,1.49,6.58,6.58,0,0,1-2.78.55,6.42,6.42,0,0,1-2.73-.54,4.3,4.3,0,0,1-1.8-1.47,3.62,3.62,0,0,1-.63-2.09q0-2.45,2.7-3.59A3.68,3.68,0,0,1,397.2,299a3.27,3.27,0,0,1,.62-2,4,4,0,0,1,1.69-1.31,5.9,5.9,0,0,1,2.33-.45,6.27,6.27,0,0,1,2.34.42,3.84,3.84,0,0,1,1.68,1.25,3.17,3.17,0,0,1,.62,2q0,2-2.34,3.21Q407.07,303.41,407.07,305.9Zm-3.4,1.54a2,2,0,0,0,.65-1.54,2,2,0,0,0-.57-1.53,5.82,5.82,0,0,0-2-1.09l-.63-.21a2.94,2.94,0,0,0-1.73,2.79,2,2,0,0,0,.68,1.59,2.69,2.69,0,0,0,1.82.58A2.61,2.61,0,0,0,403.67,307.45Zm-3.31-9.8a2.05,2.05,0,0,0,0,2.74,4.51,4.51,0,0,0,1.63.9l.42.15a3.35,3.35,0,0,0,1.16-1.08,2.56,2.56,0,0,0,.34-1.33,1.78,1.78,0,0,0-.53-1.36,2.11,2.11,0,0,0-1.5-.5A2.14,2.14,0,0,0,400.36,297.64Z"/>
          <path class="cls-2" d="M417.66,297.16a9.66,9.66,0,0,1,1.3,5.47,9.76,9.76,0,0,1-1.3,5.5,4.72,4.72,0,0,1-7.58,0,9.76,9.76,0,0,1-1.3-5.5,9.66,9.66,0,0,1,1.3-5.47,4.73,4.73,0,0,1,7.58,0Zm-5.54,1.36a10.88,10.88,0,0,0-.55,4.11,11,11,0,0,0,.55,4.14,1.87,1.87,0,0,0,3.51,0,11.05,11.05,0,0,0,.55-4.15,10.88,10.88,0,0,0-.55-4.12,1.88,1.88,0,0,0-3.51,0Z"/>
          <path class="cls-2" d="M426.14,295.71a3.3,3.3,0,0,1,1.3,1.3,4.21,4.21,0,0,1,0,3.89,3.29,3.29,0,0,1-1.3,1.3,3.74,3.74,0,0,1-1.84.45,3.68,3.68,0,0,1-1.83-.45,3.31,3.31,0,0,1-1.29-1.3,4.21,4.21,0,0,1,0-3.89,3.32,3.32,0,0,1,1.29-1.3,3.68,3.68,0,0,1,1.83-.45A3.74,3.74,0,0,1,426.14,295.71Zm-3,1.8a3.16,3.16,0,0,0,0,2.88,1.26,1.26,0,0,0,1.17.57q1.52,0,1.52-2t-1.52-2A1.27,1.27,0,0,0,423.13,297.51Zm1.7,13-1.73-1.12,9.78-14.77,1.75,1.12Zm10.39-7.38a3.23,3.23,0,0,1,1.29,1.3,4.3,4.3,0,0,1,0,3.89,3.22,3.22,0,0,1-1.29,1.3,3.95,3.95,0,0,1-3.68,0,3.29,3.29,0,0,1-1.3-1.3,4.21,4.21,0,0,1,0-3.89,3.29,3.29,0,0,1,1.3-1.3,3.95,3.95,0,0,1,3.68,0Zm-3,1.8a3.16,3.16,0,0,0,0,2.88,1.27,1.27,0,0,0,1.17.57q1.52,0,1.52-2t-1.52-2A1.27,1.27,0,0,0,432.22,304.9Z"/>
          <path class="cls-2" d="M453.13,307.73a1.28,1.28,0,0,0,.64.48l-.57,1.8a3.54,3.54,0,0,1-1.55-.45,2.31,2.31,0,0,1-.92-1.17,3.58,3.58,0,0,1-1.43,1.26,4.35,4.35,0,0,1-1.91.41,3.61,3.61,0,0,1-2.64-1,3.33,3.33,0,0,1-1-2.49,3.22,3.22,0,0,1,1.32-2.78,6.33,6.33,0,0,1,3.77-1h1.39v-.63a1.93,1.93,0,0,0-.5-1.51,2.4,2.4,0,0,0-1.6-.43,9.43,9.43,0,0,0-3,.59l-.63-1.84a11.3,11.3,0,0,1,4.06-.8q4.29,0,4.29,3.84v4.69A1.79,1.79,0,0,0,453.13,307.73Zm-2.86-1v-2.26h-1.12q-2.62,0-2.62,1.94a1.79,1.79,0,0,0,.4,1.25,1.51,1.51,0,0,0,1.18.44A2.39,2.39,0,0,0,450.27,306.71Z"/>
          <path class="cls-2" d="M464.84,313a6.52,6.52,0,0,1-3.76,1.34l-.27-2a6.79,6.79,0,0,0,1.76-.48,2.86,2.86,0,0,0,1.07-.81,5.44,5.44,0,0,0,.74-1.35h-.93l-3.55-11.18h2.87l2.43,9.38,2.53-9.38h2.79l-3.63,11.22A6.86,6.86,0,0,1,464.84,313Z"/>
          <path class="cls-2" d="M481,305h-7a3.66,3.66,0,0,0,.86,2.32,2.58,2.58,0,0,0,1.89.7,4,4,0,0,0,1.39-.24,6.51,6.51,0,0,0,1.39-.75l1.12,1.54a6.43,6.43,0,0,1-4.14,1.5,5,5,0,0,1-3.94-1.56,6.21,6.21,0,0,1-1.38-4.27,7.64,7.64,0,0,1,.59-3.07,4.87,4.87,0,0,1,1.71-2.13,5.09,5.09,0,0,1,6.3.72,6.14,6.14,0,0,1,1.29,4.15Q481,304.09,481,305Zm-2.62-1.88q0-2.94-2.18-2.94a1.85,1.85,0,0,0-1.55.73,4.34,4.34,0,0,0-.67,2.33h4.39Z"/>
          <path class="cls-2" d="M492,307.73a1.28,1.28,0,0,0,.64.48l-.57,1.8a3.54,3.54,0,0,1-1.55-.45,2.31,2.31,0,0,1-.92-1.17,3.58,3.58,0,0,1-1.43,1.26,4.35,4.35,0,0,1-1.91.41,3.61,3.61,0,0,1-2.64-1,3.33,3.33,0,0,1-1-2.49,3.22,3.22,0,0,1,1.32-2.78,6.33,6.33,0,0,1,3.77-1h1.39v-.63a1.93,1.93,0,0,0-.5-1.51,2.4,2.4,0,0,0-1.6-.43,9.43,9.43,0,0,0-3,.59l-.63-1.84a11.3,11.3,0,0,1,4.06-.8q4.29,0,4.29,3.84v4.69A1.79,1.79,0,0,0,492,307.73Zm-2.86-1v-2.26H488q-2.62,0-2.62,1.94a1.79,1.79,0,0,0,.4,1.25,1.51,1.51,0,0,0,1.18.44A2.39,2.39,0,0,0,489.11,306.71Z"/>
          <path class="cls-2" d="M501.68,298.4l-.46,2.62a4.08,4.08,0,0,0-1-.13,1.9,1.9,0,0,0-1.56.71,5.47,5.47,0,0,0-.91,2.19v5.94h-2.7V298.55h2.35l.25,2.2a4,4,0,0,1,1.16-1.85,2.63,2.63,0,0,1,1.75-.64A4,4,0,0,1,501.68,298.4Z"/>
          <path class="cls-2" d="M511.22,293.37a1.59,1.59,0,0,1,.48,1.17,1.56,1.56,0,0,1-.48,1.16,1.69,1.69,0,0,1-1.24.46,1.67,1.67,0,0,1-1.21-.46,1.56,1.56,0,0,1-.48-1.16,1.59,1.59,0,0,1,.48-1.17,1.64,1.64,0,0,1,1.21-.48A1.67,1.67,0,0,1,511.22,293.37Zm-2.57,16.36V298.55h2.7v11.18Z"/>
          <path class="cls-2" d="M522.9,299.13a3.54,3.54,0,0,1,.83,2.5v8.09H521v-7.67a2.15,2.15,0,0,0-.35-1.39,1.28,1.28,0,0,0-1-.4,2,2,0,0,0-1.26.43,4.94,4.94,0,0,0-1.09,1.26v7.77h-2.7V298.55H517l.21,1.48a4.18,4.18,0,0,1,3.4-1.8A3,3,0,0,1,522.9,299.13Z"/>
          <path class="cls-2" d="M300.74,330.32h-7a3.66,3.66,0,0,0,.86,2.32,2.58,2.58,0,0,0,1.89.7,4,4,0,0,0,1.39-.24,6.51,6.51,0,0,0,1.39-.75l1.12,1.54a6.43,6.43,0,0,1-4.14,1.5,5,5,0,0,1-3.94-1.56,6.21,6.21,0,0,1-1.38-4.27,7.64,7.64,0,0,1,.59-3.07,4.87,4.87,0,0,1,1.71-2.13,5.09,5.09,0,0,1,6.3.72,6.14,6.14,0,0,1,1.29,4.15Q300.81,329.44,300.74,330.32Zm-2.62-1.88q0-2.94-2.18-2.94a1.85,1.85,0,0,0-1.55.73,4.34,4.34,0,0,0-.67,2.33h4.39Z"/>
          <path class="cls-2" d="M311.59,324.48a3.54,3.54,0,0,1,.83,2.5v8.09h-2.7v-7.67a2.15,2.15,0,0,0-.35-1.39,1.28,1.28,0,0,0-1-.4,2,2,0,0,0-1.26.43A4.94,4.94,0,0,0,306,327.3v7.77h-2.7V323.9h2.35l.21,1.48a4.18,4.18,0,0,1,3.4-1.8A3,3,0,0,1,311.59,324.48Z"/>
          <path class="cls-2" d="M324.68,330.32h-7a3.66,3.66,0,0,0,.86,2.32,2.58,2.58,0,0,0,1.89.7,4,4,0,0,0,1.39-.24,6.51,6.51,0,0,0,1.39-.75l1.12,1.54a6.43,6.43,0,0,1-4.14,1.5,5,5,0,0,1-3.94-1.56,6.21,6.21,0,0,1-1.38-4.27,7.64,7.64,0,0,1,.59-3.07,4.87,4.87,0,0,1,1.71-2.13,5.09,5.09,0,0,1,6.3.72,6.14,6.14,0,0,1,1.29,4.15Q324.74,329.44,324.68,330.32Zm-2.62-1.88q0-2.94-2.18-2.94a1.85,1.85,0,0,0-1.55.73,4.34,4.34,0,0,0-.67,2.33h4.39Z"/>
          <path class="cls-2" d="M333.87,323.75l-.46,2.62a4.08,4.08,0,0,0-1-.13,1.9,1.9,0,0,0-1.56.71,5.47,5.47,0,0,0-.91,2.19v5.94h-2.7V323.9h2.35l.25,2.2a4,4,0,0,1,1.16-1.85,2.63,2.63,0,0,1,1.75-.64A4,4,0,0,1,333.87,323.75Z"/>
          <path class="cls-2" d="M342,324.87a3.71,3.71,0,0,1,1.53,1.15,2.87,2.87,0,0,1,.5,1.72,3.54,3.54,0,0,1-.54,1.94A3.65,3.65,0,0,1,342,331a5.54,5.54,0,0,1-2.4.49,4.7,4.7,0,0,1-1.33-.17,1,1,0,0,0-.46.82q0,.78,1.35.78h1.71a5.33,5.33,0,0,1,2.14.4,3.3,3.3,0,0,1,1.43,1.13,2.8,2.8,0,0,1,.51,1.64,3,3,0,0,1-1.44,2.63,7.57,7.57,0,0,1-4.14.94,9.28,9.28,0,0,1-3.05-.4,2.92,2.92,0,0,1-1.57-1.16,3.67,3.67,0,0,1-.46-1.94h2.43a1.68,1.68,0,0,0,.22.93,1.37,1.37,0,0,0,.8.51,6.38,6.38,0,0,0,1.68.17,4.5,4.5,0,0,0,2.18-.38,1.21,1.21,0,0,0,.63-1.1,1.14,1.14,0,0,0-.49-1,2.41,2.41,0,0,0-1.42-.35H338.6a3.89,3.89,0,0,1-2.39-.61,1.87,1.87,0,0,1-.8-1.54,2.1,2.1,0,0,1,.35-1.14,3,3,0,0,1,1-.93,3.69,3.69,0,0,1-1.49-1.3,3.45,3.45,0,0,1-.48-1.85,3.78,3.78,0,0,1,.59-2.11,3.9,3.9,0,0,1,1.64-1.4,5.53,5.53,0,0,1,2.4-.5,10,10,0,0,0,2.86-.26,11.94,11.94,0,0,0,2.36-1l.68,2.15A10.33,10.33,0,0,1,342,324.87ZM338,326a2.25,2.25,0,0,0-.52,1.55,2.32,2.32,0,0,0,.53,1.61,2.13,2.13,0,0,0,2.94,0,2.41,2.41,0,0,0,.51-1.64q0-2.11-2-2.11A1.81,1.81,0,0,0,338,326Z"/>
          <path class="cls-2" d="M350.26,338.34a6.52,6.52,0,0,1-3.76,1.34l-.27-2a6.79,6.79,0,0,0,1.76-.48,2.86,2.86,0,0,0,1.07-.81,5.44,5.44,0,0,0,.74-1.35h-.93l-3.55-11.18h2.87l2.43,9.38,2.53-9.38h2.79l-3.63,11.22A6.86,6.86,0,0,1,350.26,338.34Z"/>
          <path class="cls-2" d="M369.35,323.9a5.28,5.28,0,0,1,1.66,1l-1.23,1.65a4.32,4.32,0,0,0-1.08-.62,3.25,3.25,0,0,0-1.16-.2q-2.51,0-2.51,3.82a4.66,4.66,0,0,0,.65,2.8,2.2,2.2,0,0,0,1.86.86,2.93,2.93,0,0,0,1.11-.2,5,5,0,0,0,1.11-.67l1.25,1.77a5.57,5.57,0,0,1-3.61,1.29,5.33,5.33,0,0,1-2.79-.71,4.64,4.64,0,0,1-1.82-2,7,7,0,0,1-.63-3.08,7.36,7.36,0,0,1,.63-3.14,4.86,4.86,0,0,1,1.82-2.11,5.06,5.06,0,0,1,2.77-.75A5.79,5.79,0,0,1,369.35,323.9Z"/>
          <path class="cls-2" d="M381.18,325.16a6.32,6.32,0,0,1,1.38,4.32,7.17,7.17,0,0,1-.63,3.09,4.81,4.81,0,0,1-1.82,2.08,5.19,5.19,0,0,1-2.81.74,4.9,4.9,0,0,1-3.87-1.57,6.32,6.32,0,0,1-1.39-4.34,7.1,7.1,0,0,1,.63-3.08,4.8,4.8,0,0,1,1.83-2.07,5.24,5.24,0,0,1,2.82-.74A4.86,4.86,0,0,1,381.18,325.16Zm-6.28,4.32a5.55,5.55,0,0,0,.6,2.93,2.2,2.2,0,0,0,3.61,0,5.56,5.56,0,0,0,.6-2.92,5.5,5.5,0,0,0-.6-2.9,2,2,0,0,0-1.79-.94Q374.89,325.63,374.89,329.48Z"/>
          <path class="cls-2" d="M392.59,324.92l-1.06,1.63a4.87,4.87,0,0,0-2.75-1,2.32,2.32,0,0,0-1.3.31.94.94,0,0,0-.45.81,1,1,0,0,0,.19.63,1.73,1.73,0,0,0,.69.48,11.46,11.46,0,0,0,1.47.5,6.44,6.44,0,0,1,2.69,1.29,2.88,2.88,0,0,1,.88,2.24,3,3,0,0,1-1.35,2.61,5.75,5.75,0,0,1-3.36.94,7.11,7.11,0,0,1-2.5-.42,6.07,6.07,0,0,1-2-1.16l1.37-1.54a4.7,4.7,0,0,0,3,1.12,2.63,2.63,0,0,0,1.46-.36,1.09,1.09,0,0,0,.55-1,1.36,1.36,0,0,0-.2-.79,1.73,1.73,0,0,0-.72-.52,13.34,13.34,0,0,0-1.62-.55,5.39,5.39,0,0,1-2.51-1.3,2.88,2.88,0,0,1-.8-2.08,2.76,2.76,0,0,1,.54-1.67,3.58,3.58,0,0,1,1.52-1.16,5.65,5.65,0,0,1,2.25-.42A6.29,6.29,0,0,1,392.59,324.92Z"/>
          <path class="cls-2" d="M400.23,335.18a5.33,5.33,0,0,1-1.49.21,3.32,3.32,0,0,1-2.5-.94,3.85,3.85,0,0,1-.86-2.71v-5.89h-1.75V323.9h1.75v-2.47l2.7-.32v2.79h2.6l-.27,1.94h-2.32v5.83a1.92,1.92,0,0,0,.29,1.18,1.08,1.08,0,0,0,.9.36,2.57,2.57,0,0,0,1.33-.42l1,1.75A4.31,4.31,0,0,1,400.23,335.18Z"/>
          <path class="cls-2" d="M410.57,324.92l-1.06,1.63a4.87,4.87,0,0,0-2.75-1,2.32,2.32,0,0,0-1.3.31.94.94,0,0,0-.45.81,1,1,0,0,0,.19.63,1.73,1.73,0,0,0,.69.48,11.46,11.46,0,0,0,1.47.5,6.44,6.44,0,0,1,2.69,1.29,2.88,2.88,0,0,1,.88,2.24,3,3,0,0,1-1.35,2.61,5.75,5.75,0,0,1-3.36.94,7.11,7.11,0,0,1-2.5-.42,6.07,6.07,0,0,1-2-1.16l1.37-1.54a4.7,4.7,0,0,0,3,1.12,2.63,2.63,0,0,0,1.46-.36,1.09,1.09,0,0,0,.55-1,1.36,1.36,0,0,0-.2-.79,1.73,1.73,0,0,0-.72-.52,13.34,13.34,0,0,0-1.62-.55,5.39,5.39,0,0,1-2.51-1.3,2.88,2.88,0,0,1-.8-2.08,2.76,2.76,0,0,1,.54-1.67,3.58,3.58,0,0,1,1.52-1.16,5.65,5.65,0,0,1,2.25-.42A6.29,6.29,0,0,1,410.57,324.92Z"/>
          <path class="cls-2" d="M419.68,326.4l-2,1.44-1.52-2.75-1.5,2.75-2-1.42,2.13-2.3-3.08-.59.74-2.24,2.85,1.31-.4-3.17h2.45l-.4,3.19,2.83-1.35.76,2.26-3.08.59Z"/>
          <path class="cls-2" d="M429.06,326.4l-2,1.44-1.52-2.75-1.5,2.75-2-1.42,2.13-2.3-3.08-.59.74-2.24,2.85,1.31-.4-3.17h2.45l-.4,3.19,2.83-1.35.76,2.26-3.08.59Z"/>
        </g>
        <g>
          <g>
            <path class="cls-2" d="M439.88,79.47a.21.21,0,0,1,0-.29l1.2-1.39a.17.17,0,0,1,.27,0,5.89,5.89,0,0,0,3.58,1.39c1.57,0,2.48-.79,2.48-1.9,0-.95-.58-1.57-2.4-1.82l-.7-.1c-2.53-.35-4-1.57-4-3.75,0-2.38,1.74-4,4.45-4A7.23,7.23,0,0,1,449,68.95a.17.17,0,0,1,0,.27l-.93,1.43a.19.19,0,0,1-.27.06,5.56,5.56,0,0,0-3.15-1c-1.33,0-2.07.73-2.07,1.76s.64,1.53,2.42,1.78l.7.1c2.53.35,3.93,1.55,3.93,3.81s-1.68,4.08-5,4.08A7.42,7.42,0,0,1,439.88,79.47Z"/>
            <path class="cls-2" d="M451.93,68a.18.18,0,0,1,.19-.19H454a.18.18,0,0,1,.19.19v5.18a.1.1,0,0,0,.12.12h5a.1.1,0,0,0,.12-.12V68a.18.18,0,0,1,.19-.19h1.9a.18.18,0,0,1,.19.19V80.8a.18.18,0,0,1-.19.19h-1.9a.18.18,0,0,1-.19-.19v-5.3a.1.1,0,0,0-.12-.12h-5a.1.1,0,0,0-.12.12v5.3A.18.18,0,0,1,454,81h-1.9a.18.18,0,0,1-.19-.19Z"/>
            <path class="cls-2" d="M464.6,78a10.64,10.64,0,0,1-.35-3.62,10.63,10.63,0,0,1,.35-3.62,5,5,0,0,1,9.3,0,10.63,10.63,0,0,1,.35,3.62A10.64,10.64,0,0,1,473.9,78a5,5,0,0,1-9.3,0Zm7.1-.6a10.5,10.5,0,0,0,.23-3,10.39,10.39,0,0,0-.23-3,2.6,2.6,0,0,0-4.89,0,10.39,10.39,0,0,0-.23,3,10.5,10.5,0,0,0,.23,3,2.6,2.6,0,0,0,4.89,0Z"/>
            <path class="cls-2" d="M477,81a.18.18,0,0,1-.19-.19V68a.18.18,0,0,1,.19-.19h4.93a4.1,4.1,0,1,1,0,8.18h-2.73a.1.1,0,0,0-.12.12V80.8a.18.18,0,0,1-.19.19Zm7-9.07a2,2,0,0,0-2.19-2h-2.59a.1.1,0,0,0-.12.12v3.83a.1.1,0,0,0,.12.12h2.59A2,2,0,0,0,483.95,71.93Z"/>
            <path class="cls-2" d="M492.9,68a.18.18,0,0,1,.19-.19h1.78a.34.34,0,0,1,.33.19l5.36,9.07h.08V68a.18.18,0,0,1,.19-.19h1.68a.18.18,0,0,1,.19.19V80.8a.18.18,0,0,1-.19.19h-1.76a.34.34,0,0,1-.33-.19L495,71.75H495V80.8a.18.18,0,0,1-.19.19H493.1a.18.18,0,0,1-.19-.19Z"/>
            <path class="cls-2" d="M505.57,78a10.64,10.64,0,0,1-.35-3.62,10.63,10.63,0,0,1,.35-3.62,5,5,0,0,1,9.3,0,10.66,10.66,0,0,1,.35,3.62,10.66,10.66,0,0,1-.35,3.62,5,5,0,0,1-9.3,0Zm7.1-.6a10.5,10.5,0,0,0,.23-3,10.39,10.39,0,0,0-.23-3,2.6,2.6,0,0,0-4.89,0,10.39,10.39,0,0,0-.23,3,10.5,10.5,0,0,0,.23,3,2.6,2.6,0,0,0,4.89,0Z"/>
            <path class="cls-2" d="M526.95,81a.25.25,0,0,1-.23-.19l-2.52-9h0l-2.53,9a.25.25,0,0,1-.23.19h-1.45a.25.25,0,0,1-.23-.19L516.48,68c0-.12,0-.19.15-.19h1.82a.22.22,0,0,1,.23.19l2.09,8.86h0L523.27,68a.24.24,0,0,1,.23-.19h1.35c.14,0,.19.08.23.19l2.51,8.86h0l2-8.86a.21.21,0,0,1,.23-.19h1.8c.14,0,.17.08.15.19L528.65,80.8a.23.23,0,0,1-.23.19Z"/>
          </g>
          <polygon class="cls-3" points="541.88 93.91 426.03 93.91 426.03 54.93 541.88 54.93 562.91 74.42 541.88 93.91"/>
        </g>
        <line class="cls-4" x1="231.66" y1="226.91" x2="231.66" y2="386.05"/>
      </g>
    </g>
  </g>
</svg>
