<svg xmlns="http://www.w3.org/2000/svg" xmlns:xlink="http://www.w3.org/1999/xlink" viewBox="0 0 639.86 471.89">
  <defs>
    <style>
      .cls-1 {
        fill: url(#New_Gradient_Swatch_1);
      }

      .cls-2 {
        fill: #fff;
      }

      .cls-3, .cls-4 {
        fill: none;
        stroke: #fff;
        stroke-miterlimit: 10;
      }

      .cls-3 {
        stroke-width: 1.5px;
      }

      .cls-4 {
        opacity: 0.51;
      }
    </style>
    <linearGradient id="New_Gradient_Swatch_1" data-name="New Gradient Swatch 1" y1="235.94" x2="639.86" y2="235.94" gradientUnits="userSpaceOnUse">
      <stop offset="0" stop-color="#0265bf"/>
      <stop offset="0.07" stop-color="#0262b9"/>
      <stop offset="0.42" stop-color="#0254a0"/>
      <stop offset="0.74" stop-color="#024c90"/>
      <stop offset="0.99" stop-color="#02498b"/>
    </linearGradient>
  </defs>
  <title>tile3_2</title>
  <g id="Layer_2" data-name="Layer 2">
    <g id="Layer_1-2" data-name="Layer 1">
      <g>
        <rect class="cls-1" width="639.86" height="471.89"/>
        <g>
          <path class="cls-2" d="M127.54,47.93c21.08,0,38.27,13.25,42.92,32.15a42.14,42.14,0,0,1-5.38,33.4c-3.17,5.13-6.36,10.25-9.33,15.49a36.31,36.31,0,0,0-4.56,13.31c-.16,1.23-.24,2.48-.28,3.73a6.69,6.69,0,0,1-4.18,6.34,1.13,1.13,0,0,0-.78,1.25c0,4.53,0,9.06,0,13.58a9.15,9.15,0,0,1-2.84,6.89c-2.26,2.19-4.56,4.35-6.76,6.6-3.44,3.53-11,3.52-14.4,0-2.25-2.29-4.6-4.49-6.9-6.74a9,9,0,0,1-2.74-6.72c0-4.5,0-9,0-13.49a1.33,1.33,0,0,0-.9-1.47,6.45,6.45,0,0,1-4-6.12,37.31,37.31,0,0,0-5.24-17.93c-2.79-5-5.84-9.79-8.87-14.62a42.64,42.64,0,0,1,24.17-64.09A41.76,41.76,0,0,1,127.54,47.93ZM138,147c2.06,0,4,0,5.92,0,.77,0,1.06-.52,1.07-1.26a39.52,39.52,0,0,1,5-18.61c3.1-5.69,6.54-11.2,10-16.71a36.7,36.7,0,1,0-63.71-3.66c2.1,4.17,4.83,8,7.29,12,5.16,8.36,9.58,17,9.73,27.13,0,.37.56,1,.89,1.05,2,.1,4,0,6.05,0,0-.51,0-.89,0-1.28,0-5.22,0-10.43,0-15.65a6.05,6.05,0,0,1,3.54-5.79,1.11,1.11,0,0,0,.55-.77c0-1.87,0-3.74,0-5.61a.89.89,0,0,0-.4-.66c-2.72-1.33-3.72-3.57-3.71-6.49,0-7.68,0-15.36,0-23a15.69,15.69,0,0,1,.12-2.45,5.56,5.56,0,0,1,4.18-4.83A8.62,8.62,0,0,0,128,78.7a1.63,1.63,0,0,1,2.35,0,7.42,7.42,0,0,0,2.52,1.43c3.19.76,5.15,2.95,5.16,6.27q.05,12.55,0,25.1a6.06,6.06,0,0,1-3.47,5.64,1.3,1.3,0,0,0-.6.92c-.06,1.77-.06,3.54,0,5.31a1.19,1.19,0,0,0,.52.88,6.09,6.09,0,0,1,3.57,5.87c0,2.17,0,4.33,0,6.5C138,140.06,138,143.47,138,147ZM122.19,147H136a1,1,0,0,0,.1-.25c0-5.7.07-11.41,0-17.11a4,4,0,0,0-4.21-3.91c-1.61,0-3.22.08-4.82,0-3.12-.2-4.9,2.07-4.85,4.85.09,5.11,0,10.23,0,15.34C122.19,146.22,122.19,146.57,122.19,147ZM136,103.86a7.56,7.56,0,0,0,.09-.8c0-1.41,0-2.82,0-4.23,0-4,0-8.07,0-12.1,0-3-1.72-4.68-4.71-4.69h-4.23c-3.33,0-5,1.62-5,4.93q0,7.92,0,15.84c0,.35,0,.69.07,1h3c.06-.11.11-.17.11-.23,0-2.72,0-5.44,0-8.16,0-.22-.39-.52-.66-.63a2,2,0,0,1-1.3-2,1.77,1.77,0,0,1,1.68-1.75,32.17,32.17,0,0,1,3.24-.09c1.64,0,3.28,0,4.91.1a1.75,1.75,0,0,1,1.62,1.71,1.79,1.79,0,0,1-1.29,2c-.68.15-.72.51-.71,1,0,1.93,0,3.87,0,5.8,0,.74,0,1.48,0,2.23Zm-3.13,2c0,.67,0,1.26,0,1.84,0,1.28,0,2.56-.06,3.83a1.4,1.4,0,0,1-.82,1c-.59.18-1-.26-1-.88,0-.32,0-.65,0-1q0-2.39,0-4.77h-3.58c0,1.43,0,2.8,0,4.17a6,6,0,0,1-.1,1.75,1.28,1.28,0,0,1-1,.7c-.27,0-.62-.44-.82-.76s0-.51,0-.77c0-1.69,0-3.38,0-5.06h-3.21c0,2.08-.1,4.08,0,6.06a4,4,0,0,0,3.94,3.79c2,0,3.93,0,5.9,0a3.79,3.79,0,0,0,3.79-3.11c.22-2.22.05-4.49.05-6.77ZM142,156.82c0-1-.06-1.93,0-2.83s-.28-1.08-1.11-1.08c-7.87,0-15.74,0-23.61,0a2.5,2.5,0,0,0-.68,0c-.15,0-.38.22-.38.35,0,1.16,0,2.33,0,3.52Zm-25.8,7.78c0,1,0,1.86,0,2.7s.23,1.24,1.2,1.23c5.47,0,10.95,0,16.42,0,2.43,0,4.85,0,7.28,0,.69,0,.95-.22.92-.9a12.09,12.09,0,0,1,0-2c.1-.9-.27-1.08-1.11-1.08-7.87,0-15.73,0-23.6,0ZM142,158.88H116.3v3.74H142Zm-3.09,13.63H119.49c1.12,1.18,2.23,2.32,3.3,3.5a2.18,2.18,0,0,0,1.8.75c2.72,0,5.44-.1,8.15,0a3.81,3.81,0,0,0,3.42-1.39C137,174.4,137.93,173.52,138.91,172.52ZM127.43,95v8.83h3.42V95ZM130,120.76h0c0-.75,0-1.5,0-2.25s-.29-.79-.88-.8-.86.19-.84.84q.06,2.15,0,4.31c0,.67.18.91.87.92s.86-.35.83-1S130,121.45,130,120.76Z"/>
          <path class="cls-2" d="M132.88,136.39c0,1.93,0,3.87,0,5.8a2.11,2.11,0,0,1-.08,1,1.31,1.31,0,0,1-.82.66,1.36,1.36,0,0,1-.91-.55,1.49,1.49,0,0,1-.13-.85q0-5.9,0-11.79c0-.23,0-.46,0-.69,0-.64.34-1.07,1-1s.86.51.86,1.1q0,2.7,0,5.41,0,.49,0,1Z"/>
          <path class="cls-2" d="M127.36,136.49c0,2,0,3.93,0,5.9a1.62,1.62,0,0,1-.17.94,1.36,1.36,0,0,1-.95.49c-.26,0-.57-.36-.75-.64a1.54,1.54,0,0,1-.08-.77q0-6.1,0-12.19c0-1,.43-1.46,1.13-1.31s.8.7.8,1.29q0,3.15,0,6.29Z"/>
        </g>
        <g>
          <path class="cls-2" d="M94.82,269.59a.5.5,0,0,1,.53-.53h6.71a.5.5,0,0,1,.53.53v13.47a.28.28,0,0,0,.32.32h11.72a.28.28,0,0,0,.32-.32V269.59a.5.5,0,0,1,.53-.53h6.71a.5.5,0,0,1,.53.53v34.85a.5.5,0,0,1-.53.53h-6.71a.5.5,0,0,1-.53-.53V290.61a.28.28,0,0,0-.32-.32H102.9a.28.28,0,0,0-.32.32v13.84a.5.5,0,0,1-.53.53H95.34a.5.5,0,0,1-.53-.53Z"/>
          <path class="cls-2" d="M139.23,269.59a.68.68,0,0,1,.69-.53h6.65a.68.68,0,0,1,.69.53l12.15,34.85c.11.32,0,.53-.37.53h-6.87a.64.64,0,0,1-.69-.53l-2.06-6.28H136.85l-2,6.28a.64.64,0,0,1-.69.53h-6.92c-.37,0-.48-.21-.37-.53Zm8.08,22L143.24,279h-.16L139,291.56Z"/>
          <path class="cls-2" d="M163.58,269.59a.5.5,0,0,1,.53-.53h6.71a.5.5,0,0,1,.53.53v28.15a.28.28,0,0,0,.32.32H187.5a.5.5,0,0,1,.53.53v5.86a.5.5,0,0,1-.53.53H164.1a.5.5,0,0,1-.53-.53Z"/>
          <path class="cls-2" d="M191.41,296.85c-.79-2.48-1-4.49-1-9.82s.21-7.34,1-9.82c1.85-5.81,6.81-8.71,13.1-8.71s11.25,2.9,13.1,8.71c.79,2.48,1,4.49,1,9.82s-.21,7.34-1,9.82c-1.85,5.81-6.81,8.71-13.1,8.71S193.26,302.65,191.41,296.85Zm18.75-2.11c.42-1.27.58-3,.58-7.71s-.16-6.44-.58-7.71a6,6,0,0,0-11.3,0c-.42,1.27-.58,3-.58,7.71s.16,6.44.58,7.71a6,6,0,0,0,11.3,0Z"/>
          <path class="cls-2" d="M223.57,287c0-5.33.21-7.34,1-9.82,1.85-5.81,6.81-8.71,13.2-8.71,6.71,0,11.09,3.33,12.78,7.66a.54.54,0,0,1-.21.79l-5.65,2.38c-.37.11-.63,0-.74-.26a6.56,6.56,0,0,0-6.18-3.7,5.54,5.54,0,0,0-5.76,4c-.42,1.27-.58,3-.58,7.66s.16,6.44.58,7.71c.79,2.48,2.75,4,5.86,4,2.69,0,5-1.32,5.76-3.7a12.42,12.42,0,0,0,.42-3.54.28.28,0,0,0-.32-.32h-4.86a.5.5,0,0,1-.53-.53v-5.07a.5.5,0,0,1,.53-.53h12.36a.5.5,0,0,1,.53.53v3a28.66,28.66,0,0,1-.9,8.08c-1.8,5.76-6.76,9-13.1,9s-11.35-2.9-13.2-8.71C223.78,294.36,223.57,292.36,223.57,287Z"/>
          <path class="cls-2" d="M257.69,269.59a.5.5,0,0,1,.53-.53h23a.5.5,0,0,1,.53.53v5.65a.5.5,0,0,1-.53.53H265.77a.28.28,0,0,0-.32.32v7.13a.28.28,0,0,0,.32.32h12.89a.5.5,0,0,1,.53.53v5.6a.5.5,0,0,1-.53.53H265.77a.28.28,0,0,0-.32.32V298a.28.28,0,0,0,.32.32h15.47a.5.5,0,0,1,.53.53v5.65a.5.5,0,0,1-.53.53h-23a.5.5,0,0,1-.53-.53Z"/>
          <path class="cls-2" d="M287.53,269.59a.5.5,0,0,1,.53-.53h6.34a1,1,0,0,1,.9.53L308,292.2h.26v-22.6a.5.5,0,0,1,.53-.53h6a.5.5,0,0,1,.53.53v34.85a.5.5,0,0,1-.53.53h-6.28a.93.93,0,0,1-.9-.53L294.81,281.9h-.26v22.55a.5.5,0,0,1-.53.53h-6a.5.5,0,0,1-.53-.53Z"/>
        </g>
        <g>
          <path class="cls-2" d="M103.12,348.71a4.39,4.39,0,0,1-1.86,1.81,6.27,6.27,0,0,1-3,.65,5.46,5.46,0,0,1-4-1.38,5,5,0,0,1-1.39-3.71v-9.82h2.79v9.67a3.49,3.49,0,0,0,.64,2.3,2.44,2.44,0,0,0,2,.76,2.47,2.47,0,0,0,2-.76,3.5,3.5,0,0,0,.64-2.3v-9.67h2.81v9.82A5.44,5.44,0,0,1,103.12,348.71Z"/>
          <path class="cls-2" d="M115.77,340.91a7.78,7.78,0,0,1,1,4.33,8.49,8.49,0,0,1-.52,3.07,4.67,4.67,0,0,1-1.52,2.1,3.82,3.82,0,0,1-2.38.76,3.49,3.49,0,0,1-2.81-1.23v5.22l-2.7.3V339.68h2.37l.15,1.37a4.16,4.16,0,0,1,1.49-1.27,3.9,3.9,0,0,1,1.74-.42A3.53,3.53,0,0,1,115.77,340.91ZM114,345.26a6.07,6.07,0,0,0-.54-3,1.76,1.76,0,0,0-1.62-.9,2.1,2.1,0,0,0-1.24.41,3.66,3.66,0,0,0-1,1.11v5a2.37,2.37,0,0,0,2,1.16Q114,349.1,114,345.26Z"/>
          <path class="cls-2" d="M129.82,351a5.33,5.33,0,0,1-1.49.21,3.32,3.32,0,0,1-2.5-.94,3.85,3.85,0,0,1-.86-2.71v-5.89h-1.75v-1.94H125v-2.47l2.7-.32v2.79h2.6l-.27,1.94h-2.32v5.83a1.92,1.92,0,0,0,.29,1.18,1.08,1.08,0,0,0,.9.36,2.57,2.57,0,0,0,1.33-.42l1,1.75A4.31,4.31,0,0,1,129.82,351Z"/>
          <path class="cls-2" d="M140.87,340.94a6.32,6.32,0,0,1,1.38,4.32,7.17,7.17,0,0,1-.63,3.09,4.81,4.81,0,0,1-1.82,2.08,5.19,5.19,0,0,1-2.81.74,4.9,4.9,0,0,1-3.87-1.57,6.32,6.32,0,0,1-1.39-4.34,7.1,7.1,0,0,1,.63-3.08,4.8,4.8,0,0,1,1.83-2.07,5.24,5.24,0,0,1,2.82-.74A4.86,4.86,0,0,1,140.87,340.94Zm-6.28,4.32a5.55,5.55,0,0,0,.6,2.93,2.2,2.2,0,0,0,3.61,0,5.56,5.56,0,0,0,.6-2.92,5.5,5.5,0,0,0-.6-2.9,2,2,0,0,0-1.79-.94Q134.58,341.41,134.58,345.26Z"/>
          <path class="cls-2" d="M153.28,350.86V339.36l-3.17,1.92-1.18-1.82,4.63-2.83h2.39v14.22Z"/>
          <path class="cls-2" d="M168.21,354.12a6.52,6.52,0,0,1-3.76,1.34l-.27-2a6.79,6.79,0,0,0,1.76-.48,2.86,2.86,0,0,0,1.07-.81,5.44,5.44,0,0,0,.74-1.35h-.93l-3.55-11.18h2.87l2.43,9.38,2.53-9.38h2.79l-3.63,11.22A6.86,6.86,0,0,1,168.21,354.12Z"/>
          <path class="cls-2" d="M184.33,346.1h-7a3.66,3.66,0,0,0,.86,2.32,2.58,2.58,0,0,0,1.89.7,4,4,0,0,0,1.39-.24,6.51,6.51,0,0,0,1.39-.75l1.12,1.54a6.43,6.43,0,0,1-4.14,1.5,5,5,0,0,1-3.94-1.56,6.21,6.21,0,0,1-1.38-4.27,7.64,7.64,0,0,1,.59-3.07,4.87,4.87,0,0,1,1.71-2.13,5.09,5.09,0,0,1,6.3.72A6.14,6.14,0,0,1,184.4,345Q184.4,345.22,184.33,346.1Zm-2.62-1.88q0-2.94-2.18-2.94A1.85,1.85,0,0,0,178,342a4.34,4.34,0,0,0-.67,2.33h4.39Z"/>
          <path class="cls-2" d="M195.35,348.86a1.28,1.28,0,0,0,.64.48l-.57,1.8a3.54,3.54,0,0,1-1.55-.45,2.31,2.31,0,0,1-.92-1.17,3.58,3.58,0,0,1-1.43,1.26,4.35,4.35,0,0,1-1.91.41,3.61,3.61,0,0,1-2.64-1,3.33,3.33,0,0,1-1-2.49,3.22,3.22,0,0,1,1.32-2.78,6.33,6.33,0,0,1,3.77-1h1.39v-.63a1.93,1.93,0,0,0-.5-1.51,2.4,2.4,0,0,0-1.6-.43,9.43,9.43,0,0,0-3,.59l-.63-1.84a11.3,11.3,0,0,1,4.06-.8q4.29,0,4.29,3.84v4.69A1.79,1.79,0,0,0,195.35,348.86Zm-2.86-1v-2.26h-1.12q-2.62,0-2.62,1.94a1.79,1.79,0,0,0,.4,1.25,1.51,1.51,0,0,0,1.18.44A2.39,2.39,0,0,0,192.49,347.84Z"/>
          <path class="cls-2" d="M205.06,339.53l-.46,2.62a4.08,4.08,0,0,0-1-.13,1.9,1.9,0,0,0-1.56.71,5.47,5.47,0,0,0-.91,2.19v5.94h-2.7V339.68h2.35l.25,2.2a4,4,0,0,1,1.16-1.85,2.63,2.63,0,0,1,1.75-.64A4,4,0,0,1,205.06,339.53Z"/>
          <path class="cls-2" d="M218.66,339.53l-.46,2.62a4.08,4.08,0,0,0-1-.13,1.9,1.9,0,0,0-1.56.71,5.47,5.47,0,0,0-.91,2.19v5.94H212V339.68h2.35l.25,2.2a4,4,0,0,1,1.16-1.85,2.63,2.63,0,0,1,1.75-.64A4,4,0,0,1,218.66,339.53Z"/>
          <path class="cls-2" d="M228.39,348.86a1.28,1.28,0,0,0,.64.48l-.57,1.8a3.54,3.54,0,0,1-1.55-.45,2.31,2.31,0,0,1-.92-1.17,3.58,3.58,0,0,1-1.43,1.26,4.35,4.35,0,0,1-1.91.41,3.61,3.61,0,0,1-2.64-1,3.33,3.33,0,0,1-1-2.49,3.22,3.22,0,0,1,1.32-2.78,6.33,6.33,0,0,1,3.77-1h1.39v-.63a1.93,1.93,0,0,0-.5-1.51,2.4,2.4,0,0,0-1.6-.43,9.43,9.43,0,0,0-3,.59l-.63-1.84a11.3,11.3,0,0,1,4.06-.8q4.29,0,4.29,3.84v4.69A1.79,1.79,0,0,0,228.39,348.86Zm-2.86-1v-2.26h-1.12q-2.62,0-2.62,1.94a1.79,1.79,0,0,0,.4,1.25,1.51,1.51,0,0,0,1.18.44A2.39,2.39,0,0,0,225.53,347.84Z"/>
          <path class="cls-2" d="M236.54,351a5.33,5.33,0,0,1-1.49.21,3.32,3.32,0,0,1-2.5-.94,3.85,3.85,0,0,1-.86-2.71v-5.89h-1.75v-1.94h1.75v-2.47l2.7-.32v2.79H237l-.27,1.94H234.4v5.83a1.92,1.92,0,0,0,.29,1.18,1.08,1.08,0,0,0,.9.36,2.57,2.57,0,0,0,1.33-.42l1,1.75A4.31,4.31,0,0,1,236.54,351Z"/>
          <path class="cls-2" d="M248.28,346.1h-7a3.66,3.66,0,0,0,.86,2.32,2.58,2.58,0,0,0,1.89.7,4,4,0,0,0,1.39-.24,6.51,6.51,0,0,0,1.39-.75l1.12,1.54a6.43,6.43,0,0,1-4.14,1.5,5,5,0,0,1-3.94-1.56,6.21,6.21,0,0,1-1.38-4.27,7.64,7.64,0,0,1,.59-3.07,4.87,4.87,0,0,1,1.71-2.13,5.09,5.09,0,0,1,6.3.72,6.14,6.14,0,0,1,1.29,4.15Q248.34,345.22,248.28,346.1Zm-2.62-1.88q0-2.94-2.18-2.94a1.85,1.85,0,0,0-1.55.73,4.34,4.34,0,0,0-.67,2.33h4.39Z"/>
          <path class="cls-2" d="M260.23,350.86h-2.39l-.19-1.42a3.94,3.94,0,0,1-1.33,1.27,3.65,3.65,0,0,1-1.86.46,3.6,3.6,0,0,1-3.15-1.58,7.45,7.45,0,0,1-1.1-4.31,8.05,8.05,0,0,1,.55-3.07,4.74,4.74,0,0,1,1.57-2.09,4,4,0,0,1,2.42-.75,3.72,3.72,0,0,1,2.77,1.2v-5.66l2.7.3Zm-3.74-2.08a3.59,3.59,0,0,0,1-1.09v-5.11a3.54,3.54,0,0,0-1-.89,2.23,2.23,0,0,0-1.14-.3,2,2,0,0,0-1.72,1,5.41,5.41,0,0,0-.62,2.9,6,6,0,0,0,.55,3,1.77,1.77,0,0,0,1.61.9A2.32,2.32,0,0,0,256.49,348.78Z"/>
          <path class="cls-2" d="M271.34,334.5a1.59,1.59,0,0,1,.48,1.17,1.56,1.56,0,0,1-.48,1.16,1.69,1.69,0,0,1-1.24.46,1.67,1.67,0,0,1-1.21-.46,1.56,1.56,0,0,1-.48-1.16,1.59,1.59,0,0,1,.48-1.17,1.64,1.64,0,0,1,1.21-.48A1.67,1.67,0,0,1,271.34,334.5Zm-2.57,16.36V339.68h2.7v11.18Z"/>
          <path class="cls-2" d="M283,340.26a3.54,3.54,0,0,1,.83,2.5v8.09h-2.7v-7.67a2.15,2.15,0,0,0-.35-1.39,1.28,1.28,0,0,0-1-.4,2,2,0,0,0-1.26.43,4.94,4.94,0,0,0-1.09,1.26v7.77h-2.7V339.68h2.35l.21,1.48a4.18,4.18,0,0,1,3.4-1.8A3,3,0,0,1,283,340.26Z"/>
          <path class="cls-2" d="M295,348.8a.56.56,0,0,0,.49.2,2,2,0,0,0,.63-.11l.57,1.9a4.93,4.93,0,0,1-1.92.38,2.52,2.52,0,0,1-1.94-.73,3,3,0,0,1-.68-2.12V335.2l2.7-.3v13.22A1.15,1.15,0,0,0,295,348.8Z"/>
          <path class="cls-2" d="M301.08,334.5a1.59,1.59,0,0,1,.48,1.17,1.56,1.56,0,0,1-.48,1.16,1.69,1.69,0,0,1-1.24.46,1.67,1.67,0,0,1-1.21-.46,1.56,1.56,0,0,1-.48-1.16,1.59,1.59,0,0,1,.48-1.17,1.64,1.64,0,0,1,1.21-.48A1.67,1.67,0,0,1,301.08,334.5Zm-2.57,16.36V339.68h2.7v11.18Z"/>
          <path class="cls-2" d="M307.84,337.33a1.67,1.67,0,0,0-.35,1.17v1.18h2.68l-.3,1.94h-2.39v9.23h-2.7v-9.23H303v-1.94h1.82v-1.23a3.39,3.39,0,0,1,1-2.57,4,4,0,0,1,2.9-1,6.83,6.83,0,0,1,2.89.65l-.78,1.82A4.32,4.32,0,0,0,309,337,1.53,1.53,0,0,0,307.84,337.33Z"/>
          <path class="cls-2" d="M320.69,346.1h-7a3.66,3.66,0,0,0,.86,2.32,2.58,2.58,0,0,0,1.89.7,4,4,0,0,0,1.39-.24,6.51,6.51,0,0,0,1.39-.75l1.12,1.54a6.43,6.43,0,0,1-4.14,1.5,5,5,0,0,1-3.94-1.56,6.21,6.21,0,0,1-1.38-4.27,7.64,7.64,0,0,1,.59-3.07,4.87,4.87,0,0,1,1.71-2.13,5.09,5.09,0,0,1,6.3.72,6.14,6.14,0,0,1,1.29,4.15Q320.76,345.22,320.69,346.1Zm-2.62-1.88q0-2.94-2.18-2.94a1.85,1.85,0,0,0-1.55.73,4.34,4.34,0,0,0-.67,2.33h4.39Z"/>
          <path class="cls-2" d="M329.8,342.17l-2,1.44-1.52-2.75-1.5,2.75-2-1.42,2.13-2.3-3.08-.59.74-2.24,2.85,1.31-.4-3.17h2.45l-.4,3.19L330,337l.76,2.26-3.08.59Z"/>
          <path class="cls-2" d="M100,372.3a6.82,6.82,0,0,1,2.13,1.35l-1.42,1.61a5.4,5.4,0,0,0-1.54-1,4.59,4.59,0,0,0-1.69-.31,2.72,2.72,0,0,0-1.64.45,1.49,1.49,0,0,0-.62,1.28,1.58,1.58,0,0,0,.24.91,2.25,2.25,0,0,0,.88.68,12.84,12.84,0,0,0,1.88.7,8.54,8.54,0,0,1,3.24,1.68,3.78,3.78,0,0,1,1.09,2.93,4.14,4.14,0,0,1-.67,2.32,4.42,4.42,0,0,1-1.91,1.58,7.06,7.06,0,0,1-3,.57,7.86,7.86,0,0,1-3-.54,7,7,0,0,1-2.27-1.47l1.48-1.65a5.28,5.28,0,0,0,3.72,1.5,3.1,3.1,0,0,0,1.94-.57,1.91,1.91,0,0,0,.74-1.61,2,2,0,0,0-.25-1,2.2,2.2,0,0,0-.87-.74,10.6,10.6,0,0,0-1.77-.69,8.32,8.32,0,0,1-3.36-1.73,3.56,3.56,0,0,1-1-2.66,3.6,3.6,0,0,1,.63-2.11,4.17,4.17,0,0,1,1.76-1.42,6.21,6.21,0,0,1,2.57-.51A7.38,7.38,0,0,1,100,372.3Z"/>
          <path class="cls-2" d="M113.3,384.77a1.28,1.28,0,0,0,.64.48l-.57,1.8a3.54,3.54,0,0,1-1.55-.45,2.31,2.31,0,0,1-.92-1.17,3.58,3.58,0,0,1-1.43,1.26,4.35,4.35,0,0,1-1.91.41,3.61,3.61,0,0,1-2.64-1,3.33,3.33,0,0,1-1-2.49,3.22,3.22,0,0,1,1.32-2.78,6.33,6.33,0,0,1,3.77-1h1.39v-.63a1.93,1.93,0,0,0-.5-1.51,2.4,2.4,0,0,0-1.6-.43,9.43,9.43,0,0,0-3,.59l-.63-1.84a11.3,11.3,0,0,1,4.06-.8q4.29,0,4.29,3.84v4.69A1.79,1.79,0,0,0,113.3,384.77Zm-2.86-1v-2.26h-1.12q-2.62,0-2.62,1.94a1.79,1.79,0,0,0,.4,1.25,1.51,1.51,0,0,0,1.18.44A2.39,2.39,0,0,0,110.44,383.75Z"/>
          <path class="cls-2" d="M118.19,386.77l-3.7-11.18h2.94l2.39,9,2.45-9h2.79l-3.63,11.18Z"/>
          <path class="cls-2" d="M135.62,382h-7a3.66,3.66,0,0,0,.86,2.32,2.58,2.58,0,0,0,1.89.7,4,4,0,0,0,1.39-.24,6.51,6.51,0,0,0,1.39-.75l1.12,1.54a6.43,6.43,0,0,1-4.14,1.5,5,5,0,0,1-3.94-1.56,6.21,6.21,0,0,1-1.38-4.27,7.64,7.64,0,0,1,.59-3.07A4.87,4.87,0,0,1,128.1,376a5.09,5.09,0,0,1,6.3.72,6.14,6.14,0,0,1,1.29,4.15Q135.68,381.13,135.62,382ZM133,380.14q0-2.94-2.18-2.94a1.85,1.85,0,0,0-1.55.73,4.34,4.34,0,0,0-.67,2.33H133Z"/>
          <path class="cls-2" d="M150,386.77l-.15-1.56a4.13,4.13,0,0,1-1.45,1.42,4,4,0,0,1-2,.46,2.92,2.92,0,0,1-2.31-.92,3.71,3.71,0,0,1-.81-2.55v-8h2.7v7.69a2.16,2.16,0,0,0,.33,1.35,1.27,1.27,0,0,0,1,.4,2.73,2.73,0,0,0,2.26-1.58v-7.86h2.7v11.18Z"/>
          <path class="cls-2" d="M164.55,376.82a7.78,7.78,0,0,1,1,4.33,8.49,8.49,0,0,1-.52,3.07,4.67,4.67,0,0,1-1.52,2.1,3.82,3.82,0,0,1-2.38.76,3.49,3.49,0,0,1-2.81-1.23v5.22l-2.7.3V375.59H158l.15,1.37a4.16,4.16,0,0,1,1.49-1.27,3.9,3.9,0,0,1,1.74-.42A3.53,3.53,0,0,1,164.55,376.82Zm-1.81,4.35a6.07,6.07,0,0,0-.54-3,1.76,1.76,0,0,0-1.62-.9,2.1,2.1,0,0,0-1.24.41,3.66,3.66,0,0,0-1,1.11v5a2.37,2.37,0,0,0,2,1.16Q162.74,385,162.74,381.17Z"/>
          <path class="cls-2" d="M178.6,386.87a5.33,5.33,0,0,1-1.49.21,3.32,3.32,0,0,1-2.5-.94,3.85,3.85,0,0,1-.86-2.71v-5.89H172v-1.94h1.75v-2.47l2.7-.32v2.79h2.6l-.27,1.94h-2.32v5.83a1.92,1.92,0,0,0,.29,1.18,1.08,1.08,0,0,0,.9.36,2.57,2.57,0,0,0,1.33-.42l1,1.75A4.31,4.31,0,0,1,178.6,386.87Z"/>
          <path class="cls-2" d="M189.65,376.85a6.32,6.32,0,0,1,1.38,4.32,7.17,7.17,0,0,1-.63,3.09,4.81,4.81,0,0,1-1.82,2.08,5.19,5.19,0,0,1-2.81.74,4.9,4.9,0,0,1-3.87-1.57,6.32,6.32,0,0,1-1.39-4.34,7.1,7.1,0,0,1,.63-3.08A4.8,4.8,0,0,1,183,376a5.24,5.24,0,0,1,2.82-.74A4.86,4.86,0,0,1,189.65,376.85Zm-6.28,4.32a5.55,5.55,0,0,0,.6,2.93,2.2,2.2,0,0,0,3.61,0,5.56,5.56,0,0,0,.6-2.92,5.5,5.5,0,0,0-.6-2.9,2,2,0,0,0-1.79-.94Q183.36,377.33,183.36,381.17Z"/>
          <path class="cls-2" d="M204.62,372.83a3.76,3.76,0,0,1,2.14,3.46,5.4,5.4,0,0,1-.52,2.31,10.61,10.61,0,0,1-1.72,2.46q-1.2,1.35-3.53,3.57h6.08l-.3,2.13h-8.85v-2q2.7-2.75,3.88-4.07a12.25,12.25,0,0,0,1.67-2.26,4.14,4.14,0,0,0,.5-2,1.91,1.91,0,0,0-2-2.07,2.85,2.85,0,0,0-1.44.35,5,5,0,0,0-1.29,1.15l-1.67-1.31a5.57,5.57,0,0,1,4.61-2.32A5.45,5.45,0,0,1,204.62,372.83Z"/>
          <path class="cls-2" d="M211.88,374.56v3.53a4.77,4.77,0,0,1,2.15-.53,4.08,4.08,0,0,1,2.11.55,3.72,3.72,0,0,1,1.45,1.58,5.42,5.42,0,0,1,.52,2.45,5,5,0,0,1-.65,2.58,4.49,4.49,0,0,1-1.86,1.74,6,6,0,0,1-2.79.62,5.77,5.77,0,0,1-2.5-.52,6.37,6.37,0,0,1-2-1.49l1.56-1.46a3.64,3.64,0,0,0,2.85,1.37,2.45,2.45,0,0,0,1.89-.74,3,3,0,0,0,.69-2.11q0-2.64-2.28-2.64a3.42,3.42,0,0,0-.91.12,5.18,5.18,0,0,0-.93.37h-1.92v-7.44h8.24l-.32,2Z"/>
          <path class="cls-2" d="M225.12,372.75a3.3,3.3,0,0,1,1.3,1.3,4.21,4.21,0,0,1,0,3.89,3.29,3.29,0,0,1-1.3,1.3,3.74,3.74,0,0,1-1.84.45,3.68,3.68,0,0,1-1.83-.45,3.31,3.31,0,0,1-1.29-1.3,4.21,4.21,0,0,1,0-3.89,3.32,3.32,0,0,1,1.29-1.3,3.68,3.68,0,0,1,1.83-.45A3.74,3.74,0,0,1,225.12,372.75Zm-3,1.8a3.16,3.16,0,0,0,0,2.88,1.26,1.26,0,0,0,1.17.57q1.52,0,1.52-2t-1.52-2A1.27,1.27,0,0,0,222.11,374.55Zm1.7,13-1.73-1.12,9.78-14.77,1.75,1.12Zm10.39-7.38a3.23,3.23,0,0,1,1.29,1.3,4.3,4.3,0,0,1,0,3.89,3.22,3.22,0,0,1-1.29,1.3,3.95,3.95,0,0,1-3.68,0,3.29,3.29,0,0,1-1.3-1.3,4.21,4.21,0,0,1,0-3.89,3.29,3.29,0,0,1,1.3-1.3,3.95,3.95,0,0,1,3.68,0Zm-3,1.8a3.16,3.16,0,0,0,0,2.88,1.27,1.27,0,0,0,1.17.57q1.52,0,1.52-2t-1.52-2A1.27,1.27,0,0,0,231.2,381.94Z"/>
          <path class="cls-2" d="M252.11,384.77a1.28,1.28,0,0,0,.64.48l-.57,1.8a3.54,3.54,0,0,1-1.55-.45,2.31,2.31,0,0,1-.92-1.17,3.58,3.58,0,0,1-1.43,1.26,4.35,4.35,0,0,1-1.91.41,3.61,3.61,0,0,1-2.64-1,3.33,3.33,0,0,1-1-2.49,3.22,3.22,0,0,1,1.32-2.78,6.33,6.33,0,0,1,3.77-1h1.39v-.63a1.93,1.93,0,0,0-.5-1.51,2.4,2.4,0,0,0-1.6-.43,9.43,9.43,0,0,0-3,.59l-.63-1.84a11.3,11.3,0,0,1,4.06-.8q4.29,0,4.29,3.84v4.69A1.79,1.79,0,0,0,252.11,384.77Zm-2.86-1v-2.26h-1.12q-2.62,0-2.62,1.94a1.79,1.79,0,0,0,.4,1.25,1.51,1.51,0,0,0,1.18.44A2.39,2.39,0,0,0,249.25,383.75Z"/>
          <path class="cls-2" d="M263.82,390a6.52,6.52,0,0,1-3.76,1.34l-.27-2a6.79,6.79,0,0,0,1.76-.48,2.86,2.86,0,0,0,1.07-.81,5.44,5.44,0,0,0,.74-1.35h-.93l-3.55-11.18h2.87l2.43,9.38,2.53-9.38h2.79l-3.63,11.22A6.86,6.86,0,0,1,263.82,390Z"/>
          <path class="cls-2" d="M279.94,382h-7a3.66,3.66,0,0,0,.86,2.32,2.58,2.58,0,0,0,1.89.7,4,4,0,0,0,1.39-.24,6.51,6.51,0,0,0,1.39-.75l1.12,1.54a6.43,6.43,0,0,1-4.14,1.5,5,5,0,0,1-3.94-1.56,6.21,6.21,0,0,1-1.38-4.27,7.64,7.64,0,0,1,.59-3.07,4.87,4.87,0,0,1,1.71-2.13,5.09,5.09,0,0,1,6.3.72,6.14,6.14,0,0,1,1.29,4.15Q280,381.13,279.94,382Zm-2.62-1.88q0-2.94-2.18-2.94a1.85,1.85,0,0,0-1.55.73,4.34,4.34,0,0,0-.67,2.33h4.39Z"/>
          <path class="cls-2" d="M291,384.77a1.28,1.28,0,0,0,.64.48L291,387a3.54,3.54,0,0,1-1.55-.45,2.31,2.31,0,0,1-.92-1.17,3.58,3.58,0,0,1-1.43,1.26,4.35,4.35,0,0,1-1.91.41,3.61,3.61,0,0,1-2.64-1,3.33,3.33,0,0,1-1-2.49,3.22,3.22,0,0,1,1.32-2.78,6.33,6.33,0,0,1,3.77-1h1.39v-.63a1.93,1.93,0,0,0-.5-1.51,2.4,2.4,0,0,0-1.6-.43,9.43,9.43,0,0,0-3,.59l-.63-1.84a11.3,11.3,0,0,1,4.06-.8q4.29,0,4.29,3.84v4.69A1.79,1.79,0,0,0,291,384.77Zm-2.86-1v-2.26H287q-2.62,0-2.62,1.94a1.79,1.79,0,0,0,.4,1.25,1.51,1.51,0,0,0,1.18.44A2.39,2.39,0,0,0,288.1,383.75Z"/>
          <path class="cls-2" d="M300.67,375.45l-.46,2.62a4.08,4.08,0,0,0-1-.13,1.9,1.9,0,0,0-1.56.71,5.47,5.47,0,0,0-.91,2.19v5.94H294V375.59h2.35l.25,2.2a4,4,0,0,1,1.16-1.85,2.63,2.63,0,0,1,1.75-.64A4,4,0,0,1,300.67,375.45Z"/>
          <path class="cls-2" d="M310.2,370.41a1.59,1.59,0,0,1,.48,1.17,1.56,1.56,0,0,1-.48,1.16,1.69,1.69,0,0,1-1.24.46,1.67,1.67,0,0,1-1.21-.46,1.56,1.56,0,0,1-.48-1.16,1.59,1.59,0,0,1,.48-1.17,1.64,1.64,0,0,1,1.21-.48A1.67,1.67,0,0,1,310.2,370.41Zm-2.57,16.36V375.59h2.7v11.18Z"/>
          <path class="cls-2" d="M321.89,376.18a3.54,3.54,0,0,1,.83,2.5v8.09H320V379.1a2.15,2.15,0,0,0-.35-1.39,1.28,1.28,0,0,0-1-.4,2,2,0,0,0-1.26.43A4.94,4.94,0,0,0,316.3,379v7.77h-2.7V375.59h2.35l.21,1.48a4.18,4.18,0,0,1,3.4-1.8A3,3,0,0,1,321.89,376.18Z"/>
          <path class="cls-2" d="M340.25,382h-7a3.66,3.66,0,0,0,.86,2.32,2.58,2.58,0,0,0,1.89.7,4,4,0,0,0,1.39-.24,6.51,6.51,0,0,0,1.39-.75l1.12,1.54a6.43,6.43,0,0,1-4.14,1.5,5,5,0,0,1-3.94-1.56,6.21,6.21,0,0,1-1.38-4.27,7.64,7.64,0,0,1,.59-3.07,4.87,4.87,0,0,1,1.71-2.13,5.09,5.09,0,0,1,6.3.72,6.14,6.14,0,0,1,1.29,4.15Q340.32,381.13,340.25,382Zm-2.62-1.88q0-2.94-2.18-2.94a1.85,1.85,0,0,0-1.55.73,4.34,4.34,0,0,0-.67,2.33h4.39Z"/>
          <path class="cls-2" d="M351.1,376.18a3.54,3.54,0,0,1,.83,2.5v8.09h-2.7V379.1a2.15,2.15,0,0,0-.35-1.39,1.28,1.28,0,0,0-1-.4,2,2,0,0,0-1.26.43,4.94,4.94,0,0,0-1.09,1.26v7.77h-2.7V375.59h2.35l.21,1.48a4.18,4.18,0,0,1,3.4-1.8A3,3,0,0,1,351.1,376.18Z"/>
          <path class="cls-2" d="M364.19,382h-7a3.66,3.66,0,0,0,.86,2.32,2.58,2.58,0,0,0,1.89.7,4,4,0,0,0,1.39-.24,6.51,6.51,0,0,0,1.39-.75l1.12,1.54a6.43,6.43,0,0,1-4.14,1.5,5,5,0,0,1-3.94-1.56,6.21,6.21,0,0,1-1.38-4.27,7.64,7.64,0,0,1,.59-3.07,4.87,4.87,0,0,1,1.71-2.13,5.09,5.09,0,0,1,6.3.72,6.14,6.14,0,0,1,1.29,4.15Q364.25,381.13,364.19,382Zm-2.62-1.88q0-2.94-2.18-2.94a1.85,1.85,0,0,0-1.55.73,4.34,4.34,0,0,0-.67,2.33h4.39Z"/>
          <path class="cls-2" d="M373.38,375.45l-.46,2.62a4.08,4.08,0,0,0-1-.13,1.9,1.9,0,0,0-1.56.71,5.47,5.47,0,0,0-.91,2.19v5.94h-2.7V375.59h2.35l.25,2.2a4,4,0,0,1,1.16-1.85,2.63,2.63,0,0,1,1.75-.64A4,4,0,0,1,373.38,375.45Z"/>
          <path class="cls-2" d="M381.55,376.57a3.71,3.71,0,0,1,1.53,1.15,2.87,2.87,0,0,1,.5,1.72,3.54,3.54,0,0,1-.54,1.94,3.65,3.65,0,0,1-1.56,1.33,5.54,5.54,0,0,1-2.4.49,4.7,4.7,0,0,1-1.33-.17,1,1,0,0,0-.46.82q0,.78,1.35.78h1.71a5.33,5.33,0,0,1,2.14.4,3.3,3.3,0,0,1,1.43,1.13,2.8,2.8,0,0,1,.51,1.64,3,3,0,0,1-1.44,2.63,7.57,7.57,0,0,1-4.14.94,9.28,9.28,0,0,1-3.05-.4,2.92,2.92,0,0,1-1.57-1.16,3.67,3.67,0,0,1-.46-1.94h2.43a1.68,1.68,0,0,0,.22.93,1.37,1.37,0,0,0,.8.51,6.38,6.38,0,0,0,1.68.17,4.5,4.5,0,0,0,2.18-.38,1.21,1.21,0,0,0,.63-1.1,1.14,1.14,0,0,0-.49-1,2.41,2.41,0,0,0-1.42-.35h-1.69a3.89,3.89,0,0,1-2.39-.61,1.87,1.87,0,0,1-.8-1.54,2.1,2.1,0,0,1,.35-1.14,3,3,0,0,1,1-.93,3.69,3.69,0,0,1-1.49-1.3,3.45,3.45,0,0,1-.48-1.85,3.78,3.78,0,0,1,.59-2.11,3.9,3.9,0,0,1,1.64-1.4,5.53,5.53,0,0,1,2.4-.5,10,10,0,0,0,2.86-.26,11.94,11.94,0,0,0,2.36-1l.68,2.15A10.33,10.33,0,0,1,381.55,376.57Zm-4,1.13a2.25,2.25,0,0,0-.52,1.55,2.32,2.32,0,0,0,.53,1.61,2.13,2.13,0,0,0,2.94,0,2.41,2.41,0,0,0,.51-1.64q0-2.11-2-2.11A1.81,1.81,0,0,0,377.51,377.7Z"/>
          <path class="cls-2" d="M389.77,390a6.52,6.52,0,0,1-3.76,1.34l-.27-2a6.79,6.79,0,0,0,1.76-.48,2.86,2.86,0,0,0,1.07-.81,5.44,5.44,0,0,0,.74-1.35h-.93l-3.55-11.18h2.87l2.43,9.38,2.53-9.38h2.79l-3.63,11.22A6.86,6.86,0,0,1,389.77,390Z"/>
          <path class="cls-2" d="M408.86,375.59a5.28,5.28,0,0,1,1.66,1l-1.23,1.65a4.32,4.32,0,0,0-1.08-.62,3.25,3.25,0,0,0-1.16-.2q-2.51,0-2.51,3.82a4.66,4.66,0,0,0,.65,2.8,2.2,2.2,0,0,0,1.86.86,2.93,2.93,0,0,0,1.11-.2,5,5,0,0,0,1.11-.67l1.25,1.77a5.57,5.57,0,0,1-3.61,1.29,5.33,5.33,0,0,1-2.79-.71,4.64,4.64,0,0,1-1.82-2,7,7,0,0,1-.63-3.08,7.36,7.36,0,0,1,.63-3.14,4.86,4.86,0,0,1,1.82-2.11,5.06,5.06,0,0,1,2.77-.75A5.79,5.79,0,0,1,408.86,375.59Z"/>
          <path class="cls-2" d="M420.69,376.85a6.32,6.32,0,0,1,1.38,4.32,7.17,7.17,0,0,1-.63,3.09,4.81,4.81,0,0,1-1.82,2.08,5.19,5.19,0,0,1-2.81.74,4.9,4.9,0,0,1-3.87-1.57,6.32,6.32,0,0,1-1.39-4.34,7.1,7.1,0,0,1,.63-3.08A4.8,4.8,0,0,1,414,376a5.24,5.24,0,0,1,2.82-.74A4.86,4.86,0,0,1,420.69,376.85Zm-6.28,4.32a5.55,5.55,0,0,0,.6,2.93,2.2,2.2,0,0,0,3.61,0,5.56,5.56,0,0,0,.6-2.92,5.5,5.5,0,0,0-.6-2.9,2,2,0,0,0-1.79-.94Q414.4,377.33,414.4,381.17Z"/>
          <path class="cls-2" d="M432.1,376.61,431,378.23a4.87,4.87,0,0,0-2.75-1,2.32,2.32,0,0,0-1.3.31.94.94,0,0,0-.45.81,1,1,0,0,0,.19.63,1.73,1.73,0,0,0,.69.48,11.46,11.46,0,0,0,1.47.5,6.44,6.44,0,0,1,2.69,1.29,2.88,2.88,0,0,1,.88,2.24,3,3,0,0,1-1.35,2.61,5.75,5.75,0,0,1-3.36.94,7.11,7.11,0,0,1-2.5-.42,6.07,6.07,0,0,1-2-1.16l1.37-1.54a4.7,4.7,0,0,0,3,1.12,2.63,2.63,0,0,0,1.46-.36,1.09,1.09,0,0,0,.55-1,1.36,1.36,0,0,0-.2-.79,1.73,1.73,0,0,0-.72-.52,13.34,13.34,0,0,0-1.62-.55,5.39,5.39,0,0,1-2.51-1.3,2.88,2.88,0,0,1-.8-2.08,2.76,2.76,0,0,1,.54-1.67,3.58,3.58,0,0,1,1.52-1.16,5.65,5.65,0,0,1,2.25-.42A6.29,6.29,0,0,1,432.1,376.61Z"/>
          <path class="cls-2" d="M439.74,386.87a5.33,5.33,0,0,1-1.49.21,3.32,3.32,0,0,1-2.5-.94,3.85,3.85,0,0,1-.86-2.71v-5.89h-1.75v-1.94h1.75v-2.47l2.7-.32v2.79h2.6l-.27,1.94H437.6v5.83a1.92,1.92,0,0,0,.29,1.18,1.08,1.08,0,0,0,.9.36,2.57,2.57,0,0,0,1.33-.42l1,1.75A4.31,4.31,0,0,1,439.74,386.87Z"/>
          <path class="cls-2" d="M450.08,376.61,449,378.23a4.87,4.87,0,0,0-2.75-1,2.32,2.32,0,0,0-1.3.31.94.94,0,0,0-.45.81,1,1,0,0,0,.19.63,1.73,1.73,0,0,0,.69.48,11.46,11.46,0,0,0,1.47.5,6.44,6.44,0,0,1,2.69,1.29,2.88,2.88,0,0,1,.88,2.24,3,3,0,0,1-1.35,2.61,5.75,5.75,0,0,1-3.36.94,7.11,7.11,0,0,1-2.5-.42,6.07,6.07,0,0,1-2-1.16l1.37-1.54a4.7,4.7,0,0,0,3,1.12,2.63,2.63,0,0,0,1.46-.36,1.09,1.09,0,0,0,.55-1,1.36,1.36,0,0,0-.2-.79,1.73,1.73,0,0,0-.72-.52,13.34,13.34,0,0,0-1.62-.55,5.39,5.39,0,0,1-2.51-1.3,2.88,2.88,0,0,1-.8-2.08,2.76,2.76,0,0,1,.54-1.67,3.58,3.58,0,0,1,1.52-1.16,5.65,5.65,0,0,1,2.25-.42A6.29,6.29,0,0,1,450.08,376.61Z"/>
          <path class="cls-2" d="M459.19,378.09l-2,1.44-1.52-2.75-1.5,2.75-2-1.42,2.13-2.3-3.08-.59L452,373l2.85,1.31-.4-3.17h2.45l-.4,3.19,2.83-1.35.76,2.26-3.08.59Z"/>
          <path class="cls-2" d="M468.57,378.09l-2,1.44-1.52-2.75-1.5,2.75-2-1.42,2.13-2.3-3.08-.59.74-2.24,2.85,1.31-.4-3.17h2.45l-.4,3.19,2.83-1.35.76,2.26-3.08.59Z"/>
        </g>
        <g>
          <g>
            <path class="cls-2" d="M333.78,120.67a.21.21,0,0,1,0-.29l1.2-1.39a.17.17,0,0,1,.27,0,5.89,5.89,0,0,0,3.58,1.39c1.57,0,2.48-.79,2.48-1.9,0-.95-.58-1.57-2.4-1.82l-.7-.1c-2.53-.35-4-1.57-4-3.75,0-2.38,1.74-4,4.45-4a7.23,7.23,0,0,1,4.26,1.32.17.17,0,0,1,0,.27l-.93,1.43a.19.19,0,0,1-.27.06,5.56,5.56,0,0,0-3.15-1c-1.33,0-2.07.73-2.07,1.76s.64,1.53,2.42,1.78l.7.1c2.53.35,3.93,1.55,3.93,3.81s-1.68,4.08-5,4.08A7.42,7.42,0,0,1,333.78,120.67Z"/>
            <path class="cls-2" d="M345.83,109.24A.18.18,0,0,1,346,109h1.9a.18.18,0,0,1,.19.19v5.18a.1.1,0,0,0,.12.12h5a.1.1,0,0,0,.12-.12v-5.18a.18.18,0,0,1,.19-.19h1.9a.18.18,0,0,1,.19.19V122a.18.18,0,0,1-.19.19h-1.9a.18.18,0,0,1-.19-.19v-5.3a.1.1,0,0,0-.12-.12h-5a.1.1,0,0,0-.12.12V122a.18.18,0,0,1-.19.19H346a.18.18,0,0,1-.19-.19Z"/>
            <path class="cls-2" d="M358.5,119.24a10.64,10.64,0,0,1-.35-3.62,10.63,10.63,0,0,1,.35-3.62,5,5,0,0,1,9.3,0,10.63,10.63,0,0,1,.35,3.62,10.64,10.64,0,0,1-.35,3.62,5,5,0,0,1-9.3,0Zm7.1-.6a10.5,10.5,0,0,0,.23-3,10.39,10.39,0,0,0-.23-3,2.6,2.6,0,0,0-4.89,0,10.39,10.39,0,0,0-.23,3,10.5,10.5,0,0,0,.23,3,2.6,2.6,0,0,0,4.89,0Z"/>
            <path class="cls-2" d="M370.86,122.2a.18.18,0,0,1-.19-.19V109.24a.18.18,0,0,1,.19-.19h4.93a4.1,4.1,0,1,1,0,8.18h-2.73a.1.1,0,0,0-.12.12V122a.18.18,0,0,1-.19.19Zm7-9.07a2,2,0,0,0-2.19-2h-2.59a.1.1,0,0,0-.12.12V115a.1.1,0,0,0,.12.12h2.59A2,2,0,0,0,377.84,113.12Z"/>
            <path class="cls-2" d="M386.8,109.24A.18.18,0,0,1,387,109h1.78a.34.34,0,0,1,.33.19l5.36,9.07h.08v-9.07a.18.18,0,0,1,.19-.19h1.68a.18.18,0,0,1,.19.19V122a.18.18,0,0,1-.19.19h-1.76a.34.34,0,0,1-.33-.19l-5.38-9.05h-.08V122a.18.18,0,0,1-.19.19H387a.18.18,0,0,1-.19-.19Z"/>
            <path class="cls-2" d="M399.47,119.24a10.64,10.64,0,0,1-.35-3.62,10.63,10.63,0,0,1,.35-3.62,5,5,0,0,1,9.3,0,10.66,10.66,0,0,1,.35,3.62,10.66,10.66,0,0,1-.35,3.62,5,5,0,0,1-9.3,0Zm7.1-.6a10.5,10.5,0,0,0,.23-3,10.39,10.39,0,0,0-.23-3,2.6,2.6,0,0,0-4.89,0,10.39,10.39,0,0,0-.23,3,10.5,10.5,0,0,0,.23,3,2.6,2.6,0,0,0,4.89,0Z"/>
            <path class="cls-2" d="M420.85,122.2a.25.25,0,0,1-.23-.19l-2.52-9h0l-2.53,9a.25.25,0,0,1-.23.19h-1.45a.25.25,0,0,1-.23-.19l-3.23-12.77c0-.12,0-.19.15-.19h1.82a.22.22,0,0,1,.23.19l2.09,8.86h0l2.46-8.86a.24.24,0,0,1,.23-.19h1.35c.14,0,.19.08.23.19l2.51,8.86h0l2-8.86a.21.21,0,0,1,.23-.19h1.8c.14,0,.17.08.15.19L422.55,122a.23.23,0,0,1-.23.19Z"/>
          </g>
          <polygon class="cls-3" points="435.78 135.11 319.93 135.11 319.93 96.13 435.78 96.13 456.81 115.62 435.78 135.11"/>
        </g>
        <line class="cls-4" x1="231.66" y1="35.98" x2="231.66" y2="195.12"/>
      </g>
    </g>
  </g>
</svg>
