<svg xmlns="http://www.w3.org/2000/svg" viewBox="0 0 639.86 214.73">
  <defs>
    <style>
      .cls-1 {
        fill: #0071bc;
      }

      .cls-2 {
        fill: #fff;
      }

      .cls-3, .cls-4 {
        fill: none;
        stroke: #fff;
        stroke-miterlimit: 10;
      }

      .cls-3 {
        stroke-width: 1.5px;
      }

      .cls-4 {
        opacity: 0.51;
      }
    </style>
  </defs>
  <title>tile4b</title>
  <g id="Layer_2" data-name="Layer 2">
    <g id="Layer_1-2" data-name="Layer 1">
      <g>
        <rect class="cls-1" width="639.86" height="214.73"/>
        <g>
          <path class="cls-2" d="M32,137.67a.22.22,0,0,1,.23-.23H35.1a.22.22,0,0,1,.23.23v15.18a.22.22,0,0,1-.23.23H32.18a.22.22,0,0,1-.23-.23Z"/>
          <path class="cls-2" d="M45.2,153.08a.22.22,0,0,1-.23-.23v-6.39c0-1.22-.57-2-1.72-2s-1.75.8-1.75,2v6.39a.22.22,0,0,1-.23.23H38.51a.22.22,0,0,1-.23-.23V142.18a.22.22,0,0,1,.23-.23h2.76a.22.22,0,0,1,.23.23V143h0a3.42,3.42,0,0,1,2.88-1.26c2.46,0,3.79,1.7,3.79,4.14v7a.22.22,0,0,1-.23.23Z"/>
          <path class="cls-2" d="M50.79,150.18a10.49,10.49,0,0,1,0-5.33c.67-2.07,2.46-3.15,4.81-3.15a4.93,4.93,0,0,1,4.21,2.09.23.23,0,0,1,0,.32l-2,1.31a.23.23,0,0,1-.35,0,2,2,0,0,0-1.77-1,1.65,1.65,0,0,0-1.72,1.2,8.9,8.9,0,0,0,0,3.82,1.65,1.65,0,0,0,1.72,1.2,2,2,0,0,0,1.77-1,.23.23,0,0,1,.35,0l2,1.31a.22.22,0,0,1,0,.32,4.93,4.93,0,0,1-4.21,2.09C53.25,153.33,51.46,152.25,50.79,150.18Z"/>
          <path class="cls-2" d="M68.31,153.08a.22.22,0,0,1-.23-.23v-.74h0A3.63,3.63,0,0,1,65,153.33c-2,0-3.7-1-3.7-3.4s1.86-3.59,4.62-3.59h2a.12.12,0,0,0,.14-.14v-.41c0-1-.51-1.52-2.28-1.52a4.15,4.15,0,0,0-2.48.71.18.18,0,0,1-.3,0l-1-1.82a.22.22,0,0,1,.07-.32,7,7,0,0,1,4.14-1.1c3.63,0,4.94,1.24,4.94,4v7.13a.22.22,0,0,1-.23.23Zm-.28-3.7v-.76a.12.12,0,0,0-.14-.14H66.33c-1.36,0-2,.39-2,1.26s.55,1.17,1.61,1.17C67.35,150.92,68,150.41,68,149.38Z"/>
          <path class="cls-2" d="M80.85,153.08a.22.22,0,0,1-.23-.23v-6.39c0-1.22-.57-2-1.72-2s-1.75.8-1.75,2v6.39a.22.22,0,0,1-.23.23H74.16a.22.22,0,0,1-.23-.23V142.18a.22.22,0,0,1,.23-.23h2.76a.22.22,0,0,1,.23.23V143h0A3.42,3.42,0,0,1,80,141.7c2.46,0,3.79,1.7,3.79,4.14v7a.22.22,0,0,1-.23.23Z"/>
          <path class="cls-2" d="M93.43,153.08a.22.22,0,0,1-.23-.23V152h0a3.32,3.32,0,0,1-2.92,1.29,3.68,3.68,0,0,1-3.77-2.67,12.9,12.9,0,0,1,0-6.3,3.66,3.66,0,0,1,3.77-2.67A3.32,3.32,0,0,1,93.18,143h0v-5.31a.22.22,0,0,1,.23-.23h2.76a.22.22,0,0,1,.23.23v15.18a.22.22,0,0,1-.23.23ZM93,149.42a8.9,8.9,0,0,0,0-3.82,1.83,1.83,0,0,0-3.43,0,8.9,8.9,0,0,0,0,3.82,1.83,1.83,0,0,0,3.43,0Z"/>
          <path class="cls-2" d="M99.16,150.16a8,8,0,0,1-.39-2.64,8.17,8.17,0,0,1,.37-2.67,4.66,4.66,0,0,1,4.78-3.15c2.46,0,4.16,1.17,4.81,3.13a10.69,10.69,0,0,1,.37,3.43.22.22,0,0,1-.25.23H102.1a.12.12,0,0,0-.14.14,2.46,2.46,0,0,0,.14.62,2.19,2.19,0,0,0,2.3,1.47,3.57,3.57,0,0,0,2.55-1c.12-.09.23-.11.32,0l1.52,1.43a.21.21,0,0,1,0,.32,6.36,6.36,0,0,1-4.74,1.86C101.55,153.33,99.8,152.16,99.16,150.16Zm6.62-3.82a.12.12,0,0,0,.14-.14,2.75,2.75,0,0,0-.12-.83,2,2,0,0,0-3.73,0,2.78,2.78,0,0,0-.11.83.12.12,0,0,0,.14.14Z"/>
          <path class="cls-2" d="M110.75,151.61a.22.22,0,0,1,0-.32l1.5-1.68a.22.22,0,0,1,.32,0,5.82,5.82,0,0,0,3.4,1.22c1.17,0,1.72-.44,1.72-1.06s-.3-.85-1.59-1l-1.24-.14c-2.35-.23-3.63-1.4-3.63-3.4,0-2.18,1.68-3.56,4.58-3.56a7.56,7.56,0,0,1,4.51,1.38.25.25,0,0,1,0,.35L119.05,145a.22.22,0,0,1-.32,0,5.82,5.82,0,0,0-3-.9c-.94,0-1.4.37-1.4.92s.28.81,1.54.92l1.22.14c2.62.25,3.7,1.52,3.7,3.38,0,2.28-1.79,3.82-5,3.82A7.58,7.58,0,0,1,110.75,151.61Z"/>
          <path class="cls-2" d="M122.85,150.18a10.52,10.52,0,0,1,0-5.33c.67-2.07,2.46-3.15,4.81-3.15a4.93,4.93,0,0,1,4.21,2.09.22.22,0,0,1,0,.32l-2,1.31a.23.23,0,0,1-.34,0,2,2,0,0,0-1.77-1,1.65,1.65,0,0,0-1.72,1.2,8.9,8.9,0,0,0,0,3.82,1.65,1.65,0,0,0,1.72,1.2,2,2,0,0,0,1.77-1,.23.23,0,0,1,.34,0l2,1.31a.22.22,0,0,1,0,.32,4.93,4.93,0,0,1-4.21,2.09C125.31,153.33,123.51,152.25,122.85,150.18Z"/>
          <path class="cls-2" d="M133.54,150.16a8,8,0,0,1-.39-2.64,8.17,8.17,0,0,1,.37-2.67,4.66,4.66,0,0,1,4.78-3.15c2.46,0,4.16,1.17,4.81,3.13a10.69,10.69,0,0,1,.37,3.43.22.22,0,0,1-.25.23h-6.74a.12.12,0,0,0-.14.14,2.46,2.46,0,0,0,.14.62,2.19,2.19,0,0,0,2.3,1.47,3.57,3.57,0,0,0,2.55-1c.12-.09.23-.11.32,0l1.52,1.43a.21.21,0,0,1,0,.32,6.36,6.36,0,0,1-4.74,1.86C135.93,153.33,134.19,152.16,133.54,150.16Zm6.62-3.82a.12.12,0,0,0,.14-.14,2.75,2.75,0,0,0-.12-.83,2,2,0,0,0-3.73,0,2.78,2.78,0,0,0-.11.83.12.12,0,0,0,.14.14Z"/>
          <path class="cls-2" d="M152.74,153.08a.22.22,0,0,1-.23-.23v-6.39c0-1.22-.57-2-1.72-2s-1.75.8-1.75,2v6.39a.22.22,0,0,1-.23.23h-2.76a.22.22,0,0,1-.23-.23V142.18a.22.22,0,0,1,.23-.23h2.76a.22.22,0,0,1,.23.23V143h0a3.42,3.42,0,0,1,2.88-1.26c2.46,0,3.79,1.7,3.79,4.14v7a.22.22,0,0,1-.23.23Z"/>
          <path class="cls-2" d="M162.31,153.22c-2.57,0-3.54-1.15-3.54-3.7v-5.06a.12.12,0,0,0-.14-.14h-.69a.22.22,0,0,1-.23-.23v-1.91a.22.22,0,0,1,.23-.23h.69a.12.12,0,0,0,.14-.14v-3a.22.22,0,0,1,.23-.23h2.74a.22.22,0,0,1,.23.23v3a.12.12,0,0,0,.14.14h1.43a.22.22,0,0,1,.23.23v1.91a.22.22,0,0,1-.23.23h-1.43a.12.12,0,0,0-.14.14v4.92c0,.83.28,1.1,1,1.1h.55a.22.22,0,0,1,.23.23V153a.22.22,0,0,1-.23.23Z"/>
        </g>
        <g>
          <g>
            <path class="cls-2" d="M273.88,147.47a.21.21,0,0,1,0-.29l1.2-1.39a.17.17,0,0,1,.27,0,5.89,5.89,0,0,0,3.58,1.39c1.57,0,2.48-.79,2.48-1.9,0-.95-.58-1.57-2.4-1.82l-.7-.1c-2.53-.35-4-1.57-4-3.75,0-2.38,1.74-4,4.45-4a7.23,7.23,0,0,1,4.26,1.32.17.17,0,0,1,0,.27l-.93,1.43a.19.19,0,0,1-.27.06,5.56,5.56,0,0,0-3.15-1c-1.33,0-2.07.73-2.07,1.76s.64,1.53,2.42,1.78l.7.1c2.53.35,3.93,1.55,3.93,3.81s-1.68,4.08-5,4.08A7.42,7.42,0,0,1,273.88,147.47Z"/>
            <path class="cls-2" d="M285.93,136a.18.18,0,0,1,.19-.19H288a.18.18,0,0,1,.19.19v5.18a.1.1,0,0,0,.12.12h5a.1.1,0,0,0,.12-.12V136a.18.18,0,0,1,.19-.19h1.9a.18.18,0,0,1,.19.19V148.8a.18.18,0,0,1-.19.19h-1.9a.18.18,0,0,1-.19-.19v-5.3a.1.1,0,0,0-.12-.12h-5a.1.1,0,0,0-.12.12v5.3a.18.18,0,0,1-.19.19h-1.9a.18.18,0,0,1-.19-.19Z"/>
            <path class="cls-2" d="M298.6,146a10.64,10.64,0,0,1-.35-3.62,10.63,10.63,0,0,1,.35-3.62,5,5,0,0,1,9.3,0,10.63,10.63,0,0,1,.35,3.62,10.64,10.64,0,0,1-.35,3.62,5,5,0,0,1-9.3,0Zm7.1-.6a10.5,10.5,0,0,0,.23-3,10.39,10.39,0,0,0-.23-3,2.6,2.6,0,0,0-4.89,0,10.39,10.39,0,0,0-.23,3,10.5,10.5,0,0,0,.23,3,2.6,2.6,0,0,0,4.89,0Z"/>
            <path class="cls-2" d="M311,149a.18.18,0,0,1-.19-.19V136a.18.18,0,0,1,.19-.19h4.93a4.1,4.1,0,1,1,0,8.18h-2.73a.1.1,0,0,0-.12.12v4.66a.18.18,0,0,1-.19.19Zm7-9.07a2,2,0,0,0-2.19-2h-2.59a.1.1,0,0,0-.12.12v3.83a.1.1,0,0,0,.12.12h2.59A2,2,0,0,0,317.95,139.93Z"/>
            <path class="cls-2" d="M326.9,136a.18.18,0,0,1,.19-.19h1.78a.34.34,0,0,1,.33.19l5.36,9.07h.08V136a.18.18,0,0,1,.19-.19h1.68a.18.18,0,0,1,.19.19V148.8a.18.18,0,0,1-.19.19h-1.76a.34.34,0,0,1-.33-.19L329,139.75H329v9.05a.18.18,0,0,1-.19.19H327.1a.18.18,0,0,1-.19-.19Z"/>
            <path class="cls-2" d="M339.57,146a10.64,10.64,0,0,1-.35-3.62,10.63,10.63,0,0,1,.35-3.62,5,5,0,0,1,9.3,0,10.66,10.66,0,0,1,.35,3.62,10.66,10.66,0,0,1-.35,3.62,5,5,0,0,1-9.3,0Zm7.1-.6a10.5,10.5,0,0,0,.23-3,10.39,10.39,0,0,0-.23-3,2.6,2.6,0,0,0-4.89,0,10.39,10.39,0,0,0-.23,3,10.5,10.5,0,0,0,.23,3,2.6,2.6,0,0,0,4.89,0Z"/>
            <path class="cls-2" d="M360.95,149a.25.25,0,0,1-.23-.19l-2.52-9h0l-2.53,9a.25.25,0,0,1-.23.19h-1.45a.25.25,0,0,1-.23-.19L350.48,136c0-.12,0-.19.15-.19h1.82a.22.22,0,0,1,.23.19l2.09,8.86h0l2.46-8.86a.24.24,0,0,1,.23-.19h1.35c.14,0,.19.08.23.19l2.51,8.86h0l2-8.86a.21.21,0,0,1,.23-.19h1.8c.14,0,.17.08.15.19l-3.21,12.77a.23.23,0,0,1-.23.19Z"/>
          </g>
          <polygon class="cls-3" points="375.88 161.91 260.03 161.91 260.03 122.93 375.88 122.93 396.91 142.42 375.88 161.91"/>
        </g>
        <line class="cls-4" x1="193.66" y1="21.91" x2="193.66" y2="181.05"/>
        <path class="cls-2" d="M89.54,86.11c0-1.08,0-2.15,0-3.23a.44.44,0,0,0-.31-.49,2.87,2.87,0,0,1-1.87-2.74A17.72,17.72,0,0,0,84.68,71c-1.11-1.94-2.32-3.83-3.51-5.72a18.62,18.62,0,0,1-3-11.08,18.89,18.89,0,0,1,20.2-18A18.9,18.9,0,0,1,112.8,65.32c-1.31,2.11-2.63,4.21-3.86,6.37A17,17,0,0,0,106.75,78c-.07.56-.09,1.13-.12,1.69a2.94,2.94,0,0,1-1.86,2.71.47.47,0,0,0-.34.51c0,2,0,3.92,0,5.89A4.35,4.35,0,0,1,103,92.2c-.9.84-1.82,1.68-2.65,2.59a5,5,0,0,1-6.71,0c-.89-1-1.9-1.84-2.83-2.78A5.42,5.42,0,0,1,90,91a3.85,3.85,0,0,1-.49-2C89.54,88,89.54,87.05,89.54,86.11ZM100.93,80h2.6c.37,0,.49-.23.49-.58a18.59,18.59,0,0,1,1.95-7.7,83.09,83.09,0,0,1,4.62-7.88c3.41-5.58,3.63-11.31.42-17a16.23,16.23,0,0,0-28.2,16.06c1,1.74,2.11,3.4,3.15,5.11,2.16,3.55,3.94,7.25,4,11.53,0,.33.21.46.51.46H93c0-.25,0-7,0-10.19,0-.3.09-.6.13-.9a1.38,1.38,0,0,0,0-.61q-2.44-6.12-4.91-12.23a2.18,2.18,0,0,0-.58-.76.92.92,0,0,1-.25-1.3.86.86,0,0,1,1.27-.12,2.83,2.83,0,0,0,3.26,0,.85.85,0,0,1,1.19,0,6.6,6.6,0,0,0,7.65,0,.85.85,0,0,1,1.19,0,2.86,2.86,0,0,0,3.3,0,.93.93,0,0,1,.68-.18,1.34,1.34,0,0,1,.68.58.77.77,0,0,1-.26.94c-.21.19-.48.37-.58.61q-2.55,6.27-5,12.55a.93.93,0,0,0,0,.45,7.7,7.7,0,0,1,.16,1c0,3.21,0,6.42,0,9.63ZM98.67,68.77c0,.17,0,.32,0,.48q0,3.05,0,6.1c0,.16,0,.35,0,.47a.67.67,0,0,1-.45.29c-.12,0-.26-.21-.34-.36s0-.26,0-.39q0-5.08,0-10.16c0-.87,0-1.74,0-2.62,0-.12-.12-.33-.2-.33-.46,0-.92,0-1.42,0,0,.23,0,.4,0,.58q0,6.28,0,12.56c0,.13,0,.28,0,.39s-.22.34-.35.35a.59.59,0,0,1-.43-.26.88.88,0,0,1-.06-.46q0-3.07,0-6.15c0-.15,0-.31,0-.49l-.45.1c-.86.14-1,.25-1,1.12,0,3.18,0,9.88,0,10h6.16c0-.19,0-8.57,0-10.27a.76.76,0,0,0-.57-.86A7.28,7.28,0,0,0,98.67,68.77Zm2.73-13.15c-.76,1.63-1.51,3.2-2.23,4.78,0,.09.06.28.14.39a.88.88,0,0,1-.21,1.32,3.33,3.33,0,0,1-.43.18c0,1.7,0,3.37,0,5a.63.63,0,0,0,.49.65,5.9,5.9,0,0,0,.81.11l4.82-12A5.1,5.1,0,0,1,101.4,55.62Zm-12.19.51,4.8,12,.47-.08c.68-.09.83-.26.83-1s0-1.54,0-2.31,0-1.65,0-2.46c-.94-.35-1.06-.76-.52-1.61a.49.49,0,0,0,0-.39q-1-2.21-2.08-4.41a.87.87,0,0,0-.11-.16,13.4,13.4,0,0,1-1.63.41A14.42,14.42,0,0,1,89.22,56.13Zm2.05,31.71c0,.44,0,.86,0,1.28s.11.44.46.44c2.13,0,9.19,0,10.58,0,.19,0,.4,0,.4-.26,0-.47,0-.95,0-1.45Zm0-3.48h11.39V82.67H91.29Zm11.41.91H91.27v1.67H102.7ZM93.88,56.35c.66,1.4,1.26,2.7,1.88,4,0,.09.23.15.36.15.57,0,1.13,0,1.7,0a.45.45,0,0,0,.49-.31c.53-1.16,1.08-2.31,1.62-3.47,0-.1.07-.2.13-.36A9,9,0,0,1,93.88,56.35Zm7.51,35H92.62c.12.15.2.25.28.33.41.41.85.79,1.24,1.22a1.06,1.06,0,0,0,.88.34c1.21,0,2.41,0,3.62,0a1.66,1.66,0,0,0,1.44-.59C100.47,92.18,100.91,91.78,101.39,91.31Z"/>
        <g>
          <path class="cls-2" d="M269.33,52.77a3.51,3.51,0,0,1-1.49,1.45,5,5,0,0,1-2.38.52,4.37,4.37,0,0,1-3.21-1.11,4,4,0,0,1-1.12-3V42.81h2.23v7.74a2.79,2.79,0,0,0,.52,1.84,2,2,0,0,0,1.58.61,2,2,0,0,0,1.6-.61,2.8,2.8,0,0,0,.52-1.84V42.81h2.25v7.86A4.34,4.34,0,0,1,269.33,52.77Z"/>
          <path class="cls-2" d="M279.45,46.53a6.23,6.23,0,0,1,.82,3.47,6.79,6.79,0,0,1-.41,2.46,3.73,3.73,0,0,1-1.22,1.68,3.06,3.06,0,0,1-1.9.61,2.79,2.79,0,0,1-2.25-1v4.18l-2.16.24V45.55h1.89l.12,1.1a3.35,3.35,0,0,1,1.19-1,3.13,3.13,0,0,1,1.39-.34A2.82,2.82,0,0,1,279.45,46.53ZM278,50a4.86,4.86,0,0,0-.43-2.37,1.41,1.41,0,0,0-1.29-.72,1.68,1.68,0,0,0-1,.33,2.93,2.93,0,0,0-.8.89v4a1.9,1.9,0,0,0,1.64.93Q278,53.09,278,50Z"/>
          <path class="cls-2" d="M290.7,54.57a4.27,4.27,0,0,1-1.19.17,2.65,2.65,0,0,1-2-.75,3.08,3.08,0,0,1-.68-2.17V47.1h-1.4V45.55h1.4v-2l2.16-.25v2.23h2.08l-.22,1.56H289v4.67a1.53,1.53,0,0,0,.23.95.86.86,0,0,0,.72.29,2.06,2.06,0,0,0,1.07-.34l.76,1.4A3.47,3.47,0,0,1,290.7,54.57Z"/>
          <path class="cls-2" d="M299.54,46.55A5.06,5.06,0,0,1,300.64,50a5.74,5.74,0,0,1-.51,2.48,3.85,3.85,0,0,1-1.45,1.67,4.16,4.16,0,0,1-2.25.59,3.92,3.92,0,0,1-3.09-1.26A5.06,5.06,0,0,1,292.22,50a5.68,5.68,0,0,1,.51-2.47,3.84,3.84,0,0,1,1.46-1.66,4.2,4.2,0,0,1,2.26-.59A3.89,3.89,0,0,1,299.54,46.55Zm-5,3.46a4.44,4.44,0,0,0,.48,2.34,1.76,1.76,0,0,0,2.89,0,4.45,4.45,0,0,0,.48-2.33,4.4,4.4,0,0,0-.48-2.32,1.59,1.59,0,0,0-1.43-.75Q294.51,46.93,294.51,50Z"/>
          <path class="cls-2" d="M313.47,44.43a7.73,7.73,0,0,1,1,4.38,7.81,7.81,0,0,1-1,4.4,3.78,3.78,0,0,1-6.07,0,7.81,7.81,0,0,1-1-4.4,7.73,7.73,0,0,1,1-4.38,3.79,3.79,0,0,1,6.07,0ZM309,45.52a8.7,8.7,0,0,0-.44,3.29,8.82,8.82,0,0,0,.44,3.31,1.5,1.5,0,0,0,2.81,0,8.84,8.84,0,0,0,.44-3.32,8.7,8.7,0,0,0-.44-3.3,1.5,1.5,0,0,0-2.81,0Z"/>
          <path class="cls-2" d="M318.28,52.4a1.36,1.36,0,0,1,0,1.94,1.33,1.33,0,0,1-1,.41,1.28,1.28,0,0,1-1-.41,1.39,1.39,0,0,1,0-1.94,1.3,1.3,0,0,1,1-.4A1.35,1.35,0,0,1,318.28,52.4Z"/>
          <path class="cls-2" d="M326.85,44.1a4.75,4.75,0,0,1,1,3.22,9,9,0,0,1-.69,3.79,5.41,5.41,0,0,1-2.13,2.36,13.15,13.15,0,0,1-3.8,1.44l-.46-1.54a8.85,8.85,0,0,0,3.4-1.53,3.8,3.8,0,0,0,1.37-2.58,2.91,2.91,0,0,1-2.43,1.2,3,3,0,0,1-1.61-.45,3.08,3.08,0,0,1-1.16-1.29,4.33,4.33,0,0,1-.42-2,3.87,3.87,0,0,1,.52-2,3.56,3.56,0,0,1,1.43-1.34,4.25,4.25,0,0,1,2-.47A3.7,3.7,0,0,1,326.85,44.1Zm-1.18,3.61a5.23,5.23,0,0,0-.4-2.46,1.46,1.46,0,0,0-1.38-.74,1.61,1.61,0,0,0-1.32.57,2.52,2.52,0,0,0-.47,1.64,2.49,2.49,0,0,0,.45,1.64,1.47,1.47,0,0,0,1.17.52A2.28,2.28,0,0,0,325.67,47.71Z"/>
          <path class="cls-2" d="M336.76,57.1a5.22,5.22,0,0,1-3,1.07l-.22-1.57a5.42,5.42,0,0,0,1.41-.38,2.27,2.27,0,0,0,.85-.65,4.35,4.35,0,0,0,.59-1.08h-.74l-2.84-8.94h2.3L337,53.05l2-7.51h2.23l-2.91,9A5.49,5.49,0,0,1,336.76,57.1Z"/>
          <path class="cls-2" d="M349.66,50.69H344a2.94,2.94,0,0,0,.68,1.86,2.07,2.07,0,0,0,1.51.56,3.2,3.2,0,0,0,1.12-.19,5.22,5.22,0,0,0,1.12-.6l.9,1.23a5.15,5.15,0,0,1-3.31,1.2,4,4,0,0,1-3.15-1.25,5,5,0,0,1-1.11-3.42,6.12,6.12,0,0,1,.47-2.46,3.9,3.9,0,0,1,1.37-1.71,4.08,4.08,0,0,1,5,.58,4.91,4.91,0,0,1,1,3.32Q349.71,50,349.66,50.69Zm-2.1-1.5q0-2.35-1.74-2.35a1.48,1.48,0,0,0-1.24.58,3.48,3.48,0,0,0-.53,1.87h3.52Z"/>
          <path class="cls-2" d="M358.47,52.89a1,1,0,0,0,.52.38l-.46,1.44a2.85,2.85,0,0,1-1.24-.36,1.85,1.85,0,0,1-.74-.94,2.86,2.86,0,0,1-1.14,1,3.47,3.47,0,0,1-1.53.33,2.89,2.89,0,0,1-2.11-.76,2.66,2.66,0,0,1-.78-2A2.58,2.58,0,0,1,352,49.76a5.06,5.06,0,0,1,3-.77h1.12v-.51a1.55,1.55,0,0,0-.4-1.21,1.92,1.92,0,0,0-1.28-.35,7.58,7.58,0,0,0-2.37.47l-.51-1.47a9,9,0,0,1,3.25-.64q3.43,0,3.43,3.08v3.75A1.43,1.43,0,0,0,358.47,52.89Zm-2.29-.82V50.26h-.9q-2.1,0-2.1,1.56a1.43,1.43,0,0,0,.32,1,1.21,1.21,0,0,0,.95.36A1.91,1.91,0,0,0,356.18,52.07Z"/>
          <path class="cls-2" d="M366.24,45.43l-.37,2.1a3.23,3.23,0,0,0-.79-.1,1.52,1.52,0,0,0-1.25.57,4.37,4.37,0,0,0-.73,1.75v4.75h-2.16V45.55h1.88l.2,1.76a3.21,3.21,0,0,1,.93-1.48,2.11,2.11,0,0,1,1.4-.52A3.19,3.19,0,0,1,366.24,45.43Z"/>
          <path class="cls-2" d="M377.13,45.43l-.37,2.1a3.23,3.23,0,0,0-.79-.1,1.52,1.52,0,0,0-1.25.57,4.37,4.37,0,0,0-.73,1.75v4.75h-2.16V45.55h1.88l.2,1.76a3.21,3.21,0,0,1,.93-1.48,2.11,2.11,0,0,1,1.4-.52A3.19,3.19,0,0,1,377.13,45.43Z"/>
          <path class="cls-2" d="M384.92,52.89a1,1,0,0,0,.52.38L385,54.71a2.85,2.85,0,0,1-1.24-.36,1.85,1.85,0,0,1-.74-.94,2.86,2.86,0,0,1-1.14,1,3.47,3.47,0,0,1-1.53.33,2.89,2.89,0,0,1-2.11-.76,2.66,2.66,0,0,1-.78-2,2.58,2.58,0,0,1,1.06-2.22,5.06,5.06,0,0,1,3-.77h1.12v-.51a1.55,1.55,0,0,0-.4-1.21,1.92,1.92,0,0,0-1.28-.35,7.58,7.58,0,0,0-2.37.47l-.51-1.47a9,9,0,0,1,3.25-.64q3.43,0,3.43,3.08v3.75A1.43,1.43,0,0,0,384.92,52.89Zm-2.29-.82V50.26h-.9q-2.1,0-2.1,1.56a1.43,1.43,0,0,0,.32,1,1.21,1.21,0,0,0,.95.36A1.91,1.91,0,0,0,382.63,52.07Z"/>
          <path class="cls-2" d="M391.44,54.57a4.27,4.27,0,0,1-1.19.17,2.65,2.65,0,0,1-2-.75,3.08,3.08,0,0,1-.68-2.17V47.1h-1.4V45.55h1.4v-2l2.16-.25v2.23h2.08l-.22,1.56h-1.86v4.67a1.53,1.53,0,0,0,.23.95.86.86,0,0,0,.72.29,2.06,2.06,0,0,0,1.07-.34l.76,1.4A3.47,3.47,0,0,1,391.44,54.57Z"/>
          <path class="cls-2" d="M400.83,50.69h-5.61a2.94,2.94,0,0,0,.68,1.86,2.07,2.07,0,0,0,1.51.56,3.2,3.2,0,0,0,1.12-.19,5.22,5.22,0,0,0,1.12-.6l.9,1.23a5.15,5.15,0,0,1-3.31,1.2,4,4,0,0,1-3.15-1.25A5,5,0,0,1,393,50.08a6.12,6.12,0,0,1,.47-2.46,3.9,3.9,0,0,1,1.37-1.71,4.08,4.08,0,0,1,5,.58,4.91,4.91,0,0,1,1,3.32Q400.89,50,400.83,50.69Zm-2.1-1.5q0-2.35-1.74-2.35a1.48,1.48,0,0,0-1.24.58,3.48,3.48,0,0,0-.53,1.87h3.52Z"/>
          <path class="cls-2" d="M410.4,54.49h-1.91l-.15-1.13a3.14,3.14,0,0,1-1.07,1,2.92,2.92,0,0,1-1.49.37,2.88,2.88,0,0,1-2.52-1.27,6,6,0,0,1-.88-3.45,6.45,6.45,0,0,1,.44-2.46,3.79,3.79,0,0,1,1.26-1.67,3.19,3.19,0,0,1,1.94-.6,3,3,0,0,1,2.21,1V41.73l2.16.24Zm-3-1.67a2.87,2.87,0,0,0,.83-.87V47.86a2.83,2.83,0,0,0-.78-.71,1.78,1.78,0,0,0-.91-.24,1.56,1.56,0,0,0-1.38.77,4.33,4.33,0,0,0-.5,2.32,4.77,4.77,0,0,0,.44,2.38,1.42,1.42,0,0,0,1.29.72A1.85,1.85,0,0,0,407.41,52.82Z"/>
          <path class="cls-2" d="M419.43,52.84a.45.45,0,0,0,.39.16,1.59,1.59,0,0,0,.51-.08l.46,1.52a4,4,0,0,1-1.54.3,2,2,0,0,1-1.55-.58,2.41,2.41,0,0,1-.54-1.7V42l2.16-.24V52.31A.91.91,0,0,0,419.43,52.84Z"/>
          <path class="cls-2" d="M424.27,41.4a1.28,1.28,0,0,1,.38.94,1.25,1.25,0,0,1-.38.93,1.36,1.36,0,0,1-1,.37,1.33,1.33,0,0,1-1-.37,1.25,1.25,0,0,1-.38-.93,1.28,1.28,0,0,1,.38-.94,1.32,1.32,0,0,1,1-.38A1.34,1.34,0,0,1,424.27,41.4Zm-2.05,13.09V45.55h2.16v8.94Z"/>
          <path class="cls-2" d="M429.68,43.66a1.33,1.33,0,0,0-.28.94v.95h2.15l-.24,1.56h-1.91v7.39h-2.16V47.1h-1.45V45.55h1.45v-1a2.72,2.72,0,0,1,.82-2.05,3.23,3.23,0,0,1,2.33-.79,5.46,5.46,0,0,1,2.32.52l-.63,1.45a3.45,3.45,0,0,0-1.47-.34A1.22,1.22,0,0,0,429.68,43.66Z"/>
          <path class="cls-2" d="M440,50.69h-5.61a2.94,2.94,0,0,0,.68,1.86,2.07,2.07,0,0,0,1.51.56,3.2,3.2,0,0,0,1.12-.19,5.22,5.22,0,0,0,1.12-.6l.9,1.23a5.15,5.15,0,0,1-3.31,1.2,4,4,0,0,1-3.15-1.25,5,5,0,0,1-1.11-3.42,6.12,6.12,0,0,1,.47-2.46A3.9,3.9,0,0,1,434,45.91a4.08,4.08,0,0,1,5,.58,4.91,4.91,0,0,1,1,3.32Q440,50,440,50.69Zm-2.1-1.5q0-2.35-1.74-2.35a1.48,1.48,0,0,0-1.24.58,3.48,3.48,0,0,0-.53,1.87h3.52Z"/>
          <path class="cls-2" d="M447.26,47.54l-1.57,1.15-1.22-2.2-1.2,2.2-1.57-1.13,1.71-1.84-2.47-.47.59-1.79,2.28,1L443.49,42h2l-.32,2.55,2.27-1.08.61,1.81-2.47.47Z"/>
          <path class="cls-2" d="M270.2,83.23l-.3-4.89q-.15-2.55-.15-4v-.73L267.61,82H265.5l-2.27-8.4q.05.81.05,1.64,0,1.28-.12,3.21l-.29,4.82h-2.16l.93-11.68h2.87l2.08,8.18,2-8.18h2.91l.91,11.68Z"/>
          <path class="cls-2" d="M281.31,75.29a5.06,5.06,0,0,1,1.11,3.46,5.74,5.74,0,0,1-.51,2.48,3.85,3.85,0,0,1-1.45,1.67,4.16,4.16,0,0,1-2.25.59,3.92,3.92,0,0,1-3.09-1.26A5.06,5.06,0,0,1,274,78.75a5.68,5.68,0,0,1,.51-2.47A3.84,3.84,0,0,1,276,74.63a4.2,4.2,0,0,1,2.26-.59A3.89,3.89,0,0,1,281.31,75.29Zm-5,3.46a4.44,4.44,0,0,0,.48,2.34,1.76,1.76,0,0,0,2.89,0,4.45,4.45,0,0,0,.48-2.33,4.4,4.4,0,0,0-.48-2.32,1.59,1.59,0,0,0-1.43-.75Q276.28,75.67,276.28,78.75Z"/>
          <path class="cls-2" d="M290.45,75.1l-.84,1.3a3.89,3.89,0,0,0-2.2-.76,1.86,1.86,0,0,0-1,.25.75.75,0,0,0-.36.65.82.82,0,0,0,.15.51,1.4,1.4,0,0,0,.55.38,9.41,9.41,0,0,0,1.18.4,5.17,5.17,0,0,1,2.16,1,2.31,2.31,0,0,1,.7,1.79,2.4,2.4,0,0,1-1.08,2.09,4.6,4.6,0,0,1-2.69.75,5.7,5.7,0,0,1-2-.34,4.87,4.87,0,0,1-1.56-.93L284.5,81a3.76,3.76,0,0,0,2.4.9,2.1,2.1,0,0,0,1.17-.29.87.87,0,0,0,.44-.76,1.09,1.09,0,0,0-.16-.63,1.39,1.39,0,0,0-.58-.42,10.94,10.94,0,0,0-1.29-.44,4.32,4.32,0,0,1-2-1,2.31,2.31,0,0,1-.64-1.67,2.21,2.21,0,0,1,.43-1.33,2.87,2.87,0,0,1,1.22-.93,4.53,4.53,0,0,1,1.8-.34A5,5,0,0,1,290.45,75.1Z"/>
          <path class="cls-2" d="M296.56,83.32a4.27,4.27,0,0,1-1.19.17,2.65,2.65,0,0,1-2-.75,3.08,3.08,0,0,1-.68-2.17V75.84h-1.4V74.29h1.4v-2l2.16-.25v2.23h2.08l-.22,1.56h-1.86v4.67a1.53,1.53,0,0,0,.23.95.86.86,0,0,0,.72.29,2.06,2.06,0,0,0,1.07-.34l.76,1.4A3.47,3.47,0,0,1,296.56,83.32Z"/>
          <path class="cls-2" d="M301,81.58a.45.45,0,0,0,.39.16,1.59,1.59,0,0,0,.51-.08l.46,1.52a4,4,0,0,1-1.54.3,2,2,0,0,1-1.55-.58,2.41,2.41,0,0,1-.54-1.7V70.7l2.16-.24V81.05A.91.91,0,0,0,301,81.58Z"/>
          <path class="cls-2" d="M306.51,85.84a5.22,5.22,0,0,1-3,1.07l-.22-1.57A5.42,5.42,0,0,0,304.7,85a2.27,2.27,0,0,0,.85-.65,4.35,4.35,0,0,0,.59-1.08h-.74l-2.84-8.94h2.3l1.94,7.51,2-7.51h2.23l-2.91,9A5.49,5.49,0,0,1,306.51,85.84Z"/>
          <path class="cls-2" d="M323.73,75.27a6.23,6.23,0,0,1,.82,3.47,6.79,6.79,0,0,1-.41,2.46,3.73,3.73,0,0,1-1.22,1.68,3.06,3.06,0,0,1-1.9.61,2.79,2.79,0,0,1-2.25-1v4.18l-2.16.24V74.29h1.89l.12,1.1a3.35,3.35,0,0,1,1.19-1A3.13,3.13,0,0,1,321.2,74,2.82,2.82,0,0,1,323.73,75.27Zm-1.45,3.48a4.86,4.86,0,0,0-.43-2.37,1.41,1.41,0,0,0-1.29-.72,1.68,1.68,0,0,0-1,.33,2.93,2.93,0,0,0-.8.89v4a1.9,1.9,0,0,0,1.64.93Q322.29,81.83,322.29,78.75Z"/>
          <path class="cls-2" d="M333.31,74.76a2.82,2.82,0,0,1,.68,2v6.47h-2.16V77.09a1.72,1.72,0,0,0-.28-1.12,1,1,0,0,0-.82-.32,1.62,1.62,0,0,0-1,.35,4,4,0,0,0-.88,1v6.24h-2.16V70.72l2.16-.22v4.87a3.22,3.22,0,0,1,2.6-1.34A2.42,2.42,0,0,1,333.31,74.76Z"/>
          <path class="cls-2" d="M343.28,81.63a1,1,0,0,0,.52.38l-.46,1.44a2.85,2.85,0,0,1-1.24-.36,1.85,1.85,0,0,1-.74-.94,2.86,2.86,0,0,1-1.14,1,3.47,3.47,0,0,1-1.53.33,2.89,2.89,0,0,1-2.11-.76,2.66,2.66,0,0,1-.78-2,2.58,2.58,0,0,1,1.06-2.22,5.06,5.06,0,0,1,3-.77H341v-.51a1.55,1.55,0,0,0-.4-1.21,1.92,1.92,0,0,0-1.28-.35,7.58,7.58,0,0,0-2.37.47l-.51-1.47a9,9,0,0,1,3.25-.64q3.43,0,3.43,3.08v3.75A1.43,1.43,0,0,0,343.28,81.63ZM341,80.81V79h-.9q-2.1,0-2.1,1.56a1.43,1.43,0,0,0,.32,1,1.21,1.21,0,0,0,.95.36A1.91,1.91,0,0,0,341,80.81Z"/>
          <path class="cls-2" d="M351.74,75.1l-.84,1.3a3.89,3.89,0,0,0-2.2-.76,1.86,1.86,0,0,0-1,.25.75.75,0,0,0-.36.65.82.82,0,0,0,.15.51,1.4,1.4,0,0,0,.55.38,9.41,9.41,0,0,0,1.18.4,5.17,5.17,0,0,1,2.16,1,2.31,2.31,0,0,1,.7,1.79,2.4,2.4,0,0,1-1.08,2.09,4.6,4.6,0,0,1-2.69.75,5.7,5.7,0,0,1-2-.34,4.87,4.87,0,0,1-1.56-.93l1.1-1.23a3.76,3.76,0,0,0,2.4.9,2.1,2.1,0,0,0,1.17-.29.87.87,0,0,0,.44-.76,1.09,1.09,0,0,0-.16-.63,1.39,1.39,0,0,0-.58-.42,10.94,10.94,0,0,0-1.29-.44,4.32,4.32,0,0,1-2-1,2.31,2.31,0,0,1-.64-1.67,2.21,2.21,0,0,1,.43-1.33,2.87,2.87,0,0,1,1.22-.93,4.53,4.53,0,0,1,1.8-.34A5,5,0,0,1,351.74,75.1Z"/>
          <path class="cls-2" d="M361.07,79.43h-5.61a2.94,2.94,0,0,0,.68,1.86,2.07,2.07,0,0,0,1.51.56,3.2,3.2,0,0,0,1.12-.19,5.22,5.22,0,0,0,1.12-.6l.9,1.23a5.15,5.15,0,0,1-3.31,1.2,4,4,0,0,1-3.15-1.25,5,5,0,0,1-1.11-3.42,6.12,6.12,0,0,1,.47-2.46,3.9,3.9,0,0,1,1.37-1.71,4.08,4.08,0,0,1,5,.58,4.91,4.91,0,0,1,1,3.32Q361.12,78.72,361.07,79.43Zm-2.1-1.5q0-2.35-1.74-2.35a1.48,1.48,0,0,0-1.24.58,3.48,3.48,0,0,0-.53,1.87H359Z"/>
          <path class="cls-2" d="M370.64,83.23h-1.91l-.15-1.13a3.14,3.14,0,0,1-1.07,1,2.92,2.92,0,0,1-1.49.37,2.88,2.88,0,0,1-2.52-1.27,6,6,0,0,1-.88-3.45,6.45,6.45,0,0,1,.44-2.46,3.79,3.79,0,0,1,1.26-1.67,3.19,3.19,0,0,1,1.94-.6,3,3,0,0,1,2.21,1V70.47l2.16.24Zm-3-1.67a2.87,2.87,0,0,0,.83-.87V76.6a2.83,2.83,0,0,0-.78-.71,1.78,1.78,0,0,0-.91-.24,1.56,1.56,0,0,0-1.38.77,4.33,4.33,0,0,0-.5,2.32,4.77,4.77,0,0,0,.44,2.38,1.42,1.42,0,0,0,1.29.72A1.85,1.85,0,0,0,367.65,81.57Z"/>
          <path class="cls-2" d="M384.21,75.29a5.06,5.06,0,0,1,1.11,3.46,5.74,5.74,0,0,1-.51,2.48,3.85,3.85,0,0,1-1.45,1.67,4.16,4.16,0,0,1-2.25.59A3.92,3.92,0,0,1,378,82.23a5.06,5.06,0,0,1-1.12-3.47,5.68,5.68,0,0,1,.51-2.47,3.84,3.84,0,0,1,1.46-1.66,4.2,4.2,0,0,1,2.26-.59A3.89,3.89,0,0,1,384.21,75.29Zm-5,3.46a4.44,4.44,0,0,0,.48,2.34,1.76,1.76,0,0,0,2.89,0,4.45,4.45,0,0,0,.48-2.33,4.4,4.4,0,0,0-.48-2.32,1.59,1.59,0,0,0-1.43-.75Q379.18,75.67,379.18,78.75Z"/>
          <path class="cls-2" d="M392.62,83.23,392.5,82a3.33,3.33,0,0,1-1.16,1.13,3.21,3.21,0,0,1-1.58.37,2.34,2.34,0,0,1-1.85-.74,3,3,0,0,1-.65-2V74.29h2.16v6.15a1.73,1.73,0,0,0,.26,1.08,1,1,0,0,0,.84.32,2.18,2.18,0,0,0,1.81-1.27V74.29h2.16v8.94Z"/>
          <path class="cls-2" d="M401.17,83.32a4.27,4.27,0,0,1-1.19.17,2.65,2.65,0,0,1-2-.75,3.08,3.08,0,0,1-.68-2.17V75.84h-1.4V74.29h1.4v-2l2.16-.25v2.23h2.08l-.22,1.56h-1.86v4.67a1.53,1.53,0,0,0,.23.95.86.86,0,0,0,.72.29,2.06,2.06,0,0,0,1.07-.34l.76,1.4A3.47,3.47,0,0,1,401.17,83.32Z"/>
          <path class="cls-2" d="M405.14,81.14a1.32,1.32,0,0,1,.4,1,2.3,2.3,0,0,1-.1.66,7.35,7.35,0,0,1-.34.86l-1.1,2.5h-1.32l.69-2.91a1.28,1.28,0,0,1-.58-1.13,1.33,1.33,0,0,1,1.35-1.35A1.36,1.36,0,0,1,405.14,81.14Z"/>
          <path class="cls-2" d="M419,79.43H413.4a2.94,2.94,0,0,0,.68,1.86,2.07,2.07,0,0,0,1.51.56,3.2,3.2,0,0,0,1.12-.19,5.22,5.22,0,0,0,1.12-.6l.9,1.23a5.15,5.15,0,0,1-3.31,1.2,4,4,0,0,1-3.15-1.25,5,5,0,0,1-1.11-3.42,6.12,6.12,0,0,1,.47-2.46A3.9,3.9,0,0,1,413,74.65a4.08,4.08,0,0,1,5,.58,4.91,4.91,0,0,1,1,3.32Q419.06,78.72,419,79.43Zm-2.1-1.5q0-2.35-1.74-2.35a1.48,1.48,0,0,0-1.24.58A3.48,3.48,0,0,0,413.4,78h3.52Z"/>
          <path class="cls-2" d="M423.74,79.68l-1.83,3.55h-2.38l3-4.72-2.67-4.23h2.47l1.52,3,1.5-3h2.35l-2.59,4.16,3,4.78h-2.5Z"/>
          <path class="cls-2" d="M434.18,74.29a4.22,4.22,0,0,1,1.33.79l-1,1.32a3.42,3.42,0,0,0-.86-.5,2.59,2.59,0,0,0-.93-.16q-2,0-2,3.06a3.73,3.73,0,0,0,.52,2.24,1.76,1.76,0,0,0,1.49.69,2.34,2.34,0,0,0,.89-.16,4,4,0,0,0,.89-.53l1,1.42a4.46,4.46,0,0,1-2.89,1,4.26,4.26,0,0,1-2.23-.57,3.71,3.71,0,0,1-1.45-1.61,5.62,5.62,0,0,1-.51-2.47,5.9,5.9,0,0,1,.51-2.51,3.88,3.88,0,0,1,1.45-1.69,4.05,4.05,0,0,1,2.21-.6A4.63,4.63,0,0,1,434.18,74.29Z"/>
          <path class="cls-2" d="M444.2,79.43h-5.61a2.94,2.94,0,0,0,.68,1.86,2.07,2.07,0,0,0,1.51.56,3.2,3.2,0,0,0,1.12-.19,5.22,5.22,0,0,0,1.12-.6l.9,1.23a5.15,5.15,0,0,1-3.31,1.2,4,4,0,0,1-3.15-1.25,5,5,0,0,1-1.11-3.42,6.12,6.12,0,0,1,.47-2.46,3.9,3.9,0,0,1,1.37-1.71,4.08,4.08,0,0,1,5,.58,4.91,4.91,0,0,1,1,3.32Q444.25,78.72,444.2,79.43Zm-2.1-1.5q0-2.35-1.74-2.35a1.48,1.48,0,0,0-1.24.58,3.48,3.48,0,0,0-.53,1.87h3.52Z"/>
          <path class="cls-2" d="M453.37,75.27a6.23,6.23,0,0,1,.82,3.47,6.79,6.79,0,0,1-.41,2.46,3.73,3.73,0,0,1-1.22,1.68,3.06,3.06,0,0,1-1.9.61,2.79,2.79,0,0,1-2.25-1v4.18l-2.16.24V74.29h1.89l.12,1.1a3.35,3.35,0,0,1,1.19-1,3.13,3.13,0,0,1,1.39-.34A2.82,2.82,0,0,1,453.37,75.27Zm-1.45,3.48a4.86,4.86,0,0,0-.43-2.37,1.41,1.41,0,0,0-1.29-.72,1.68,1.68,0,0,0-1,.33,2.93,2.93,0,0,0-.8.89v4a1.9,1.9,0,0,0,1.64.93Q451.93,81.83,451.93,78.75Z"/>
          <path class="cls-2" d="M460.39,83.32a4.27,4.27,0,0,1-1.19.17,2.65,2.65,0,0,1-2-.75,3.08,3.08,0,0,1-.68-2.17V75.84h-1.4V74.29h1.4v-2l2.16-.25v2.23h2.08l-.22,1.56h-1.86v4.67a1.53,1.53,0,0,0,.23.95.86.86,0,0,0,.72.29,2.06,2.06,0,0,0,1.07-.34l.76,1.4A3.47,3.47,0,0,1,460.39,83.32Z"/>
          <path class="cls-2" d="M469.58,72.4a1.33,1.33,0,0,0-.28.94v.95h2.15l-.24,1.56h-1.91v7.39h-2.16V75.84h-1.45V74.29h1.45v-1a2.72,2.72,0,0,1,.82-2.05,3.23,3.23,0,0,1,2.33-.79,5.46,5.46,0,0,1,2.32.52L472,72.44a3.45,3.45,0,0,0-1.47-.34A1.22,1.22,0,0,0,469.58,72.4Z"/>
          <path class="cls-2" d="M479.32,75.29a5.06,5.06,0,0,1,1.11,3.46,5.74,5.74,0,0,1-.51,2.48,3.85,3.85,0,0,1-1.45,1.67,4.16,4.16,0,0,1-2.25.59,3.92,3.92,0,0,1-3.09-1.26A5.06,5.06,0,0,1,472,78.75a5.68,5.68,0,0,1,.51-2.47A3.84,3.84,0,0,1,474,74.63a4.2,4.2,0,0,1,2.26-.59A3.89,3.89,0,0,1,479.32,75.29Zm-5,3.46a4.44,4.44,0,0,0,.48,2.34,1.76,1.76,0,0,0,2.89,0,4.45,4.45,0,0,0,.48-2.33,4.4,4.4,0,0,0-.48-2.32,1.59,1.59,0,0,0-1.43-.75Q474.29,75.67,474.29,78.75Z"/>
          <path class="cls-2" d="M487.77,74.17l-.37,2.1a3.23,3.23,0,0,0-.79-.1,1.52,1.52,0,0,0-1.25.57,4.37,4.37,0,0,0-.73,1.75v4.75h-2.16V74.29h1.88l.2,1.76a3.21,3.21,0,0,1,.93-1.48,2.11,2.11,0,0,1,1.4-.52A3.19,3.19,0,0,1,487.77,74.17Z"/>
          <path class="cls-2" d="M499.35,75.1l-.84,1.3a3.89,3.89,0,0,0-2.2-.76,1.86,1.86,0,0,0-1,.25.75.75,0,0,0-.36.65.82.82,0,0,0,.15.51,1.4,1.4,0,0,0,.55.38,9.41,9.41,0,0,0,1.18.4,5.17,5.17,0,0,1,2.16,1,2.31,2.31,0,0,1,.7,1.79,2.4,2.4,0,0,1-1.08,2.09,4.6,4.6,0,0,1-2.69.75,5.7,5.7,0,0,1-2-.34,4.87,4.87,0,0,1-1.56-.93L493.4,81a3.76,3.76,0,0,0,2.4.9,2.1,2.1,0,0,0,1.17-.29.87.87,0,0,0,.44-.76,1.09,1.09,0,0,0-.16-.63,1.39,1.39,0,0,0-.58-.42,10.94,10.94,0,0,0-1.29-.44,4.32,4.32,0,0,1-2-1,2.31,2.31,0,0,1-.64-1.67,2.21,2.21,0,0,1,.43-1.33,2.87,2.87,0,0,1,1.22-.93,4.53,4.53,0,0,1,1.8-.34A5,5,0,0,1,499.35,75.1Z"/>
          <path class="cls-2" d="M508.52,75.27a6.23,6.23,0,0,1,.82,3.47,6.79,6.79,0,0,1-.41,2.46,3.73,3.73,0,0,1-1.22,1.68,3.06,3.06,0,0,1-1.9.61,2.79,2.79,0,0,1-2.25-1v4.18l-2.16.24V74.29h1.89l.12,1.1a3.35,3.35,0,0,1,1.19-1A3.13,3.13,0,0,1,506,74,2.82,2.82,0,0,1,508.52,75.27Zm-1.45,3.48a4.86,4.86,0,0,0-.43-2.37,1.41,1.41,0,0,0-1.29-.72,1.68,1.68,0,0,0-1,.33,2.93,2.93,0,0,0-.8.89v4a1.9,1.9,0,0,0,1.64.93Q507.08,81.83,507.07,78.75Z"/>
          <path class="cls-2" d="M518.76,79.43h-5.61a2.94,2.94,0,0,0,.68,1.86,2.07,2.07,0,0,0,1.51.56,3.2,3.2,0,0,0,1.12-.19,5.22,5.22,0,0,0,1.12-.6l.9,1.23a5.15,5.15,0,0,1-3.31,1.2A4,4,0,0,1,512,82.23a5,5,0,0,1-1.11-3.42,6.12,6.12,0,0,1,.47-2.46,3.9,3.9,0,0,1,1.37-1.71,4.08,4.08,0,0,1,5,.58,4.91,4.91,0,0,1,1,3.32Q518.81,78.72,518.76,79.43Zm-2.1-1.5q0-2.35-1.74-2.35a1.48,1.48,0,0,0-1.24.58,3.48,3.48,0,0,0-.53,1.87h3.52Z"/>
          <path class="cls-2" d="M526,74.29a4.22,4.22,0,0,1,1.33.79l-1,1.32a3.42,3.42,0,0,0-.86-.5,2.59,2.59,0,0,0-.93-.16q-2,0-2,3.06a3.73,3.73,0,0,0,.52,2.24,1.76,1.76,0,0,0,1.49.69,2.34,2.34,0,0,0,.89-.16,4,4,0,0,0,.89-.53l1,1.42a4.46,4.46,0,0,1-2.89,1,4.26,4.26,0,0,1-2.23-.57,3.71,3.71,0,0,1-1.45-1.61,5.62,5.62,0,0,1-.51-2.47,5.9,5.9,0,0,1,.51-2.51,3.88,3.88,0,0,1,1.45-1.69,4.05,4.05,0,0,1,2.21-.6A4.63,4.63,0,0,1,526,74.29Z"/>
          <path class="cls-2" d="M530.94,70.14a1.28,1.28,0,0,1,.38.94,1.25,1.25,0,0,1-.38.93,1.36,1.36,0,0,1-1,.37,1.33,1.33,0,0,1-1-.37,1.25,1.25,0,0,1-.38-.93,1.28,1.28,0,0,1,.38-.94,1.32,1.32,0,0,1,1-.38A1.34,1.34,0,0,1,530.94,70.14Zm-2.05,13.09V74.29H531v8.94Z"/>
          <path class="cls-2" d="M540.42,81.63a1,1,0,0,0,.52.38l-.46,1.44a2.85,2.85,0,0,1-1.24-.36,1.85,1.85,0,0,1-.74-.94,2.86,2.86,0,0,1-1.14,1,3.47,3.47,0,0,1-1.53.33,2.89,2.89,0,0,1-2.11-.76,2.66,2.66,0,0,1-.78-2A2.58,2.58,0,0,1,534,78.51a5.06,5.06,0,0,1,3-.77h1.12v-.51a1.55,1.55,0,0,0-.4-1.21,1.92,1.92,0,0,0-1.28-.35,7.58,7.58,0,0,0-2.37.47l-.51-1.47a9,9,0,0,1,3.25-.64q3.43,0,3.43,3.08v3.75A1.43,1.43,0,0,0,540.42,81.63Zm-2.29-.82V79h-.9q-2.1,0-2.1,1.56a1.43,1.43,0,0,0,.32,1,1.21,1.21,0,0,0,.95.36A1.91,1.91,0,0,0,538.13,80.81Z"/>
          <path class="cls-2" d="M545.08,81.58a.45.45,0,0,0,.39.16,1.59,1.59,0,0,0,.51-.08l.46,1.52a4,4,0,0,1-1.54.3,2,2,0,0,1-1.55-.58,2.41,2.41,0,0,1-.54-1.7V70.7l2.16-.24V81.05A.91.91,0,0,0,545.08,81.58Z"/>
          <path class="cls-2" d="M551.94,83.32a4.27,4.27,0,0,1-1.19.17,2.65,2.65,0,0,1-2-.75,3.08,3.08,0,0,1-.68-2.17V75.84h-1.4V74.29h1.4v-2l2.16-.25v2.23h2.08l-.22,1.56h-1.86v4.67a1.53,1.53,0,0,0,.23.95.86.86,0,0,0,.72.29,2.06,2.06,0,0,0,1.07-.34l.76,1.4A3.47,3.47,0,0,1,551.94,83.32Z"/>
          <path class="cls-2" d="M556.9,85.84a5.22,5.22,0,0,1-3,1.07l-.22-1.57a5.42,5.42,0,0,0,1.41-.38,2.27,2.27,0,0,0,.85-.65,4.35,4.35,0,0,0,.59-1.08h-.74l-2.84-8.94h2.3l1.94,7.51,2-7.51h2.23l-2.91,9A5.49,5.49,0,0,1,556.9,85.84Z"/>
          <path class="cls-2" d="M268.3,95.56a5.93,5.93,0,0,1,.88,3.48,6.57,6.57,0,0,1-.43,2.46,3.82,3.82,0,0,1-1.23,1.67,3,3,0,0,1-1.88.6,2.88,2.88,0,0,1-1.33-.3,3.1,3.1,0,0,1-1-.86l-.14.91h-1.91V91l2.16-.24v4.82a3.13,3.13,0,0,1,1.07-.92,3.06,3.06,0,0,1,3.84.9Zm-1.88,5.84a4.41,4.41,0,0,0,.49-2.36,4.62,4.62,0,0,0-.46-2.39,1.45,1.45,0,0,0-1.29-.7,2.11,2.11,0,0,0-1.78,1.22v4a2.52,2.52,0,0,0,.74.76,1.68,1.68,0,0,0,.93.27A1.53,1.53,0,0,0,266.43,101.4Z"/>
          <path class="cls-2" d="M276.59,103.52l-.12-1.25a3.32,3.32,0,0,1-1.16,1.13,3.21,3.21,0,0,1-1.58.37,2.34,2.34,0,0,1-1.85-.74,3,3,0,0,1-.65-2V94.58h2.16v6.15a1.73,1.73,0,0,0,.26,1.08,1,1,0,0,0,.84.32,2.18,2.18,0,0,0,1.81-1.27V94.58h2.16v8.94Z"/>
          <path class="cls-2" d="M283.26,101.87a.45.45,0,0,0,.39.16,1.58,1.58,0,0,0,.51-.08l.46,1.52a4,4,0,0,1-1.54.3,2,2,0,0,1-1.55-.58,2.41,2.41,0,0,1-.54-1.7V91l2.16-.24v10.58A.92.92,0,0,0,283.26,101.87Z"/>
          <path class="cls-2" d="M293.12,95.56A5.93,5.93,0,0,1,294,99a6.57,6.57,0,0,1-.43,2.46,3.82,3.82,0,0,1-1.23,1.67,3,3,0,0,1-1.88.6,2.88,2.88,0,0,1-1.33-.3,3.1,3.1,0,0,1-1-.86l-.14.91h-1.91V91l2.16-.24v4.82a3.13,3.13,0,0,1,1.07-.92,3.06,3.06,0,0,1,3.84.9Zm-1.88,5.84a4.41,4.41,0,0,0,.49-2.36,4.62,4.62,0,0,0-.46-2.39,1.45,1.45,0,0,0-1.29-.7,2.11,2.11,0,0,0-1.78,1.22v4a2.52,2.52,0,0,0,.74.76,1.68,1.68,0,0,0,.93.27A1.53,1.53,0,0,0,291.24,101.4Z"/>
          <path class="cls-2" d="M302.13,95.39l-.84,1.3a3.9,3.9,0,0,0-2.2-.76,1.85,1.85,0,0,0-1,.25.75.75,0,0,0-.36.65.82.82,0,0,0,.15.51,1.39,1.39,0,0,0,.55.38,9.22,9.22,0,0,0,1.18.4,5.17,5.17,0,0,1,2.16,1,2.31,2.31,0,0,1,.7,1.79,2.4,2.4,0,0,1-1.08,2.09,4.6,4.6,0,0,1-2.69.75,5.7,5.7,0,0,1-2-.34,4.87,4.87,0,0,1-1.56-.93l1.1-1.23a3.76,3.76,0,0,0,2.4.9,2.1,2.1,0,0,0,1.17-.29.87.87,0,0,0,.44-.76,1.09,1.09,0,0,0-.16-.63,1.39,1.39,0,0,0-.58-.41,10.76,10.76,0,0,0-1.29-.44,4.32,4.32,0,0,1-2-1,2.31,2.31,0,0,1-.64-1.67,2.21,2.21,0,0,1,.43-1.34,2.86,2.86,0,0,1,1.22-.93,4.53,4.53,0,0,1,1.8-.34A5,5,0,0,1,302.13,95.39Z"/>
          <path class="cls-2" d="M310.6,101.87a.45.45,0,0,0,.39.16,1.58,1.58,0,0,0,.51-.08l.46,1.52a4,4,0,0,1-1.54.3,2,2,0,0,1-1.55-.58,2.41,2.41,0,0,1-.54-1.7V91l2.16-.24v10.58A.92.92,0,0,0,310.6,101.87Z"/>
          <path class="cls-2" d="M315.45,90.43a1.28,1.28,0,0,1,.38.94,1.25,1.25,0,0,1-.38.93,1.36,1.36,0,0,1-1,.37,1.33,1.33,0,0,1-1-.37,1.25,1.25,0,0,1-.38-.93,1.28,1.28,0,0,1,.38-.94,1.32,1.32,0,0,1,1-.38A1.34,1.34,0,0,1,315.45,90.43Zm-2.05,13.09V94.58h2.16v8.94Z"/>
          <path class="cls-2" d="M318.16,103.52V91l2.16-.24v12.76Zm7.81,0h-2.49l-3.08-4.89,3-4.06h2.28l-3,3.94Z"/>
          <path class="cls-2" d="M334.24,99.72h-5.61a2.93,2.93,0,0,0,.68,1.86,2.06,2.06,0,0,0,1.51.56,3.17,3.17,0,0,0,1.12-.19,5.18,5.18,0,0,0,1.12-.6l.9,1.23a5.15,5.15,0,0,1-3.31,1.2,4,4,0,0,1-3.15-1.25,5,5,0,0,1-1.11-3.41,6.12,6.12,0,0,1,.47-2.46,3.9,3.9,0,0,1,1.37-1.71,4.08,4.08,0,0,1,5,.57,4.92,4.92,0,0,1,1,3.32Q334.29,99,334.24,99.72Zm-2.1-1.5q0-2.35-1.74-2.35a1.48,1.48,0,0,0-1.24.58,3.48,3.48,0,0,0-.53,1.87h3.52Z"/>
          <path class="cls-2" d="M345.69,94.58a4.22,4.22,0,0,1,1.33.79l-1,1.32a3.39,3.39,0,0,0-.86-.5,2.61,2.61,0,0,0-.93-.16q-2,0-2,3.06a3.73,3.73,0,0,0,.52,2.24,1.76,1.76,0,0,0,1.49.68,2.34,2.34,0,0,0,.89-.16,4,4,0,0,0,.89-.53l1,1.42a4.46,4.46,0,0,1-2.89,1,4.27,4.27,0,0,1-2.23-.57,3.71,3.71,0,0,1-1.45-1.62,5.61,5.61,0,0,1-.51-2.47,5.89,5.89,0,0,1,.51-2.51,3.88,3.88,0,0,1,1.45-1.69,4.05,4.05,0,0,1,2.21-.6A4.6,4.6,0,0,1,345.69,94.58Z"/>
          <path class="cls-2" d="M355.36,101.92a1,1,0,0,0,.52.38l-.46,1.44a2.85,2.85,0,0,1-1.24-.36,1.85,1.85,0,0,1-.74-.94,2.86,2.86,0,0,1-1.14,1,3.48,3.48,0,0,1-1.53.33,2.89,2.89,0,0,1-2.11-.76,2.66,2.66,0,0,1-.78-2,2.58,2.58,0,0,1,1.06-2.22,5.07,5.07,0,0,1,3-.77h1.12v-.51a1.55,1.55,0,0,0-.4-1.21A1.92,1.92,0,0,0,351.4,96a7.55,7.55,0,0,0-2.37.47L348.52,95a9,9,0,0,1,3.25-.64q3.43,0,3.43,3.08v3.75A1.43,1.43,0,0,0,355.36,101.92Zm-2.29-.82V99.29h-.9q-2.1,0-2.1,1.55a1.43,1.43,0,0,0,.32,1,1.21,1.21,0,0,0,.95.36A1.92,1.92,0,0,0,353.07,101.1Z"/>
          <path class="cls-2" d="M364.46,95a2.83,2.83,0,0,1,.67,2v6.48H363V97.38a1.72,1.72,0,0,0-.28-1.12,1,1,0,0,0-.82-.32,1.6,1.6,0,0,0-1,.35,4,4,0,0,0-.87,1v6.22h-2.16V94.58h1.88l.17,1.18a3.34,3.34,0,0,1,2.72-1.44A2.42,2.42,0,0,1,364.46,95Z"/>
          <path class="cls-2" d="M375.17,103.52h-1.91l-.15-1.13a3.15,3.15,0,0,1-1.07,1,2.92,2.92,0,0,1-1.49.37,2.88,2.88,0,0,1-2.52-1.27,6,6,0,0,1-.88-3.45,6.46,6.46,0,0,1,.44-2.46,3.8,3.8,0,0,1,1.26-1.67,3.19,3.19,0,0,1,1.94-.6,3,3,0,0,1,2.21,1V90.76l2.16.24Zm-3-1.67A2.86,2.86,0,0,0,373,101V96.89a2.82,2.82,0,0,0-.78-.71,1.78,1.78,0,0,0-.91-.24,1.56,1.56,0,0,0-1.38.77,4.32,4.32,0,0,0-.5,2.32,4.77,4.77,0,0,0,.44,2.38,1.41,1.41,0,0,0,1.29.72A1.85,1.85,0,0,0,372.18,101.85Z"/>
          <path class="cls-2" d="M384.89,99.72h-5.61a2.93,2.93,0,0,0,.68,1.86,2.06,2.06,0,0,0,1.51.56,3.17,3.17,0,0,0,1.12-.19,5.18,5.18,0,0,0,1.12-.6l.9,1.23a5.15,5.15,0,0,1-3.31,1.2,4,4,0,0,1-3.15-1.25A5,5,0,0,1,377,99.11a6.12,6.12,0,0,1,.47-2.46,3.9,3.9,0,0,1,1.37-1.71,4.08,4.08,0,0,1,5,.57,4.92,4.92,0,0,1,1,3.32Q384.94,99,384.89,99.72Zm-2.1-1.5q0-2.35-1.74-2.35a1.48,1.48,0,0,0-1.24.58,3.48,3.48,0,0,0-.53,1.87h3.52Z"/>
          <path class="cls-2" d="M389.13,101.87a.45.45,0,0,0,.39.16,1.58,1.58,0,0,0,.51-.08l.46,1.52a4,4,0,0,1-1.54.3,2,2,0,0,1-1.55-.58,2.41,2.41,0,0,1-.54-1.7V91l2.16-.24v10.58A.92.92,0,0,0,389.13,101.87Z"/>
          <path class="cls-2" d="M398.69,101.92a1,1,0,0,0,.52.38l-.46,1.44a2.85,2.85,0,0,1-1.24-.36,1.85,1.85,0,0,1-.74-.94,2.86,2.86,0,0,1-1.14,1,3.48,3.48,0,0,1-1.53.33A2.89,2.89,0,0,1,392,103a2.66,2.66,0,0,1-.78-2,2.58,2.58,0,0,1,1.06-2.22,5.07,5.07,0,0,1,3-.77h1.12v-.51a1.55,1.55,0,0,0-.4-1.21,1.92,1.92,0,0,0-1.28-.35,7.55,7.55,0,0,0-2.37.47L391.86,95a9,9,0,0,1,3.25-.64q3.43,0,3.43,3.08v3.75A1.43,1.43,0,0,0,398.69,101.92Zm-2.29-.82V99.29h-.9q-2.1,0-2.1,1.55a1.43,1.43,0,0,0,.32,1,1.21,1.21,0,0,0,.95.36A1.92,1.92,0,0,0,396.4,101.1Z"/>
          <path class="cls-2" d="M408.22,95.56A5.93,5.93,0,0,1,409.1,99a6.57,6.57,0,0,1-.43,2.46,3.82,3.82,0,0,1-1.23,1.67,3,3,0,0,1-1.88.6,2.88,2.88,0,0,1-1.33-.3,3.1,3.1,0,0,1-1-.86l-.14.91h-1.91V91l2.16-.24v4.82a3.13,3.13,0,0,1,1.07-.92,3.06,3.06,0,0,1,3.84.9Zm-1.88,5.84a4.41,4.41,0,0,0,.49-2.36,4.62,4.62,0,0,0-.46-2.39,1.45,1.45,0,0,0-1.29-.7,2.11,2.11,0,0,0-1.78,1.22v4a2.52,2.52,0,0,0,.74.76,1.68,1.68,0,0,0,.93.27A1.53,1.53,0,0,0,406.34,101.4Z"/>
          <path class="cls-2" d="M416.54,94.46l-.37,2.1a3.28,3.28,0,0,0-.79-.1,1.52,1.52,0,0,0-1.25.57,4.38,4.38,0,0,0-.73,1.75v4.75h-2.16V94.58h1.88l.2,1.76a3.21,3.21,0,0,1,.93-1.48,2.11,2.11,0,0,1,1.4-.52A3.22,3.22,0,0,1,416.54,94.46Z"/>
          <path class="cls-2" d="M424.33,101.92a1,1,0,0,0,.52.38l-.46,1.44a2.85,2.85,0,0,1-1.24-.36,1.85,1.85,0,0,1-.74-.94,2.86,2.86,0,0,1-1.14,1,3.48,3.48,0,0,1-1.53.33,2.89,2.89,0,0,1-2.11-.76,2.66,2.66,0,0,1-.78-2,2.58,2.58,0,0,1,1.06-2.22,5.07,5.07,0,0,1,3-.77H422v-.51a1.55,1.55,0,0,0-.4-1.21,1.92,1.92,0,0,0-1.28-.35,7.55,7.55,0,0,0-2.37.47L417.49,95a9,9,0,0,1,3.25-.64q3.43,0,3.43,3.08v3.75A1.43,1.43,0,0,0,424.33,101.92ZM422,101.1V99.29h-.9q-2.1,0-2.1,1.55a1.43,1.43,0,0,0,.32,1,1.21,1.21,0,0,0,.95.36A1.92,1.92,0,0,0,422,101.1Z"/>
          <path class="cls-2" d="M432.79,95.39l-.84,1.3a3.9,3.9,0,0,0-2.2-.76,1.85,1.85,0,0,0-1,.25.75.75,0,0,0-.36.65.82.82,0,0,0,.15.51,1.39,1.39,0,0,0,.55.38,9.22,9.22,0,0,0,1.18.4,5.17,5.17,0,0,1,2.16,1,2.31,2.31,0,0,1,.7,1.79A2.4,2.4,0,0,1,432,103a4.6,4.6,0,0,1-2.69.75,5.7,5.7,0,0,1-2-.34,4.87,4.87,0,0,1-1.56-.93l1.1-1.23a3.76,3.76,0,0,0,2.4.9,2.1,2.1,0,0,0,1.17-.29.87.87,0,0,0,.44-.76,1.09,1.09,0,0,0-.16-.63,1.39,1.39,0,0,0-.58-.41,10.76,10.76,0,0,0-1.29-.44,4.32,4.32,0,0,1-2-1,2.31,2.31,0,0,1-.64-1.67,2.21,2.21,0,0,1,.43-1.34,2.86,2.86,0,0,1,1.22-.93,4.53,4.53,0,0,1,1.8-.34A5,5,0,0,1,432.79,95.39Z"/>
        </g>
      </g>
    </g>
  </g>
</svg>
